<?xml version="1.0" encoding="iso-8859-1"?>
<!-- Generator: Adobe Illustrator 18.1.1, SVG Export Plug-In . SVG Version: 6.00 Build 0)  -->
<svg version="1.1" id="Capa_1" xmlns="http://www.w3.org/2000/svg" xmlns:xlink="http://www.w3.org/1999/xlink" x="0px" y="0px"
	 viewBox="0 0 42.758 42.758" style="enable-background:new 0 0 42.758 42.758;" xml:space="preserve">
<g>
	<g>
		<path d="M34.426,24.712c-1.267,0-2.463,0.293-3.539,0.801l-1.759-2.177h0.378c0.901,0,1.629-0.729,1.629-1.629
			c0-0.201-0.042-0.391-0.107-0.566c0.57-0.517,0.935-1.257,0.935-2.087c0-0.022-0.002-0.041-0.002-0.063
			c0-0.008,0.002-0.013,0.002-0.02c0.004-0.12-0.018-0.272-0.049-0.438c-0.005-0.025-0.008-0.05-0.015-0.075
			c-0.348-1.603-5.477-10.354-5.477-10.354c-0.857-2.222-2.294-1.705-4.05-1.028c-0.197,0.076-0.377,0.176-0.547,0.29l-10.224,6.556
			c-0.674,0.285-0.987,1.065-0.702,1.739c0.097,0.229,0.255,0.413,0.443,0.549l-0.052,0.008c0.37,2.443-0.042,6.401-0.711,8.812
			c-0.716-0.201-1.466-0.317-2.246-0.317C3.738,24.713,0,28.452,0,33.047c0,4.597,3.739,8.333,8.333,8.333s8.333-3.736,8.333-8.333
			c0-3.127-1.733-5.854-4.288-7.277c0.174-0.614,0.333-1.245,0.47-1.89c0.034,0.051,0.064,0.104,0.109,0.146l7.09,6.928
			c-0.524,0.104-0.89,0.357-0.89,0.843c0,0.662,0.678,1.199,1.515,1.199h1.465l0.756,0.739c0.179,0.175,0.42,0.271,0.671,0.271
			h2.589c0.479,4.145,4.004,7.373,8.273,7.373c4.595,0,8.332-3.736,8.332-8.333C42.758,28.451,39.02,24.712,34.426,24.712z
			 M30.448,28.028l3.281,4.056h-5.634C28.343,30.448,29.208,29.015,30.448,28.028z M29.239,26.534
			c-1.505,1.202-2.58,2.911-2.974,4.867c-0.05-0.113-0.121-0.218-0.208-0.312c-0.018-0.175-0.054-0.346-0.118-0.513l-0.112-0.249
			l2.302-5.166L29.239,26.534z M23.111,24.299h3.298l-1.64,3.681L23.111,24.299z M22.02,21.876h2.645
			c0.018,0.176,0.056,0.346,0.125,0.499h-2.546L22.02,21.876z M14.741,33.047c0,3.535-2.875,6.409-6.41,6.409
			s-6.41-2.875-6.41-6.409c0-3.533,2.875-6.41,6.41-6.41c0.58,0,1.14,0.085,1.676,0.229c-1.115,3.246-2.483,5.656-2.51,5.702
			l1.667,0.96c0.11-0.189,1.474-2.591,2.616-5.875C13.558,28.794,14.741,30.781,14.741,33.047z M13.094,22.537
			c0.274-1.746,0.356-4.793,0.102-6.545l8.343-5.52c0.037,0.441,3.562,6.158,4.273,7.488h-5.721
			c-0.043,0.009-0.08,0.018-0.121,0.024c-0.382-0.052-0.805-0.012-1.219,0.146c-1.067,0.409-1.672,1.414-1.354,2.247l0.876,1.996
			h-4.647C13.433,22.375,13.25,22.435,13.094,22.537z M19.119,24.299l2.355,5.363l-5.488-5.363
			C15.986,24.299,19.119,24.299,19.119,24.299z M34.426,39.455c-3.208,0-5.865-2.369-6.331-5.448h7.647
			c0.371,0,0.709-0.212,0.868-0.546s0.113-0.73-0.12-1.02l-4.349-5.377c0.711-0.272,1.479-0.429,2.284-0.429
			c3.534,0,6.41,2.875,6.41,6.41C40.835,36.58,37.959,39.455,34.426,39.455z"/>
		<circle cx="21.303" cy="3.936" r="2.557"/>
	</g>
	<g>
	</g>
	<g>
	</g>
	<g>
	</g>
	<g>
	</g>
	<g>
	</g>
	<g>
	</g>
	<g>
	</g>
	<g>
	</g>
	<g>
	</g>
	<g>
	</g>
	<g>
	</g>
	<g>
	</g>
	<g>
	</g>
	<g>
	</g>
	<g>
	</g>
</g>
<g>
</g>
<g>
</g>
<g>
</g>
<g>
</g>
<g>
</g>
<g>
</g>
<g>
</g>
<g>
</g>
<g>
</g>
<g>
</g>
<g>
</g>
<g>
</g>
<g>
</g>
<g>
</g>
<g>
</g>
</svg>
