<?xml version="1.0" encoding="iso-8859-1"?>
<!-- Generator: Adobe Illustrator 16.0.0, SVG Export Plug-In . SVG Version: 6.00 Build 0)  -->
<!DOCTYPE svg PUBLIC "-//W3C//DTD SVG 1.1//EN" "http://www.w3.org/Graphics/SVG/1.1/DTD/svg11.dtd">
<svg version="1.1" id="Capa_1" xmlns="http://www.w3.org/2000/svg" xmlns:xlink="http://www.w3.org/1999/xlink" x="0px" y="0px"
	 width="907.004px" height="907.004px" viewBox="0 0 907.004 907.004" style="enable-background:new 0 0 907.004 907.004;"
	 xml:space="preserve">
<g>
	<g>
		<path d="M892.2,560.202h-20.8v-37.7c0-36-24-67.6-58.7-77.2l-152-42.2l-88.9-114.7c-15.2-19.6-38.6-31-63.3-31H156.1
			c-32.3,18.9-55.5,44.6-72,73.4l-11.3,111.2l-7.1-70.5l-6.6-65.2c-0.4,0-0.8-0.1-1.2-0.1H15c-8.3,0-15,6.7-15,15v160.8
			c0,8.3,6.7,15,15,15h31.8c0.1,24.1,1.9,45.9,4,63.2H28c-8.3,0-15,6.7-15,15v49.8c0,8.3,6.7,15,15,15h81
			c3.6-30.2,17.7-58.9,39.7-79.9c19.5-18.699,46-32.199,73.1-35c2.1-0.3,3.3-0.399,3.3-0.399s-1.1,0.3-3.2,0.8
			c-24.4,6.1-46.8,19.8-63.1,38.9c-17.8,20.899-28.4,48-28.5,75.6c0,2.2,0,4.3,0.1,6.5c0.3,6.1,1.1,12.1,2.3,17.8
			c11,50.101,55.7,87.7,109.3,87.7c61.9,0,112-50.1,112-112h214.1c3.601-29.6,17.101-57.7,38.301-78.6
			c17.899-17.601,40.6-29.601,65.1-34.801c4-0.699,7.1-1.3,9.3-1.5c2.101-0.3,3.3-0.399,3.3-0.399s-1.1,0.3-3.199,0.8
			c-44.4,11.1-79.2,47.1-89,91.8c-2.101,9.5-3,19.3-2.5,29.101c0.399,8.3,1.699,16.3,3.699,23.899c2,7.5,4.7,14.5,7.801,20.8
			c2.3,4.601,4.8,8.9,7.399,12.7c20.2,29.101,53.9,48.101,92,48.101c61.9,0,112-50.101,112-112H892c8.3,0,15-6.7,15-15v-49.801
			C907.2,566.902,900.5,560.202,892.2,560.202z"/>
		<path d="M506,216.002c7.2,0,13-5.8,13-13v-35c0-7.2-5.8-13-13-13H158c-7.2,0-13,5.8-13,13v35c0,7.2,5.8,13,13,13H506z"/>
	</g>
</g>
<g>
</g>
<g>
</g>
<g>
</g>
<g>
</g>
<g>
</g>
<g>
</g>
<g>
</g>
<g>
</g>
<g>
</g>
<g>
</g>
<g>
</g>
<g>
</g>
<g>
</g>
<g>
</g>
<g>
</g>
</svg>
