<?xml version="1.0" encoding="iso-8859-1"?>
<!-- Generator: Adobe Illustrator 16.0.0, SVG Export Plug-In . SVG Version: 6.00 Build 0)  -->
<!DOCTYPE svg PUBLIC "-//W3C//DTD SVG 1.1//EN" "http://www.w3.org/Graphics/SVG/1.1/DTD/svg11.dtd">
<svg version="1.1" id="Capa_1" xmlns="http://www.w3.org/2000/svg" xmlns:xlink="http://www.w3.org/1999/xlink" x="0px" y="0px"
	 width="599.361px" height="599.36px" viewBox="0 0 599.361 599.36" style="enable-background:new 0 0 599.361 599.36;"
	 xml:space="preserve">
<g>
	<g>
		<path d="M538.299,0.14C508.619,0.103,446.889,0.027,425.52,0c-16.619-0.021-35.631,13.015-41.586,28.44l-15.482,39.158
			c-5.954,15.426-24.965,28.461-41.586,28.44c-15.863-0.02-38.502-0.02-54.365,0c-16.619,0.021-35.631-13.014-41.585-28.44
			L215.433,28.44C209.478,13.015,190.466-0.02,173.847,0c-21.37,0.026-83.103,0.103-112.781,0.14
			c-8.351,0-15.424,7.142-15.414,15.452L45.674,33.4c0.006,4.748,1.198,8.308,4.763,11.865c3.566,3.558,7.129,4.74,11.877,4.734
			c33.241-0.042,90.225-0.112,91.412-0.113c16.622-0.021,35.631,13.015,40.399,28.442c4.768,15.428,28.586,75.943,21.471,81.888
			c-2.371,2.377-16.615,4.769-30.86,4.787c-15.435,0.019-27.288,14.28-27.267,30.9l0.028,23.744
			c0.021,16.62-7.071,41.559-14.175,57.001c-23.682,49.889-39.026,121.14-38.987,153.191
			c0.063,51.049,48.837,131.717,101.072,131.65c14.246-0.018,15.418-11.892,15.415-14.267l-0.1-80.728
			c-0.037-29.68,27.236-54.645,55.729-54.679c15.488-0.021,20.251-0.026,23.229-0.03c2.979,0.004,7.742,0.012,23.23,0.03
			c28.492,0.034,55.766,24.999,55.729,54.679l-0.103,80.728c-0.002,2.375,1.17,14.249,15.417,14.267
			c52.234,0.064,101.008-80.604,101.071-131.65c0.04-32.053-15.307-103.304-38.986-153.191
			c-7.104-15.442-14.195-40.381-14.175-57.001l0.028-23.744c0.021-16.62-11.833-30.881-27.268-30.9
			c-14.247-0.018-28.488-2.41-30.859-4.787c-7.115-5.945,16.7-66.46,21.472-81.888c4.768-15.427,23.777-28.462,40.397-28.442
			c1.187,0.001,58.171,0.072,91.41,0.113c4.748,0.006,8.313-1.176,11.878-4.734c3.566-3.557,4.76-7.117,4.766-11.865l0.021-17.808
			C553.724,7.282,548.182,0,538.299,0.14z M300.528,274.08l-0.009-0.029c-0.165,0.006-1.675,0.029-1.675,0.029
			c-0.006,0-0.008,0-0.008,0c-37.99-1.14-68.895-31.968-68.939-68.77c-0.047-37.989,30.781-67.706,68.771-68.94h2.03
			c37.987,1.234,68.817,30.951,68.771,68.94C369.421,242.113,338.519,272.94,300.528,274.08z"/>
		<path d="M301.218,429.597c-28.492,0-51.048,22.557-51.048,51.048v71.229c0,26.118,21.369,47.486,47.486,47.486h3.562
			c26.117,0,47.486-21.368,47.486-47.486v-75.978C347.519,450.966,327.337,429.597,301.218,429.597z"/>
	</g>
</g>
<g>
</g>
<g>
</g>
<g>
</g>
<g>
</g>
<g>
</g>
<g>
</g>
<g>
</g>
<g>
</g>
<g>
</g>
<g>
</g>
<g>
</g>
<g>
</g>
<g>
</g>
<g>
</g>
<g>
</g>
</svg>
