<?xml version="1.0" encoding="iso-8859-1"?>
<!-- Generator: Adobe Illustrator 16.0.0, SVG Export Plug-In . SVG Version: 6.00 Build 0)  -->
<!DOCTYPE svg PUBLIC "-//W3C//DTD SVG 1.1//EN" "http://www.w3.org/Graphics/SVG/1.1/DTD/svg11.dtd">
<svg version="1.1" id="Capa_1" xmlns="http://www.w3.org/2000/svg" xmlns:xlink="http://www.w3.org/1999/xlink" x="0px" y="0px"
	 width="504.3px" height="504.299px" viewBox="0 0 504.3 504.299" style="enable-background:new 0 0 504.3 504.299;"
	 xml:space="preserve">
<g>
	<g>
		<path d="M310.315,137.622H23.764c-11.253,0-20.374,9.122-20.374,20.375v105.249c0,11.251,9.121,20.373,20.374,20.373h286.552
			c11.253,0,20.378-9.122,20.378-20.373V157.988C330.693,146.738,321.568,137.622,310.315,137.622z M211.636,155.047H39.602
			c-9.357,0-16.971,7.617-16.971,16.974v79.448H15.84v-79.448c0-13.108,10.662-23.765,23.762-23.765h172.034V155.047z"/>
		<path d="M63.486,131.507h40.062c3.565,0,6.45-2.89,6.45-6.449c0-3.557-2.89-6.449-6.45-6.449H63.486
			c-3.565,0-6.45,2.892-6.45,6.449C57.036,128.617,59.921,131.507,63.486,131.507z"/>
		<path d="M138.863,131.507h40.057c3.562,0,6.45-2.89,6.45-6.449c0-3.557-2.892-6.449-6.45-6.449h-40.057
			c-3.565,0-6.453,2.892-6.453,6.449C132.41,128.617,135.298,131.507,138.863,131.507z"/>
		<path d="M0,316.433v1.806c0,9.293,6.218,17.115,14.72,19.562c6.896-17.903,24.272-30.659,44.579-30.659
			c20.616,0,38.203,13.139,44.881,31.466h4.401c6.672-18.327,24.268-31.466,44.883-31.466c20.613,0,38.214,13.139,44.893,31.466
			h129.623v-42.553H20.367C9.115,296.061,0,305.176,0,316.433z"/>
		<path d="M57.713,314.616c-19.587,0-35.536,15.945-35.536,35.543c0,19.593,15.949,35.532,35.536,35.532
			c19.6,0,35.542-15.939,35.542-35.532C93.255,330.561,77.312,314.616,57.713,314.616z M57.713,374.83
			c-13.604,0-24.666-11.069-24.666-24.667c0-13.604,11.067-24.675,24.666-24.675c13.611,0,24.672,11.07,24.672,24.675
			C82.385,363.76,71.324,374.83,57.713,374.83z"/>
		<path d="M151.871,314.616c-19.594,0-35.535,15.945-35.535,35.543c0,19.593,15.941,35.532,35.535,35.532
			c19.596,0,35.537-15.939,35.537-35.532C187.408,330.561,171.472,314.616,151.871,314.616z M151.871,374.83
			c-13.606,0-24.67-11.069-24.67-24.667c0-13.604,11.071-24.675,24.67-24.675c13.599,0,24.672,11.07,24.672,24.675
			C176.543,363.76,165.479,374.83,151.871,374.83z"/>
		<path d="M416.927,314.616c-19.596,0-35.541,15.945-35.541,35.543c0,19.593,15.945,35.532,35.541,35.532
			s35.541-15.939,35.541-35.532C452.468,330.561,436.522,314.616,416.927,314.616z M416.927,374.83
			c-13.606,0-24.668-11.069-24.668-24.667c0-13.604,11.07-24.675,24.668-24.675c13.6,0,24.675,11.07,24.675,24.675
			C441.602,363.76,430.532,374.83,416.927,374.83z"/>
		<path d="M454.051,167.044c-4.133-5.541-9.833-6.791-13.587-6.791H351.06c-3.754,0-6.795,3.037-6.795,6.791v161.389
			c0,3.748,3.041,6.79,6.795,6.79h23.952c7.525-16.536,24.181-28.071,43.497-28.071c19.326,0,35.972,11.535,43.498,28.071h35.5
			c3.749,0,6.793-3.042,6.793-6.79v-80.354L454.051,167.044z M465.821,237.21h-94.843c-3.746,0-6.791-3.038-6.791-6.792v-50.704
			c0-3.75,3.045-6.788,6.791-6.788h55.453c10.358,0,13.266,2.421,15.619,6.788l30.555,50.704
			C472.615,234.172,469.567,237.21,465.821,237.21z M499.089,319.6c0,3.502-2.835,6.339-6.337,6.339s-6.335-2.837-6.335-6.339v-12
			c0-3.502,2.833-6.336,6.335-6.336s6.337,2.834,6.337,6.336V319.6z"/>
		<path d="M407.424,140.333h-59.078v13.582v2.713h83.788C432.134,156.628,422.36,140.333,407.424,140.333z"/>
	</g>
</g>
<g>
</g>
<g>
</g>
<g>
</g>
<g>
</g>
<g>
</g>
<g>
</g>
<g>
</g>
<g>
</g>
<g>
</g>
<g>
</g>
<g>
</g>
<g>
</g>
<g>
</g>
<g>
</g>
<g>
</g>
</svg>
