<?xml version="1.0" encoding="utf-8"?>
<!-- Generator: Adobe Illustrator 16.0.3, SVG Export Plug-In . SVG Version: 6.00 Build 0)  -->
<!DOCTYPE svg PUBLIC "-//W3C//DTD SVG 1.1//EN" "http://www.w3.org/Graphics/SVG/1.1/DTD/svg11.dtd">
<svg version="1.1" id="HLDV" xmlns="http://www.w3.org/2000/svg" xmlns:xlink="http://www.w3.org/1999/xlink" x="0px" y="0px"
	 width="160px" height="100px" viewBox="0 0 160 100" enable-background="new 0 0 160 100" xml:space="preserve">
<g>
	<path d="M129.548,49.437h8.529c0.478,0,0.718-0.238,0.718-0.716v-2.366c0-0.478-0.24-0.717-0.718-0.717h-8.529
		c-0.479,0-0.718,0.239-0.718,0.717v2.366C128.83,49.199,129.069,49.437,129.548,49.437z"/>
	<path d="M129.548,57.321h8.529c0.478,0,0.718-0.238,0.718-0.717v-2.437c0-0.479-0.24-0.717-0.718-0.717h-8.529
		c-0.479,0-0.718,0.238-0.718,0.717v2.437C128.83,57.083,129.069,57.321,129.548,57.321z"/>
	<path d="M121.807,45.638h-8.459c-0.478,0-0.718,0.239-0.718,0.717v2.366c0,0.478,0.24,0.716,0.718,0.716h8.459
		c0.477,0,0.717-0.238,0.717-0.716v-2.366C122.523,45.877,122.283,45.638,121.807,45.638z"/>
	<path d="M121.807,53.451h-8.459c-0.478,0-0.718,0.238-0.718,0.717v2.437c0,0.479,0.24,0.717,0.718,0.717h8.459
		c0.477,0,0.717-0.238,0.717-0.717v-2.437C122.523,53.689,122.283,53.451,121.807,53.451z"/>
	<path d="M134.89,5.561H24.811c-13.57,0-24.571,11.001-24.571,24.571v40.297C0.24,83.999,11.241,95,24.811,95H134.89
		c13.57,0,24.571-11.001,24.571-24.571V30.132C159.461,16.562,148.46,5.561,134.89,5.561z M85.823,20.944
		c0.575-0.548,1.242-0.824,2.007-0.824h12.903c0.333,0,0.5-0.143,0.5-0.43v-0.574c0-0.907,0.335-1.696,1.005-2.365
		c0.668-0.669,1.47-1.003,2.4-1.003c0.933,0,1.732,0.334,2.401,1.003c0.669,0.669,1.004,1.458,1.004,2.365v0.574
		c0,0.287,0.144,0.43,0.431,0.43h17.346c0.286,0,0.431-0.143,0.431-0.43v-0.502c0-0.956,0.332-1.768,1.002-2.437
		c0.67-0.669,1.482-1.003,2.438-1.003c0.956,0,1.768,0.334,2.438,1.003c0.669,0.669,1.004,1.481,1.004,2.437v0.502
		c0,0.287,0.167,0.43,0.502,0.43h13.189c0.764,0,1.432,0.275,2.006,0.824c0.573,0.551,0.86,1.219,0.86,2.007
		s-0.287,1.458-0.86,2.007c-0.574,0.549-1.242,0.824-2.006,0.824h-13.189c-0.335,0-0.502,0.168-0.502,0.502v0.574
		c0,1.051-0.383,1.959-1.147,2.723c-0.765,0.765-1.674,1.147-2.724,1.147c-0.286,0-0.431,0.143-0.431,0.429v1.291
		c0,0.479,0.239,0.717,0.718,0.717h15.912c0.669,0,1.242,0.228,1.721,0.681c0.477,0.455,0.717,1.016,0.717,1.685
		c0,0.669-0.24,1.243-0.717,1.72c-0.479,0.478-1.052,0.717-1.721,0.717h-15.912c-0.479,0-0.718,0.239-0.718,0.716v1.936
		c0,0.479,0.239,0.717,0.718,0.717h9.532c1.722,0,3.191,0.608,4.408,1.828c1.22,1.219,1.83,2.687,1.83,4.408v7.813
		c0,1.72-0.61,3.189-1.83,4.408c-1.217,1.218-2.687,1.827-4.408,1.827h-9.532c-0.479,0-0.718,0.24-0.718,0.718v2.149
		c0,0.479,0.239,0.718,0.718,0.718h17.131c0.669,0,1.243,0.239,1.72,0.717c0.478,0.478,0.717,1.063,0.717,1.756
		s-0.239,1.291-0.717,1.793c-0.477,0.5-1.051,0.753-1.72,0.753h-17.418c-0.286,0-0.431,0.142-0.431,0.429v1.003
		c0,0.86-0.311,1.603-0.931,2.222c-0.622,0.622-1.374,0.932-2.258,0.932c-0.885,0-1.625-0.31-2.223-0.932
		c-0.598-0.619-0.896-1.361-0.896-2.222v-1.003c0-0.287-0.169-0.429-0.502-0.429H105.32c-0.671,0-1.255-0.253-1.757-0.753
		c-0.5-0.502-0.752-1.1-0.752-1.793s0.252-1.278,0.752-1.756c0.502-0.478,1.086-0.717,1.757-0.717h16.486
		c0.477,0,0.717-0.238,0.717-0.718V62.34c0-0.478-0.24-0.718-0.717-0.718h-9.104c-1.72,0-3.19-0.609-4.408-1.827
		c-1.218-1.219-1.827-2.688-1.827-4.408v-7.813c0-1.721,0.609-3.189,1.827-4.408c1.218-1.219,2.688-1.828,4.408-1.828h9.104
		c0.477,0,0.717-0.239,0.717-0.717v-1.936c0-0.477-0.24-0.716-0.717-0.716h-15.339c-0.671,0-1.231-0.239-1.686-0.717
		c-0.454-0.477-0.681-1.051-0.681-1.72c0-0.668,0.227-1.23,0.681-1.685c0.454-0.454,1.015-0.681,1.686-0.681h15.625
		c0.287,0,0.431-0.144,0.431-0.43v-0.072c0-0.907,0.321-1.695,0.967-2.365c0.646-0.669,1.445-1.004,2.401-1.004
		c0.239,0,0.359-0.118,0.359-0.358V26.5c0-0.477-0.24-0.717-0.717-0.717h-16.988c-0.335,0-0.502,0.168-0.502,0.502v1.146
		c0,0.957-0.335,1.769-1.004,2.438c-0.669,0.67-1.469,1.003-2.401,1.003c-0.931,0-1.732-0.333-2.4-1.003
		c-0.67-0.669-1.005-1.481-1.005-2.438v-1.146c0-0.334-0.19-0.502-0.572-0.502H87.83c-0.765,0-1.432-0.275-2.007-0.824
		c-0.572-0.549-0.86-1.219-0.86-2.007S85.251,21.495,85.823,20.944z M98.941,38.542c0,0.097,0,0.215,0,0.359
		c-0.144,0.908-0.574,1.648-1.291,2.222c-0.574,0.43-1.218,0.645-1.936,0.645c-0.144,0-0.311-0.024-0.502-0.072
		c-0.859-0.095-1.601-0.477-2.222-1.147c-1.53-1.767-3.322-3.487-5.376-5.161c-0.573-0.478-0.859-1.099-0.859-1.863
		s0.31-1.386,0.931-1.864c0.718-0.525,1.529-0.812,2.438-0.86h0.071c0.906,0,1.721,0.286,2.437,0.86
		c2.103,1.625,3.942,3.25,5.52,4.874C98.678,37.109,98.941,37.777,98.941,38.542z M35.361,29.367v1.648
		c0,1.386-0.491,2.558-1.469,3.512c-0.98,0.957-2.163,1.434-3.548,1.434c-0.048,0.143-0.048,0.215,0,0.215
		c1.337,0.429,2.269,1.266,2.795,2.507c0.239,0.574,0.359,1.124,0.359,1.649c0,0.67-0.215,1.362-0.646,2.079
		c-0.859,1.482-1.792,2.962-2.795,4.444c-0.288,0.383-0.431,0.813-0.431,1.29v31.539c0,0.907-0.322,1.696-0.968,2.365
		c-0.645,0.67-1.433,1.004-2.365,1.004c-0.932,0-1.733-0.334-2.401-1.004c-0.67-0.669-1.003-1.458-1.003-2.365V56.748
		c0-0.144-0.061-0.238-0.18-0.287c-0.119-0.046-0.227-0.023-0.322,0.073c-1.53,1.719-3.107,3.321-4.73,4.801
		c-0.717,0.67-1.578,1.005-2.581,1.005c-0.048,0-0.096,0-0.143,0c-1.003,0-1.936-0.36-2.795-1.075
		c-0.67-0.573-1.004-1.326-1.004-2.259c0-0.932,0.359-1.707,1.075-2.328c3.298-2.725,6.379-5.926,9.247-9.606
		c2.867-3.679,5.256-7.478,7.168-11.397c0-0.046,0.023-0.072,0.071-0.072v-6.236c0-0.478-0.24-0.717-0.717-0.717H15.076
		c-0.908,0-1.673-0.323-2.293-0.968c-0.622-0.645-0.932-1.409-0.932-2.293c0-0.884,0.311-1.649,0.932-2.294
		c0.62-0.645,1.385-0.968,2.293-0.968h12.975c0.43,0,0.645-0.215,0.645-0.645v-2.438c0-0.907,0.322-1.685,0.967-2.33
		c0.646-0.645,1.434-0.967,2.366-0.967c0.932,0,1.72,0.322,2.365,0.967c0.646,0.645,0.968,1.422,0.968,2.33v2.438
		c0,0.429,0.215,0.645,0.646,0.645h15.984c0.43,0,0.644-0.215,0.644-0.645v-2.366c0-0.956,0.323-1.757,0.968-2.401
		c0.646-0.645,1.434-0.967,2.365-0.967c0.932,0,1.731,0.322,2.401,0.967c0.668,0.645,1.004,1.446,1.004,2.401v2.366
		c0,0.429,0.215,0.645,0.645,0.645h12.688c0.907,0,1.672,0.323,2.294,0.968c0.62,0.645,0.932,1.41,0.932,2.294
		c0,0.884-0.312,1.648-0.932,2.293c-0.622,0.645-1.387,0.968-2.294,0.968H60.091c-0.479,0-0.717,0.239-0.717,0.717v3.512
		c0,0.957-0.335,1.769-1.004,2.438c-0.67,0.669-1.469,1.003-2.401,1.003c-0.931,0-1.72-0.334-2.365-1.003
		c-0.645-0.669-0.968-1.481-0.968-2.438v-3.512c0-0.478-0.239-0.717-0.716-0.717H36.078C35.6,28.65,35.361,28.89,35.361,29.367z
		 M77.222,70.869c-0.526,4.254-1.469,7.191-2.831,8.816c-1.362,1.623-3.645,2.438-6.846,2.438H54.786
		c-4.014,0-6.726-0.707-8.135-2.114c-1.41-1.411-2.114-4.098-2.114-8.064V39.976c0-0.956,0.333-1.757,1.003-2.402
		c0.668-0.645,1.469-0.968,2.401-0.968c0.932,0,1.721,0.323,2.366,0.968c0.645,0.645,0.967,1.446,0.967,2.402v12.042
		c0,0.143,0.072,0.263,0.215,0.357c0.144,0.097,0.287,0.12,0.431,0.071c5.494-2.579,10.369-5.256,14.623-8.027
		c0.717-0.477,1.529-0.717,2.437-0.717c0.144,0,0.286,0,0.429,0c1.051,0.095,1.936,0.501,2.653,1.219
		c0.574,0.573,0.86,1.243,0.86,2.007c0,0.143,0,0.286,0,0.43c-0.096,0.908-0.55,1.601-1.362,2.078
		c-4.922,2.821-11.445,5.902-19.568,9.247c-0.479,0.192-0.717,0.526-0.717,1.005v12.256c0,1.577,0.251,2.579,0.753,3.011
		c0.501,0.43,1.636,0.646,3.405,0.646h11.684c1.385,0,2.34-0.478,2.866-1.435c0.525-0.954,0.884-2.985,1.076-6.093
		c0.047-0.764,0.417-1.325,1.111-1.685c0.692-0.357,1.397-0.394,2.115-0.107c0.956,0.431,1.695,1.053,2.222,1.864
		c0.477,0.716,0.717,1.457,0.717,2.222C77.222,70.51,77.222,70.678,77.222,70.869z M150.119,78.825
		c-0.335,0.907-0.86,1.648-1.577,2.222c-0.717,0.574-1.53,0.885-2.438,0.933c-6.88,0.144-13.213,0.215-18.994,0.215
		c-4.157,0-8.005-0.024-11.541-0.071c-4.204-0.191-7.776-0.885-10.715-2.079s-5.412-3.011-7.419-5.447
		c-0.336-0.382-0.67-0.405-1.003-0.073c-2.343,2.009-4.852,4.063-7.527,6.166c-0.479,0.382-1.002,0.573-1.577,0.573
		c-0.238,0-0.479-0.024-0.716-0.071c-0.861-0.192-1.481-0.694-1.864-1.506c-0.239-0.526-0.357-1.075-0.357-1.648
		c0-0.669,0.167-1.29,0.501-1.864c0.286-0.525,0.717-0.979,1.29-1.362c2.293-1.528,4.468-3.104,6.522-4.729
		c0.382-0.286,0.574-0.692,0.574-1.22V55.889c0-0.477-0.24-0.716-0.718-0.716h-5.232c-0.813,0-1.505-0.288-2.077-0.861
		c-0.575-0.574-0.86-1.255-0.86-2.043c0-0.789,0.285-1.471,0.86-2.042c0.572-0.574,1.265-0.861,2.077-0.861h6.021
		c1.721,0,3.19,0.609,4.408,1.828c1.218,1.22,1.828,2.688,1.828,4.408v12.544c0,0.526,0.143,0.98,0.431,1.362
		c2.866,4.301,8.05,6.594,15.553,6.88c2.771,0.098,6.237,0.145,10.395,0.145c1.577,0,3.272,0,5.088,0
		c6.499-0.096,12.187-0.263,17.06-0.503c0.718-0.046,1.291,0.24,1.722,0.86c0.238,0.383,0.358,0.789,0.358,1.219
		C150.191,78.348,150.166,78.586,150.119,78.825z"/>
</g>
</svg>
