<?xml version="1.0" encoding="utf-8"?>
<!-- Generator: Adobe Illustrator 16.0.3, SVG Export Plug-In . SVG Version: 6.00 Build 0)  -->
<!DOCTYPE svg PUBLIC "-//W3C//DTD SVG 1.1//EN" "http://www.w3.org/Graphics/SVG/1.1/DTD/svg11.dtd">
<svg version="1.1" id="KSDV" xmlns="http://www.w3.org/2000/svg" xmlns:xlink="http://www.w3.org/1999/xlink" x="0px" y="0px"
	 width="160px" height="100px" viewBox="0 0 160 100" enable-background="new 0 0 160 100" xml:space="preserve">
<g>
	<path d="M133.115,64.933h-6.888c-0.479,0-0.718,0.239-0.718,0.716v7.449c0,0.478,0.239,0.716,0.718,0.716h6.888
		c0.478,0,0.717-0.238,0.717-0.716v-7.449C133.832,65.172,133.593,64.933,133.115,64.933z"/>
	<path d="M135.02,5.57H24.834C11.251,5.57,0.24,16.582,0.24,30.165v40.336c0,13.583,11.012,24.595,24.594,24.595h110.183
		c13.584,0,24.597-11.012,24.597-24.595l0.002-40.336C159.616,16.582,148.602,5.57,135.02,5.57z M73.136,73.886
		c0,1.767-0.24,3.151-0.718,4.154c-0.479,1.003-1.339,1.766-2.583,2.292c-1.245,0.477-3.253,0.812-6.027,1.003
		c-0.144,0-0.312,0-0.502,0c-1.483,0-2.846-0.479-4.09-1.433c-1.388-1.051-2.487-2.412-3.3-4.083
		c-0.191-0.43-0.527-0.645-1.004-0.645H36.331c-0.24,0-0.358,0.12-0.358,0.358v0.215c0,0.813-0.287,1.504-0.861,2.077
		c-0.574,0.572-1.28,0.859-2.116,0.859c-0.837,0-1.542-0.287-2.117-0.859c-0.574-0.573-0.861-1.265-0.861-2.077V65.577
		c0-1.72,0.61-3.188,1.83-4.405s2.69-1.826,4.412-1.826h15.354c1.722,0,3.193,0.608,4.413,1.826s1.83,2.686,1.83,4.405v8.881
		c0,0.479,0.239,0.717,0.717,0.717c1.195,0.048,2.224,0.071,3.085,0.071s1.554-0.023,2.081-0.071
		c1.052-0.047,1.722-0.144,2.009-0.286c0.334-0.19,0.502-0.549,0.502-1.075V55.979c0-0.477-0.24-0.716-0.717-0.716H22.699
		c-0.479,0-0.718,0.239-0.718,0.716v22.348c0,0.906-0.323,1.684-0.968,2.328c-0.646,0.645-1.435,0.967-2.368,0.967
		s-1.722-0.322-2.368-0.967c-0.646-0.645-0.968-1.422-0.968-2.328V55.764c0-1.719,0.61-3.188,1.829-4.404
		c1.22-1.218,2.69-1.827,4.413-1.827h45.343c1.722,0,3.193,0.609,4.413,1.827c1.22,1.217,1.83,2.686,1.83,4.404V73.886z
		 M24.206,39.361v-2.865c0-1.719,0.61-3.188,1.83-4.405s2.69-1.827,4.413-1.827h26.976c1.722,0,3.193,0.609,4.413,1.827
		c1.219,1.218,1.829,2.686,1.829,4.405v2.865c0,1.719-0.61,3.188-1.829,4.405c-1.22,1.218-2.69,1.826-4.413,1.826H30.448
		c-1.722,0-3.193-0.608-4.413-1.826S24.206,41.081,24.206,39.361z M74.714,25.896c-0.574,0.573-1.268,0.86-2.081,0.86H15.238
		c-0.861,0-1.579-0.287-2.152-0.86c-0.574-0.573-0.861-1.277-0.861-2.113c0-0.835,0.287-1.54,0.861-2.113
		c0.574-0.573,1.291-0.86,2.152-0.86h24.178c0.43,0,0.646-0.215,0.646-0.645V17.73c0-1.003,0.334-1.838,1.004-2.507
		c0.669-0.668,1.494-1.002,2.475-1.002c0.98,0,1.805,0.334,2.476,1.002c0.669,0.669,1.004,1.504,1.004,2.507v2.435
		c0,0.43,0.215,0.645,0.646,0.645h24.967c0.813,0,1.507,0.287,2.081,0.86c0.574,0.573,0.861,1.278,0.861,2.113
		C75.575,24.619,75.289,25.323,74.714,25.896z M117.618,75.39c0,0.573-0.144,1.146-0.431,1.719
		c-0.431,0.717-1.053,1.218-1.865,1.505c-0.671,0.238-1.304,0.179-1.901-0.18c-0.599-0.358-0.969-0.896-1.112-1.611
		c-0.048-0.43-0.12-0.859-0.215-1.289c-0.049-0.334-0.216-0.453-0.503-0.358c-7.653,2.102-12.34,3.366-14.062,3.796
		c-0.287,0.096-0.574,0.144-0.861,0.144c-0.574,0-1.101-0.144-1.578-0.43c-0.813-0.43-1.363-1.074-1.65-1.934
		c-0.097-0.287-0.144-0.597-0.144-0.932c0-0.43,0.119-0.859,0.359-1.289c0.43-0.764,1.051-1.218,1.865-1.361
		c0.525-0.095,0.979-0.19,1.363-0.286c0.334-0.096,0.549-0.311,0.646-0.645c2.296-8.547,4.208-18.24,5.739-29.081
		c0.096-0.859,0.502-1.528,1.22-2.005c0.478-0.333,1.005-0.501,1.578-0.501c0.191,0,0.406,0.024,0.646,0.071
		c0.86,0.191,1.53,0.645,2.009,1.361c0.334,0.526,0.502,1.099,0.502,1.719c0,0.191-0.024,0.406-0.072,0.645
		c-2.009,10.554-3.97,19.316-5.883,26.288c-0.048,0.19-0.012,0.347,0.107,0.465c0.119,0.12,0.252,0.156,0.395,0.107
		c4.257-1.003,6.409-1.504,6.457-1.504c0.479-0.144,0.67-0.43,0.574-0.859c-0.622-2.769-1.244-5.275-1.865-7.521
		c-0.24-0.717-0.191-1.408,0.144-2.077c0.334-0.669,0.836-1.122,1.507-1.361c0.669-0.286,1.338-0.274,2.009,0.036
		c0.669,0.311,1.1,0.8,1.291,1.468c1.674,5.254,2.917,10.362,3.731,15.328C117.618,75.008,117.618,75.199,117.618,75.39z
		 M150.047,79.114c-0.622,0.62-1.363,0.931-2.225,0.931h-22.025c-0.191,0-0.287,0.096-0.287,0.287c0,0.812-0.287,1.504-0.861,2.077
		c-0.573,0.573-1.268,0.859-2.08,0.859h-0.216c-0.909,0-1.662-0.312-2.26-0.931c-0.599-0.622-0.896-1.361-0.896-2.221v-36.53
		c0-0.143-0.061-0.226-0.18-0.25c-0.12-0.023-0.204,0.012-0.251,0.107c-0.574,0.813-1.124,1.6-1.65,2.363
		c-0.526,0.765-1.268,1.146-2.224,1.146c-0.909,0-1.675-0.358-2.296-1.075c-0.718-0.763-1.076-1.694-1.076-2.793
		c0-0.906,0.287-1.719,0.861-2.435c1.435-1.91,2.821-4.035,4.161-6.375c0.095-0.095,0.095-0.215,0-0.358
		c-0.097-0.144-0.216-0.215-0.359-0.215h-15.568c-0.479,0-0.718,0.239-0.718,0.716c-0.335,7.879-1.268,15.471-2.798,22.777
		c-1.531,7.306-3.971,14.207-7.318,20.7c-0.383,0.812-1.004,1.313-1.865,1.504c-0.335,0.096-0.646,0.144-0.933,0.144
		c-0.526,0-1.053-0.144-1.578-0.43c-0.766-0.383-1.292-0.979-1.578-1.791c-0.144-0.333-0.216-0.668-0.216-1.003
		c0-0.477,0.119-0.931,0.358-1.36c5.644-10.791,8.896-24.305,9.758-40.541c0-0.19-0.071-0.358-0.215-0.501
		c-0.144-0.144-0.312-0.215-0.503-0.215h-5.237c-0.86,0-1.603-0.31-2.224-0.931c-0.622-0.62-0.933-1.372-0.933-2.256
		c0-0.883,0.311-1.623,0.933-2.221c0.621-0.596,1.363-0.895,2.224-0.895h5.381c0.478,0,0.741-0.238,0.789-0.716
		c0-1.193,0-2.912,0-5.157v-2.579c0-0.859,0.311-1.587,0.934-2.185c0.62-0.596,1.351-0.895,2.188-0.895s1.554,0.299,2.152,0.895
		c0.598,0.598,0.897,1.325,0.897,2.185v2.579c0,2.245,0,3.964,0,5.157c0,0.191,0.059,0.358,0.179,0.501
		c0.119,0.143,0.275,0.215,0.467,0.215h10.833c1.482,0,2.763,0.526,3.839,1.576c1.076,1.051,1.614,2.34,1.614,3.868
		c0,0.048,0.047,0.084,0.144,0.107c0.095,0.025,0.144,0.013,0.144-0.036c2.391-4.393,4.352-9.025,5.883-13.896
		c0.287-0.859,0.836-1.528,1.65-2.005c0.525-0.287,1.052-0.43,1.578-0.43c0.287,0,0.598,0.048,0.933,0.144
		c0.861,0.191,1.507,0.693,1.938,1.504c0.287,0.478,0.431,0.956,0.431,1.433c0,0.335-0.072,0.669-0.216,1.003
		c-0.957,2.913-2.033,5.778-3.229,8.595c-0.097,0.191-0.097,0.347,0,0.465c0.096,0.12,0.239,0.179,0.431,0.179h6.17
		c0.478,0,0.813-0.215,1.005-0.645c1.338-3.008,2.534-6.16,3.587-9.455c0.287-0.907,0.836-1.576,1.65-2.006
		c0.525-0.287,1.076-0.43,1.65-0.43c0.286,0,0.597,0.048,0.933,0.143c0.86,0.24,1.481,0.765,1.865,1.576
		c0.238,0.43,0.358,0.859,0.358,1.289c0,0.383-0.071,0.765-0.215,1.146c-1.148,2.818-2.272,5.396-3.372,7.736
		c-0.097,0.191-0.097,0.347,0,0.465c0.095,0.12,0.215,0.179,0.358,0.179h6.457c0.861,0,1.59,0.299,2.188,0.896
		c0.598,0.598,0.896,1.325,0.896,2.185c0,0.859-0.299,1.576-0.896,2.148c-0.599,0.573-1.327,0.86-2.188,0.86h-6.242
		c-0.479,0-0.717,0.239-0.717,0.716v7.234c0,0.478,0.238,0.716,0.717,0.716h5.524c0.813,0,1.495,0.287,2.045,0.86
		c0.55,0.573,0.825,1.253,0.825,2.041c0,0.788-0.275,1.469-0.825,2.042c-0.55,0.573-1.231,0.859-2.045,0.859h-5.524
		c-0.479,0-0.717,0.24-0.717,0.716v7.234c0,0.478,0.238,0.717,0.717,0.717h5.524c0.813,0,1.495,0.286,2.045,0.859
		c0.55,0.572,0.825,1.253,0.825,2.041s-0.275,1.469-0.825,2.041c-0.55,0.573-1.231,0.86-2.045,0.86h-5.524
		c-0.479,0-0.717,0.239-0.717,0.716v7.449c0,0.478,0.238,0.716,0.717,0.716h6.888c0.861,0,1.603,0.299,2.225,0.896
		c0.621,0.598,0.933,1.325,0.933,2.185S150.668,78.493,150.047,79.114z"/>
	<path d="M31.524,40.937h24.537c0.478,0,0.718-0.238,0.718-0.716v-4.513c0-0.477-0.24-0.716-0.718-0.716H31.524
		c-0.479,0-0.718,0.24-0.718,0.716v4.513C30.806,40.699,31.045,40.937,31.524,40.937z"/>
	<path d="M133.115,50.463h-6.888c-0.479,0-0.718,0.24-0.718,0.716v7.234c0,0.478,0.239,0.717,0.718,0.717h6.888
		c0.478,0,0.717-0.239,0.717-0.717V51.18C133.832,50.703,133.593,50.463,133.115,50.463z"/>
	<path d="M51.039,64.145H36.689c-0.479,0-0.717,0.239-0.717,0.716v4.799c0,0.479,0.239,0.717,0.717,0.717h14.349
		c0.478,0,0.717-0.238,0.717-0.717V64.86C51.756,64.384,51.516,64.145,51.039,64.145z"/>
	<path d="M133.115,35.995h-6.888c-0.479,0-0.718,0.239-0.718,0.716v7.234c0,0.478,0.239,0.716,0.718,0.716h6.888
		c0.478,0,0.717-0.238,0.717-0.716v-7.234C133.832,36.234,133.593,35.995,133.115,35.995z"/>
</g>
</svg>
