<?xml version="1.0" encoding="utf-8"?>
<!-- Generator: Adobe Illustrator 16.0.3, SVG Export Plug-In . SVG Version: 6.00 Build 0)  -->
<!DOCTYPE svg PUBLIC "-//W3C//DTD SVG 1.1//EN" "http://www.w3.org/Graphics/SVG/1.1/DTD/svg11.dtd">
<svg version="1.1" id="SCDV" xmlns="http://www.w3.org/2000/svg" xmlns:xlink="http://www.w3.org/1999/xlink" x="0px" y="0px"
	 width="160px" height="100px" viewBox="0 0 160 100" enable-background="new 0 0 160 100" xml:space="preserve">
<g>
	<path d="M134.904,5.5H25.096C11.512,5.5,0.5,16.511,0.5,30.095v40.809C0.5,84.488,11.512,95.5,25.096,95.5h109.808
		c13.584,0,24.596-11.012,24.596-24.596l0.001-40.809C159.501,16.511,148.488,5.5,134.904,5.5z M38.268,71.402
		c-0.766,0-1.435-0.287-2.009-0.861c-1.291-1.291-2.774-2.75-4.448-4.376c-0.096-0.096-0.204-0.119-0.323-0.072
		c-0.12,0.049-0.179,0.144-0.179,0.287v13.416c0,0.908-0.323,1.687-0.969,2.332c-0.646,0.646-1.423,0.969-2.332,0.969
		c-0.909,0-1.686-0.323-2.332-0.969c-0.646-0.646-0.969-1.424-0.969-2.332V66.595c0-0.095-0.061-0.154-0.179-0.179
		c-0.12-0.023-0.204-0.012-0.251,0.036c-1.244,1.865-2.547,3.611-3.91,5.237c-1.363,1.626-2.738,3.085-4.125,4.376
		c-0.574,0.527-1.22,0.789-1.937,0.789c-0.144,0-0.264,0-0.359,0c-0.909-0.095-1.675-0.502-2.296-1.22
		c-0.479-0.573-0.717-1.243-0.717-2.009c0-0.908,0.358-1.674,1.076-2.296c4.256-3.539,7.916-7.82,10.977-12.842
		c0.095-0.144,0.107-0.275,0.036-0.395s-0.204-0.18-0.395-0.18h-8.609c-0.814,0-1.507-0.287-2.081-0.861
		c-0.574-0.573-0.861-1.267-0.861-2.08c0-0.813,0.287-1.494,0.861-2.045c0.574-0.55,1.267-0.825,2.081-0.825h9.973
		c0.478,0,0.717-0.238,0.717-0.718v-5.237c0-0.478-0.24-0.717-0.717-0.717H13.803c-0.814,0-1.507-0.287-2.081-0.861
		c-0.574-0.574-0.861-1.267-0.861-2.081c0-0.813,0.287-1.494,0.861-2.044c0.574-0.55,1.267-0.825,2.081-0.825h3.946
		c0.191,0,0.347-0.072,0.466-0.216c0.119-0.144,0.18-0.311,0.18-0.502c-0.192-1.291-0.527-2.773-1.004-4.448
		c-0.144-0.431-0.215-0.86-0.215-1.291c0-0.718,0.19-1.41,0.574-2.081c0.574-1.1,1.435-1.793,2.583-2.08
		c0.047,0,0.072-0.023,0.072-0.072c0-0.047-0.025-0.071-0.072-0.071h-5.668c-0.766,0-1.424-0.275-1.973-0.825
		c-0.55-0.55-0.825-1.22-0.825-2.009c0-0.79,0.274-1.458,0.825-2.009c0.549-0.549,1.208-0.825,1.973-0.825h9.327
		c0.478,0,0.717-0.239,0.717-0.718V19.53c0-0.908,0.323-1.686,0.969-2.332c0.646-0.646,1.422-0.969,2.332-0.969
		c0.908,0,1.686,0.323,2.332,0.969c0.646,0.646,0.969,1.423,0.969,2.332v2.941c0,0.479,0.239,0.718,0.717,0.718h9.327
		c0.765,0,1.422,0.275,1.973,0.825c0.549,0.551,0.825,1.22,0.825,2.009c0,0.789-0.276,1.459-0.825,2.009
		c-0.55,0.55-1.208,0.825-1.973,0.825h-5.524c-0.048,0-0.072,0.024-0.072,0.071c0,0.049,0.023,0.072,0.072,0.072
		c1.195,0.287,2.081,0.98,2.654,2.08c0.334,0.574,0.502,1.173,0.502,1.794c0,0.526-0.12,1.053-0.359,1.578
		c-0.766,1.914-1.411,3.42-1.937,4.521c-0.096,0.144-0.096,0.286,0,0.43c0.095,0.144,0.239,0.216,0.431,0.216h4.95
		c0.813,0,1.494,0.275,2.045,0.825c0.549,0.55,0.825,1.231,0.825,2.044c0,0.814-0.275,1.507-0.825,2.081
		c-0.551,0.574-1.232,0.861-2.045,0.861H32.026c-0.479,0-0.717,0.239-0.717,0.717v5.237c0,0.479,0.239,0.718,0.717,0.718h9.399
		c0.764,0,1.435,0.275,2.009,0.825c0.574,0.551,0.861,1.232,0.861,2.045c0,0.813-0.287,1.507-0.861,2.08
		c-0.574,0.574-1.245,0.861-2.009,0.861h-9.471c-0.43,0-0.646,0.204-0.646,0.609c0,0.407,0.167,0.73,0.502,0.969
		c1.674,1.196,4.377,3.325,8.107,6.386c0.669,0.526,1.052,1.244,1.148,2.152c0.047,0.144,0.072,0.264,0.072,0.358
		c0,0.766-0.24,1.435-0.717,2.009c-0.527,0.671-1.196,1.005-2.009,1.005C38.363,71.402,38.315,71.402,38.268,71.402z M76.723,45.502
		c-0.622,0.622-1.363,0.933-2.224,0.933h-3.874c-0.479,0-0.717,0.24-0.717,0.718V79.51c0,0.907-0.312,1.686-0.933,2.331
		c-0.623,0.646-1.399,0.969-2.332,0.969s-1.722-0.323-2.368-0.969c-0.646-0.646-0.968-1.424-0.968-2.331V47.152
		c0-0.478-0.24-0.718-0.718-0.718h-8.035c-0.479,0-0.718,0.24-0.718,0.718c0,14.876-3.062,26.14-9.183,33.792
		c-0.527,0.621-1.196,0.933-2.009,0.933c-0.048,0-0.097,0-0.144,0c-0.861-0.048-1.627-0.384-2.296-1.005
		c-0.67-0.622-1.029-1.388-1.076-2.296c-0.048-0.096-0.072-0.215-0.072-0.358c0-0.718,0.239-1.387,0.717-2.009
		c1.625-2.104,2.978-4.388,4.054-6.852c1.076-2.463,1.841-5.033,2.296-7.713c0.454-2.678,0.765-5.104,0.933-7.282
		c0.167-2.176,0.251-4.627,0.251-7.354V25.844c0-1.051,0.431-1.913,1.292-2.583c0.574-0.431,1.195-0.646,1.865-0.646
		c0.287,0,0.598,0.048,0.933,0.144c0.334,0.096,0.646,0.12,0.933,0.072c6.457-1.53,11.694-3.108,15.712-4.735
		c0.718-0.287,1.482-0.43,2.296-0.43c0.287,0,0.598,0.024,0.933,0.072c1.1,0.143,2.056,0.574,2.87,1.291
		c0.526,0.479,0.789,1.053,0.789,1.722c0,0.144,0,0.287,0,0.43c-0.144,0.861-0.622,1.435-1.435,1.722
		c-5.166,1.962-11.479,3.684-18.94,5.166c-0.479,0.096-0.718,0.383-0.718,0.86v10.475c0,0.479,0.239,0.718,0.718,0.718h19.945
		c0.861,0,1.602,0.312,2.224,0.933c0.621,0.622,0.933,1.363,0.933,2.225C77.656,44.139,77.344,44.881,76.723,45.502z
		 M150.119,34.382c-0.671,0.67-1.46,1.004-2.368,1.004h-6.241c-0.479,0-0.718,0.24-0.718,0.718V72.98
		c0,2.057-0.251,3.636-0.753,4.735c-0.503,1.1-1.399,1.912-2.69,2.439c-1.627,0.717-4.568,1.147-8.825,1.291
		c-0.048,0-0.12,0-0.215,0c-0.958,0-1.842-0.312-2.655-0.933c-0.86-0.718-1.459-1.603-1.793-2.654
		c-0.097-0.335-0.144-0.621-0.144-0.861c0-0.525,0.144-1.027,0.431-1.507c0.478-0.717,1.147-1.076,2.009-1.076h0.071
		c1.817,0.049,3.803,0.072,5.955,0.072c1.052-0.047,1.578-0.574,1.578-1.578V36.104c0-0.478-0.239-0.718-0.717-0.718h-8.18
		c-0.479,0-0.813,0.216-1.004,0.646c-1.579,3.636-3.229,6.816-4.95,9.543c-0.479,0.813-1.196,1.268-2.152,1.362
		c-0.192,0.049-0.359,0.072-0.503,0.072c-0.766,0-1.482-0.239-2.152-0.718c-0.766-0.525-1.244-1.267-1.435-2.224
		c-0.048-0.239-0.072-0.454-0.072-0.646c0-0.67,0.191-1.292,0.574-1.866c1.052-1.625,2.104-3.467,3.157-5.524
		c0.095-0.144,0.095-0.286,0-0.43c-0.097-0.144-0.216-0.216-0.359-0.216h-9.9c-0.479,0-0.718,0.24-0.718,0.718v42.043
		c0,0.956-0.335,1.769-1.004,2.439c-0.671,0.669-1.483,1.004-2.439,1.004c-0.958,0-1.771-0.335-2.439-1.004
		c-0.671-0.671-1.005-1.483-1.005-2.439V36.104c0-0.478-0.239-0.718-0.717-0.718h-0.789c-0.479,0-0.814,0.216-1.005,0.646
		c-1.675,3.779-3.325,6.984-4.95,9.614c-0.527,0.861-1.292,1.363-2.296,1.507c-0.191,0.048-0.407,0.071-0.646,0.071
		c-0.766,0-1.483-0.238-2.153-0.717c-0.813-0.526-1.315-1.268-1.506-2.225c-0.049-0.287-0.072-0.549-0.072-0.789
		c0-0.669,0.191-1.291,0.574-1.865c4.064-6.026,7.342-13.99,9.829-23.891c0.239-1.005,0.789-1.794,1.65-2.368
		c0.621-0.382,1.291-0.574,2.009-0.574c0.287,0,0.549,0.025,0.789,0.072c0.956,0.192,1.722,0.718,2.296,1.579
		c0.334,0.527,0.502,1.101,0.502,1.722c0,0.335-0.048,0.646-0.144,0.933c-0.813,2.918-1.722,5.883-2.726,8.896
		c-0.049,0.144-0.025,0.287,0.071,0.431c0.096,0.144,0.239,0.215,0.431,0.215h12.771c1.339,0,2.486,0.479,3.443,1.436
		s1.436,2.104,1.436,3.443c0,0.048,0.036,0.084,0.107,0.107c0.071,0.025,0.107,0.013,0.107-0.035c2.056-4.448,3.874-9.781,5.453-16
		c0.238-0.957,0.765-1.697,1.578-2.224c0.621-0.431,1.267-0.646,1.938-0.646c0.238,0,0.478,0.048,0.717,0.144
		c0.956,0.144,1.674,0.622,2.152,1.435c0.334,0.574,0.503,1.148,0.503,1.722c0,0.287-0.025,0.574-0.072,0.861
		c-0.861,3.157-1.771,6.17-2.727,9.04c-0.048,0.191-0.024,0.358,0.072,0.502c0.095,0.144,0.238,0.215,0.431,0.215h20.231
		c0.908,0,1.697,0.336,2.368,1.005c0.669,0.67,1.004,1.459,1.004,2.367C151.123,32.923,150.788,33.712,150.119,34.382z"/>
	<path d="M35.542,39.547c0-0.047-0.024-0.071-0.072-0.071c-1.196-0.239-2.057-0.908-2.583-2.009
		c-0.335-0.621-0.502-1.243-0.502-1.865c0-0.478,0.072-0.957,0.215-1.436c0.574-1.674,1.051-3.203,1.435-4.592
		c0.047-0.19,0.024-0.358-0.071-0.502c-0.097-0.144-0.24-0.215-0.431-0.215H21.91c-0.192,0-0.335,0.071-0.431,0.215
		c-0.096,0.144-0.096,0.287,0,0.431c0.717,1.627,1.315,3.349,1.793,5.166c0.095,0.335,0.144,0.67,0.144,1.004
		c0,0.671-0.191,1.316-0.574,1.938c-0.622,0.957-1.483,1.578-2.583,1.865v0.144h15.21C35.517,39.619,35.542,39.596,35.542,39.547z"
		/>
</g>
</svg>
