<?xml version="1.0" encoding="utf-8"?>
<!-- Generator: Adobe Illustrator 16.0.3, SVG Export Plug-In . SVG Version: 6.00 Build 0)  -->
<!DOCTYPE svg PUBLIC "-//W3C//DTD SVG 1.1//EN" "http://www.w3.org/Graphics/SVG/1.1/DTD/svg11.dtd">
<svg version="1.1" id="TNDV" xmlns="http://www.w3.org/2000/svg" xmlns:xlink="http://www.w3.org/1999/xlink" x="0px" y="0px"
	 width="160px" height="100px" viewBox="0 0 160 100" enable-background="new 0 0 160 100" xml:space="preserve">
<g>
	<path d="M27.578,41.484h32.716c0.478,0,0.718-0.239,0.718-0.718v-2.08c0-0.478-0.24-0.718-0.718-0.718H27.578
		c-0.479,0-0.717,0.24-0.717,0.718v2.08C26.86,41.245,27.099,41.484,27.578,41.484z"/>
	<path d="M55.738,62.183c0.023-0.071,0.011-0.131-0.036-0.179c-1.148-0.574-2.272-1.101-3.372-1.579
		c-0.287-0.144-0.455-0.37-0.502-0.682c-0.048-0.311,0.047-0.562,0.287-0.753c0-0.047-0.025-0.072-0.072-0.072H39.272
		c-0.479,0-0.861,0.169-1.148,0.503c-0.814,0.909-1.579,1.698-2.296,2.367c-0.097,0.097-0.108,0.204-0.036,0.323
		c0.072,0.12,0.155,0.179,0.251,0.179H55.63C55.677,62.29,55.713,62.255,55.738,62.183z"/>
	<path d="M134.904,5.5H25.096C11.512,5.5,0.5,16.511,0.5,30.095v40.809C0.5,84.488,11.512,95.5,25.096,95.5h109.808
		c13.584,0,24.596-11.012,24.596-24.596h0.001V30.095C159.501,16.511,148.488,5.5,134.904,5.5z M75.181,80.908
		c-0.455,0.454-1.017,0.682-1.686,0.682H14.52c-0.67,0-1.232-0.228-1.686-0.682c-0.455-0.455-0.682-1.017-0.682-1.686
		c0-0.671,0.227-1.232,0.682-1.687c0.454-0.454,1.016-0.682,1.686-0.682h25.039c0.478,0,0.718-0.238,0.718-0.717v-1.794
		c0-0.478-0.24-0.718-0.718-0.718H21.408c-0.622,0-1.137-0.215-1.542-0.646c-0.407-0.431-0.61-0.933-0.61-1.507
		s0.203-1.076,0.61-1.507c0.406-0.43,0.92-0.646,1.542-0.646h18.151c0.478,0,0.718-0.238,0.718-0.717v-1.579
		c0-0.478-0.24-0.692-0.718-0.646c-0.766,0-7.342,0.048-19.73,0.144c-0.622,0-1.16-0.203-1.614-0.609
		c-0.455-0.406-0.706-0.921-0.753-1.543c0-0.574,0.19-1.076,0.574-1.507c0.382-0.431,0.885-0.646,1.507-0.646l7.892,0.071
		c0.478,0,0.861-0.19,1.147-0.573c0.191-0.239,0.49-0.61,0.897-1.112c0.406-0.502,0.705-0.872,0.897-1.112
		c0.095-0.144,0.119-0.274,0.072-0.395c-0.048-0.119-0.144-0.18-0.287-0.18h-7.749c-0.527,0-0.993-0.19-1.399-0.573
		c-0.407-0.383-0.61-0.849-0.61-1.399c0-0.549,0.203-1.016,0.61-1.398c0.406-0.383,0.872-0.574,1.399-0.574h42.617
		c0.526,0,0.992,0.191,1.399,0.574c0.406,0.383,0.61,0.85,0.61,1.398c0,0.551-0.204,1.017-0.61,1.399
		c-0.407,0.383-0.873,0.573-1.399,0.573h-4.52c-0.096,0-0.144,0.036-0.144,0.108c0,0.071,0.024,0.132,0.072,0.179
		c3.109,1.531,5.979,3.134,8.609,4.808c0.574,0.383,0.885,0.921,0.933,1.614c0.047,0.693-0.192,1.255-0.718,1.686
		c-0.574,0.527-1.255,0.802-2.044,0.825c-0.79,0.024-1.519-0.18-2.188-0.609c-0.574-0.431-1.172-0.861-1.793-1.292
		c-0.335-0.19-0.694-0.287-1.076-0.287c-3.205,0.097-7.964,0.192-14.277,0.287c-0.479,0-0.718,0.24-0.718,0.718v1.65
		c0,0.479,0.239,0.717,0.718,0.717h19.371c0.574,0,1.064,0.216,1.471,0.646c0.406,0.431,0.61,0.933,0.61,1.507
		s-0.204,1.076-0.61,1.507c-0.407,0.431-0.896,0.646-1.471,0.646H47.882c-0.479,0-0.718,0.24-0.718,0.718v1.794
		c0,0.479,0.239,0.717,0.718,0.717h25.613c0.669,0,1.231,0.228,1.686,0.682c0.454,0.454,0.682,1.016,0.682,1.687
		C75.862,79.892,75.635,80.453,75.181,80.908z M69.549,47.798c1.482,0,2.737,0.527,3.767,1.578c1.028,1.053,1.542,2.296,1.542,3.731
		v2.08c0,0.861-0.312,1.614-0.933,2.26c-0.622,0.646-1.388,0.969-2.296,0.969c-0.909,0-1.675-0.322-2.296-0.969
		c-0.622-0.646-0.933-1.398-0.933-2.26v-2.224c0-0.431-0.215-0.646-0.646-0.646H19.901c-0.43,0-0.646,0.216-0.646,0.646v2.367
		c0,0.861-0.299,1.591-0.897,2.188c-0.599,0.599-1.327,0.896-2.188,0.896s-1.591-0.298-2.188-0.896
		c-0.599-0.598-0.896-1.327-0.896-2.188v-2.224c0-1.436,0.513-2.679,1.542-3.731c1.028-1.051,2.283-1.578,3.767-1.578H69.549z
		 M20.475,39.763c0-1.482,0.526-2.75,1.578-3.803c1.052-1.052,2.343-1.578,3.875-1.578h36.303c1.53,0,2.821,0.526,3.874,1.578
		c1.052,1.053,1.579,2.32,1.579,3.803s-0.527,2.751-1.579,3.802c-1.053,1.053-2.344,1.579-3.874,1.579H25.928
		c-1.531,0-2.823-0.526-3.875-1.579C21.001,42.514,20.475,41.245,20.475,39.763z M75.36,23.656
		c-0.431,0.455-0.958,0.682-1.579,0.682h-25.9c-0.479,0-0.718,0.24-0.718,0.717v1.722c0,0.479,0.239,0.718,0.718,0.718h20.447
		c0.621,0,1.136,0.204,1.542,0.609c0.406,0.407,0.61,0.897,0.61,1.471c0,0.574-0.204,1.065-0.61,1.471
		c-0.407,0.407-0.921,0.61-1.542,0.61H19.614c-0.623,0-1.137-0.203-1.542-0.61c-0.407-0.405-0.61-0.896-0.61-1.471
		c0-0.573,0.203-1.063,0.61-1.471c0.406-0.405,0.92-0.609,1.542-0.609h19.945c0.478,0,0.718-0.239,0.718-0.718v-1.722
		c0-0.478-0.24-0.717-0.718-0.717H14.233c-0.623,0-1.148-0.227-1.579-0.682c-0.431-0.454-0.646-0.992-0.646-1.614
		c0-0.621,0.215-1.148,0.646-1.579s0.956-0.646,1.579-0.646h25.613c0.287,0,0.431-0.144,0.431-0.431v-0.215
		c0-0.956,0.334-1.769,1.004-2.439c0.669-0.669,1.482-1.004,2.439-1.004c0.956,0,1.769,0.335,2.439,1.004
		c0.669,0.67,1.004,1.483,1.004,2.439v0.215c0,0.287,0.144,0.431,0.431,0.431h26.187c0.621,0,1.148,0.215,1.579,0.646
		c0.43,0.431,0.646,0.958,0.646,1.579C76.006,22.664,75.791,23.202,75.36,23.656z M120.416,70.11v8.107
		c0,0.908-0.312,1.674-0.933,2.296c-0.622,0.621-1.388,0.933-2.296,0.933c-0.909,0-1.675-0.312-2.296-0.933
		c-0.622-0.622-0.933-1.388-0.933-2.296V70.11c0-0.478-0.239-0.717-0.717-0.717h-11.336c-0.718,0-1.353-0.263-1.901-0.789
		c-0.551-0.526-0.825-1.172-0.825-1.938c0-0.765,0.274-1.41,0.825-1.938c0.549-0.525,1.184-0.789,1.901-0.789h11.336
		c0.478,0,0.717-0.238,0.717-0.718v-4.878c0-0.478-0.239-0.718-0.717-0.718h-9.829c-0.766,0-1.399-0.263-1.901-0.789
		c-0.503-0.525-0.754-1.159-0.754-1.901c0-0.741,0.251-1.374,0.754-1.901c0.502-0.525,1.136-0.789,1.901-0.789h3.372
		c0.19,0,0.334-0.071,0.43-0.215s0.119-0.311,0.072-0.503c-0.431-1.481-1.076-3.156-1.938-5.021
		c-0.335-0.621-0.358-1.256-0.071-1.901s0.765-1.064,1.435-1.256c0.334-0.047,0.646-0.071,0.933-0.071
		c0.478,0,0.956,0.096,1.436,0.286c0.764,0.287,1.314,0.79,1.649,1.507c0.431,0.861,0.837,1.723,1.22,2.583
		c0.19,0.384,0.287,0.789,0.287,1.22c0,0.479-0.12,0.957-0.358,1.435c-0.479,0.909-1.196,1.507-2.152,1.794v0.144h10.905
		c0.478,0,0.813-0.215,1.004-0.646c0.908-2.152,1.674-4.185,2.296-6.099c0.287-0.861,0.837-1.507,1.65-1.938
		c0.525-0.334,1.076-0.502,1.65-0.502c0.238,0,0.478,0.024,0.717,0.072c0.813,0.191,1.41,0.646,1.794,1.363
		c0.19,0.383,0.287,0.789,0.287,1.219c0,0.336-0.072,0.671-0.215,1.005c-0.861,2.057-1.579,3.684-2.152,4.879
		c-0.097,0.144-0.097,0.287,0,0.431c0.095,0.144,0.215,0.215,0.358,0.215h3.587c0.765,0,1.41,0.264,1.938,0.789
		c0.525,0.527,0.789,1.16,0.789,1.901c0,0.742-0.264,1.376-0.789,1.901c-0.527,0.526-1.173,0.789-1.938,0.789h-10.475
		c-0.479,0-0.718,0.24-0.718,0.718v4.878c0,0.479,0.239,0.718,0.718,0.718h11.838c0.718,0,1.351,0.264,1.901,0.789
		c0.549,0.527,0.825,0.789,0.825,0.789s0,0.384,0,1.148c0,0.766-0.276,1.411-0.825,1.938c-0.551,0.526-1.184,0.789-1.901,0.789
		h-11.838C120.655,69.394,120.416,69.633,120.416,70.11z M148.54,28.068c-0.622,0.622-1.362,0.933-2.224,0.933H120.99
		c-0.479,0-0.742,0.239-0.789,0.717c-0.24,1.675-0.527,3.444-0.861,5.31c0,0.144,0.06,0.287,0.18,0.431
		c0.119,0.144,0.274,0.215,0.467,0.215h19.944c1.723,0,3.193,0.61,4.413,1.83c1.22,1.219,1.829,2.69,1.829,4.412v33.792
		c0,1.865-0.264,3.275-0.789,4.232c-0.527,0.957-1.435,1.674-2.727,2.152c-1.675,0.67-4.831,1.005-9.471,1.005
		c-0.908,0-1.746-0.275-2.511-0.825c-0.766-0.551-1.316-1.28-1.65-2.188c-0.286-0.67-0.239-1.304,0.144-1.901
		c0.383-0.599,0.933-0.872,1.65-0.824c1.195,0,2.271,0,3.229,0c1.387,0,2.559-0.024,3.516-0.072c0.621,0,1.052-0.107,1.291-0.323
		c0.239-0.215,0.359-0.633,0.359-1.255V42.704c0-0.478-0.24-0.718-0.718-0.718H96.31c-0.479,0-0.717,0.24-0.717,0.718v36.948
		c0,0.957-0.336,1.77-1.005,2.439c-0.67,0.67-1.471,1.005-2.403,1.005s-1.734-0.335-2.403-1.005
		c-0.671-0.67-1.005-1.482-1.005-2.439V41.915c0-1.722,0.61-3.193,1.83-4.412c1.22-1.22,2.69-1.83,4.412-1.83h16.86
		c0.478,0,0.765-0.238,0.86-0.718c0-0.19,0.083-0.933,0.251-2.224s0.299-2.296,0.396-3.014c0-0.19-0.061-0.358-0.18-0.502
		c-0.12-0.144-0.276-0.215-0.467-0.215h-24.25c-0.86,0-1.603-0.311-2.224-0.933c-0.622-0.621-0.933-1.375-0.933-2.26
		c0-0.885,0.311-1.638,0.933-2.26c0.621-0.621,1.363-0.933,2.224-0.933h24.896c0.478,0,0.74-0.239,0.789-0.717
		c0.047-0.765,0.095-1.554,0.144-2.368c0.095-1.004,0.525-1.841,1.291-2.511c0.669-0.574,1.435-0.861,2.296-0.861
		c0.144,0,0.263,0,0.358,0c1.052,0.096,1.89,0.55,2.512,1.363c0.525,0.67,0.789,1.411,0.789,2.224c0,0.144,0,0.312,0,0.502
		c-0.049,0.431-0.144,1.004-0.287,1.722c0,0.191,0.06,0.347,0.18,0.466c0.118,0.12,0.251,0.179,0.395,0.179h24.465
		c0.861,0,1.602,0.312,2.224,0.933c0.621,0.622,0.934,1.375,0.934,2.26C149.474,26.693,149.161,27.447,148.54,28.068z"/>
</g>
</svg>
