<?xml version="1.0" encoding="utf-8"?>
<!-- Generator: Adobe Illustrator 16.0.3, SVG Export Plug-In . SVG Version: 6.00 Build 0)  -->
<!DOCTYPE svg PUBLIC "-//W3C//DTD SVG 1.1//EN" "http://www.w3.org/Graphics/SVG/1.1/DTD/svg11.dtd">
<svg version="1.1" id="NTDV" xmlns="http://www.w3.org/2000/svg" xmlns:xlink="http://www.w3.org/1999/xlink" x="0px" y="0px"
	 width="160px" height="100px" viewBox="0 0 160 100" enable-background="new 0 0 160 100" xml:space="preserve">
<g>
	<path d="M135.021,5.57H24.835C11.251,5.57,0.24,16.582,0.24,30.165v40.336c0,13.583,11.012,24.595,24.595,24.595H135.02
		c13.584,0,24.597-11.012,24.597-24.595h0.001V30.165C159.617,16.582,148.604,5.57,135.021,5.57z M46.949,70.111v8.107
		c0,0.908-0.312,1.674-0.933,2.296c-0.623,0.621-1.388,0.933-2.296,0.933c-0.909,0-1.675-0.312-2.296-0.933
		c-0.622-0.622-0.933-1.388-0.933-2.296v-8.107c0-0.478-0.24-0.717-0.718-0.717H28.439c-0.718,0-1.352-0.263-1.901-0.789
		c-0.55-0.526-0.825-1.172-0.825-1.938c0-0.765,0.275-1.41,0.825-1.938c0.549-0.525,1.184-0.789,1.901-0.789h11.335
		c0.478,0,0.718-0.238,0.718-0.718v-4.878c0-0.478-0.24-0.718-0.718-0.718h-9.829c-0.766,0-1.399-0.263-1.901-0.789
		c-0.502-0.525-0.753-1.159-0.753-1.901c0-0.741,0.251-1.374,0.753-1.901c0.502-0.525,1.136-0.789,1.901-0.789h3.372
		c0.19,0,0.334-0.071,0.431-0.215c0.095-0.144,0.119-0.311,0.072-0.503c-0.431-1.481-1.076-3.156-1.938-5.021
		c-0.335-0.621-0.358-1.256-0.072-1.901c0.287-0.646,0.765-1.064,1.435-1.256c0.334-0.047,0.646-0.071,0.933-0.071
		c0.478,0,0.957,0.096,1.435,0.286c0.765,0.287,1.315,0.79,1.65,1.507c0.43,0.861,0.836,1.723,1.219,2.583
		c0.191,0.384,0.287,0.789,0.287,1.22c0,0.479-0.12,0.957-0.359,1.435c-0.479,0.909-1.196,1.507-2.152,1.794v0.144h10.905
		c0.478,0,0.813-0.215,1.005-0.646c0.908-2.152,1.673-4.185,2.295-6.099c0.287-0.861,0.836-1.507,1.65-1.938
		c0.526-0.334,1.076-0.502,1.65-0.502c0.239,0,0.478,0.024,0.718,0.072c0.813,0.191,1.41,0.646,1.793,1.363
		c0.19,0.383,0.287,0.789,0.287,1.219c0,0.336-0.072,0.671-0.215,1.005c-0.861,2.057-1.578,3.684-2.152,4.879
		c-0.096,0.144-0.096,0.287,0,0.431c0.095,0.144,0.215,0.215,0.359,0.215h3.587c0.765,0,1.411,0.264,1.938,0.789
		c0.525,0.527,0.789,1.16,0.789,1.901c0,0.742-0.264,1.376-0.789,1.901c-0.527,0.526-1.173,0.789-1.938,0.789H47.667
		c-0.479,0-0.717,0.24-0.717,0.718v4.878c0,0.479,0.239,0.718,0.717,0.718h11.838c0.718,0,1.351,0.264,1.901,0.789
		c0.549,0.527,0.825,0.789,0.825,0.789s0,0.384,0,1.148c0,0.766-0.276,1.411-0.825,1.938c-0.55,0.526-1.184,0.789-1.901,0.789
		H47.667C47.188,69.395,46.949,69.634,46.949,70.111z M75.073,28.069c-0.622,0.622-1.363,0.933-2.224,0.933H47.523
		c-0.479,0-0.742,0.239-0.789,0.717c-0.24,1.675-0.527,3.444-0.861,5.31c0,0.144,0.059,0.287,0.179,0.431
		c0.119,0.144,0.274,0.215,0.466,0.215h19.945c1.722,0,3.192,0.61,4.412,1.83c1.22,1.219,1.83,2.69,1.83,4.412v33.792
		c0,1.865-0.263,3.275-0.789,4.232c-0.527,0.957-1.435,1.674-2.727,2.152c-1.675,0.67-4.832,1.005-9.47,1.005
		c-0.909,0-1.747-0.275-2.511-0.825c-0.766-0.551-1.316-1.28-1.65-2.188c-0.287-0.67-0.24-1.304,0.144-1.901
		c0.382-0.599,0.933-0.872,1.65-0.824c1.195,0,2.271,0,3.229,0c1.387,0,2.558-0.024,3.516-0.072c0.621,0,1.051-0.107,1.292-0.323
		c0.239-0.215,0.358-0.633,0.358-1.255V42.705c0-0.478-0.24-0.718-0.717-0.718H22.843c-0.479,0-0.718,0.24-0.718,0.718v36.948
		c0,0.957-0.335,1.77-1.004,2.439c-0.67,0.67-1.471,1.005-2.403,1.005s-1.734-0.335-2.403-1.005c-0.67-0.67-1.004-1.482-1.004-2.439
		V41.916c0-1.722,0.61-3.193,1.829-4.412c1.22-1.22,2.69-1.83,4.413-1.83h16.86c0.478,0,0.765-0.238,0.861-0.718
		c0-0.19,0.083-0.933,0.251-2.224c0.167-1.291,0.298-2.296,0.395-3.014c0-0.19-0.061-0.358-0.179-0.502
		c-0.12-0.144-0.276-0.215-0.466-0.215h-24.25c-0.861,0-1.603-0.311-2.224-0.933c-0.622-0.621-0.933-1.375-0.933-2.26
		c0-0.885,0.311-1.638,0.933-2.26c0.621-0.621,1.363-0.933,2.224-0.933h24.896c0.478,0,0.741-0.239,0.789-0.717
		c0.047-0.765,0.096-1.554,0.144-2.368c0.095-1.004,0.526-1.841,1.292-2.511c0.669-0.574,1.435-0.861,2.296-0.861
		c0.144,0,0.262,0,0.359,0c1.051,0.096,1.889,0.55,2.511,1.363c0.526,0.67,0.79,1.411,0.79,2.224c0,0.144,0,0.312,0,0.502
		c-0.048,0.431-0.144,1.004-0.287,1.722c0,0.191,0.06,0.347,0.179,0.466c0.119,0.12,0.251,0.179,0.395,0.179h24.465
		c0.861,0,1.602,0.312,2.224,0.933c0.621,0.622,0.933,1.375,0.933,2.26C76.006,26.694,75.694,27.448,75.073,28.069z M101.547,55.763
		c-0.43,0.144-0.646,0.455-0.646,0.933v18.797c0,1.818-0.228,3.217-0.682,4.197c-0.455,0.98-1.208,1.733-2.26,2.26
		c-1.435,0.67-3.779,1.052-7.031,1.148h-0.071c-0.909,0-1.722-0.287-2.439-0.861c-0.718-0.622-1.22-1.411-1.507-2.367
		c-0.239-0.718-0.144-1.388,0.287-2.009s1.028-0.933,1.794-0.933c0.669,0.048,1.267,0.071,1.793,0.071
		c0.908,0,1.579-0.023,2.009-0.071c0.478,0,0.813-0.096,1.005-0.287c0.19-0.19,0.287-0.574,0.287-1.148V58.991
		c0-0.19-0.072-0.334-0.216-0.431c-0.143-0.095-0.286-0.119-0.43-0.071c-2.632,0.86-4.233,1.363-4.808,1.506
		c-0.335,0.144-0.693,0.216-1.076,0.216c-0.574,0-1.124-0.144-1.65-0.431c-0.908-0.478-1.482-1.195-1.721-2.152
		c-0.098-0.334-0.145-0.669-0.145-1.004c0-0.621,0.168-1.195,0.502-1.723c0.479-0.86,1.195-1.435,2.152-1.722
		c1.818-0.431,4.065-1.028,6.745-1.794c0.43-0.144,0.646-0.454,0.646-0.933V36.75c0-0.478-0.24-0.718-0.718-0.718H87.27
		c-0.86,0-1.603-0.298-2.224-0.896c-0.622-0.598-0.933-1.339-0.933-2.224s0.311-1.639,0.933-2.261
		c0.621-0.621,1.363-0.933,2.224-0.933h6.099c0.478,0,0.718-0.238,0.718-0.717v-9.83c0-0.956,0.334-1.758,1.004-2.403
		s1.471-0.969,2.404-0.969c0.933,0,1.732,0.323,2.403,0.969c0.669,0.646,1.004,1.447,1.004,2.403v9.83
		c0,0.479,0.239,0.717,0.718,0.717h3.803c0.86,0,1.602,0.312,2.224,0.933c0.621,0.622,0.933,1.376,0.933,2.261
		s-0.312,1.626-0.933,2.224c-0.622,0.599-1.363,0.896-2.224,0.896h-3.803c-0.479,0-0.718,0.24-0.718,0.718v11.91
		c0,0.191,0.072,0.335,0.216,0.43c0.144,0.097,0.287,0.12,0.43,0.072l3.301-0.933c0.718-0.19,1.41-0.072,2.08,0.358
		s1.052,1.053,1.148,1.865c0,0.144,0,0.287,0,0.431c0,0.718-0.168,1.363-0.502,1.938c-0.479,0.766-1.125,1.291-1.938,1.578
		C104.202,54.878,102.839,55.332,101.547,55.763z M149.76,79.94c-0.717,0.957-1.603,1.65-2.654,2.081
		c-0.574,0.238-1.147,0.358-1.722,0.358l-1.363-0.215c-5.645-1.771-10.643-4.21-14.995-7.318c-0.383-0.287-0.789-0.287-1.22,0
		c-4.688,3.108-10.044,5.597-16.07,7.462c-0.384,0.144-0.766,0.215-1.148,0.215c-0.573,0-1.147-0.144-1.722-0.431
		c-0.909-0.43-1.627-1.101-2.152-2.009c-0.287-0.431-0.431-0.886-0.431-1.363c0-0.286,0.072-0.599,0.216-0.933
		c0.334-0.813,0.908-1.338,1.722-1.578c5.309-1.387,10.092-3.396,14.349-6.026c0.431-0.239,0.478-0.55,0.144-0.933
		c-2.869-3.061-5.334-6.529-7.39-10.403c-0.287-0.574-0.431-1.147-0.431-1.722c0-0.478,0.096-0.98,0.287-1.507
		c0.478-1.052,1.292-1.769,2.439-2.152c0.047,0,0.072-0.023,0.072-0.072c0-0.047-0.025-0.071-0.072-0.071h-3.229
		c-0.909,0-1.662-0.298-2.26-0.896c-0.599-0.598-0.896-1.327-0.896-2.188s0.298-1.602,0.896-2.225
		c0.598-0.621,1.351-0.933,2.26-0.933h26.617c0.096,0,0.191,0,0.287,0c0.239-0.095,0.503-0.144,0.789-0.144
		c0.478,0,0.933,0.097,1.363,0.287l1.148,0.503c0.669,0.239,1.147,0.67,1.435,1.291c0.287,0.622,0.311,1.268,0.072,1.938
		c-2.488,7.174-6.314,13.32-11.479,18.438c-0.384,0.335-0.359,0.622,0.071,0.86c4.065,2.536,8.657,4.497,13.775,5.884
		c0.813,0.191,1.363,0.693,1.65,1.506c0.095,0.287,0.144,0.574,0.144,0.861C150.263,79.031,150.095,79.511,149.76,79.94z
		 M151.769,34.885c-0.383,3.109-1.04,5.25-1.973,6.421c-0.933,1.173-2.403,1.758-4.412,1.758h-4.95c-2.68,0-4.484-0.525-5.417-1.578
		c-0.933-1.052-1.399-3.061-1.399-6.026v-9.83c0-0.478-0.239-0.717-0.717-0.717h-10.403c-0.479,0-0.718,0.24-0.718,0.717v0.431
		c0,7.796-2.464,13.872-7.39,18.223c-0.622,0.479-1.268,0.718-1.938,0.718c-0.191,0-0.358-0.023-0.502-0.072
		c-0.909-0.144-1.698-0.573-2.367-1.291c-0.527-0.525-0.789-1.172-0.789-1.938c0-0.956,0.334-1.722,1.004-2.296
		c3.73-3.252,5.597-7.748,5.597-13.488V24.84c0-1.722,0.609-3.193,1.829-4.412c1.22-1.22,2.69-1.83,4.412-1.83h12.341
		c1.769,0,3.252,0.61,4.448,1.83c1.194,1.219,1.793,2.69,1.793,4.412v10.546c0,0.909,0.072,1.471,0.216,1.687
		c0.144,0.215,0.502,0.322,1.076,0.322h3.156c0.526,0,0.897-0.311,1.112-0.933c0.215-0.621,0.37-1.96,0.467-4.018
		c0.047-0.669,0.369-1.172,0.968-1.507c0.598-0.334,1.208-0.382,1.83-0.144c0.86,0.384,1.554,0.958,2.08,1.723
		c0.431,0.622,0.646,1.268,0.646,1.937C151.769,34.598,151.769,34.741,151.769,34.885z"/>
	<path d="M137.563,53.538c-0.097-0.144-0.215-0.215-0.358-0.215h-16.717c-0.192,0-0.335,0.071-0.431,0.215
		c-0.097,0.144-0.097,0.287,0,0.431c1.961,4.161,4.639,7.893,8.035,11.192c0.383,0.335,0.741,0.358,1.076,0.072
		c3.588-3.253,6.386-7.007,8.395-11.265C137.659,53.825,137.659,53.682,137.563,53.538z"/>
</g>
</svg>
