<?xml version="1.0" encoding="utf-8"?>
<!-- Generator: Adobe Illustrator 16.0.3, SVG Export Plug-In . SVG Version: 6.00 Build 0)  -->
<!DOCTYPE svg PUBLIC "-//W3C//DTD SVG 1.1//EN" "http://www.w3.org/Graphics/SVG/1.1/DTD/svg11.dtd">
<svg version="1.1" id="north" xmlns="http://www.w3.org/2000/svg" xmlns:xlink="http://www.w3.org/1999/xlink" x="0px" y="0px"
	 width="160px" height="100px" viewBox="0 0 160 100" enable-background="new 0 0 160 100" xml:space="preserve">
<g>
	<path d="M110.371,61.502H95.521c-0.479,0-0.718,0.24-0.718,0.718v10.403c0,0.479,0.238,0.717,0.718,0.717h14.851
		c0.478,0,0.718-0.238,0.718-0.717V62.22C111.089,61.742,110.849,61.502,110.371,61.502z"/>
	<path d="M135.021,5.57H24.835C11.251,5.57,0.24,16.582,0.24,30.165v40.336c0,13.583,11.012,24.595,24.595,24.595h110.186
		c13.583,0,24.596-11.012,24.596-24.595V30.165C159.616,16.582,148.604,5.57,135.021,5.57z M86.48,24.302
		c0.574-0.598,1.267-0.897,2.08-0.897h10.403c0.478,0,0.718-0.239,0.718-0.717v-3.229c0-0.908,0.322-1.686,0.968-2.332
		c0.646-0.646,1.423-0.969,2.332-0.969c0.908,0,1.687,0.323,2.332,0.969c0.646,0.646,0.969,1.423,0.969,2.332v3.229
		c0,0.479,0.238,0.717,0.717,0.717h10.547c0.813,0,1.507,0.299,2.08,0.897c0.574,0.599,0.861,1.304,0.861,2.117
		c0,0.813-0.287,1.506-0.861,2.081c-0.573,0.574-1.268,0.861-2.08,0.861H88.561c-0.813,0-1.506-0.287-2.08-0.861
		c-0.574-0.574-0.861-1.267-0.861-2.081C85.619,25.606,85.906,24.901,86.48,24.302z M115.752,33.665c0,0.335-0.071,0.67-0.215,1.004
		c-1.101,2.87-1.891,4.879-2.368,6.027c-0.286,0.766-0.813,1.316-1.578,1.65c-0.431,0.24-0.909,0.359-1.435,0.359
		c-0.287,0-0.574-0.047-0.861-0.144c-0.717-0.19-1.244-0.61-1.578-1.256c-0.335-0.646-0.384-1.327-0.144-2.044
		c0.669-1.817,1.291-3.803,1.865-5.955c0.239-0.861,0.765-1.53,1.578-2.009c0.526-0.334,1.1-0.502,1.723-0.502
		c0.238,0,0.502,0.024,0.789,0.072c0.86,0.191,1.481,0.67,1.865,1.435C115.632,32.732,115.752,33.188,115.752,33.665z M98.39,39.405
		c0,0.574-0.168,1.124-0.502,1.65c-0.479,0.718-1.147,1.173-2.009,1.363c-0.24,0.048-0.455,0.072-0.646,0.072
		c-0.574,0-1.102-0.167-1.579-0.502c-0.67-0.478-1.076-1.123-1.219-1.937c-0.384-1.865-0.886-3.73-1.507-5.596
		c-0.192-0.717-0.107-1.41,0.251-2.081c0.358-0.669,0.896-1.1,1.614-1.292c0.287-0.047,0.574-0.072,0.86-0.072
		c0.526,0,1.052,0.144,1.579,0.431c0.717,0.383,1.22,0.958,1.507,1.722c0.62,1.722,1.147,3.564,1.578,5.524
		C98.365,38.927,98.39,39.166,98.39,39.405z M37.191,79.008c0,0.956-0.348,1.781-1.04,2.476c-0.694,0.692-1.532,1.04-2.511,1.04
		c-0.981,0-1.818-0.348-2.511-1.04c-0.694-0.694-1.04-1.52-1.04-2.476V67.313c0-0.144-0.061-0.262-0.18-0.358
		c-0.12-0.096-0.275-0.119-0.466-0.072c-6.218,2.727-10.618,4.641-13.201,5.74c-0.479,0.191-0.958,0.287-1.435,0.287
		c-0.479,0-0.958-0.096-1.435-0.287c-1.004-0.383-1.722-1.052-2.152-2.009c-0.191-0.478-0.287-0.944-0.287-1.399
		c0-0.454,0.095-0.92,0.287-1.399c0.431-0.907,1.124-1.53,2.081-1.865c4.543-1.578,9.924-3.539,16.143-5.883
		c0.431-0.19,0.646-0.525,0.646-1.005V41.27c0-0.478-0.24-0.717-0.718-0.717H15.453c-0.957,0-1.758-0.334-2.403-1.004
		c-0.646-0.669-0.969-1.471-0.969-2.404s0.323-1.733,0.969-2.403c0.646-0.669,1.446-1.004,2.403-1.004h13.918
		c0.478,0,0.718-0.239,0.718-0.717V20.607c0-0.956,0.346-1.781,1.04-2.475c0.693-0.693,1.53-1.041,2.511-1.041
		c0.979,0,1.817,0.348,2.511,1.041c0.692,0.694,1.04,1.519,1.04,2.475V79.008z M75.646,78.362c-1.388,2.199-3.755,3.301-7.103,3.301
		H57.639c-3.684,0-6.206-0.802-7.569-2.404c-1.363-1.603-2.045-4.603-2.045-9.004V20.679c0-1.004,0.346-1.853,1.041-2.547
		c0.692-0.693,1.542-1.041,2.547-1.041s1.853,0.348,2.547,1.041c0.693,0.694,1.04,1.542,1.04,2.547v18.869
		c0,0.143,0.06,0.251,0.18,0.323c0.119,0.072,0.251,0.084,0.395,0.036c4.639-2.917,8.992-6.002,13.058-9.255
		c0.764-0.574,1.602-0.861,2.511-0.861c0.144,0,0.262,0,0.359,0c1.1,0.096,1.984,0.55,2.654,1.363
		c0.574,0.67,0.861,1.435,0.861,2.296c0,0.144-0.025,0.312-0.072,0.502c-0.144,1.053-0.646,1.865-1.507,2.439
		c-4.832,3.253-10.786,6.816-17.864,10.69c-0.383,0.24-0.574,0.599-0.574,1.076v22.241c0,1.962,0.203,3.218,0.61,3.767
		c0.406,0.551,1.351,0.825,2.834,0.825h9.327c1.387,0,2.332-0.765,2.834-2.296c0.502-1.53,0.872-4.566,1.112-9.111
		c0.047-0.813,0.43-1.399,1.148-1.758c0.717-0.358,1.435-0.37,2.152-0.036c1.004,0.527,1.793,1.22,2.367,2.081
		c0.526,0.766,0.79,1.603,0.79,2.511C78.373,71.499,77.464,75.492,75.646,78.362z M117.761,79.582c0,0.956-0.322,1.758-0.969,2.403
		c-0.646,0.646-1.423,0.969-2.331,0.969h-0.072c-0.909,0-1.686-0.323-2.331-0.969c-0.646-0.646-0.969-1.424-0.969-2.332
		c0-0.239-0.12-0.358-0.358-0.358H95.161c-0.239,0-0.358,0.119-0.358,0.358v0.431c0,0.861-0.312,1.603-0.933,2.225
		c-0.622,0.621-1.376,0.933-2.26,0.933c-0.886,0-1.627-0.312-2.225-0.933c-0.599-0.622-0.896-1.363-0.896-2.225V61.718
		c0-1.723,0.609-3.193,1.829-4.413s2.69-1.829,4.412-1.829h16.789c1.722,0,3.192,0.609,4.412,1.829s1.829,2.69,1.829,4.413V79.582z
		 M120.523,48.875c-0.599,0.622-1.327,0.933-2.188,0.933H86.982c-0.861,0-1.603-0.311-2.224-0.933
		c-0.622-0.621-0.933-1.363-0.933-2.224s0.311-1.589,0.933-2.188c0.621-0.598,1.362-0.897,2.224-0.897h31.353
		c0.861,0,1.59,0.299,2.188,0.897c0.598,0.599,0.896,1.327,0.896,2.188S121.121,48.254,120.523,48.875z M150.189,25.701
		c-3.253,7.94-5.955,14.062-8.107,18.367c-0.191,0.431-0.119,0.814,0.216,1.148c5.261,5.357,7.892,11.002,7.892,16.932
		c0,5.119-1.268,8.491-3.803,10.116c-1.244,0.861-2.869,1.46-4.878,1.794c-0.671,0.097-1.507,0.144-2.512,0.144h-0.071
		c-0.909,0-1.747-0.334-2.511-1.005c-0.718-0.669-1.22-1.506-1.507-2.511c-0.192-0.765-0.061-1.471,0.395-2.116
		c0.454-0.646,1.063-0.969,1.829-0.969c0.574,0,1.076,0,1.507,0c1.243-0.096,2.224-0.358,2.941-0.789
		c1.339-0.813,2.009-2.63,2.009-5.453c0-3.73-1.482-7.461-4.448-11.192c-1.147-1.53-1.913-3.18-2.296-4.951
		c-0.096-0.621-0.144-1.219-0.144-1.793c0-1.195,0.216-2.368,0.646-3.516c1.435-3.539,3.06-7.795,4.878-12.771
		c0.048-0.19,0.023-0.359-0.071-0.502c-0.097-0.143-0.24-0.215-0.431-0.215h-10.26c-0.479,0-0.717,0.24-0.717,0.717v52.733
		c0,0.956-0.323,1.758-0.969,2.403s-1.435,0.969-2.368,0.969c-0.933,0-1.722-0.323-2.367-0.969s-0.969-1.447-0.969-2.403V26.275
		c0-1.722,0.61-3.193,1.83-4.413s2.69-1.83,4.412-1.83h14.708c0.095,0,0.19,0,0.286,0c0.191-0.047,0.406-0.072,0.646-0.072
		c0.382,0,0.789,0.12,1.22,0.359l1.649,1.004c0.718,0.479,1.22,1.125,1.507,1.937c0.096,0.384,0.144,0.742,0.144,1.076
		C150.477,24.769,150.38,25.224,150.189,25.701z"/>
</g>
</svg>
