<?xml version="1.0" encoding="utf-8"?>
<!-- Generator: Adobe Illustrator 16.0.3, SVG Export Plug-In . SVG Version: 6.00 Build 0)  -->
<!DOCTYPE svg PUBLIC "-//W3C//DTD SVG 1.1//EN" "http://www.w3.org/Graphics/SVG/1.1/DTD/svg11.dtd">
<svg version="1.1" id="Middle" xmlns="http://www.w3.org/2000/svg" xmlns:xlink="http://www.w3.org/1999/xlink" x="0px" y="0px"
	 width="160px" height="100px" viewBox="0 0 160 100" enable-background="new 0 0 160 100" xml:space="preserve">
<g>
	<path d="M110.372,61.501H95.521c-0.479,0-0.717,0.24-0.717,0.718v10.403c0,0.479,0.238,0.717,0.717,0.717h14.852
		c0.478,0,0.718-0.238,0.718-0.717V62.219C111.09,61.741,110.85,61.501,110.372,61.501z"/>
	<path d="M65.675,35.314H48.025c-0.479,0-0.718,0.239-0.718,0.717V52.39c0,0.479,0.239,0.718,0.718,0.718h17.649
		c0.478,0,0.717-0.239,0.717-0.718V36.031C66.392,35.554,66.152,35.314,65.675,35.314z"/>
	<path d="M134.904,5.5H25.096C11.512,5.5,0.5,16.511,0.5,30.095v40.809C0.5,84.488,11.512,95.5,25.096,95.5h109.808
		c13.584,0,24.596-11.012,24.596-24.596h0.001V30.095C159.501,16.511,148.488,5.5,134.904,5.5z M86.48,24.301
		c0.574-0.598,1.267-0.897,2.081-0.897h10.403c0.478,0,0.717-0.239,0.717-0.717v-3.229c0-0.908,0.323-1.686,0.969-2.332
		c0.646-0.646,1.423-0.969,2.332-0.969c0.908,0,1.686,0.323,2.331,0.969c0.646,0.646,0.969,1.423,0.969,2.332v3.229
		c0,0.479,0.239,0.717,0.718,0.717h10.547c0.813,0,1.506,0.299,2.08,0.897c0.574,0.599,0.861,1.304,0.861,2.117
		c0,0.813-0.287,1.507-0.861,2.08c-0.574,0.574-1.268,0.861-2.08,0.861H88.562c-0.814,0-1.507-0.287-2.081-0.861
		c-0.574-0.573-0.861-1.267-0.861-2.08C85.619,25.605,85.906,24.9,86.48,24.301z M115.753,33.664c0,0.335-0.072,0.67-0.215,1.005
		c-1.102,2.869-1.891,4.878-2.368,6.026c-0.287,0.766-0.813,1.315-1.578,1.65c-0.431,0.239-0.909,0.358-1.435,0.358
		c-0.287,0-0.574-0.047-0.861-0.144c-0.718-0.19-1.244-0.61-1.578-1.256c-0.336-0.646-0.384-1.327-0.144-2.045
		c0.669-1.816,1.291-3.802,1.865-5.954c0.238-0.861,0.765-1.53,1.578-2.009c0.526-0.334,1.1-0.503,1.722-0.503
		c0.239,0,0.503,0.025,0.789,0.072c0.861,0.191,1.482,0.67,1.866,1.435C115.633,32.731,115.753,33.187,115.753,33.664z
		 M98.391,39.403c0,0.574-0.168,1.125-0.502,1.65c-0.479,0.718-1.148,1.173-2.009,1.363c-0.24,0.048-0.456,0.071-0.646,0.071
		c-0.573,0-1.101-0.167-1.578-0.502c-0.67-0.478-1.076-1.123-1.22-1.937c-0.383-1.866-0.886-3.731-1.507-5.597
		c-0.191-0.718-0.107-1.41,0.251-2.08c0.359-0.67,0.897-1.101,1.614-1.292c0.287-0.047,0.574-0.071,0.861-0.071
		c0.525,0,1.052,0.144,1.578,0.431c0.718,0.383,1.22,0.957,1.507,1.722c0.621,1.722,1.148,3.563,1.578,5.524
		C98.366,38.926,98.391,39.165,98.391,39.403z M73.566,60.21c0,0.957-0.347,1.794-1.04,2.511c-0.694,0.718-1.542,1.076-2.547,1.076
		s-1.854-0.358-2.547-1.076c-0.694-0.717-1.04-1.554-1.04-2.511c0-0.287-0.12-0.431-0.359-0.431H48.025
		c-0.479,0-0.718,0.24-0.718,0.718v19.084c0,1.005-0.347,1.854-1.04,2.547c-0.694,0.693-1.531,1.04-2.511,1.04
		c-0.981,0-1.818-0.347-2.511-1.04c-0.694-0.693-1.04-1.542-1.04-2.547V60.497c0-0.478-0.24-0.718-0.718-0.718H21.623
		c-0.287,0-0.431,0.144-0.431,0.431v0.502c0,0.957-0.335,1.771-1.004,2.439c-0.67,0.67-1.483,1.005-2.439,1.005
		c-0.957,0-1.77-0.335-2.439-1.005c-0.67-0.669-1.004-1.482-1.004-2.439V34.884c0-1.722,0.609-3.192,1.829-4.412
		s2.69-1.83,4.413-1.83h18.94c0.478,0,0.718-0.238,0.718-0.717v-8.466c0-1.004,0.346-1.853,1.04-2.547
		c0.693-0.693,1.53-1.041,2.511-1.041c0.98,0,1.817,0.348,2.511,1.041c0.693,0.694,1.04,1.542,1.04,2.547v8.466
		c0,0.479,0.239,0.717,0.718,0.717h19.299c1.722,0,3.193,0.61,4.413,1.83c1.219,1.22,1.829,2.69,1.829,4.412V60.21z M117.762,79.581
		c0,0.956-0.323,1.758-0.969,2.403s-1.424,0.969-2.331,0.969h-0.072c-0.909,0-1.686-0.323-2.332-0.969
		c-0.646-0.646-0.968-1.424-0.968-2.332c0-0.239-0.12-0.358-0.359-0.358H95.162c-0.24,0-0.358,0.119-0.358,0.358v0.431
		c0,0.861-0.313,1.603-0.934,2.225c-0.622,0.621-1.375,0.933-2.26,0.933c-0.886,0-1.626-0.312-2.224-0.933
		c-0.599-0.622-0.897-1.363-0.897-2.225V61.717c0-1.723,0.61-3.193,1.83-4.413c1.22-1.219,2.69-1.829,4.412-1.829h16.788
		c1.723,0,3.193,0.61,4.413,1.829c1.22,1.22,1.829,2.69,1.829,4.413V79.581z M120.524,48.874c-0.599,0.622-1.328,0.933-2.188,0.933
		H86.982c-0.86,0-1.603-0.311-2.224-0.933c-0.622-0.621-0.933-1.363-0.933-2.224c0-0.861,0.311-1.59,0.933-2.188
		c0.621-0.598,1.363-0.897,2.224-0.897h31.354c0.86,0,1.59,0.3,2.188,0.897c0.597,0.599,0.896,1.327,0.896,2.188
		C121.421,47.511,121.121,48.253,120.524,48.874z M150.19,25.7c-3.253,7.94-5.955,14.063-8.107,18.367
		c-0.191,0.431-0.119,0.813,0.216,1.147c5.261,5.357,7.892,11.002,7.892,16.932c0,5.119-1.268,8.491-3.803,10.116
		c-1.244,0.861-2.869,1.46-4.878,1.794c-0.671,0.097-1.507,0.144-2.512,0.144h-0.071c-0.909,0-1.747-0.334-2.511-1.005
		c-0.718-0.669-1.22-1.506-1.507-2.511c-0.192-0.765-0.061-1.471,0.395-2.116c0.454-0.646,1.063-0.969,1.829-0.969
		c0.574,0,1.076,0,1.507,0c1.243-0.096,2.224-0.358,2.941-0.789c1.339-0.813,2.009-2.63,2.009-5.453
		c0-3.73-1.482-7.461-4.448-11.192c-1.147-1.529-1.913-3.18-2.296-4.95c-0.096-0.621-0.144-1.22-0.144-1.793
		c0-1.195,0.216-2.368,0.646-3.516c1.435-3.539,3.06-7.796,4.878-12.771c0.048-0.19,0.023-0.359-0.071-0.502
		c-0.097-0.143-0.24-0.215-0.431-0.215h-10.26c-0.479,0-0.717,0.24-0.717,0.717v52.733c0,0.956-0.323,1.758-0.969,2.403
		s-1.436,0.969-2.368,0.969s-1.722-0.323-2.367-0.969s-0.969-1.447-0.969-2.403V26.274c0-1.722,0.61-3.193,1.83-4.413
		s2.69-1.83,4.412-1.83h14.708c0.095,0,0.19,0,0.286,0c0.191-0.047,0.406-0.071,0.646-0.071c0.382,0,0.789,0.12,1.22,0.358
		l1.649,1.004c0.718,0.479,1.22,1.125,1.507,1.938c0.096,0.383,0.144,0.742,0.144,1.076C150.478,24.768,150.381,25.223,150.19,25.7z
		"/>
	<path d="M39.487,35.314H21.91c-0.479,0-0.718,0.239-0.718,0.717V52.39c0,0.479,0.239,0.718,0.718,0.718h17.577
		c0.478,0,0.718-0.239,0.718-0.718V36.031C40.205,35.554,39.965,35.314,39.487,35.314z"/>
</g>
</svg>
