<?xml version="1.0" encoding="iso-8859-1"?>
<!-- Generator: Adobe Illustrator 16.0.0, SVG Export Plug-In . SVG Version: 6.00 Build 0)  -->
<!DOCTYPE svg PUBLIC "-//W3C//DTD SVG 1.1//EN" "http://www.w3.org/Graphics/SVG/1.1/DTD/svg11.dtd">
<svg version="1.1" id="Capa_1" xmlns="http://www.w3.org/2000/svg" xmlns:xlink="http://www.w3.org/1999/xlink" x="0px" y="0px"
	 width="106.048px" height="106.048px" viewBox="0 0 106.048 106.048" style="enable-background:new 0 0 106.048 106.048;"
	 xml:space="preserve">
<g>
	<path style="fill:#010002;" d="M50.373,80.598h5.302v10.615h-5.302V80.598z M50.903,37.386c0,8.182-6.659,14.843-14.843,14.843
		h-8.492c-8.184,0-14.843-6.661-14.843-14.843v-8.492c0-8.182,6.659-14.843,14.843-14.843h8.492c8.184,0,14.843,6.661,14.843,14.843
		V37.386z M35.563,33.14l8.626-8.627l-3.749-3.749l-8.626,8.627l-8.627-8.627l-3.749,3.749l8.627,8.627l-8.627,8.627l3.749,3.749
		l8.627-8.627l8.626,8.627l3.749-3.749L35.563,33.14z M50.373,46.38v2.38h5.302v-10.61h-2.731
		C52.807,41.168,51.895,43.973,50.373,46.38z M50.373,19.899c1.426,2.252,2.291,4.852,2.514,7.64h2.788V16.93h-5.302V19.899z
		 M50.373,69.987h5.302v-10.61h-5.302V69.987z M106.048,21.209v63.629c0,11.666-9.543,21.21-21.21,21.21H21.209
		C9.543,106.048,0,96.504,0,84.838V21.209C0,9.543,9.543,0,21.209,0h63.628C96.505,0,106.048,9.543,106.048,21.209z M92.792,94.117
		l-21.21-79.536H45.055c-2.62-1.654-5.69-2.651-8.994-2.651h-8.492c-9.329,0-16.964,7.635-16.964,16.963v8.492
		c0,8.088,5.753,14.895,13.368,16.56L13.256,94.117H92.792z"/>
</g>
<g>
</g>
<g>
</g>
<g>
</g>
<g>
</g>
<g>
</g>
<g>
</g>
<g>
</g>
<g>
</g>
<g>
</g>
<g>
</g>
<g>
</g>
<g>
</g>
<g>
</g>
<g>
</g>
<g>
</g>
</svg>
