<?xml version="1.0" encoding="utf-8"?>
<!-- Generator: Adobe Illustrator 16.0.3, SVG Export Plug-In . SVG Version: 6.00 Build 0)  -->
<!DOCTYPE svg PUBLIC "-//W3C//DTD SVG 1.1//EN" "http://www.w3.org/Graphics/SVG/1.1/DTD/svg11.dtd">
<svg version="1.1" id="crossWhiteLine" xmlns="http://www.w3.org/2000/svg" xmlns:xlink="http://www.w3.org/1999/xlink" x="0px"
	 y="0px" width="400px" height="300px" viewBox="0 0 400 300" enable-background="new 0 0 400 300" xml:space="preserve">
<g id="road">
	<g>
		<polygon stroke="#000000" stroke-miterlimit="10" points="215.251,290.802 205.378,9.969 201.298,9.969 193.294,290.802 		"/>
		<polygon stroke="#000000" stroke-miterlimit="10" points="245.979,290.802 400.671,290.802 273.287,9.969 216.37,9.969 		"/>
		<polygon stroke="#000000" stroke-miterlimit="10" points="190.21,9.969 127.014,9.969 -0.37,290.802 162.489,290.802 		"/>
	</g>
</g>
<g id="car">
	<g>
		<path fill="#FFFFFF" stroke="#FFFFFF" stroke-miterlimit="10" d="M248.208,125.77c4.609,15.726-2.71,32.224-17.694,32.224h-87.831
			c-14.989,0-15.437-16.5-4.283-32.224l8.118-11.449c7.031-9.914,18.753-16.592,27.369-16.592h50.498
			c8.616,0,17.56,6.678,20.467,16.592L248.208,125.77z"/>
		<path stroke="#FFFFFF" stroke-width="5" stroke-miterlimit="10" d="M283.868,132.646h-19.302c-2.93,0-5.7,1.75-7.298,4.229
			c0.01-4.909-1.019-10.354-3.102-15.669l-3.784-9.653c-3.898-9.926-11.913-16.504-18.622-16.504h-64.352
			c-6.707,0-17.461,6.578-25.492,16.504l-7.807,9.653c-4.503,5.57-7.908,11.284-9.906,16.372c-0.324-2.841-2.458-4.93-5.659-4.93
			H99.241c-3.997,0-7.271,3.519-7.344,7.593l-0.116,6.461c-0.059,3.398,2.578,6.069,5.915,6.153l11.921,0.305
			c-3.779,4.231-6.85,9.408-8.633,15.065l-3.765,11.959c-4.986,15.836,1.587,29.146,14.866,29.146h1.835l-3.872,13.661
			c-1.599,5.641,1.086,10.271,6.016,10.271h4.558c4.93,0,10.117-4.63,11.566-10.271l3.512-13.661h80.163l-2.176,13.661
			c-0.897,5.641,2.36,10.271,7.292,10.271h4.557c4.932,0,9.544-4.63,10.291-10.271l1.82-13.661h1.845
			c13.28,0,25.394-13.311,27.006-29.146l1.214-11.959c0.576-5.662-0.345-10.844-2.364-15.077l11.641-0.293
			c3.372-0.086,7.122-2.758,8.479-6.154l2.577-6.461C289.669,136.165,287.863,132.646,283.868,132.646z M148.079,121.717
			l5.855-7.417c6.059-7.678,14.29-12.791,19.466-12.791h49.678c5.181,0,11.277,5.113,14.144,12.791l2.763,7.417
			c2.794,7.498,2.841,15.298,0.25,20.154H139.436C138.87,137.015,142.163,129.213,148.079,121.717z"/>
		<path fill="#FFFFFF" stroke="#FFFFFF" stroke-width="4" stroke-miterlimit="10" d="M139.702,186.535
			c-0.88,3.403-4.882,6.163-9.835,6.938c-6.006,0.941-13.897-0.974-17.315-5.804c-5.24-7.407,2.811-14.688,15.348-12.648
			C136.686,176.449,140.858,182.084,139.702,186.535z"/>
		<path fill="#FFFFFF" stroke="#FFFFFF" stroke-width="4" stroke-miterlimit="10" d="M220.925,186.535
			c-0.538,3.403,2.312,6.163,6.942,6.938c5.611,0.941,14.301-0.974,19.735-5.804c8.335-7.407,3.317-14.688-10.068-12.648
			C228.147,176.449,221.622,182.084,220.925,186.535z"/>
		<path fill="#FFFFFF" stroke="#FFFFFF" stroke-width="4" stroke-miterlimit="10" d="M208.707,189.77
			c-3.044,2.883-7.554,4.89-10.511,4.89h-39.144c-2.955,0-6.629-2.007-8.468-4.89l0,0c-2.208-3.468-1.004-6.84,3.127-6.84h54.719
			C212.562,182.93,212.359,186.299,208.707,189.77L208.707,189.77z"/>
	</g>
</g>
</svg>
