<?xml version="1.0" encoding="iso-8859-1"?>
<!-- Generator: Adobe Illustrator 16.0.0, SVG Export Plug-In . SVG Version: 6.00 Build 0)  -->
<!DOCTYPE svg PUBLIC "-//W3C//DTD SVG 1.1//EN" "http://www.w3.org/Graphics/SVG/1.1/DTD/svg11.dtd">
<svg version="1.1" id="Capa_1" xmlns="http://www.w3.org/2000/svg" xmlns:xlink="http://www.w3.org/1999/xlink" x="0px" y="0px"
	 width="122.793px" height="122.793px" viewBox="0 0 122.793 122.793" style="enable-background:new 0 0 122.793 122.793;"
	 xml:space="preserve">
<g>
	<g>
		<path d="M66.193,96.796c0-4.174-3.041-7.631-7.023-8.319l-0.002-0.021l-1.559-3.984l1.696-2.252L71.827,46.34
			c-0.994-0.367-1.997-0.707-3.013-0.959l-5.967,6.008l-5.789-6.072c-0.015,0.006-0.033,0.005-0.057,0.012
			c-6.982,2.047-15.615,8.113-15.615,8.113c-3.124,2.23-6.135,4.684-8.896,7.529c-7.979,7.833-13.623,16.843-17.338,28.841
			c-1.009,3.252-1.154,7.851,0.957,10.521c2.624,3.314,4.098,5.045,21.094,5.045c0-0.039,20.521-0.117,20.521-0.117
			C62.397,105.262,66.193,101.464,66.193,96.796z M47.454,102.746c-2.567,0.012-5.133,0.025-7.058,0.037
			c-0.968,0.008-1.771,0.014-2.335,0.02c-0.204,0.002-0.51,0.006-0.856,0.045v-0.027c-15.86,0-17.006-1.446-19.085-4.073
			c-1.439-1.824-1.353-5.492-0.521-8.177c3.456-11.161,8.758-19.987,16.729-27.815c2.396-2.471,5.192-4.832,8.515-7.205l0.557-0.385
			l13.328,34.08c0.281,0.897,1.045,1.588,2.006,1.754c2.839,0.491,4.9,2.933,4.9,5.799c0,3.259-2.65,5.904-5.918,5.904
			C57.716,102.701,52.585,102.721,47.454,102.746z"/>
		<path d="M93.637,64.234c-4.229-5.432-10.439-12.273-19.456-16.859l-6.908,43.904c0,0,1.134,3.461,1.134,5.518
			c0,5.887-4.79,10.678-10.68,10.678H38.338c0,0,0,4.041,0,11.588c0,1.461,0.069,2.689,0.179,3.73H87.19
			c0.104-1.041,0.172-2.27,0.172-3.73V89.175c2.19,7.275,3.917,17.556,3.917,31.91c0,0.584,0.062,1.155,0.173,1.707h16.729
			c0.11-0.552,0.17-1.123,0.17-1.707C108.351,88.294,99.993,71.936,93.637,64.234z"/>
		<circle cx="62.9" cy="22.399" r="22.399"/>
	</g>
</g>
<g>
</g>
<g>
</g>
<g>
</g>
<g>
</g>
<g>
</g>
<g>
</g>
<g>
</g>
<g>
</g>
<g>
</g>
<g>
</g>
<g>
</g>
<g>
</g>
<g>
</g>
<g>
</g>
<g>
</g>
</svg>
