<?xml version="1.0" encoding="iso-8859-1"?>
<!-- Generator: Adobe Illustrator 17.1.0, SVG Export Plug-In . SVG Version: 6.00 Build 0)  -->
<!DOCTYPE svg PUBLIC "-//W3C//DTD SVG 1.1//EN" "http://www.w3.org/Graphics/SVG/1.1/DTD/svg11.dtd">
<svg version="1.1" id="Capa_1" xmlns="http://www.w3.org/2000/svg" xmlns:xlink="http://www.w3.org/1999/xlink" x="0px" y="0px"
	 viewBox="0 0 304.648 304.648" style="enable-background:new 0 0 304.648 304.648;" xml:space="preserve">
<g>
	<path d="M293.753,77.173h-36.289c-5.619,0-12.407,3.697-15.454,8.419l-26.65,41.298c-2.395,3.71-8.084,7.537-12.424,8.357
		l-32.494,6.135c-5.726,1.081-10.383,6.7-10.383,12.526v40.709c0,6.008,4.888,10.895,10.896,10.895h26.693
		c3.691,12.673,15.403,21.963,29.251,21.963c13.848,0,25.56-9.29,29.251-21.963h37.603c6.008,0,10.896-4.888,10.896-10.895V88.067
		C304.648,82.06,299.761,77.173,293.753,77.173z M226.898,212.143c-8.357,0-15.135-6.777-15.135-15.137
		c0-8.358,6.777-15.133,15.135-15.133c8.357,0,15.135,6.774,15.135,15.133C242.033,205.365,235.256,212.143,226.898,212.143z
		 M293.435,128.398c0,3.981-3.257,7.238-7.238,7.238h-49.293c-3.981,0-5.541-2.78-3.467-6.178l19.309-31.625
		c2.074-3.397,7.028-6.178,11.01-6.178h22.441c3.982,0,7.238,3.257,7.238,7.238V128.398z"/>
	<path d="M134.207,141.382l-32.494-6.135c-4.34-0.82-10.029-4.648-12.424-8.357l-26.65-41.298
		c-3.047-4.722-9.835-8.419-15.454-8.419H10.896C4.888,77.173,0,82.06,0,88.067v106.55c0,6.008,4.888,10.895,10.896,10.895h37.604
		c3.691,12.673,15.403,21.963,29.251,21.963c13.848,0,25.56-9.29,29.251-21.963h26.693c6.008,0,10.895-4.888,10.895-10.895v-40.709
		C144.59,148.082,139.933,142.463,134.207,141.382z M18.451,135.637c-3.981,0-7.238-3.257-7.238-7.238V98.895
		c0-3.981,3.257-7.238,7.238-7.238h22.441c3.981,0,8.936,2.78,11.01,6.178l19.309,31.625c2.074,3.397,0.515,6.178-3.467,6.178
		H18.451z M77.75,212.143c-8.357,0-15.135-6.777-15.135-15.137c0-8.358,6.777-15.133,15.135-15.133
		c8.357,0,15.135,6.774,15.135,15.133C92.885,205.365,86.107,212.143,77.75,212.143z"/>
	<path d="M133.667,133.522c0.047,0.001,0.094,0.002,0.141,0.002c2.313,0,4.225-1.838,4.299-4.166l0.742-23.259
		c0.075-2.376-1.789-4.363-4.164-4.439c-0.047-0.001-0.094-0.002-0.141-0.002c-2.313,0-4.225,1.838-4.299,4.166l-0.742,23.259
		C129.428,131.459,131.292,133.446,133.667,133.522z"/>
	<path d="M157.634,105.667c-2.119-1.063-4.708-0.208-5.775,1.918l-9.883,19.707c-1.066,2.124-0.207,4.71,1.918,5.775
		c0.619,0.311,1.276,0.458,1.926,0.458c1.576,0,3.095-0.87,3.85-2.376l9.883-19.707
		C160.617,109.318,159.759,106.732,157.634,105.667z"/>
	<path d="M174.358,124.457c-1.403-1.917-4.096-2.334-6.015-0.929l-16.496,12.085c-1.918,1.404-2.333,4.098-0.929,6.015
		c0.843,1.151,2.15,1.761,3.476,1.761c0.882,0,1.773-0.271,2.539-0.832l16.496-12.085
		C175.348,129.067,175.763,126.374,174.358,124.457z"/>
</g>
<g>
</g>
<g>
</g>
<g>
</g>
<g>
</g>
<g>
</g>
<g>
</g>
<g>
</g>
<g>
</g>
<g>
</g>
<g>
</g>
<g>
</g>
<g>
</g>
<g>
</g>
<g>
</g>
<g>
</g>
</svg>
