<svg xmlns="http://www.w3.org/2000/svg" xmlns:xlink="http://www.w3.org/1999/xlink" version="1.1" x="0px" y="0px" viewBox="0 0 100 125" enable-background="new 0 0 100 100" xml:space="preserve"><path d="M90.31543,49.91016l-2.04199-14.26611C87.81055,32.40527,85.03613,30,81.76465,30  c-15.27734-1.17334-24.07617-1.82959-39.59766,0c-3.27148,0-6.0459,2.40527-6.50879,5.64404l-1.9375,13.53027  c-0.05762-0.30664-0.10449-0.61377-0.17676-0.91895l-1.52832-6.47461c-0.96973-4.10791-4.63574-7.00977-8.85645-7.00977H12.96094  c-1.10352,0-2.15527,0.47021-2.89258,1.29248c-0.73633,0.82275-1.08789,1.91992-0.96582,3.01758l1.19727,10.80566  C10.43359,51.0918,10.5,52.30273,10.5,53.51563v17.81836h18.5293c1.12305,0,2.12891-0.4834,2.84277-1.24609  c-0.02051,1.52832,0.24414,3.03223,0.7793,4.43555v11.76367c0,1.36035,1.24512,2.46289,2.78223,2.46289h4.43555  c1.53711,0,2.78223-1.10254,2.78223-2.46289v-4.09863C43.05176,82.22949,43.45605,82.25,43.8623,82.25h36.20215  c0.4082,0,0.81348-0.02148,1.21582-0.06152v4.09863c0,1.36035,1.24512,2.46289,2.78223,2.46289h4.43555  c1.53711,0,2.78223-1.10254,2.78223-2.46289V74.5166c0.56055-1.47266,0.83398-3.05469,0.78223-4.66211v-0.00293  C91.8457,63.17773,91.26172,56.52051,90.31543,49.91016z M24.33398,66h-6.16602v-6.16602h6.16602V66z M24.33398,56.33301h-6.16602  l-0.94922-16.1665h8.06445L24.33398,56.33301z M41.29297,71.40625c-3.10352,0-5.61816-2.51563-5.61816-5.61914  s2.51465-5.61719,5.61816-5.61719s5.61914,2.51367,5.61914,5.61719S44.39648,71.40625,41.29297,71.40625z M41.19434,53.09961  c-2.15723-0.36328-3.63281-2.37598-3.32617-4.54248c0.67871-4.79688,1.75-12.34619,1.75-12.34619  C39.79785,34.9502,40.89355,34,42.16699,34c15.85352-1.82959,23.99023-1.17334,39.59766,0c1.27344,0,2.36914,0.9502,2.54883,2.20996  c0,0,1.05566,7.43896,1.73438,12.23535c0.31055,2.19678-1.21094,4.23242-3.40527,4.55664  C66.54492,55.37988,55.94336,55.5791,41.19434,53.09961z M82.6377,71.40625c-3.10254,0-5.61914-2.51563-5.61914-5.61914  s2.5166-5.61719,5.61914-5.61719c3.10352,0,5.61816,2.51367,5.61816,5.61719S85.74121,71.40625,82.6377,71.40625z"/><text x="0" y="115" fill="#000000" font-size="5px" font-weight="bold" font-family="'Helvetica Neue', Helvetica, Arial-Unicode, Arial, Sans-serif">Created by Pierre-Luc Auclair</text><text x="0" y="120" fill="#000000" font-size="5px" font-weight="bold" font-family="'Helvetica Neue', Helvetica, Arial-Unicode, Arial, Sans-serif">from the Noun Project</text></svg>