<?xml version="1.0" encoding="iso-8859-1"?>
<!-- Generator: Adobe Illustrator 16.0.0, SVG Export Plug-In . SVG Version: 6.00 Build 0)  -->
<!DOCTYPE svg PUBLIC "-//W3C//DTD SVG 1.1//EN" "http://www.w3.org/Graphics/SVG/1.1/DTD/svg11.dtd">
<svg version="1.1" id="Capa_1" xmlns="http://www.w3.org/2000/svg" xmlns:xlink="http://www.w3.org/1999/xlink" x="0px" y="0px"
	 width="483.335px" height="483.335px" viewBox="0 0 483.335 483.335" style="enable-background:new 0 0 483.335 483.335;"
	 xml:space="preserve">
<g>
	<g>
		<path d="M212.625,201.001c1.056-2.295,2.346-4.985,3.905-7.54c0.644-1.055,1.354-2.147,2.11-3.248l-0.068-0.055
			c-0.775,0.941-1.581,1.971-2.358,3.021c-1.617,2.182-3.155,4.623-4.841,7.683c-2.278,4.133-4.042,8.713-5.15,13.356l2.385,0.404
			C209.31,209.896,210.684,205.226,212.625,201.001z"/>
		<path d="M246.557,298.82l-9.237,5.637c0.353,0.656,0.697,1.307,1.038,1.957c1.552,2.963,2.898,5.707,4.115,8.393
			c1.806,3.984,3.562,8.259,5.468,13.32l12.188-4.94C255.559,313.66,251.197,305.83,246.557,298.82z"/>
		<path d="M207.636,249.626c2.509,9.017,6.885,17.508,11.424,25.42l6.382-4.461c-4.587-6.619-9.472-14.213-12.606-22.594
			L207.636,249.626z"/>
		<path d="M256.604,360.708c1.407,8.037,2.244,16.568,2.49,25.42l18.481-1.178c-1.103-9.686-2.847-19.025-5.191-27.822
			L256.604,360.708z"/>
		<path d="M466.667,143.489v-23.917h-50v-37h-65.332v16h-73.76v58h-16.74c-20.668,11.083-32.184,26.536-35.675,34.624
			c-2.823,6.541-4.271,12.955-4.308,19.063c-0.07,12.298,7.972,25.601,23.9,39.538l0.096,0.084
			c18.651,16.287,65.067,59.727,87.894,121.66c6.094,16.531,9.428,40.904,9.428,40.904h141.166V143.489H466.667z M333.499,193.738
			c-0.191,0.168-0.383,0.341-0.573,0.512H300.69v-25h32.81L333.499,193.738L333.499,193.738z M333.499,144.25h-32.81v-25h32.81
			V144.25z M395.669,206.967h-25.072v-19.104h25.072V206.967L395.669,206.967z M395.669,176.967h-25.072v-19.104h25.072V176.967
			L395.669,176.967z M395.669,146.967h-25.072v-19.104h25.072V146.967L395.669,146.967z M395.669,116.967h-25.072V97.863h25.072
			V116.967L395.669,116.967z M451.669,247.992h-25.072v-19.104h25.072V247.992L451.669,247.992z M451.669,217.992h-25.072v-19.104
			h25.072V217.992L451.669,217.992z M451.669,187.992h-25.072v-19.104h25.072V187.992L451.669,187.992z M451.669,157.992h-25.072
			v-19.104h25.072V157.992L451.669,157.992z"/>
		<path d="M183.017,274.087c-3.387-13.115-4.584-25.557-3.794-36.917c0.888-12.755,4.173-24.296,9.503-33.377
			c3.578-6.1,6.943-10.683,10.591-14.42c4.361-4.47,8.706-8.114,13.284-11.142c1.936-1.28,5.204-3.673,8.674-5.769V76.518h-78.36
			v88.527h-13.521l0.076-94.155H66.669v94.155h-3.867v-32.807H0v280.207h184.169c0,0,19.396-21.939,17.111-61.945
			C199.335,316.404,189.085,297.571,183.017,274.087z M43.669,257.966H18.597v-19.104h25.072V257.966z M43.669,227.967H18.597
			v-19.104h25.072V227.967z M43.669,197.967H18.597v-19.104h25.072V197.967z M43.669,167.967H18.597v-19.104h25.072V167.967z
			 M85.265,87.516h25.07v19.104h-25.07V87.516z M85.265,117.516h25.07v19.104h-25.07V117.516z M85.265,147.516h25.07v17.529h-25.07
			V147.516z M125.406,261.071h-32.81v-25h32.81V261.071z M125.406,211.071h-32.81v-25h32.81V211.071z M165.689,103.25h32.81v25
			h-32.81V103.25z M165.689,153.25h32.81v24.488c-0.191,0.168-0.383,0.341-0.573,0.512H165.69L165.689,153.25L165.689,153.25z"/>
	</g>
</g>
<g>
</g>
<g>
</g>
<g>
</g>
<g>
</g>
<g>
</g>
<g>
</g>
<g>
</g>
<g>
</g>
<g>
</g>
<g>
</g>
<g>
</g>
<g>
</g>
<g>
</g>
<g>
</g>
<g>
</g>
</svg>
