<?xml version="1.0" encoding="iso-8859-1"?>
<!-- Generator: Adobe Illustrator 16.0.0, SVG Export Plug-In . SVG Version: 6.00 Build 0)  -->
<!DOCTYPE svg PUBLIC "-//W3C//DTD SVG 1.1//EN" "http://www.w3.org/Graphics/SVG/1.1/DTD/svg11.dtd">
<svg version="1.1" id="Capa_1" xmlns="http://www.w3.org/2000/svg" xmlns:xlink="http://www.w3.org/1999/xlink" x="0px" y="0px"
	 width="338.214px" height="338.214px" viewBox="0 0 338.214 338.214" style="enable-background:new 0 0 338.214 338.214;"
	 xml:space="preserve">
<g>
	<g>
		<path d="M257.762,267.517H59.682C26.772,267.517,0,240.741,0,207.841c0-30.654,22.965-56.174,53.416-59.354l2.735-0.639v-2.769
			c0-32.906,26.772-59.682,59.688-59.682c22.554,0,42.931,12.538,53.188,32.714l1.156,2.27l2.435-0.708
			c5.491-1.591,11.088-2.399,16.63-2.399c21.678,0,41.686,11.809,52.218,30.814l1.123,2.005l2.228-0.493
			c38.281-8.442,72.628,21.095,72.628,58.234C317.438,240.741,290.668,267.517,257.762,267.517z M324.463,188.224
			c-8.37-32.021-40.268-54.77-75.685-48.155c-11.877-19.81-33.302-32.018-56.457-32.018c-5.32,0-10.652,0.663-15.928,1.981
			c-4.311-7.768-10.027-14.408-16.732-19.714c7.404-11.745,20.398-19.621,35.291-19.621c15.792,0,30.06,8.779,37.241,22.917
			l1.153,2.267l2.45-0.706c18.843-5.485,38.946,3.186,48.206,19.891l1.123,2.005l2.228-0.493
			c26.901-5.891,50.86,14.781,50.86,40.785C338.214,169.614,332.894,180.592,324.463,188.224z"/>
	</g>
</g>
<g>
</g>
<g>
</g>
<g>
</g>
<g>
</g>
<g>
</g>
<g>
</g>
<g>
</g>
<g>
</g>
<g>
</g>
<g>
</g>
<g>
</g>
<g>
</g>
<g>
</g>
<g>
</g>
<g>
</g>
</svg>
