<?xml version="1.0" encoding="iso-8859-1"?>
<!-- Generator: Adobe Illustrator 18.1.1, SVG Export Plug-In . SVG Version: 6.00 Build 0)  -->
<svg version="1.1" id="Capa_1" xmlns="http://www.w3.org/2000/svg" xmlns:xlink="http://www.w3.org/1999/xlink" x="0px" y="0px"
	 viewBox="0 0 32 32" style="enable-background:new 0 0 32 32;" xml:space="preserve">
<g>
	<g>
		<path style="fill:#030104;" d="M21.5,10c-0.641,0-1.26,0.093-1.846,0.266C19.377,9.815,19.061,9.393,18.708,9H5.292
			c-0.537,0.6-0.994,1.271-1.356,2h21.03C23.963,10.366,22.773,10,21.5,10z"/>
		<path style="fill:#030104;" d="M26.189,12H3.512c-0.225,0.637-0.38,1.307-0.457,2h24.446C27.189,13.252,26.742,12.575,26.189,12z"
			/>
		<path style="fill:#030104;" d="M29.318,15H2.685c-0.77,0.513-1.415,1.197-1.88,2h30.393C30.732,16.197,30.089,15.512,29.318,15z"
			/>
		<path style="fill:#030104;" d="M6,26h20c1.775,0,3.371-0.773,4.471-2H1.528C2.627,25.229,4.224,26,6,26z"/>
		<path style="fill:#030104;" d="M0.803,23h30.392c0.353-0.607,0.601-1.282,0.722-2H0.083C0.203,21.718,0.451,22.393,0.803,23z"/>
		<path style="fill:#030104;" d="M31.658,18H0.343C0.121,18.626,0,19.299,0,20h32C32,19.299,31.88,18.626,31.658,18z"/>
		<path style="fill:#030104;" d="M12,6C9.856,6,7.889,6.749,6.343,8h11.314C16.111,6.749,14.144,6,12,6z"/>
	</g>
</g>
<g>
</g>
<g>
</g>
<g>
</g>
<g>
</g>
<g>
</g>
<g>
</g>
<g>
</g>
<g>
</g>
<g>
</g>
<g>
</g>
<g>
</g>
<g>
</g>
<g>
</g>
<g>
</g>
<g>
</g>
</svg>
