<?xml version="1.0" encoding="iso-8859-1"?>
<!-- Generator: Adobe Illustrator 18.1.1, SVG Export Plug-In . SVG Version: 6.00 Build 0)  -->
<svg version="1.1" id="Capa_1" xmlns="http://www.w3.org/2000/svg" xmlns:xlink="http://www.w3.org/1999/xlink" x="0px" y="0px"
	 viewBox="0 0 16.675 16.675" style="enable-background:new 0 0 16.675 16.675;" xml:space="preserve">
<g>
	<g>
		<path style="fill:#030104;" d="M12.915,0.438C10.715,3.004,8.354,0,8.354,0C5.885,2.88,3.631,0.438,3.631,0.438
			c-0.87,1.38-1.441,2.674-1.778,3.878h13C14.183,1.995,12.915,0.438,12.915,0.438z"/>
		<path style="fill:#030104;" d="M5.242,9.694c-0.049,0.08-0.081,0.185-0.081,0.258c-0.016,0.104-0.024,0.192-0.024,0.28
			c0,0.451,0.234,0.814,0.644,0.814c0.564,0,0.862-0.628,0.862-1.119c0-0.459-0.258-0.725-0.644-0.725
			C5.676,9.203,5.402,9.412,5.242,9.694z"/>
		<path style="fill:#030104;" d="M14.812,4.928H1.854c-1.589,7.83,6.53,11.747,6.53,11.747C14.824,12.785,15.504,8.238,14.812,4.928
			z M5.427,8.743c0.29-0.258,0.66-0.403,1.079-0.403c0.764,0,1.336,0.596,1.336,1.466c0,1.128-0.862,2.134-2.093,2.134
			c-1.176,0-1.748-0.805-1.748-1.836c0-1.192,0.572-2.222,1.296-2.794C5.885,6.843,6.65,6.585,7.439,6.545
			c0.193-0.016,0.322-0.009,0.435,0l-0.177,0.95C7.568,7.488,7.431,7.488,7.262,7.503C6.304,7.591,5.675,8.114,5.418,8.734
			L5.427,8.743z M9.939,11.941c-1.088,0-1.515-0.837-1.515-1.885c0-1.65,0.838-3.526,2.448-3.526c1.127,0,1.506,0.861,1.506,1.796
			C12.379,9.96,11.589,11.941,9.939,11.941z"/>
		<path style="fill:#030104;" d="M10.744,7.448c-0.781,0-1.184,1.884-1.184,2.649c0,0.386,0.064,0.925,0.522,0.925
			c0.798,0,1.152-1.996,1.152-2.688C11.235,7.987,11.186,7.448,10.744,7.448z"/>
	</g>
</g>
<g>
</g>
<g>
</g>
<g>
</g>
<g>
</g>
<g>
</g>
<g>
</g>
<g>
</g>
<g>
</g>
<g>
</g>
<g>
</g>
<g>
</g>
<g>
</g>
<g>
</g>
<g>
</g>
<g>
</g>
</svg>
