<?xml version="1.0" encoding="iso-8859-1"?>
<!-- Generator: Adobe Illustrator 16.0.0, SVG Export Plug-In . SVG Version: 6.00 Build 0)  -->
<!DOCTYPE svg PUBLIC "-//W3C//DTD SVG 1.1//EN" "http://www.w3.org/Graphics/SVG/1.1/DTD/svg11.dtd">
<svg version="1.1" id="Capa_1" xmlns="http://www.w3.org/2000/svg" xmlns:xlink="http://www.w3.org/1999/xlink" x="0px" y="0px"
	 width="44.974px" height="44.974px" viewBox="0 0 44.974 44.974" style="enable-background:new 0 0 44.974 44.974;"
	 xml:space="preserve">
<g>
	<g>
		<g>
			<path d="M35.133,3.151V2.668c0-0.214-0.054-0.422-0.164-0.605l-0.662-1.107c-0.076-0.127-0.213-0.206-0.361-0.206
				c-0.147,0-0.285,0.079-0.361,0.206l-0.653,1.107c-0.109,0.183-0.156,0.391-0.156,0.605v0.483c0.373-0.069,0.771-0.104,1.18-0.104
				C34.359,3.047,34.761,3.082,35.133,3.151z"/>
			<path d="M32.773,16.655v0.483c0,0.213,0.049,0.422,0.157,0.604l0.66,1.107c0.076,0.127,0.211,0.206,0.359,0.206
				c0.147,0,0.285-0.078,0.36-0.206l0.659-1.107c0.108-0.183,0.163-0.391,0.163-0.604v-0.483c-0.373,0.069-0.772,0.105-1.182,0.105
				C33.546,16.76,33.146,16.724,32.773,16.655z"/>
			<path d="M39.564,5.975l0.344-0.345c0.149-0.15,0.259-0.339,0.31-0.545l0.313-1.253c0.035-0.144-0.006-0.296-0.111-0.401
				c-0.104-0.105-0.258-0.147-0.401-0.111l-1.253,0.313c-0.206,0.052-0.395,0.158-0.546,0.309l-0.343,0.345
				C38.531,4.747,39.105,5.319,39.564,5.975z"/>
			<path d="M28.333,13.831l-0.345,0.344c-0.15,0.151-0.258,0.339-0.311,0.545l-0.312,1.253c-0.035,0.144,0.006,0.296,0.113,0.4
				c0.104,0.104,0.256,0.147,0.398,0.111l1.253-0.313c0.207-0.051,0.396-0.158,0.546-0.309l0.346-0.343
				C29.363,15.059,28.792,14.487,28.333,13.831z"/>
			<path d="M26.712,11.099h0.482c-0.067-0.373-0.104-0.794-0.104-1.201c0-0.407,0.036-0.787,0.104-1.201h-0.482
				c-0.213,0-0.422,0.064-0.604,0.174l-1.106,0.667c-0.127,0.076-0.205,0.215-0.205,0.364c0,0.149,0.078,0.287,0.205,0.363
				l1.106,0.666C26.291,11.04,26.5,11.099,26.712,11.099z"/>
			<path d="M42.896,9.541l-1.107-0.67c-0.184-0.11-0.391-0.174-0.604-0.174h-0.482c0.066,0.415,0.104,0.794,0.104,1.201
				s-0.036,0.829-0.104,1.201h0.482c0.215,0,0.422-0.059,0.604-0.168l1.107-0.665c0.127-0.076,0.203-0.215,0.203-0.362
				C43.1,9.755,43.023,9.617,42.896,9.541z"/>
			<path d="M27.678,5.085c0.053,0.206,0.159,0.396,0.311,0.545l0.345,0.344c0.459-0.656,1.03-1.228,1.688-1.688l-0.346-0.343
				c-0.149-0.151-0.339-0.258-0.546-0.31L27.877,3.32c-0.144-0.036-0.296,0.006-0.399,0.111c-0.104,0.104-0.147,0.257-0.112,0.401
				L27.678,5.085z"/>
			<path d="M40.217,14.721c-0.051-0.207-0.159-0.395-0.31-0.546l-0.344-0.345c-0.462,0.656-1.033,1.228-1.688,1.688l0.344,0.344
				c0.151,0.151,0.339,0.257,0.545,0.31l1.253,0.313c0.146,0.036,0.298-0.006,0.401-0.111c0.104-0.105,0.147-0.257,0.112-0.401
				L40.217,14.721z"/>
			<path d="M37.835,3.684c0.082-0.196,0.109-0.412,0.078-0.622l-0.188-1.277c-0.021-0.146-0.116-0.271-0.256-0.329
				c-0.136-0.058-0.293-0.038-0.413,0.05l-1.039,0.766c-0.171,0.127-0.306,0.297-0.388,0.494l-0.186,0.446
				c0.793,0.178,1.537,0.493,2.2,0.921L37.835,3.684z"/>
			<path d="M30.062,16.122c-0.081,0.196-0.108,0.412-0.077,0.622l0.188,1.278c0.021,0.146,0.119,0.271,0.256,0.328
				c0.138,0.058,0.293,0.039,0.413-0.049l1.04-0.766c0.17-0.126,0.304-0.298,0.387-0.494l0.187-0.446
				c-0.793-0.177-1.537-0.493-2.202-0.92L30.062,16.122z"/>
			<path d="M39.734,6.23c0.424,0.667,0.735,1.412,0.912,2.208l0.446-0.185c0.197-0.081,0.369-0.214,0.495-0.385l0.771-1.035
				c0.09-0.119,0.108-0.276,0.053-0.413c-0.056-0.137-0.182-0.235-0.328-0.257L40.807,5.97c-0.211-0.032-0.425-0.005-0.623,0.075
				L39.734,6.23z"/>
			<path d="M28.16,13.575c-0.424-0.667-0.736-1.412-0.911-2.207l-0.447,0.184c-0.195,0.081-0.368,0.214-0.496,0.385l-0.771,1.035
				c-0.088,0.12-0.107,0.276-0.051,0.413c0.057,0.137,0.182,0.234,0.328,0.257l1.274,0.193c0.211,0.032,0.426,0.006,0.624-0.075
				L28.16,13.575z"/>
			<path d="M41.58,11.972c-0.127-0.171-0.297-0.304-0.494-0.387l-0.447-0.187c-0.177,0.795-0.491,1.538-0.921,2.203l0.448,0.188
				c0.197,0.082,0.412,0.108,0.623,0.078l1.279-0.187c0.146-0.021,0.271-0.118,0.328-0.255c0.057-0.137,0.037-0.293-0.052-0.413
				L41.58,11.972z"/>
			<path d="M26.318,7.834c0.125,0.171,0.297,0.304,0.493,0.387l0.444,0.186c0.178-0.794,0.495-1.538,0.921-2.203L27.73,6.017
				c-0.197-0.083-0.412-0.109-0.623-0.079L25.83,6.126c-0.146,0.021-0.271,0.118-0.329,0.256c-0.058,0.136-0.038,0.293,0.05,0.413
				L26.318,7.834z"/>
			<path d="M30.277,4.115c0.666-0.425,1.41-0.736,2.207-0.911l-0.186-0.447c-0.081-0.196-0.214-0.368-0.386-0.495l-1.036-0.77
				c-0.118-0.089-0.273-0.109-0.413-0.052c-0.139,0.057-0.233,0.181-0.257,0.328l-0.193,1.276c-0.031,0.21-0.006,0.426,0.076,0.623
				L30.277,4.115z"/>
			<path d="M37.621,15.69c-0.668,0.425-1.411,0.737-2.207,0.911l0.185,0.447c0.081,0.197,0.214,0.368,0.387,0.495l1.033,0.771
				c0.12,0.089,0.276,0.108,0.414,0.051c0.139-0.056,0.234-0.18,0.258-0.327l0.191-1.276c0.03-0.21,0.006-0.426-0.075-0.623
				L37.621,15.69z"/>
			<circle cx="33.947" cy="9.903" r="5.663"/>
			<path d="M20.057,24.867V6.935C20.057,3.111,16.942,0,13.119,0C9.294,0,6.181,3.111,6.181,6.935v17.934
				c-2.692,2.126-4.306,5.381-4.306,8.856c0,6.201,5.05,11.248,11.251,11.248c6.203,0,11.248-5.047,11.248-11.248
				C24.374,30.251,22.792,26.996,20.057,24.867z M13.13,42.027c-4.577,0-8.3-3.726-8.3-8.302c0-2.765,1.38-5.338,3.675-6.888
				c0.405-0.273,0.659-0.73,0.659-1.222V6.934c0-2.198,1.778-3.987,3.977-3.987c2.198,0,3.976,1.789,3.976,3.987v18.682
				c0,0.49,0.244,0.947,0.65,1.222c2.295,1.55,3.666,4.125,3.666,6.888C21.432,38.303,17.708,42.027,13.13,42.027z"/>
			<path d="M14.589,29.544V8.797c0-0.814-0.657-1.474-1.47-1.474c-0.814,0-1.471,0.66-1.471,1.474v20.746
				c-1.864,0.617-3.189,2.367-3.189,4.43c0,2.577,2.092,4.668,4.669,4.668s4.66-2.091,4.66-4.668
				C17.79,31.91,16.454,30.16,14.589,29.544z"/>
		</g>
	</g>
</g>
<g>
</g>
<g>
</g>
<g>
</g>
<g>
</g>
<g>
</g>
<g>
</g>
<g>
</g>
<g>
</g>
<g>
</g>
<g>
</g>
<g>
</g>
<g>
</g>
<g>
</g>
<g>
</g>
<g>
</g>
</svg>
