<?xml version="1.0" encoding="iso-8859-1"?>
<!-- Generator: Adobe Illustrator 16.0.0, SVG Export Plug-In . SVG Version: 6.00 Build 0)  -->
<!DOCTYPE svg PUBLIC "-//W3C//DTD SVG 1.1//EN" "http://www.w3.org/Graphics/SVG/1.1/DTD/svg11.dtd">
<svg version="1.1" id="Capa_1" xmlns="http://www.w3.org/2000/svg" xmlns:xlink="http://www.w3.org/1999/xlink" x="0px" y="0px"
	 width="98.602px" height="98.602px" viewBox="0 0 98.602 98.602" style="enable-background:new 0 0 98.602 98.602;"
	 xml:space="preserve">
<g>
	<g>
		<circle cx="30.841" cy="10.4" r="10.4"/>
		<circle cx="68.523" cy="23.709" r="9.798"/>
		<path d="M94.844,93.066l-0.375-1.396l-8.09,3.736c0.659,2.308,3.041,3.67,5.362,3.043C94.086,97.82,95.475,95.41,94.844,93.066z"
			/>
		<polygon points="93.725,88.91 84.956,90.136 85.926,93.734 94.016,89.992 		"/>
		<path d="M92.409,84.027l-7.696,3.275c0.012-0.021,0.021-0.046,0.032-0.068c0.017-0.221,0.025-0.442,0.046-0.662
			c0.034-0.426,0.104-0.844,0.196-1.252l6.976-2.969l-4.509-17.199c-0.155-0.59-0.438-1.115-0.791-1.578
			c0.048,0,0.095,0.004,0.146,0.004c2.098,0,3.801-1.703,3.801-3.805c0-2.1-1.703-3.804-3.801-3.804
			c-5.734,0-9.428-2.364-11.342-14.452c-0.045-0.274-0.117-0.536-0.215-0.785c-0.476-3.521-3.709-5.879-6.732-6.62
			c0,0-1.029-0.31-2.127-0.285c-1.051,0.024-2.223,0.268-2.223,0.268L64.143,34.1c-3.295,0.808-6.807,3.493-6.807,7.523v19.604
			l-2.875-20.389c-0.228-1.704-1.8-2.899-3.496-2.673c-1.705,0.227-2.902,1.792-2.672,3.496l0.146,1.07
			c-0.072-0.014-0.139-0.043-0.213-0.054c-6.328-0.866-10.197-1.374-12.09-3.744c-1.463-1.833-2.207-11.001-2.418-11.4
			c-0.627-2.847-2.957-5.162-5.377-6.335c0,0-1.004-0.55-2.148-0.769c-1.094-0.208-2.363-0.215-2.363-0.215l-0.031-0.002
			c-3.6,0.104-7.842,2.112-8.738,6.294l-4.809,22.446c-0.477,2.226,0.146,4.277,1.383,5.943l-1.045,15.93L3.953,87.988
			c-1.023,2.646,0.293,5.623,2.939,6.646c0.609,0.235,1.236,0.349,1.854,0.349c2.059,0,4.006-1.25,4.793-3.287l6.92-17.896
			c0.189-0.484,0.303-0.997,0.336-1.518l0.607-9.271l6.105,9.649l4.744,17.781c0.611,2.299,2.689,3.816,4.961,3.816
			c0.438,0,0.883-0.057,1.328-0.175c2.742-0.731,4.371-3.546,3.641-6.289l-4.945-18.54c-0.133-0.503-0.342-0.984-0.621-1.424
			l-8.313-13.139c0.264-0.531,0.48-1.105,0.613-1.74l1.49-7.617c2.18,2.647,12.924,5.555,18.033,5.572
			c0.383-0.019,0.756-0.086,1.107-0.205l2.551,18.328c-1.685,2.812-2.654,6.099-2.654,9.607c0,10.344,8.414,18.76,18.757,18.76
			c6.836,0,12.828-3.676,16.105-9.154l0.002,0.006c0.024-0.072,0.057-0.143,0.082-0.215l0.117,0.427l8.766-1.226L92.409,84.027z
			 M73.143,57.712c1.953,1.735,4.158,3.241,6.646,4.476l-6.646-0.031V57.712z M68.2,90.997c-6.813,0-12.36-5.546-12.36-12.361
			c0-1.55,0.299-3.026,0.823-4.396c0.222,0.033,0.443,0.057,0.673,0.057H79.76c0.512,1.354,0.805,2.812,0.805,4.339
			C80.564,85.451,75.018,90.997,68.2,90.997z"/>
	</g>
</g>
<g>
</g>
<g>
</g>
<g>
</g>
<g>
</g>
<g>
</g>
<g>
</g>
<g>
</g>
<g>
</g>
<g>
</g>
<g>
</g>
<g>
</g>
<g>
</g>
<g>
</g>
<g>
</g>
<g>
</g>
</svg>
