<?xml version="1.0" encoding="iso-8859-1"?>
<!-- Generator: Adobe Illustrator 18.1.1, SVG Export Plug-In . SVG Version: 6.00 Build 0)  -->
<svg version="1.1" id="Capa_1" xmlns="http://www.w3.org/2000/svg" xmlns:xlink="http://www.w3.org/1999/xlink" x="0px" y="0px"
	 viewBox="0 0 100 100" style="enable-background:new 0 0 100 100;" xml:space="preserve">
<g>
	<g>
		<path style="fill:#030104;" d="M90,10H10C4.5,10,0,14.5,0,20v60c0,5.5,4.5,10,10,10h80c5.5,0,10-4.5,10-10V20
			C100,14.5,95.5,10,90,10z M90,80H10V20h80V80z M45,60.5H20v9h25V60.5z M45,45.5H20v9h25V45.5z M45,30.5H20v9h25V30.5z M79.5,62.5
			c0,0-8.5-2.224-8.5-6.589C71,51.75,76.5,50,76.5,41.5c0-6.903-2.098-11-9-11c-6.904,0-9,4.097-9,11
			c0,8.5,5.498,10.25,5.498,14.411c0,4.365-8.498,6.589-8.498,6.589c-0.5,0-0.5,7-0.5,7h25C80,69.5,80,62.5,79.5,62.5z"/>
	</g>
</g>
<g>
</g>
<g>
</g>
<g>
</g>
<g>
</g>
<g>
</g>
<g>
</g>
<g>
</g>
<g>
</g>
<g>
</g>
<g>
</g>
<g>
</g>
<g>
</g>
<g>
</g>
<g>
</g>
<g>
</g>
</svg>
