<?xml version="1.0" encoding="iso-8859-1"?>
<!-- Generator: Adobe Illustrator 16.0.0, SVG Export Plug-In . SVG Version: 6.00 Build 0)  -->
<!DOCTYPE svg PUBLIC "-//W3C//DTD SVG 1.1//EN" "http://www.w3.org/Graphics/SVG/1.1/DTD/svg11.dtd">
<svg version="1.1" id="Capa_1" xmlns="http://www.w3.org/2000/svg" xmlns:xlink="http://www.w3.org/1999/xlink" x="0px" y="0px"
	 width="470.672px" height="470.672px" viewBox="0 0 470.672 470.672" style="enable-background:new 0 0 470.672 470.672;"
	 xml:space="preserve">
<g>
	<g>
		<path d="M172.196,24.104c-3.497-3.498-8.728-4.604-13.34-2.822c-30.314,11.702-57.41,29.362-80.537,52.488
			c-43.914,43.914-68.098,102.3-68.098,164.403c0,62.103,24.185,120.487,68.098,164.4c43.913,43.914,102.299,68.099,164.402,68.099
			c62.104,0,120.489-24.185,164.402-68.099c23.125-23.125,40.785-50.222,52.489-80.536c1.78-4.612,0.675-9.844-2.822-13.341
			s-8.728-4.603-13.341-2.822c-23.927,9.238-49.12,13.922-74.882,13.922c-55.42,0-107.521-21.579-146.706-60.766
			c-58.024-58.022-76.412-145.001-46.844-221.587C176.8,32.831,175.693,27.601,172.196,24.104z M204.185,276.708
			c43.907,43.907,102.285,68.089,164.382,68.089c19.066,0,37.86-2.292,56.151-6.835c-9.396,17.146-21.2,32.86-35.271,46.935
			c-39.192,39.192-91.3,60.775-146.726,60.775s-107.533-21.583-146.725-60.775c-39.191-39.191-60.775-91.299-60.775-146.724
			c0-55.426,21.584-107.534,60.775-146.726c14.075-14.075,29.792-25.88,46.938-35.275
			C123.454,134.618,146.088,218.614,204.185,276.708z"/>
		<path d="M284.756,73.308c1.305,3.676,4.828,6.083,8.725,5.985l31.863-0.864l10.667,30.04c1.277,3.597,4.68,5.988,8.479,5.988
			c0.082,0,0.164-0.001,0.246-0.003c3.896-0.105,7.283-2.709,8.388-6.449l9.025-30.572l31.865-0.862
			c3.897-0.105,7.284-2.709,8.389-6.448c1.104-3.74-0.326-7.765-3.541-9.971L372.574,42.12l9.025-30.57
			c1.104-3.739-0.324-7.765-3.54-9.971c-3.215-2.206-7.483-2.09-10.576,0.286l-25.272,19.429L315.926,3.262
			c-3.215-2.204-7.484-2.091-10.577,0.286c-3.091,2.377-4.3,6.474-2.996,10.147l10.667,30.038l-25.271,19.429
			C284.661,65.537,283.451,69.634,284.756,73.308z M332.173,43.871l-3.585-10.097l8.835,6.062c3.215,2.206,7.484,2.091,10.577-0.286
			l8.495-6.531l-3.034,10.275c-1.104,3.739,0.325,7.765,3.54,9.971l8.839,6.063l-10.714,0.29c-3.897,0.105-7.284,2.709-8.388,6.449
			l-3.034,10.275l-3.586-10.098c-1.277-3.597-4.681-5.988-8.479-5.988c-0.082,0-0.164,0.001-0.246,0.003l-10.712,0.291l8.496-6.532
			C332.269,51.641,333.478,47.543,332.173,43.871z"/>
		<path d="M251.053,193.302c-0.445,3.874,1.655,7.594,5.202,9.214l45.207,20.65l-5.674,49.375c-0.445,3.873,1.654,7.594,5.201,9.214
			c1.2,0.549,2.475,0.813,3.736,0.813c2.468,0,4.89-1.014,6.633-2.914l33.613-36.614l45.204,20.653
			c1.25,0.569,2.591,0.839,3.889,0.813c4.912-0.068,8.872-4.071,8.872-8.999c0-1.814-0.536-3.505-1.461-4.918l-24.153-42.784
			l33.609-36.609c2.638-2.873,3.125-7.116,1.208-10.512c-1.917-3.395-5.801-5.165-9.624-4.396l-48.709,9.864l-24.433-43.278
			c-1.917-3.395-5.801-5.169-9.624-4.396c-3.821,0.774-6.71,3.921-7.155,7.794l-5.671,49.375l-48.714,9.862
			C254.387,186.283,251.498,189.429,251.053,193.302z M316.903,191.991c3.82-0.774,6.71-3.921,7.154-7.794l3.256-28.353
			l14.03,24.852c1.917,3.395,5.801,5.166,9.624,4.396l27.968-5.664l-19.298,21.021c-2.637,2.873-3.125,7.116-1.208,10.512
			l14.029,24.85l-25.956-11.859c-3.547-1.618-7.733-0.772-10.37,2.1l-19.302,21.024l3.258-28.351
			c0.445-3.874-1.655-7.594-5.202-9.214l-25.958-11.857L316.903,191.991z"/>
		<path d="M273.189,105.758h-23.278l-7.193-22.141c-1.205-3.708-4.659-6.219-8.56-6.219c-3.899,0-7.355,2.511-8.56,6.219
			l-7.193,22.141h-23.278c-3.899,0-7.355,2.511-8.56,6.22c-1.205,3.708,0.116,7.771,3.271,10.063l18.831,13.678l-7.194,22.139
			c-1.205,3.708,0.115,7.771,3.269,10.063c3.154,2.291,7.426,2.292,10.58,0l18.834-13.682l18.833,13.682
			c1.578,1.146,3.434,1.719,5.289,1.719c0.007,0,0.014,0.001,0.021,0c4.972,0,9-4.029,9-9c0-1.189-0.231-2.326-0.649-3.365
			l-7.004-21.555l18.832-13.678c3.155-2.292,4.476-6.354,3.271-10.063C280.545,108.269,277.089,105.758,273.189,105.758z
			 M243.777,124.997c-3.155,2.292-4.477,6.354-3.271,10.063l0.655,2.017l-1.714-1.245c-3.153-2.29-7.423-2.291-10.58,0l-1.715,1.246
			l0.656-2.018c1.205-3.708-0.115-7.771-3.271-10.063l-1.707-1.239h2.112c3.899,0,7.355-2.511,8.56-6.219l0.654-2.014l0.654,2.014
			c1.205,3.708,4.661,6.219,8.56,6.219h2.111L243.777,124.997z"/>
	</g>
</g>
<g>
</g>
<g>
</g>
<g>
</g>
<g>
</g>
<g>
</g>
<g>
</g>
<g>
</g>
<g>
</g>
<g>
</g>
<g>
</g>
<g>
</g>
<g>
</g>
<g>
</g>
<g>
</g>
<g>
</g>
</svg>
