<?xml version="1.0" encoding="iso-8859-1"?>
<!-- Generator: Adobe Illustrator 18.0.0, SVG Export Plug-In . SVG Version: 6.00 Build 0)  -->
<!DOCTYPE svg PUBLIC "-//W3C//DTD SVG 1.1//EN" "http://www.w3.org/Graphics/SVG/1.1/DTD/svg11.dtd">
<svg version="1.1" id="Capa_1" xmlns="http://www.w3.org/2000/svg" xmlns:xlink="http://www.w3.org/1999/xlink" x="0px" y="0px"
	 viewBox="0 0 491.977 491.977" style="enable-background:new 0 0 491.977 491.977;" xml:space="preserve">
<g>
	<path d="M245.998,108.554c29.976,0,54.271-24.296,54.271-54.272C300.269,24.304,275.973,0,245.998,0
		c-29.978,0-54.29,24.304-54.29,54.281C191.708,84.258,216.02,108.554,245.998,108.554z"/>
	<path d="M400.839,18.977c-10.398-8.738-25.949-7.398-34.727,3.017l-85.325,101.541c-3.739,4.453-9.228,7.005-15.036,7.005h-39.525
		c-5.81,0-11.298-2.552-15.037-7.005L125.865,21.994c-8.778-10.415-24.312-11.771-34.728-3.017
		c-10.431,8.762-11.778,24.304-3.017,34.726l98.145,116.739v139.428v8.127V467.04c0,13.77,11.171,24.937,24.939,24.937
		c13.769,0,24.938-11.161,24.938-24.937V317.998h19.706V467.04c0,13.776,11.169,24.937,24.938,24.937
		c13.768,0,24.939-11.161,24.939-24.937V317.998v-8.111V170.704l98.131-117.001C412.619,43.28,411.27,27.738,400.839,18.977z"/>
</g>
<g>
</g>
<g>
</g>
<g>
</g>
<g>
</g>
<g>
</g>
<g>
</g>
<g>
</g>
<g>
</g>
<g>
</g>
<g>
</g>
<g>
</g>
<g>
</g>
<g>
</g>
<g>
</g>
<g>
</g>
</svg>
