<?xml version="1.0" encoding="utf-8"?>
<!-- Generator: Adobe Illustrator 16.0.3, SVG Export Plug-In . SVG Version: 6.00 Build 0)  -->
<!DOCTYPE svg PUBLIC "-//W3C//DTD SVG 1.1//EN" "http://www.w3.org/Graphics/SVG/1.1/DTD/svg11.dtd">
<svg version="1.1" id="noParking" xmlns="http://www.w3.org/2000/svg" xmlns:xlink="http://www.w3.org/1999/xlink" x="0px" y="0px"
	 width="200px" height="200px" viewBox="0 0 200 200" enable-background="new 0 0 200 200" xml:space="preserve">
<path d="M99.984,22.768c-41.83,0-75.862,34.032-75.862,75.862c0,41.83,34.032,75.862,75.862,75.862
	c41.831,0,75.863-34.032,75.863-75.862C175.847,56.799,141.814,22.768,99.984,22.768z M164.372,98.63
	c0,15.689-5.644,30.086-15.005,41.269l-28.943-28.942c11.911-4.289,20.452-15.699,20.452-29.07v-2.81
	c0-17.032-13.856-30.889-30.889-30.889H81.266c-4.624,0-8.372,3.749-8.372,8.373v6.866l-14.18-14.178
	c11.184-9.362,25.58-15.007,41.271-15.007C135.487,34.241,164.372,63.126,164.372,98.63z M89.637,80.171V64.933h20.35
	c7.8,0,14.144,6.345,14.144,14.144v2.811c0,7.799-6.344,14.144-14.144,14.144h-4.489L89.637,80.171z M35.596,98.63
	c0-15.69,5.645-30.086,15.005-41.269l22.292,22.291v61.047c0,4.625,3.748,8.373,8.372,8.373s8.372-3.748,8.372-8.373v-27.924h16.378
	l35.238,35.236c-11.184,9.361-25.578,15.006-41.27,15.006C64.48,163.018,35.596,134.133,35.596,98.63z"/>
</svg>
