<?xml version="1.0" encoding="utf-8"?>
<!-- Generator: Adobe Illustrator 16.0.3, SVG Export Plug-In . SVG Version: 6.00 Build 0)  -->
<!DOCTYPE svg PUBLIC "-//W3C//DTD SVG 1.1//EN" "http://www.w3.org/Graphics/SVG/1.1/DTD/svg11.dtd">
<svg version="1.1" id="noTurning" xmlns="http://www.w3.org/2000/svg" xmlns:xlink="http://www.w3.org/1999/xlink" x="0px" y="0px"
	 width="200px" height="200px" viewBox="0 0 200 200" enable-background="new 0 0 200 200" xml:space="preserve">
<g>
	<g id="sync-disabled">
		<path d="M85.248,39.141V19.686c-7.782,1.946-14.591,4.864-21.4,9.728l14.591,14.591C80.384,42.059,82.33,40.114,85.248,39.141z
			 M16.184,30.387l23.345,23.345c-7.782,11.672-12.646,25.291-12.646,40.854c0,21.401,8.755,40.856,23.345,54.475l-23.345,23.345
			h58.365v-58.365l-21.4,21.401c-10.7-9.729-17.509-24.319-17.509-40.856c0-9.727,1.945-18.481,6.809-27.236l78.793,78.792
			c-1.947,0.974-4.864,1.946-7.783,2.92v20.426c7.783-1.946,14.592-4.864,21.4-9.727l23.347,23.346l12.646-12.646L27.856,17.741
			L16.184,30.387z M182.522,16.768h-58.365v58.364l21.4-21.4c10.702,9.727,17.511,24.319,17.511,40.854
			c0,9.728-1.947,18.483-6.809,27.238l14.591,14.592c6.81-12.646,11.672-26.266,11.672-41.83c0-21.4-8.756-40.854-23.347-54.472
			L182.522,16.768z"/>
	</g>
</g>
</svg>
