<?xml version="1.0" encoding="iso-8859-1"?>
<!-- Generator: Adobe Illustrator 16.0.0, SVG Export Plug-In . SVG Version: 6.00 Build 0)  -->
<!DOCTYPE svg PUBLIC "-//W3C//DTD SVG 1.1//EN" "http://www.w3.org/Graphics/SVG/1.1/DTD/svg11.dtd">
<svg version="1.1" id="Capa_1" xmlns="http://www.w3.org/2000/svg" xmlns:xlink="http://www.w3.org/1999/xlink" x="0px" y="0px"
	 width="612px" height="612px" viewBox="0 0 612 612" style="enable-background:new 0 0 612 612;" xml:space="preserve">
<g>
	<g id="user_-_single_delete_cross">
		<g>
			<path d="M161.611,344.861c29.453,23.371,65.522,37.639,104.919,37.639c39.398,0,75.467-14.268,104.958-37.639
				c26.469,2.028,49.112,16.678,61.812,37.639h43.414c-12.164-32.895-39.436-58.79-73.822-70.035
				c25.397-33.087,41.31-74.971,41.31-121.215C444.202,85.604,364.643,0,266.531,0C168.42,0,88.86,85.604,88.86,191.25
				c0,46.283,15.912,88.166,41.31,121.215c-46.818,15.299-80.784,57.757-80.784,108.285v76.5c0,63.38,53.015,114.75,118.46,114.75
				h187.54l4.935-38.25H167.846c-43.605,0-78.986-34.233-78.986-76.5v-76.5C88.86,380.549,120.952,347.998,161.611,344.861z
				 M128.372,191.25c0-84.494,61.889-153,138.197-153s138.159,68.506,138.159,153s-61.851,153-138.198,153
				C190.222,344.25,128.372,275.744,128.372,191.25z M510.527,497.25l46.551-45.097c7.382-7.191,7.382-18.781,0-25.972
				c-7.421-7.153-19.393-7.153-26.813,0l-46.55,45.097l-46.551-45.097c-7.382-7.153-19.393-7.153-26.813,0
				c-7.382,7.19-7.382,18.78,0,25.972l46.551,45.097l-46.551,45.097c-7.382,7.153-7.382,18.781,0,25.972
				c7.383,7.153,19.394,7.153,26.813,0l46.551-45.097l46.55,45.097c7.383,7.153,19.393,7.153,26.813,0
				c7.382-7.19,7.382-18.818,0-25.972L510.527,497.25z"/>
		</g>
	</g>
</g>
<g>
</g>
<g>
</g>
<g>
</g>
<g>
</g>
<g>
</g>
<g>
</g>
<g>
</g>
<g>
</g>
<g>
</g>
<g>
</g>
<g>
</g>
<g>
</g>
<g>
</g>
<g>
</g>
<g>
</g>
</svg>
