<?xml version="1.0" encoding="iso-8859-1"?>
<!-- Generator: Adobe Illustrator 18.0.0, SVG Export Plug-In . SVG Version: 6.00 Build 0)  -->
<!DOCTYPE svg PUBLIC "-//W3C//DTD SVG 1.1//EN" "http://www.w3.org/Graphics/SVG/1.1/DTD/svg11.dtd">
<svg version="1.1" id="Capa_1" xmlns="http://www.w3.org/2000/svg" xmlns:xlink="http://www.w3.org/1999/xlink" x="0px" y="0px"
	 viewBox="0 0 329.562 329.562" style="enable-background:new 0 0 329.562 329.562;" xml:space="preserve">
<g>
	<path d="M326.174,272.923l-139.5-241.568c-4.516-7.821-12.861-12.638-21.893-12.638c-9.031,0-17.377,4.816-21.893,12.638
		L3.388,272.923c-4.518,7.821-4.518,17.46-0.002,25.282c4.516,7.822,12.862,12.641,21.895,12.641h279
		c9.032,0,17.379-4.818,21.895-12.641C330.691,290.383,330.691,280.744,326.174,272.923z M25.281,285.565l139.5-241.568
		l139.5,241.568H25.281z"/>
	<path d="M156.776,166.291l-6.333-7.076l-6.333,7.076v15.963H128.1v-15.963l-6.334-7.076l-6.332,7.076v15.963h-5.653v9.174h5.653
		v47.029h-5.653v9.174h5.653v12.717H128.1v-12.717h16.01v12.717h12.666v-12.717h16.01v12.717h12.666v-12.717h16.01v12.717h12.666
		v-12.717h5.653v-9.174h-5.653v-47.029h5.653v-9.174h-5.653v-15.963l-6.332-7.076l-6.334,7.076v15.963h-16.01v-15.963l-6.333-7.076
		l-6.333,7.076v15.963h-16.01V166.291z M144.11,238.457H128.1v-47.029h16.01V238.457z M185.452,191.428h16.01v47.029h-16.01V191.428
		z M172.786,191.428v47.029h-16.01v-47.029H172.786z"/>
</g>
<g>
</g>
<g>
</g>
<g>
</g>
<g>
</g>
<g>
</g>
<g>
</g>
<g>
</g>
<g>
</g>
<g>
</g>
<g>
</g>
<g>
</g>
<g>
</g>
<g>
</g>
<g>
</g>
<g>
</g>
</svg>
