<?xml version="1.0" encoding="iso-8859-1"?>
<!-- Generator: Adobe Illustrator 16.0.0, SVG Export Plug-In . SVG Version: 6.00 Build 0)  -->
<!DOCTYPE svg PUBLIC "-//W3C//DTD SVG 1.1//EN" "http://www.w3.org/Graphics/SVG/1.1/DTD/svg11.dtd">
<svg version="1.1" id="Capa_1" xmlns="http://www.w3.org/2000/svg" xmlns:xlink="http://www.w3.org/1999/xlink" x="0px" y="0px"
	 width="517.773px" height="517.773px" viewBox="0 0 517.773 517.773" style="enable-background:new 0 0 517.773 517.773;"
	 xml:space="preserve">
<g>
	<g>
		<path d="M259.09,117.878c-19.556,0-35.462,15.905-35.462,35.46c0,6.525,1.827,12.94,5.289,18.551
			c6.522,10.588,17.798,16.903,30.163,16.903c13.019,0,24.976-7.118,31.193-18.572c2.797-5.15,4.262-10.987,4.262-16.882
			C294.535,133.783,278.628,117.878,259.09,117.878z"/>
		<path d="M393.926,299.822c-7.279-10.236-15.117-19.549-23.339-27.722c3.917-18.457,5.9-37.282,5.9-55.99
			c0-88.83-43.906-171.33-114.571-215.3c-1.748-1.081-3.929-1.081-5.692,0c-70.675,43.975-114.576,126.475-114.576,215.3
			c0,18.168,1.861,36.426,5.525,54.315c-8.208,8.18-16.045,17.485-23.324,27.727c-0.96,1.355-1.242,3.072-0.764,4.672l39.864,131.42
			c0.57,1.9,2.14,3.318,4.082,3.695c1.95,0.39,3.929-0.314,5.202-1.836c11.299-13.607,27.023-24.269,44.828-30.501v8.159
			c0,2.977,2.401,5.376,5.375,5.376h72.906c2.978,0,5.376-2.399,5.376-5.376v-6.489c17.801,6.226,33.528,16.908,44.835,30.511
			c1.023,1.227,2.551,1.931,4.143,1.931c0.34,0,0.709-0.031,1.055-0.109c1.937-0.395,3.508-1.811,4.09-3.712l39.847-131.425
			C395.166,302.899,394.882,301.178,393.926,299.822z M299.72,175.343c-8.104,14.925-23.674,24.194-40.646,24.194
			c-16.126,0-30.819-8.23-39.315-22.005c-4.507-7.312-6.888-15.68-6.888-24.194c0-25.481,20.728-46.211,46.219-46.211
			c25.47,0,46.206,20.73,46.206,46.211C305.286,161.012,303.359,168.624,299.72,175.343z M314.513,356.321
			c-0.896,1.996-2.854,3.171-4.906,3.171c-0.74,0-1.482-0.156-2.2-0.473c-2.71-1.224-3.916-4.399-2.698-7.106
			c39.107-86.962,33.396-164.302,33.332-165.079c-0.236-2.96,1.964-5.553,4.932-5.79c3.08-0.247,5.547,1.968,5.789,4.924
			C349.023,189.222,354.745,266.862,314.513,356.321z"/>
		<path d="M225.967,431.572c-2.971,0-5.375,2.409-5.375,5.375v42.678c0,2.977,2.404,5.376,5.375,5.376
			c2.974,0,5.375-2.399,5.375-5.376v-42.678C231.342,433.981,228.935,431.572,225.967,431.572z"/>
		<path d="M258.886,431.572c-2.975,0-5.375,2.409-5.375,5.375v75.451c0,2.966,2.401,5.375,5.375,5.375
			c2.974,0,5.375-2.409,5.375-5.375v-75.451C264.266,433.981,261.865,431.572,258.886,431.572z"/>
		<path d="M290.376,431.572c-2.971,0-5.375,2.409-5.375,5.375v42.678c0,2.977,2.404,5.376,5.375,5.376
			c2.981,0,5.376-2.399,5.376-5.376v-42.678C295.752,433.981,293.358,431.572,290.376,431.572z"/>
	</g>
</g>
<g>
</g>
<g>
</g>
<g>
</g>
<g>
</g>
<g>
</g>
<g>
</g>
<g>
</g>
<g>
</g>
<g>
</g>
<g>
</g>
<g>
</g>
<g>
</g>
<g>
</g>
<g>
</g>
<g>
</g>
</svg>
