<?xml version="1.0" encoding="utf-8"?>
<!-- Generator: Adobe Illustrator 16.0.3, SVG Export Plug-In . SVG Version: 6.00 Build 0)  -->
<!DOCTYPE svg PUBLIC "-//W3C//DTD SVG 1.1//EN" "http://www.w3.org/Graphics/SVG/1.1/DTD/svg11.dtd">
<svg version="1.1" id="shattered_x5F_car" xmlns="http://www.w3.org/2000/svg" xmlns:xlink="http://www.w3.org/1999/xlink" x="0px"
	 y="0px" width="200px" height="200px" viewBox="0 0 200 200" enable-background="new 0 0 200 200" xml:space="preserve">
<path fill="#1A1A1A" d="M197.793,87.907l-1.872-3.745c-1.873-3.121-5.618-4.369-8.738-2.496l-8.113,3.744
	c-3.744-9.361-7.488-19.347-11.232-29.333c-2.498-6.865-10.61-14.354-19.971-15.603L69.23,29.867
	c-8.737-1.248-18.723,3.745-23.091,9.362c-5.617,7.488-11.233,14.978-16.851,22.467l-15.603-1.873
	c-3.12-0.625-6.24,1.873-6.865,4.992l-0.624,4.473C5.573,74.281,9.317,79,14.31,80h1.249l-1.873,2.394
	C3.7,95.5-7.533,145.376,17.43,152.864l2.498,15.575c0.624,3.121,4.368,5.606,7.489,4.981l9.361-1.879
	c3.121-0.623,5.616-3.747,4.993-6.868l-1.248-8.115l120.45,16.226c29.331,4.369,33.076-50.552,26.836-66.153l-1.248-2.497
	l6.864-3.12C197.793,98.517,199.664,92.9,197.793,87.907z M54.251,45.469c2.497-3.12,11.234-5.617,13.73-4.993l17.474,1.873
	l9.362,20.595l1.249,2.496l1.872-1.247l9.362-3.745l3.121,12.894L111.044,75h2.496l7.49-1.659l3.119,5.099
	c0,0.624,0,0.677-0.624,1.301c0,1.873,0,3.147,0.624,5.02l-2.496-0.611c-4.369-0.624-8.113-1.242-11.856,1.255l-6.242-12.006
	L102.307,72h-1.872l-12.482,2.648l-16.85-13.653l-0.625-15.565l-4.992,0.644l0.624,13.739l-20.595,1.877L54.251,45.469z M42,66.064
	v0.624l25.785-1.873L85.357,79.17l0.673,1.248l1.274-0.624l12.492-1.873l6.248,11.234l-3.118,3.12l-17.473-2.497l-19.97-11.858
	l-32.649,4.369L42,66.064z M46.044,129.814c-4.941,3.526-12.71,1.109-17.355-5.399c-4.645-6.508-4.406-14.642,0.535-18.168
	c4.94-3.526,12.71-1.108,17.355,5.399C51.224,118.155,50.984,126.288,46.044,129.814z M125.613,141.94l-0.02,0.128
	c-0.276,1.878-2.083,3.167-4.032,2.88l-54.62-8.041c-1.95-0.287-3.308-2.041-3.031-3.918l0.019-0.128
	c0.276-1.878,2.082-3.167,4.032-2.88l54.621,8.041C124.531,138.31,125.889,140.063,125.613,141.94z M129.767,59.199l1.248,10.61
	c-1.872,1.249-3.12,1.872-3.744,3.121l-2.497-3.121l-0.624-1.873l-1.872,0.624l-7.488,1.249l-3.121-13.105l-1.247-3.12l-2.497,1.247
	l-9.362,3.745l-6.865-14.979l51.177,6.866l-11.858,6.241l-1.872,1.248L129.767,59.199z M136.008,69l-1.249-8.333l15.604-8.223
	c3.119,1.873,6.864,4.938,8.112,7.435l2.497,9.958l-13.105,3.952c-2.497-2.497-4.993-4.788-8.739-4.788
	C137.88,69,136.632,69,136.008,69z M167.212,135.962l-9.361-1.034L153.481,147c-1.247,0-2.494,0-3.744,0
	c-6.864-2-9.984-7.703-6.864-13.943c2.496-6.865,10.608-11.342,17.475-10.094C167.212,123.588,170.332,129.722,167.212,135.962z
	 M158.475,99.765l-3.12-6.241c-1.249-3.121-3.925-4.368-6.423-4.992c0.625-1.873,1.068-3.121,1.068-4.993c0-1.872,0-3.745,0-4.992
	l12.037-3.745l6.332,26.212L158.475,99.765z"/>
</svg>
