<?xml version="1.0" encoding="utf-8"?>
<!-- Generator: Adobe Illustrator 16.0.3, SVG Export Plug-In . SVG Version: 6.00 Build 0)  -->
<!DOCTYPE svg PUBLIC "-//W3C//DTD SVG 1.1//EN" "http://www.w3.org/Graphics/SVG/1.1/DTD/svg11.dtd">
<svg version="1.1" id="圖層_1" xmlns="http://www.w3.org/2000/svg" xmlns:xlink="http://www.w3.org/1999/xlink" x="0px" y="0px"
	 width="200px" height="200px" viewBox="0 0 200 200" enable-background="new 0 0 200 200" xml:space="preserve">
<g transform="translate(0,-952.36216)">
	<path d="M99.397,955.306c-2.962,0-6.404,0.916-9.027,2.75c-2.624,1.835-4.341,4.142-5.834,6.56l-0.075,0.118L15.717,1085.36
		c-2.322,3.724-3.528,7.675-3.409,12.861c0.062,2.685,0.585,5.918,2.958,8.955c2.373,3.039,6.724,4.894,10.551,4.894h66.253v38.703
		h14.65v-38.703h66.254c3.827,0,8.179-1.854,10.552-4.894c2.372-3.037,2.895-6.271,2.957-8.955
		c0.119-5.187-1.086-9.138-3.408-12.861l-68.743-120.627l-0.075-0.118c-1.494-2.418-3.209-4.724-5.834-6.56
		C105.8,956.221,102.357,955.306,99.397,955.306L99.397,955.306z M99.397,957.137c2.677,0,5.663,0.797,7.979,2.418
		c2.317,1.62,3.901,3.712,5.325,6.02l0.058,0.095l68.729,120.601l-0.191-0.312c2.204,3.402,3.469,7.35,3.357,12.223
		c-0.058,2.436-0.544,5.273-2.572,7.873c-2.03,2.599-5.7,4.188-9.106,4.188H25.818c-3.407,0-7.077-1.59-9.106-4.188
		c-2.03-2.6-2.516-5.438-2.572-7.873c-0.112-4.873,1.152-8.82,3.355-12.223l-0.19,0.313L86.034,965.67l0.058-0.096
		c1.424-2.307,3.009-4.399,5.326-6.02C93.733,957.934,96.719,957.138,99.397,957.137L99.397,957.137z M99.397,958.969
		c-2.396,0-4.922,0.682-6.932,2.089c-2.011,1.406-3.46,3.284-4.815,5.479l-0.042,0.071l-68.711,120.573l0.135-0.223
		c-1.917,2.961-3.162,6.809-3.061,11.186c0.05,2.188,0.496,4.625,2.182,6.784c1.686,2.159,4.68,3.484,7.665,3.484h147.158
		c2.985,0,5.979-1.325,7.664-3.484c1.687-2.159,2.133-4.598,2.182-6.785c0.102-4.376-1.144-8.224-3.063-11.185l0.137,0.221
		l-68.711-120.571l-0.044-0.072c-1.354-2.195-2.802-4.073-4.812-5.479C104.317,959.651,101.793,958.969,99.397,958.969
		L99.397,958.969z M99.397,968.124c0.983,0,1.204,0.103,1.68,0.437c0.476,0.332,1.26,1.152,2.262,2.769l68.668,120.497
		c1.032,1.812,1.952,4.063,1.663,6.106c-0.58,1.501-1.874,1.303-4.357,1.323H29.48c-2.481-0.021-3.775,0.178-4.356-1.323
		c-0.289-2.043,0.631-4.295,1.663-6.106l68.668-120.497c1.001-1.617,1.786-2.437,2.261-2.769
		C98.193,968.227,98.412,968.124,99.397,968.124z M91.563,1013.806c-1.525,0.152-2.908,0.754-4.016,1.62
		c-1.478,1.155-2.544,2.709-3.412,4.35c-1.52,2.873-2.421,5.957-3.172,8.133c-2.496-0.227-4.702,1.577-4.964,4.078l-0.959,9.106
		c-0.266,2.523,1.555,4.764,4.077,5.029l38.245,4.021c2.523,0.265,4.764-1.551,5.029-4.073l0.96-9.107
		c0.235-2.258-1.202-4.284-3.313-4.875c-0.288-2.286-0.523-5.532-1.419-8.688c-0.508-1.785-1.23-3.528-2.437-4.964
		c-1.205-1.436-2.98-2.514-5.129-2.74l-17.919-1.885c-0.537-0.056-1.062-0.054-1.571,0V1013.806z M91.893,1017.436
		c0.267-0.022,0.55-0.022,0.858,0.022l17.918,1.881c1.233,0.13,1.993,0.604,2.704,1.452c0.714,0.849,1.294,2.122,1.719,3.609
		c0.651,2.296,0.917,4.891,1.192,7.217l-31.577-3.318c0.754-2.218,1.552-4.7,2.668-6.811c0.724-1.367,1.556-2.491,2.429-3.172
		c0.655-0.511,1.292-0.813,2.089-0.876V1017.436z M79.481,1048.399c-1.412,0.012-2.583,1.094-2.711,2.5l-0.379,3.623
		c-0.155,1.51,0.944,2.857,2.454,3.013c1.504,0.154,2.851-0.937,3.012-2.44l0.379-3.619c0.18-1.506-0.896-2.873-2.402-3.053
		c-0.026-0.003-0.051-0.006-0.077-0.008c-0.091-0.012-0.184-0.02-0.275-0.021V1048.399z M115.906,1052.225
		c-1.41,0.013-2.584,1.095-2.71,2.5l-0.38,3.624c-0.155,1.509,0.938,2.859,2.45,3.017c1.505,0.154,2.855-0.938,3.014-2.445
		l0.38-3.62c0.183-1.505-0.892-2.874-2.398-3.056c-0.026-0.002-0.055-0.006-0.08-0.008c-0.091-0.012-0.184-0.019-0.275-0.021
		V1052.225z M74.481,1060.554c-27.476,16.013,23.293,12.093,3.573,33.354h18.778C115.747,1076.448,63.106,1074.858,74.481,1060.554z
		 M114.768,1064.215c-25.568,14.902,22.125,13.403,12.552,29.693h18.648C155.133,1079.011,104.135,1077.59,114.768,1064.215z"/>
</g>
</svg>
