<?xml version="1.0" encoding="utf-8"?>
<!-- Generator: Adobe Illustrator 16.0.3, SVG Export Plug-In . SVG Version: 6.00 Build 0)  -->
<!DOCTYPE svg PUBLIC "-//W3C//DTD SVG 1.1//EN" "http://www.w3.org/Graphics/SVG/1.1/DTD/svg11.dtd">
<svg version="1.1" id="圖層_1" xmlns="http://www.w3.org/2000/svg" xmlns:xlink="http://www.w3.org/1999/xlink" x="0px" y="0px"
	 width="200px" height="200px" viewBox="0 0 200 200" enable-background="new 0 0 200 200" xml:space="preserve">
<g transform="translate(0,-952.36216)">
	<path d="M99.397,955.757c-2.948,0-6.375,0.911-8.986,2.738c-2.612,1.826-4.321,4.123-5.807,6.529l-0.075,0.118l-68.426,120.071
		c-2.311,3.708-3.512,7.638-3.393,12.799c0.062,2.673,0.582,5.891,2.945,8.914c2.361,3.027,6.692,4.872,10.502,4.872h65.947v38.523
		h14.583v-38.523h65.948c3.81,0,8.141-1.845,10.503-4.872c2.361-3.023,2.881-6.241,2.943-8.914
		c0.118-5.161-1.082-9.091-3.393-12.799l-68.425-120.071l-0.077-0.118c-1.485-2.406-3.193-4.703-5.806-6.529
		C105.771,956.669,102.344,955.757,99.397,955.757L99.397,955.757z M99.397,957.58c2.665,0,5.635,0.794,7.942,2.407
		c2.308,1.612,3.884,3.696,5.302,5.992l0.056,0.096l68.412,120.045l-0.19-0.31c2.193,3.385,3.452,7.313,3.342,12.164
		c-0.057,2.425-0.541,5.249-2.56,7.836c-2.021,2.588-5.674,4.169-9.064,4.169H26.158c-3.391,0-7.044-1.581-9.064-4.169
		c-2.02-2.587-2.504-5.411-2.56-7.836c-0.111-4.851,1.146-8.778,3.34-12.164l-0.189,0.31l68.412-120.045l0.058-0.096
		c1.417-2.295,2.995-4.378,5.301-5.992C93.76,958.374,96.73,957.58,99.397,957.58L99.397,957.58z M99.397,959.403
		c-2.386,0-4.899,0.68-6.9,2.079s-3.443,3.27-4.792,5.454l-0.043,0.071l-68.394,120.016l0.135-0.222
		c-1.909,2.948-3.147,6.777-3.048,11.133c0.05,2.178,0.494,4.605,2.172,6.755c1.677,2.148,4.659,3.468,7.629,3.468h146.478
		c2.972,0,5.952-1.319,7.629-3.468c1.678-2.149,2.123-4.577,2.172-6.755c0.101-4.355-1.138-8.185-3.049-11.133l0.137,0.222
		L111.13,967.007l-0.041-0.071c-1.351-2.185-2.792-4.055-4.793-5.454C104.294,960.082,101.781,959.403,99.397,959.403
		L99.397,959.403z M99.397,968.517c0.978,0,1.198,0.102,1.672,0.434c0.472,0.331,1.254,1.147,2.251,2.756l68.351,119.941
		c1.027,1.803,1.944,4.043,1.655,6.078c-0.578,1.493-1.865,1.297-4.335,1.316H29.803c-2.471-0.021-3.759,0.177-4.336-1.316
		c-0.288-2.035,0.627-4.275,1.655-6.078l68.351-119.941c0.998-1.609,1.778-2.425,2.25-2.756
		C98.198,968.619,98.417,968.517,99.397,968.517z M74.001,1059.617c-10.21,0.416-14.129,18.641-24.34,18.641
		c-1.911,0-4.82-3.102-4.82-3.102l-11.062,19.157h65.418c0,0,0.171-0.416,0.2-0.478c0.027,0.062,0.203,0.478,0.203,0.478h65.414
		l-11.058-19.157c0,0-2.912,3.102-4.825,3.102c-10.211,0-14.124-18.225-24.338-18.641c-9.979-0.408-15.205,16.224-25.193,16.224
		c-0.072,0-0.133,0.021-0.203,0.021c-0.069-0.003-0.13-0.021-0.2-0.021C89.208,1075.841,83.983,1059.209,74.001,1059.617z"/>
</g>
</svg>
