<?xml version="1.0" encoding="utf-8"?>
<!-- Generator: Adobe Illustrator 16.0.3, SVG Export Plug-In . SVG Version: 6.00 Build 0)  -->
<!DOCTYPE svg PUBLIC "-//W3C//DTD SVG 1.1//EN" "http://www.w3.org/Graphics/SVG/1.1/DTD/svg11.dtd">
<svg version="1.1" id="car_1_" xmlns="http://www.w3.org/2000/svg" xmlns:xlink="http://www.w3.org/1999/xlink" x="0px" y="0px"
	 width="125px" height="125px" viewBox="0 0 125 125" enable-background="new 0 0 125 125" xml:space="preserve">
<g>
	<g>
		<polygon fill="none" stroke="#000000" stroke-width="0.75" stroke-miterlimit="10" points="44.33,26.867 0.26,98.478 
			22.391,98.478 55.435,26.867 		"/>
		<polygon fill="#FFFFFF" stroke="#000000" stroke-width="0.75" stroke-miterlimit="10" points="26.108,98.413 61.213,26.825 
			52.294,26.825 19.455,98.413 		"/>
		<g id="road">
			<g>
				<polygon stroke="#000000" stroke-miterlimit="10" points="77.035,98.478 74.526,26.671 73.488,26.671 71.453,98.478 				"/>
				<polygon stroke="#000000" stroke-miterlimit="10" points="84.846,98.478 124.167,98.478 91.786,26.671 77.318,26.671 				"/>
				<polygon stroke="#000000" stroke-miterlimit="10" points="70.67,26.671 54.606,26.671 22.226,98.478 63.624,98.478 				"/>
			</g>
		</g>
	</g>
	<g>
		<path stroke="#000000" stroke-miterlimit="10" d="M17.521,60.591c0.155,1.391-1.045,2.532-2.744,2.506
			c-1.766-0.022-3.312-1.286-3.388-2.778c-0.073-1.451,1.282-2.493,2.969-2.372C15.984,58.064,17.373,59.232,17.521,60.591z"/>
		<path stroke="#000000" stroke-width="0.25" stroke-miterlimit="10" d="M13.535,64.294c0,0-2.539,1.033-4.115,2.7
			c-1.684,1.779-5.139,4.598-2.721,5.946c2.364,1.319,2.732-0.169,4.814-2.822c1.906-2.429,1.535-2.666,1.906-2.429
			c0.369,0.239,0.135,4.301,0.135,4.301s-0.374,2.406-2.361,6.943c-2.246,5.13-4.335,7.741-1.807,8.426
			c2.446,0.66,3.71-1.696,5.305-6.267c1.436-4.119,1.65-5.867,1.65-5.867s1.536,1.256,2.659,3.292
			c1.14,2.069,3.046,8.006,5.019,5.567c1.814-2.245-1.235-6.504-2.987-8.504c-1.749-1.996-4.133-4.265-4.133-4.265l-0.252-3.381
			c0,0,0.672,0.826,3.07,1.126c2.288,0.277,4.437,0.322,4.139-1.533c-0.288-1.797-2.535-0.979-4.822-1.604
			c-2.382-0.656-3.627-2.311-4.337-2.203C13.977,63.832,13.535,64.294,13.535,64.294z"/>
	</g>
	<g id="car">
		<g>
			<path fill="#FFFFFF" stroke="#FFFFFF" stroke-width="0.5" stroke-miterlimit="10" d="M65.462,40.054h-3.907
				c-0.593,0-1.154,0.36-1.477,0.868c0.002-1.009-0.206-2.125-0.627-3.216l-0.767-1.981c-0.788-2.037-2.411-3.387-3.768-3.387
				h-13.02c-1.357,0-3.534,1.35-5.159,3.387l-1.58,1.981c-0.91,1.143-1.601,2.316-2.005,3.359c-0.064-0.583-0.497-1.01-1.143-1.01
				h-3.908c-0.808,0-1.471,0.722-1.486,1.557l-0.023,1.327c-0.011,0.695,0.522,1.244,1.198,1.262l2.411,0.063
				c-0.765,0.868-1.386,1.929-1.746,3.091l-0.762,2.453c-1.009,3.251,0.322,5.983,3.007,5.983h0.372l-0.783,2.805
				c-0.325,1.156,0.219,2.106,1.217,2.106h0.922c0.998,0,2.047-0.95,2.34-2.106l0.71-2.805h16.221l-0.441,2.805
				c-0.182,1.156,0.477,2.106,1.475,2.106h0.922c0.998,0,1.931-0.95,2.082-2.106l0.369-2.805h0.374c2.687,0,5.138-2.731,5.464-5.983
				l0.245-2.453c0.118-1.162-0.069-2.225-0.478-3.094l2.356-0.06c0.682-0.018,1.441-0.567,1.717-1.263l0.518-1.326
				C66.635,40.777,66.268,40.054,65.462,40.054z M37.986,37.812l1.185-1.524c1.226-1.574,2.891-2.625,3.938-2.625H53.16
				c1.049,0,2.282,1.05,2.862,2.625l0.56,1.524c0.565,1.537,0.574,3.138,0.049,4.135H36.237
				C36.122,40.95,36.788,39.349,37.986,37.812z"/>
			<path fill="#FFFFFF" stroke="#FFFFFF" stroke-miterlimit="10" d="M56.379,39.782c0.863,2.965-0.507,6.077-3.314,6.077H36.614
				c-2.807,0-2.891-3.112-0.801-6.077l1.521-2.158c1.317-1.868,3.512-3.13,5.126-3.13h9.458c1.613,0,3.289,1.26,3.833,3.13
				L56.379,39.782z"/>
			<path stroke="#FFFFFF" stroke-width="0.5" stroke-miterlimit="10" d="M64.06,41.079h-3.617c-0.549,0-1.068,0.331-1.367,0.798
				c0.002-0.927-0.19-1.953-0.581-2.955l-0.709-1.82c-0.729-1.872-2.231-3.112-3.487-3.112H42.247c-1.256,0-3.271,1.24-4.775,3.112
				l-1.462,1.82c-0.843,1.05-1.481,2.128-1.856,3.087c-0.06-0.535-0.46-0.928-1.058-0.928h-3.617c-0.748,0-1.362,0.663-1.375,1.43
				l-0.021,1.219c-0.01,0.639,0.483,1.143,1.108,1.159l2.232,0.058c-0.708,0.797-1.283,1.773-1.617,2.84L29.1,50.042
				c-0.934,2.987,0.298,5.497,2.784,5.497h0.344l-0.725,2.577c-0.3,1.063,0.204,1.936,1.126,1.936h0.854
				c0.923,0,1.895-0.872,2.167-1.936l0.657-2.577h15.015l-0.408,2.577c-0.168,1.063,0.441,1.936,1.366,1.936h0.853
				c0.924,0,1.788-0.872,1.927-1.936l0.341-2.577h0.346c2.487,0,4.756-2.51,5.058-5.497l0.228-2.254
				c0.108-1.067-0.065-2.044-0.443-2.843l2.18-0.055c0.632-0.016,1.334-0.521,1.589-1.16l0.48-1.218
				C65.146,41.744,64.806,41.079,64.06,41.079z M38.625,39.019l1.097-1.4c1.135-1.447,2.677-2.412,3.646-2.412h9.304
				c0.971,0,2.112,0.965,2.649,2.412l0.518,1.4c0.523,1.413,0.531,2.883,0.046,3.799H37.007
				C36.9,41.902,37.517,40.432,38.625,39.019z"/>
			<path fill="#FFFFFF" stroke="#FFFFFF" stroke-width="0.25" stroke-miterlimit="10" d="M36.056,51.239
				c-0.164,0.643-0.914,1.164-1.842,1.309c-1.125,0.178-2.603-0.184-3.243-1.094c-0.981-1.396,0.527-2.77,2.875-2.384
				C35.492,49.338,36.273,50.401,36.056,51.239z"/>
			<path fill="#FFFFFF" stroke="#FFFFFF" stroke-width="0.25" stroke-miterlimit="10" d="M51.269,51.239
				c-0.1,0.643,0.433,1.164,1.301,1.309c1.051,0.178,2.678-0.184,3.696-1.094c1.56-1.396,0.621-2.77-1.886-2.384
				C52.622,49.338,51.4,50.401,51.269,51.239z"/>
			<path fill="#FFFFFF" stroke="#FFFFFF" stroke-width="0.5" stroke-miterlimit="10" d="M48.981,51.85
				c-0.57,0.544-1.415,0.922-1.969,0.922h-7.331c-0.554,0-1.242-0.378-1.586-0.922l0,0c-0.413-0.654-0.188-1.291,0.586-1.291h10.249
				C49.703,50.56,49.665,51.196,48.981,51.85L48.981,51.85z"/>
		</g>
	</g>
	<g>
		<polygon stroke="#000000" stroke-width="0.25" stroke-miterlimit="10" points="18.345,51.625 19.881,51.435 19.446,54.252 		"/>
		
			<ellipse transform="matrix(0.9936 -0.1131 0.1131 0.9936 -5.6915 2.4887)" stroke="#000000" stroke-width="0.25" stroke-miterlimit="10" cx="19.083" cy="51.396" rx="0.827" ry="0.832"/>
		<circle stroke="#000000" stroke-width="0.25" stroke-miterlimit="10" cx="19.653" cy="56.441" r="0.454"/>
	</g>
</g>
</svg>
