<?xml version="1.0" encoding="iso-8859-1"?>
<!-- Generator: Adobe Illustrator 16.0.0, SVG Export Plug-In . SVG Version: 6.00 Build 0)  -->
<!DOCTYPE svg PUBLIC "-//W3C//DTD SVG 1.1//EN" "http://www.w3.org/Graphics/SVG/1.1/DTD/svg11.dtd">
<svg version="1.1" id="Capa_1" xmlns="http://www.w3.org/2000/svg" xmlns:xlink="http://www.w3.org/1999/xlink" x="0px" y="0px"
	 width="511.271px" height="511.271px" viewBox="0 0 511.271 511.271" style="enable-background:new 0 0 511.271 511.271;"
	 xml:space="preserve">
<g>
	<path d="M417.791,233.734c-8.146,0-16.016,1.154-23.555,3.125l-48.443-124.815h60.994c5.93,0,10.736-4.808,10.736-10.736
		c0-5.93-4.807-10.736-10.736-10.736h-75.154c-0.23,0-3.344,0-5.404,0.729c-5.594,1.977-8.271,8.367-6.123,13.893l14.117,36.371
		H198.996l-5.216-16.445h21.431c5.929,0,10.737-4.807,10.737-10.736s-4.808-10.736-10.737-10.736h-72.204
		c-5.929,0-10.736,4.807-10.736,10.736s4.807,10.736,10.736,10.736h28.246l9.74,30.705l-50.038,85.81
		c-11.486-5.048-24.146-7.901-37.473-7.901C41.934,233.734,0,275.668,0,327.217s41.934,93.482,93.482,93.482
		c47.91,0,87.464-36.246,92.811-82.746h18.589c4.566,14.363,18.019,24.801,33.876,24.801c19.595,0,35.539-15.941,35.539-35.537
		c0-9.252-3.586-17.666-9.404-24l79.4-135.704l29.912,77.068c-29.637,15.697-49.893,46.83-49.893,82.636
		c0,51.549,41.936,93.482,93.479,93.482c51.547,0,93.48-41.934,93.48-93.482C511.271,275.67,469.34,233.734,417.791,233.734z
		 M189.753,183.434l35.219,111.029c-9.52,4.021-16.933,12.082-20.089,22.019h-18.589c-3.004-26.113-16.823-48.918-36.833-63.952
		L189.753,183.434z M164.595,316.481h-52.423l26.416-45.312C152.323,282.248,161.854,298.258,164.595,316.481z M93.483,399.227
		c-39.706,0-72.009-32.305-72.009-72.01c0-39.707,32.303-72.01,72.009-72.01c9.384,0,18.333,1.861,26.563,5.143l-35.837,61.457
		c-1.939,3.324-1.95,7.425-0.037,10.759c1.914,3.334,5.463,5.389,9.311,5.389h71.113C159.385,372.574,129.53,399.227,93.483,399.227
		z M238.76,341.281c-7.759,0-14.071-6.311-14.071-14.064c0-7.748,6.301-14.051,14.05-14.065c0.005,0,0.011,0.006,0.016,0.006
		c0.01,0,0.016-0.006,0.021-0.006c7.749,0.012,14.05,6.317,14.05,14.065C252.825,334.971,246.513,341.281,238.76,341.281z
		 M246.67,291.852l-40.864-128.815h116.229L246.67,291.852z M417.791,399.227c-39.705,0-72.004-32.305-72.004-72.01
		c0-26.692,14.631-49.985,36.262-62.426l25.734,66.311c1.652,4.253,5.709,6.857,10.014,6.857c1.289,0,2.604-0.236,3.879-0.734
		c5.531-2.145,8.271-8.366,6.123-13.893l-25.744-66.336c5.074-1.139,10.326-1.789,15.736-1.789c39.705,0,72.01,32.303,72.01,72.01
		C489.801,366.922,457.496,399.227,417.791,399.227z"/>
</g>
<g>
</g>
<g>
</g>
<g>
</g>
<g>
</g>
<g>
</g>
<g>
</g>
<g>
</g>
<g>
</g>
<g>
</g>
<g>
</g>
<g>
</g>
<g>
</g>
<g>
</g>
<g>
</g>
<g>
</g>
</svg>
