<?xml version="1.0" encoding="utf-8"?>
<!-- Generator: Adobe Illustrator 16.0.3, SVG Export Plug-In . SVG Version: 6.00 Build 0)  -->
<!DOCTYPE svg PUBLIC "-//W3C//DTD SVG 1.1//EN" "http://www.w3.org/Graphics/SVG/1.1/DTD/svg11.dtd">
<svg version="1.1" id="bicycleWithTwo" xmlns="http://www.w3.org/2000/svg" xmlns:xlink="http://www.w3.org/1999/xlink" x="0px"
	 y="0px" width="325px" height="300px" viewBox="0 0 325 300" enable-background="new 0 0 325 300" xml:space="preserve">
<g>
	<g>
		<g>
			<g>
				<g>
					<path d="M95.991,128.008c-5.5,0-8.076,4.068-5.723,9.04l45.065,95.237c2.353,4.973,6.202,4.973,8.555,0l45.064-95.237
						c2.353-4.972-0.223-9.04-5.724-9.04H95.991z M145,209.136c-2.174,5.052-5.731,5.051-7.904-0.002l-17.055-39.665
						c-2.172-5.053-5.145-11.754-6.604-14.891s-2.562-5.704-2.448-5.704s0.162-0.102,0.108-0.225
						c-0.054-0.124,4.402-0.224,9.902-0.223l40.125,0.012c5.5,0.001,8.221,4.136,6.046,9.189L145,209.136z"/>
				</g>
				<path d="M101.848,140.655l39.688,76.974l39.742-76.957L101.848,140.655z M137.267,202.103l-15.66-49.01l31.33,0.012
					L137.267,202.103z"/>
			</g>
			<path d="M229.624,97.175l-81.575-53.687c-1.753-1.157-3.799-1.468-5.737-1.065c-5.842-0.278-11.861,3.11-15.228,9.257
				l-37.106,67.654c-4.646,8.476-2.489,18.949,4.811,23.387l6.625,4.019c7.306,4.445,16.987,1.174,21.642-7.303l36.605-66.75
				l60.761,39.991c3.823,2.512,8.976,1.08,11.52-3.201C234.481,105.198,233.447,99.691,229.624,97.175z"/>
		</g>
		<path d="M178.865,22.148c0,11.104-9.122,20.107-20.387,20.107c-11.254,0-20.378-9.003-20.378-20.107s9.124-20.107,20.378-20.107
			C169.743,2.041,178.865,11.044,178.865,22.148z"/>
	</g>
	<path d="M259.813,178.627c-6.354,0-13.911,0.983-19.658,2.818L235,172.799v-65.47c0-2.456,0.863-8.329-1.593-8.329h-6.028
		c-2.454,0-6.379,5.874-6.379,8.329V162h-54.936l-46.41-0.45c-2.837-0.023-5.856,0.503-8.801,1.45H23c-3.866,0-7,2.159-7,4.822
		v1.379c0,2.663,3.134,4.799,7,4.799h72.215c-0.005,0.008-0.012,0.016-0.017,0.023l-6.048,9.552
		c-7.316-3.171-15.385-5.85-23.868-5.85C35.794,177.726,11.275,196,6.109,226H6v0.333c0,0.881-0.335,1.706-0.75,2.431
		c0.007,0.492-0.131,0.984-0.25,1.459v10.888c0.073,0.291,0.121,0.589,0.147,0.89h0.061c1.863,27,28.035,56.796,60.073,56.796
		c32.3,0,58.644-25.331,60.12-57.269l36.832,0.359c9.086,0.068,20.043-5.504,24.466-12.507l34.384-54.373
		c0.325-0.516,0.593-1.019,0.831-1.505l6.114,14.207c-17.044,10.614-28.403,29.533-28.403,51.105
		c0,33.247,26.951,60.186,60.188,60.186C293.059,299,320,272.063,320,238.814C320,205.578,293.059,178.627,259.813,178.627z
		 M84.853,219.47l9.023-13.823c6.869,6.01,11.822,14.359,13.848,23.596l-5.069-0.843c-0.73-0.993-1.644-2.399-2.657-2.399H85.369
		C83.236,226,82.893,222.565,84.853,219.47z M65.282,282.06c-22.791,0-41.463-16.06-43.298-40.06h0.36
		c-0.012-0.218,0.014-0.434,0.027-0.65c-0.393-1.02-0.465-2.168-0.23-3.24c-0.581-1.294-0.623-2.842-0.141-4.181
		c0.001-0.104,0.027-0.207,0.034-0.312c-0.042-0.394-0.045-0.791-0.006-1.185c-0.28-1.204-0.195-2.503,0.327-3.614
		c0.067-0.754,0.282-1.492,0.645-2.145V226h0.231c4.863-20,21.849-31.552,42.05-31.552c5.191,0,10.165,0.462,14.779,2.124
		l-18.4,28.654c-0.034,0.854-0.251,1.698-0.661,2.434v13.25c0.069,0.191,0.129,0.387,0.177,0.585
		c0.088,0.112,0.179,0.223,0.259,0.341c0.022,0,0.042-0.003,0.064-0.003c0.485,0,0.929,0.063,1.34,0.167h37.158
		c0.775,0,1.487-0.161,2.108-0.765l6.538,0.049C107.264,264.04,88.377,282.06,65.282,282.06z M197.037,183.021l-24.057,38.072
		c-3.104,4.9-10.766,8.817-17.129,8.77l-31.08-0.258c-2.336-15.22-10.38-28.556-21.882-37.775l6.033-9.534
		c3.09-4.892,10.761-8.809,17.119-8.762l65.091,0.526C197.487,174.118,200.142,178.131,197.037,183.021z M259.813,282.265
		c-23.998,0-43.459-19.453-43.459-43.45c0-14.665,7.271-27.62,18.399-35.491l15.477,35.921c1.09,2.542,3.802,3.821,6.066,2.848
		l5.532-2.39c2.255-0.964,3.191-3.82,2.102-6.361l-15.678-36.409c3.679-1.021,7.558-1.577,11.561-1.577
		c23.998,0,43.448,19.462,43.448,43.46C303.262,262.812,283.812,282.265,259.813,282.265z"/>
	<ellipse cx="48.483" cy="42.148" rx="20.382" ry="20.107"/>
	<path d="M109.336,99.859L65.735,71.326c-0.602-0.394-1.236-0.692-1.886-0.918c-3.038-2.69-7.021-4.358-11.414-4.414l-5.829-0.073
		c-9.656-0.123-17.583,7.537-17.705,17.107l-0.718,56.833c-3.642,1.546-6.184,5.018-6.184,9.06v61.116
		c0,5.479,4.663,9.963,10.414,9.963h0.417C38.583,220,43,215.517,43,210.037v-47.286c0.779,0.115,1.569,0.199,2.379,0.209
		l5.829,0.075c0.952,0.012,1.88-0.072,2.792-0.205v47.207c0,5.479,4.663,9.963,10.414,9.963h0.417C70.583,220,75,215.517,75,210.037
		v-61.116c0-4.055-2.422-7.536-6.012-9.075l0.568-44.902l30.104,19.7c3.91,2.559,9.256,1.369,11.906-2.681l0.193-0.294
		C114.409,107.62,113.246,102.417,109.336,99.859z"/>
</g>
</svg>
