<?xml version="1.0" encoding="iso-8859-1"?>
<!-- Generator: Adobe Illustrator 16.0.0, SVG Export Plug-In . SVG Version: 6.00 Build 0)  -->
<!DOCTYPE svg PUBLIC "-//W3C//DTD SVG 1.1//EN" "http://www.w3.org/Graphics/SVG/1.1/DTD/svg11.dtd">
<svg version="1.1" id="Capa_1" xmlns="http://www.w3.org/2000/svg" xmlns:xlink="http://www.w3.org/1999/xlink" x="0px" y="0px"
	 width="516.375px" height="516.375px" viewBox="0 0 516.375 516.375" style="enable-background:new 0 0 516.375 516.375;"
	 xml:space="preserve">
<g>
	<g>
		<path d="M90.843,490.145c0,14.488,11.743,26.23,26.23,26.23h14.478c14.487,0,26.23-11.742,26.23-26.23v-50.27H90.843V490.145
			L90.843,490.145z"/>
		<path d="M358.594,490.145c0,14.488,11.742,26.23,26.23,26.23h14.477c14.488,0,26.23-11.742,26.23-26.23v-50.27h-66.938V490.145z"
			/>
		<path d="M426.506,0H96.16L43.031,204.561v225.751h47.812h66.938h200.812h66.938h47.812V204.484L426.506,0z M153,41.807
			c0-7.248,5.871-13.12,13.12-13.12h184.145c7.24,0,13.111,5.871,13.111,13.12v2.458c0,7.239-5.871,13.11-13.121,13.11H166.119
			c-7.248,0-13.12-5.871-13.12-13.12V41.807z M116.231,359.703c-16.754,0-30.332-13.579-30.332-30.332s13.579-30.332,30.332-30.332
			c16.754,0,30.332,13.579,30.332,30.332C146.564,346.124,132.985,359.703,116.231,359.703z M287.572,181.687
			c-12.01,0-22.021,8.119-25.131,19.125H92.469l29.108-114.75h276.03l26.299,114.75h-39.352
			c-3.117-11.006-13.129-19.125-25.129-19.125H287.572z M395.227,359.703c-16.754,0-30.332-13.579-30.332-30.332
			s13.58-30.332,30.332-30.332c16.754,0,30.332,13.579,30.332,30.332S411.971,359.703,395.227,359.703z"/>
		<circle cx="323.867" cy="142.462" r="29.51"/>
	</g>
</g>
<g>
</g>
<g>
</g>
<g>
</g>
<g>
</g>
<g>
</g>
<g>
</g>
<g>
</g>
<g>
</g>
<g>
</g>
<g>
</g>
<g>
</g>
<g>
</g>
<g>
</g>
<g>
</g>
<g>
</g>
</svg>
