<?xml version="1.0" encoding="utf-8"?>
<!-- Generator: Adobe Illustrator 16.0.3, SVG Export Plug-In . SVG Version: 6.00 Build 0)  -->
<!DOCTYPE svg PUBLIC "-//W3C//DTD SVG 1.1//EN" "http://www.w3.org/Graphics/SVG/1.1/DTD/svg11.dtd">
<svg version="1.1" id="carDoor_x5F_edit" xmlns="http://www.w3.org/2000/svg" xmlns:xlink="http://www.w3.org/1999/xlink" x="0px"
	 y="0px" width="100px" height="80px" viewBox="0 0 100 80" enable-background="new 0 0 100 80" xml:space="preserve">
<path d="M97.673,30.643L95.22,13.497c-0.557-3.892-3.892-6.782-7.823-6.782c-18.36-1.411-28.932-2.199-47.586,0
	c-3.932,0-7.266,2.891-7.823,6.782l-2.328,16.261c-0.069-0.369-0.126-0.738-0.212-1.105l-1.837-7.78
	c-1.165-4.937-5.571-8.425-10.643-8.425H4.711c-1.327,0-2.591,0.565-3.477,1.554c-0.885,0.989-1.307,2.308-1.161,3.627l1.439,12.986
	c0.161,1.448,0.241,2.903,0.241,4.362v21.415h22.268c1.35,0,2.559-0.583,3.417-1.498c-0.024,1.836,0.293,3.643,0.938,5.329V74.36
	c0,1.633,1.496,2.958,3.343,2.958h5.331c1.847,0,3.344-1.325,3.344-2.958v-4.926c0.481,0.049,0.967,0.072,1.455,0.072h43.507
	c0.49,0,0.979-0.023,1.462-0.072v4.926c0,1.633,1.496,2.958,3.344,2.958h5.331c1.849,0,3.343-1.325,3.343-2.958V60.214
	c0.673-1.771,1.002-3.671,0.939-5.603v-0.004C99.513,46.587,98.812,38.587,97.673,30.643z M18.378,49.978h-7.41v-7.41h7.41V49.978z
	 M18.378,38.361h-7.41l-1.14-19.429h9.691L18.378,38.361z M38.759,56.477c-3.729,0-6.751-3.023-6.751-6.754
	c0-3.729,3.022-6.751,6.751-6.751c3.73,0,6.754,3.021,6.754,6.751C45.513,53.453,42.489,56.477,38.759,56.477z M38.641,34.476
	c-2.592-0.437-4.366-2.855-3.998-5.459c0.816-5.765,2.104-14.837,2.104-14.837c0.216-1.516,1.532-2.657,3.063-2.657
	c19.053-2.2,28.83-1.41,47.586,0c1.531,0,2.849,1.141,3.063,2.655c0,0,1.271,8.94,2.086,14.705c0.373,2.64-1.454,5.085-4.092,5.476
	C69.105,37.215,56.365,37.455,38.641,34.476z M88.446,56.477c-3.728,0-6.751-3.023-6.751-6.754c0-3.729,3.023-6.751,6.751-6.751
	c3.731,0,6.752,3.021,6.752,6.751C95.198,53.453,92.178,56.477,88.446,56.477z"/>
</svg>
