<?xml version="1.0" encoding="utf-8"?>
<!-- Generator: Adobe Illustrator 16.0.3, SVG Export Plug-In . SVG Version: 6.00 Build 0)  -->
<!DOCTYPE svg PUBLIC "-//W3C//DTD SVG 1.1//EN" "http://www.w3.org/Graphics/SVG/1.1/DTD/svg11.dtd">
<svg version="1.1" id="圖層_1" xmlns="http://www.w3.org/2000/svg" xmlns:xlink="http://www.w3.org/1999/xlink" x="0px" y="0px"
	 width="200px" height="200px" viewBox="0 0 200 200" enable-background="new 0 0 200 200" xml:space="preserve">
<g>
	<g>
		<path d="M174.016,157.83L43.171,26.98c-1.768-1.763-4.078-2.642-6.388-2.642c-2.31,0-4.619,0.882-6.387,2.645l-1.512,1.516
			l-0.908,0.906c-3.523,3.526-3.523,9.246,0,12.774l130.847,130.84c1.76,1.768,4.082,2.646,6.386,2.646
			c2.306,0,4.624-0.881,6.384-2.646l1.458-1.45l0.966-0.972C177.54,167.071,177.54,161.357,174.016,157.83z"/>
		<path d="M71.654,44.328h57.978c2.824,0,5.334,2.349,5.334,5.168v60.758l16.308,16.311V34.252c0-9.123-7.502-16.521-16.629-16.521
			H67.264c-6.707,0-12.484,3.999-15.086,9.735l17.346,17.346C70.177,44.509,70.894,44.328,71.654,44.328z M79.248,29.076h43.438
			c2.117,0,3.837,1.432,3.837,3.545c0,2.115-1.72,3.549-3.837,3.549H79.248c-2.114,0-3.828-1.434-3.828-3.549
			C75.42,30.508,77.134,29.076,79.248,29.076z"/>
		<path d="M129.632,152.837H71.654c-2.819,0-5.129-2.249-5.129-5.068V89.252L50.567,73.297V165.8c0,9.13,7.569,16.469,16.693,16.469
			h67.385c6.722,0,12.558-3.98,15.171-9.727l-19.724-19.727C129.938,152.828,129.783,152.837,129.632,152.837z M84.97,167.305
			c0,2.384-1.942,4.323-4.328,4.323h-9.434c-2.392,0-4.329-1.939-4.329-4.323v-2.343c0-2.393,1.937-4.322,4.329-4.322h9.434
			c2.386,0,4.328,1.93,4.328,4.322V167.305z M109.788,167.305c0,2.384-1.937,4.323-4.324,4.323h-9.436
			c-2.391,0-4.327-1.939-4.327-4.323v-2.343c0-2.393,1.936-4.322,4.327-4.322h9.436c2.388,0,4.324,1.93,4.324,4.322V167.305z
			 M134.613,164.962v2.343c0,2.384-1.934,4.323-4.332,4.323h-9.436c-2.386,0-4.323-1.939-4.323-4.323v-2.343
			c0-2.393,1.938-4.33,4.323-4.33h9.436C132.68,160.632,134.613,162.569,134.613,164.962z"/>
	</g>
</g>
</svg>
