<?xml version="1.0" encoding="utf-8"?>
<!-- Generator: Adobe Illustrator 16.0.3, SVG Export Plug-In . SVG Version: 6.00 Build 0)  -->
<!DOCTYPE svg PUBLIC "-//W3C//DTD SVG 1.1//EN" "http://www.w3.org/Graphics/SVG/1.1/DTD/svg11.dtd">
<svg version="1.1" id="圖層_1" xmlns="http://www.w3.org/2000/svg" xmlns:xlink="http://www.w3.org/1999/xlink" x="0px" y="0px"
	 width="400px" height="200px" viewBox="0 0 400 200" enable-background="new 0 0 400 200" xml:space="preserve">
<g>
	<g>
		<path d="M184.523,115.94c-4.191-3.14-9.921-5.636-15.838-6.998c-4.786-1.1-9.623-1.33-13.753-0.814
			c-1.056-4.849-3.41-10.052-6.739-14.906l-18.619-23.85C126.049,64.241,118.801,64,112.881,64H72.68
			c-5.92,0-13.111,0.241-16.636,5.372L37.478,94.501c-4.244,6.201-4.135,12.312-4.625,18.171C28.487,115.93,28,120.934,28,127.384
			v31.967C28,169.439,30.298,176,38.585,176h9.358c0.535,11,8.22,22.318,17.713,22.318c9.495,0,17.179-11.318,17.713-22.318h4.013
			c0.701,0,1.374,0.668,2.048,0.556c0.258,0.027,0.501,0.458,0.76,0.464l52.753,1.382c0.896,11.962,8.403,21.433,17.639,21.433
			c9.069,0,17.342-8.974,18.461-20.611C194.027,178.177,209,165.102,209,148.771v-1.746C209,133.6,196.959,120.917,184.523,115.94z
			 M89,103H68v1.58l-16.968-0.047L68,72.929V77h21V103z M127,104.58V103h-27V77h27v-4.071l16.752,31.604L127,104.58z"/>
		<g>
			<path fill="#FFFFFF" d="M170.384,176.28c0,7.193-4.392,13.014-9.801,13.014c-5.409,0-9.797-5.82-9.797-13.014
				c0-7.185,4.388-13.026,9.797-13.026C165.992,163.254,170.384,169.096,170.384,176.28z"/>
			<path fill="#FFFFFF" d="M75.459,176.28c0,7.193-4.392,13.014-9.803,13.014s-9.799-5.82-9.799-13.014
				c0-7.185,4.388-13.026,9.799-13.026S75.459,169.096,75.459,176.28z"/>
		</g>
	</g>
	<g>
		<path d="M378.055,115.94c-4.195-3.14-8.661-5.636-14.577-6.998c-4.784-1.1-8.984-1.33-13.115-0.814
			c-1.063-4.849-3.098-10.052-6.425-14.906l-18.465-23.85C321.943,64.241,314.857,64,308.942,64h-40.205
			c-5.919,0-13.112,0.241-16.633,5.372l-18.566,25.129c-4.25,6.201-5.665,12.312-6.157,18.171
			c-4.373,3.257-6.381,8.261-6.381,14.711v31.967c0,10.089,5.353,16.649,13.646,16.649h9.354c0.532,11,8.221,22.318,17.717,22.318
			c9.491,0,17.181-11.318,17.712-22.318h4.009c0.703,0,1.374,0.668,2.055,0.556c0.251,0.027,0.493,0.458,0.758,0.464l52.751,1.382
			c0.898,11.962,8.402,21.433,17.642,21.433c9.066,0,14.808-8.974,15.923-20.611C387.551,178.177,400,165.102,400,148.771v-1.746
			C400,133.6,390.49,120.917,378.055,115.94z M288,103h-28v1.58l-16.967-0.047L260,72.929V77h28V103z M320,104.58V103h-28V77h28
			v-4.071l16.756,31.604L320,104.58z"/>
		<g>
			<path fill="#FFFFFF" d="M366.444,176.28c0,7.193-4.392,13.014-9.801,13.014c-5.417,0-9.802-5.82-9.802-13.014
				c0-7.185,4.385-13.026,9.802-13.026C362.053,163.254,366.444,169.096,366.444,176.28z"/>
			<path fill="#FFFFFF" d="M271.517,176.28c0,7.193-4.385,13.014-9.799,13.014c-5.416,0-9.804-5.82-9.804-13.014
				c0-7.185,4.388-13.026,9.804-13.026C267.132,163.254,271.517,169.096,271.517,176.28z"/>
		</g>
	</g>
	<path fill="#FFFFFF" stroke="#000000" stroke-miterlimit="10" d="M109.5,128.772c0,3.478-2.824,6.728-5.231,6.728H8.016
		c-2.407,0-3.516-3.25-3.516-6.728v-0.791c0-3.48,1.109-7.481,3.516-7.481h96.253c2.407,0,5.231,4.001,5.231,7.481V128.772z"/>
	<path fill="#FFFFFF" stroke="#000000" stroke-miterlimit="10" d="M120.5,146.636c0,3.475-2.393,5.864-4.331,5.864H38.658
		c-1.938,0-5.158-2.39-5.158-5.864v-0.795c0-3.479,3.22-5.341,5.158-5.341h77.511c1.938,0,4.331,1.861,4.331,5.341V146.636z"/>
	<path fill="#FFFFFF" stroke="#000000" stroke-miterlimit="10" d="M84.5,164.493c0,3.484-3.91,8.007-5.782,8.007H3.738
		c-1.874,0-3.238-4.522-3.238-8.007v-0.792c0-3.481,1.364-5.201,3.238-5.201h74.979c1.872,0,5.782,1.72,5.782,5.201V164.493z"/>
	<path fill="#FFFFFF" stroke="#000000" stroke-miterlimit="10" d="M289.5,128.772c0,3.478-2.409,6.728-3.691,6.728h-51.386
		c-1.283,0-4.923-3.25-4.923-6.728v-0.791c0-3.48,3.64-7.481,4.923-7.481h51.386c1.282,0,3.691,4.001,3.691,7.481V128.772z"/>
	<path fill="#FFFFFF" stroke="#000000" stroke-miterlimit="10" d="M301.5,146.636c0,3.475-0.402,5.864-1.493,5.864h-43.65
		c-1.094,0-4.856-2.39-4.856-5.864v-0.795c0-3.479,3.763-5.341,4.856-5.341h43.65c1.091,0,1.493,1.861,1.493,5.341V146.636z"/>
	<path fill="#FFFFFF" stroke="#000000" stroke-miterlimit="10" d="M281.5,164.493c0,3.484-2.291,8.007-3.892,8.007h-63.89
		c-1.595,0-4.219-4.522-4.219-8.007v-0.792c0-3.481,2.624-5.201,4.219-5.201h63.89c1.601,0,3.892,1.72,3.892,5.201V164.493z"/>
	<g>
		<polygon points="143.706,35.171 152.483,24.845 181.28,81.208 		"/>
		<polygon points="180.323,0.59 191.976,0.298 187.086,68.402 		"/>
		<polygon points="212.168,19.492 223.142,24.784 200.648,86.132 		"/>
	</g>
</g>
</svg>
