<?xml version="1.0" encoding="iso-8859-1"?>
<!-- Generator: Adobe Illustrator 18.1.1, SVG Export Plug-In . SVG Version: 6.00 Build 0)  -->
<svg version="1.1" id="Capa_1" xmlns="http://www.w3.org/2000/svg" xmlns:xlink="http://www.w3.org/1999/xlink" x="0px" y="0px"
	 viewBox="0 0 59.437 59.437" style="enable-background:new 0 0 59.437 59.437;" xml:space="preserve">
<g>
	<g>
		<path style="fill:#010002;" d="M43.077,12.868l-4.498-1.946C38.579,10.922,40.711,13.56,43.077,12.868z"/>
		<path style="fill:#010002;" d="M42.379,10.895L40.19,9.948C40.19,9.948,41.221,11.175,42.379,10.895z"/>
		<polygon style="fill:#010002;" points="0,49.49 28.02,49.49 33.678,46.895 5.659,46.895 		"/>
		<path style="fill:#010002;" d="M30.803,45.324c-0.108,0.114-0.227,0.219-0.35,0.317h5.957l5.656-2.596H31.854
			C31.756,43.921,31.403,44.695,30.803,45.324z"/>
		<path style="fill:#010002;" d="M23.531,43.047H14.05l-5.658,2.597h16.66C24.285,45.049,23.706,44.179,23.531,43.047z"/>
		<path style="fill:#010002;" d="M23.452,41.526c-0.016-0.846-0.001-1.713,0.041-2.594h-0.465l-5.659,2.594H23.452z"/>
		<path style="fill:#010002;" d="M31.86,41.526h13.529l5.656-2.594H31.913C31.86,39.812,31.843,40.682,31.86,41.526z"/>
		<path style="fill:#010002;" d="M40.316,35.084c-0.848,0.928-2.073,2.004-3.575,2.592h17.038l5.658-2.592H40.316z"/>
		<path style="fill:#010002;" d="M32.004,37.677h0.354c-0.112-0.046-0.229-0.089-0.343-0.148
			C32.012,37.577,32.008,37.628,32.004,37.677z"/>
		<path style="fill:#010002;" d="M34.499,38.122c0.799,0,1.549-0.171,2.242-0.445h-4.382C33.04,37.966,33.752,38.122,34.499,38.122z
			"/>
		<path style="fill:#010002;" d="M11.72,18.818c2.957,1.993,6.149,3.506,9.556,4.531c0.026,0.058,0.05,0.116,0.081,0.175
			c1.64,3.131,3.11,6.303,5.448,8.966c-0.793,3.677-1.248,7.557-1.081,11.291c0.112,2.452,3.932,2.462,3.821,0
			c-0.139-3.105,0.169-6.283,0.762-9.357c0.645,0.769,1.346,1.478,2.156,2.065c2.438,1.771,5.082-0.282,6.599-2.176
			c1.522-1.902-1.162-4.625-2.702-2.701c-0.32,0.402-1.094,1.632-1.673,1.705c-0.394,0.053-0.935-0.741-1.142-0.973
			c-0.481-0.535-0.926-1.104-1.357-1.686c-0.062-0.562-0.307-1.13-0.803-1.645c-1.65-1.722-2.779-3.826-3.848-5.951
			c2.656-0.109,5.295-0.385,7.902-0.963c2.405-0.534,1.386-4.218-1.017-3.685c-3.164,0.703-6.364,0.872-9.598,0.886
			c-0.794-0.256-1.685-0.07-2.406,0.399c-3.146-0.942-6.034-2.338-8.769-4.182C11.599,14.138,9.689,17.449,11.72,18.818z"/>
		<circle style="fill:#010002;" cx="22.618" cy="14.941" r="3.474"/>
	</g>
</g>
<g>
</g>
<g>
</g>
<g>
</g>
<g>
</g>
<g>
</g>
<g>
</g>
<g>
</g>
<g>
</g>
<g>
</g>
<g>
</g>
<g>
</g>
<g>
</g>
<g>
</g>
<g>
</g>
<g>
</g>
</svg>
