<?xml version="1.0" encoding="utf-8"?>
<!-- Generator: Adobe Illustrator 16.0.3, SVG Export Plug-In . SVG Version: 6.00 Build 0)  -->
<!DOCTYPE svg PUBLIC "-//W3C//DTD SVG 1.1//EN" "http://www.w3.org/Graphics/SVG/1.1/DTD/svg11.dtd">
<svg version="1.1" id="圖層_1" xmlns="http://www.w3.org/2000/svg" xmlns:xlink="http://www.w3.org/1999/xlink" x="0px" y="0px"
	 width="200px" height="200px" viewBox="0 0 200 200" enable-background="new 0 0 200 200" xml:space="preserve">
<g>
	<g>
		<path d="M65.249,133.002c-5.722,0-10.357,9.417-10.357,21.024c0,11.613,4.635,21.027,10.357,21.027
			c5.721,0,10.359-9.414,10.359-21.027C75.605,142.428,70.97,133.002,65.249,133.002z M65.249,163.035
			c-2.443,0-4.424-4.019-4.424-9.001c0-4.967,1.984-8.98,4.424-8.98c2.447,0,4.425,4.014,4.425,8.98
			C69.674,159.005,67.694,163.035,65.249,163.035z"/>
		<path d="M84.894,111.564C75.7,99.721,55.132,96.816,55.132,96.816S44.045,78.186,33.683,69.013
			c-10.357-9.179-19.986-6.51-32.24-2.656C0.956,66.51,0.477,66.706,0,66.902v10.546c4.446-2.605,8-2.794,8-2.794v27.823H0v48.085
			h50.459c0,0,0.585-27.557,14.151-27.557c13.568,0,15.463,27.557,15.463,27.557h11.669
			C91.746,150.562,94.081,123.413,84.894,111.564z M14,102.477V72.885c19-2.667,32.963,29.591,32.963,29.591H14z"/>
	</g>
	<g>
		<g>
			<path d="M192,102.477V74.654c0,0,3.557,0.189,8,2.792V66.902c-0.477-0.195-0.957-0.378-1.443-0.531
				c-12.252-3.854-21.881-6.51-32.238,2.669c-10.357,9.179-21.451,27.832-21.451,27.832s-20.563,2.848-29.762,14.691
				c-9.188,11.849-6.851,38.997-6.851,38.997h11.667c0,0,1.898-27.557,15.464-27.557c13.569,0,14.158,27.557,14.158,27.557H200
				v-48.085H192z M186,102.477h-32.962c0,0,13.962-32.259,32.962-29.591V102.477z"/>
		</g>
		<path d="M124.402,154.034c0,11.621,4.63,21.034,10.348,21.034c5.723,0,10.359-9.413,10.359-21.034
			c0-11.596-4.639-21.016-10.359-21.016C129.032,133.019,124.402,142.428,124.402,154.034z M130.331,154.034
			c0-4.967,1.974-8.98,4.419-8.98c2.447,0,4.427,4.014,4.427,8.98c0,4.974-1.979,9.001-4.427,9.001
			C132.305,163.035,130.331,159.005,130.331,154.034z"/>
	</g>
	<g>
		<path d="M111.926,80.565l12.477-14.464l-14.344,0.168l7.244-25.201l-12.4,14.708l0.084-29.186l-7.12,25.3L90.75,26.56
			l0.072,29.133l-12.4-14.718l7.235,25.146l-14.369-0.138l12.46,14.437L71.27,94.879l6.492-0.066
			c2.465-4.123,5.639-7.436,9.262-9.629l4.081-4.718l-5.96-6.924l6.865,0.084l-3.453-12.028l5.922,7.03l-0.03-13.932l3.41,12.125
			l3.403-12.118l-0.041,13.958l5.92-7.035l-3.459,12.063l6.867-0.088l-5.968,6.922l5.905,6.838c2.402,2.027,4.541,4.577,6.31,7.548
			l7.597,0.083L111.926,80.565z"/>
	</g>
</g>
</svg>
