<?xml version="1.0" encoding="iso-8859-1"?>
<!-- Generator: Adobe Illustrator 16.0.0, SVG Export Plug-In . SVG Version: 6.00 Build 0)  -->
<!DOCTYPE svg PUBLIC "-//W3C//DTD SVG 1.1//EN" "http://www.w3.org/Graphics/SVG/1.1/DTD/svg11.dtd">
<svg version="1.1" id="Capa_1" xmlns="http://www.w3.org/2000/svg" xmlns:xlink="http://www.w3.org/1999/xlink" x="0px" y="0px"
	 width="612px" height="612px" viewBox="0 0 612 612" style="enable-background:new 0 0 612 612;" xml:space="preserve">
<g>
	<path d="M287.7,122.75l8.9-8.9c1.6-0.8,2.4-1.6,4.1-1.6c2.4,0,4.9,1.6,7.3,4.9l55.1,72.2l-72.2-55.1
		C286.1,130.05,284.5,126.05,287.7,122.75z M372.1,171.35l-28.3-68.1c-0.8-3.2-3.2-5.7-5.7-5.7c-0.8,0-1.6,0-2.399,0.8l-8.9,4.9
		c-3.2,1.6-3.2,5.7,0.8,9.7L372.1,171.35z M598.2,195.75c0-0.8-184-0.8-184-0.8c-8.101,0-14.601,6.5-14.601,14.6v18.7
		c0,8.1,6.5,14.6,14.601,14.6h151.5v257.8c0,8.1,6.5,13.801,13.8,13.801h18.7c8.1,0,13.8-6.5,13.8-13.801v-290.3
		C612,202.25,605.5,195.75,598.2,195.75z M286.9,187.65l73,9.7l-68.101-27.6c-1.6-1.6-4.1-1.6-5.7-1.6s-2.4,1.6-3.2,3.2l-2.4,9.7
		C279.6,184.35,282,187.65,286.9,187.65z M535,377.351v64.898c0,15.4-12.2,21.9-25.2,21.9h-55.1c-1.601,27.6-24.4,49.4-52.7,49.4
		s-51.9-21.9-53.5-49.4H157.2c-1.6,27.6-24.4,49.4-52.7,49.4c-27.6,0-51.1-21.9-52.7-49.4H23.4c-20.2,0-23.4-8.9-23.4-21.9v-62.398
		c0-10.602,0.8-18.701,6.5-29.9l55.1-109.4c6.5-13,23.4-24.4,38.9-24.4h212.3c14.601,0,29.101,8.9,38.2,24.4l51.1,80.301
		L503.4,343.55C529.3,347.249,534.2,364.351,535,377.351z M132.9,460.05c0-15.4-13-28.301-28.3-28.301c-15.3,0-28.3,13-28.3,28.301
		c0,15.4,13,28.301,28.3,28.301C119.9,488.351,132.9,475.351,132.9,460.05z M190.5,246.85h-77.9c-12.2,0.8-18.7,5.7-24.4,19.5
		L63,321.45h127.3V246.85H190.5L190.5,246.85z M359.1,321.45L325.9,266.35c-6.5-10.6-16.2-19.5-29.9-19.5h-71.4v74.601H359.1
		L359.1,321.45z M430.4,460.05c0-15.4-13-28.301-28.301-28.301c-15.3,0-28.3,13-28.3,28.301c0,15.4,13,28.301,28.3,28.301
		C418.3,488.351,430.4,475.351,430.4,460.05z"/>
</g>
<g>
</g>
<g>
</g>
<g>
</g>
<g>
</g>
<g>
</g>
<g>
</g>
<g>
</g>
<g>
</g>
<g>
</g>
<g>
</g>
<g>
</g>
<g>
</g>
<g>
</g>
<g>
</g>
<g>
</g>
</svg>
