<svg xmlns:dc="http://purl.org/dc/elements/1.1/" xmlns:cc="http://creativecommons.org/ns#" xmlns:rdf="http://www.w3.org/1999/02/22-rdf-syntax-ns#" xmlns:svg="http://www.w3.org/2000/svg" xmlns="http://www.w3.org/2000/svg" xmlns:sodipodi="http://sodipodi.sourceforge.net/DTD/sodipodi-0.dtd" xmlns:inkscape="http://www.inkscape.org/namespaces/inkscape" viewBox="0 0 80 80" version="1.1" x="0px" y="0px"><g transform="matrix(-1.2766062,-0.12720153,-0.12720153,1.2766062,109.86363,-1.906969)"><path d="m 29.941641,44.393864 c -2.6824,0 -4.844,2.1664 -4.844,4.844 0,2.656 2.1616,4.8336 4.844,4.8336 2.6664,0 4.8384,-2.1776 4.8384,-4.8336 0,-2.6776 -2.172,-4.844 -4.8384,-4.844 z m 0,7.448 c -1.4376,0 -2.6096,-1.1768 -2.6096,-2.604 0,-1.4584 1.172,-2.604 2.6096,-2.604 1.4272,0 2.604,1.1456 2.604,2.604 0,1.4272 -1.1768,2.604 -2.604,2.604 z"></path><path d="m 62.514441,44.393864 c -2.656,0 -4.8384,2.1664 -4.8384,4.844 0,2.656 2.1824,4.8336 4.8384,4.8336 2.6776,0 4.844,-2.1776 4.844,-4.8336 0,-2.6776 -2.1664,-4.844 -4.844,-4.844 z m 0,7.448 c -1.4272,0 -2.604,-1.1768 -2.604,-2.604 0,-1.4584 1.1768,-2.604 2.604,-2.604 1.448,0 2.6096,1.1456 2.6096,2.604 0,1.4272 -1.1616,2.604 -2.6096,2.604 z"></path><path d="m 70.472084,44.959557 c 0,-4.708 -1.494443,-4.628893 -1.494443,-4.628893 -0.26885,-0.0371 -0.549888,-0.07306 -0.840539,-0.107885 -0.290651,-0.03482 -0.693313,0.959152 -1.000618,0.926613 -0.307305,-0.03254 -0.519255,-1.091591 -0.838067,-1.121842 -0.318813,-0.03025 -0.510176,-0.639273 -0.835347,-0.667229 -0.325172,-0.02796 -0.784153,0.525154 -1.110537,0.499497 -0.326385,-0.02566 -0.652088,-0.05016 -0.974537,-0.07351 -0.32245,-0.02335 -0.641644,-0.04555 -0.955011,-0.06659 -0.313367,-0.02104 -0.620907,-0.04093 -0.920044,-0.05965 -0.299138,-0.01872 -0.589873,-0.03629 -0.869634,-0.05269 -0.279761,-0.0164 -0.548546,-0.03165 -0.803783,-0.04572 -0.255237,-0.01408 -0.496925,-0.02699 -0.72249,-0.03873 -0.225566,-0.01174 -0.435009,-0.02232 -0.625756,-0.03173 -0.190746,-0.0094 -0.362797,-0.01764 -0.513578,-0.0247 -0.150781,-0.0071 -0.280293,-0.01295 -0.385961,-0.01767 -0.105668,-0.0047 -0.187492,-0.0083 -0.2429,-0.01061 -0.05541,-0.0024 -0.0844,-0.0035 -0.0844,-0.0035 -0.6776,-1.1864 -3.8232,-8.0824 -5.6512,-8.0824 -0.6144,0 -13.7552,0 -16.0728,0 -2.3384,0 -6.1408,6.7184 -6.984,8.2496 0,0 -2.9328,0.4896 -4.3128,0.8128 -0.7552,0.1768 -2.8752,0.2184 -2.8752,6.1352 l -1.8384,0 0,2.6872 4.4528,0 c 0,-3.2912 2.6776,-5.9688 5.9688,-5.9688 3.292,0 5.9584,2.6776 5.9584,5.9688 l 20.6712,0 c 0,-3.2912 2.6616,-5.9688 5.9432,-5.9688 1.394746,0 2.979387,2.659152 3.995467,3.461342 1.385655,1.093969 1.973069,-0.132719 0.740093,2.236312 l 2.284265,-0.833336 -1.050732,-3.226775 z m -27.082443,-5.982493 -9.2864,0 c 1.26,-3.9168 3.5784,-6.7184 4.5568,-6.7184 1.2448,0 4.7296,0 4.7296,0 z m 1.7296,0 0,-6.7184 c 0,0 4.792,0 6.0152,0 1.2296,0 3.9584,5.6768 4.7184,7.1352 z" style="" fill="#000000" stroke="none"></path></g><path d="m 7.8471203,37.144318 c -0.019916,0.26549 0.084938,0.568999 -0.0531,0.796473 -0.1612126,0.265671 -0.5686686,0.273156 -0.7964728,0.484522 -0.5126282,0.475636 -0.9426368,1.064384 -1.2212566,1.705777 -0.2014007,0.46363 -0.2323051,0.988954 -0.2986772,1.486748 -0.4977957,0.0067 -0.8562084,0.378327 -1.3141797,0.504435 0.013278,0.245577 0.033194,0.730099 0.04645,0.975677 0.1460186,0.192482 0.6239032,0.305315 0.6239032,0.305315 l 0.6703643,0.21903 c 0,0 0.00667,1.513299 0.00667,2.263311 -0.7367364,-0.09957 -1.3606396,0.298675 -2.0641916,0.418147 -0.026544,0.139383 -0.079645,0.411508 -0.1061996,0.550893 -0.1526565,0.04645 -0.3119505,0.07965 -0.4712458,0.106199 l -0.026544,0.398237 c -0.3053138,0.0067 -0.6106287,0.0067 -0.9159437,0.01326 l 0,1.314179 c 0.305315,0.0067 0.6106299,0.0067 0.9159437,0.01326 0.013278,0.1062 0.026544,0.305316 0.033184,0.411513 0.1460198,0.03983 0.2920395,0.0863 0.4314236,0.132743 l 0.1327443,0.530982 c 0.2787661,0.09292 0.5973543,0.09955 0.8163851,0.305316 0.418148,0.02655 0.836295,0.06636 1.254443,0.0863 0.00667,0.995593 0.013278,1.991183 -0.026544,2.993409 -0.1061996,0.09955 -0.2190306,0.199119 -0.2920394,0.325227 -0.092922,0.272129 0.1526575,0.404872 0.3053139,0.550894 0.019916,1.095149 0.013278,2.190301 0.013278,3.285449 -0.1128342,0 -0.3252271,-0.01327 -0.4314236,-0.01991 -0.033183,-0.09292 -0.059728,-0.192483 -0.092922,-0.285406 -0.4115103,0.112833 -0.8031085,0.278766 -1.2212576,0.378326 -0.2854028,0.0531 -0.2256663,0.457972 -0.2522151,0.657089 0.013278,0.384964 -0.0531,0.803112 0.092922,1.174798 0.037336,0.03734 0.079601,0.06585 0.1244441,0.08794 l 9.6124256,0 c 0.0044,-5.66e-4 0.0089,-0.0011 0.01328,-0.0016 0.02654,-0.597353 0.126112,-1.234532 0,-1.805336 -0.411512,-0.252216 -1.035414,-0.663728 -1.446926,-0.205756 -0.106199,0.0067 -0.318587,0.01991 -0.418147,0.02656 0,-0.909303 -0.03319,-1.81861 0,-2.727915 -0.04647,-0.338502 0.152657,-0.610627 0.252216,-0.909308 0.09955,-0.345137 -0.3385,-0.53098 -0.24558,-0.882758 -0.04645,-0.882754 -0.0067,-1.765511 -0.01328,-2.648269 1.140282,-0.0056 0.897986,-0.300326 2.064191,-0.404873 0.02655,-0.139382 0.07965,-0.411511 0.106199,-0.550891 0.152658,-0.04647 0.311952,-0.07966 0.471246,-0.106199 l 0.02655,-0.398238 c 0.305314,-0.0067 0.610629,-0.0067 0.915943,-0.01326 l 0,-1.314178 c -0.305314,-0.0067 -0.610629,-0.01326 -0.909306,-0.01991 -0.0199,-0.09292 -0.0531,-0.292038 -0.06637,-0.391599 l -0.398237,-0.159293 c -0.03319,-0.132747 -0.106199,-0.391599 -0.139382,-0.517707 -0.278765,-0.0863 -0.590718,-0.106199 -0.816385,-0.305314 -0.418148,-0.0199 -0.836296,-0.06636 -1.254443,-0.0863 -0.0067,-0.763285 0.03319,-2.296497 0.03319,-2.296497 l 0.690276,-0.205754 c 0,0 0.51107,-0.1062 0.58408,-0.358412 0.0531,-0.311952 -0.01328,-0.637178 -0.0332,-0.955766 -0.398236,-0.179208 -0.789835,-0.411511 -1.247808,-0.404874 -0.07301,-0.584041 -0.108607,-1.200803 -0.365057,-1.73229 C 10.921182,39.473047 10.528205,39.10365 10.156893,38.74394 9.8431751,38.440025 9.323382,38.328157 9.1214799,37.94083 8.9986014,37.70511 9.0949354,37.409848 9.0816577,37.144359 z" style="" fill="#000000" stroke="none"></path><path style="color:#000000;enable-background:accumulate;" d="m 0.714191,58.445572 33.125121,0.06692 c 3.814409,-0.06692 2.743698,4.349764 2.743698,4.349764 l -35.868819,0 z" fill="#000000" fill-opacity="1" fill-rule="nonzero" stroke="none" marker="none" visibility="visible" display="inline" overflow="visible"></path></svg>