<?xml version="1.0" encoding="iso-8859-1"?>
<!-- Generator: Adobe Illustrator 16.0.0, SVG Export Plug-In . SVG Version: 6.00 Build 0)  -->
<!DOCTYPE svg PUBLIC "-//W3C//DTD SVG 1.1//EN" "http://www.w3.org/Graphics/SVG/1.1/DTD/svg11.dtd">
<svg version="1.1" id="Capa_1" xmlns="http://www.w3.org/2000/svg" xmlns:xlink="http://www.w3.org/1999/xlink" x="0px" y="0px"
	 width="98.156px" height="98.156px" viewBox="0 0 98.156 98.156" style="enable-background:new 0 0 98.156 98.156;"
	 xml:space="preserve">
<g>
	<g>
		<path d="M47.485,40.185l12.767,5.922c9.728,1.228,19.543-3.854,23.888-13.222c5.379-11.594,0.34-25.354-11.256-30.731
			C61.289-3.224,47.529,1.816,42.153,13.41C37.807,22.778,40.266,33.553,47.485,40.185z M73.849,20.722l-0.688-3.267l2.829-0.596
			l0.689,3.266l3.424-0.721l0.597,2.83l-3.425,0.721l0.688,3.266l-2.828,0.596l-0.689-3.266l-3.108,0.655l-0.596-2.831
			L73.849,20.722z M54.683,7.497l2.83-0.596l0.688,3.266l3.424-0.721l0.597,2.831l-3.424,0.721l0.686,3.267l-2.829,0.596
			l-0.688-3.266l-3.107,0.654l-0.598-2.831l3.109-0.654L54.683,7.497z M48.722,30.288c0.239-0.061,2.419-0.594,5.099-0.594
			c3.109,0,5.646,0.695,7.539,2.066c2.195,1.587,3.414,3.998,3.627,7.164l0.047,0.722l-2.887,0.192l-0.047-0.721
			c-0.15-2.265-0.972-3.951-2.434-5.012c-1.382-1.003-3.343-1.512-5.826-1.512c-2.418,0-4.383,0.492-4.402,0.498l-0.698,0.177
			l-0.721-2.801L48.722,30.288z"/>
		<path d="M68.173,78.703l4,19.453h14.12c0-23.499-11.606-43.272-27.392-49.177H39.256c-15.785,5.905-27.394,25.678-27.394,49.177
			h11.549l4-19.453l0,0v19.453h40.762V78.703L68.173,78.703z"/>
		<polygon points="39.999,36.953 27.882,30.286 38.755,38.833 		"/>
		<polygon points="39.941,43.94 38.812,41.989 33.629,46.288 		"/>
		<path d="M78.048,52.484c0.182-0.03,0.352-0.075,0.506-0.13h0.002c0.723-0.253,1.225-0.758,1.445-1.459
			c0.198-0.633,0.158-1.388-0.121-2.186c-0.572-1.641-2.201-2.263-4.146-1.584c-1.482,0.519-4.596,0.441-4.627,0.44l-0.934-0.025
			l0.646,0.673C71.007,48.408,75.388,52.937,78.048,52.484z"/>
		<path d="M69.661,50.224l-0.825-0.438l0.28,0.891c0.105,0.341,1.085,3.349,2.494,3.772c0.337,0.102,0.65,0.102,0.939,0.001
			c0.551-0.194,0.924-0.734,1.019-1.484c0.067-0.527-0.089-0.99-0.445-1.339c-0.31-0.3-0.748-0.495-1.274-0.561
			C71.205,50.986,70.052,50.431,69.661,50.224z M72.808,52.871c-0.084,0.664-0.441,1.008-0.976,0.845
			c-0.597-0.179-1.241-1.353-1.671-2.403c0.5,0.22,1.119,0.456,1.59,0.516c0.354,0.044,0.651,0.168,0.836,0.348
			C72.772,52.355,72.845,52.583,72.808,52.871z"/>
	</g>
</g>
<g>
</g>
<g>
</g>
<g>
</g>
<g>
</g>
<g>
</g>
<g>
</g>
<g>
</g>
<g>
</g>
<g>
</g>
<g>
</g>
<g>
</g>
<g>
</g>
<g>
</g>
<g>
</g>
<g>
</g>
</svg>
