<?xml version="1.0" encoding="iso-8859-1"?>
<!-- Generator: Adobe Illustrator 16.0.0, SVG Export Plug-In . SVG Version: 6.00 Build 0)  -->
<!DOCTYPE svg PUBLIC "-//W3C//DTD SVG 1.1//EN" "http://www.w3.org/Graphics/SVG/1.1/DTD/svg11.dtd">
<svg version="1.1" id="Capa_1" xmlns="http://www.w3.org/2000/svg" xmlns:xlink="http://www.w3.org/1999/xlink" x="0px" y="0px"
	 width="349.4px" height="349.401px" viewBox="0 0 349.4 349.401" style="enable-background:new 0 0 349.4 349.401;"
	 xml:space="preserve">
<g>
	<g>
		<path d="M174.7,0C78.216,0,0,78.219,0,174.701c0,96.484,78.215,174.7,174.7,174.7c96.483,0,174.7-78.216,174.7-174.7
			C349.4,78.219,271.184,0,174.7,0z M174.7,341.338c-45.911,0-87.544-18.667-117.71-48.799c-0.023-0.021-0.055-0.031-0.076-0.053
			c-0.021-0.021-0.026-0.052-0.048-0.074C26.73,262.251,8.063,220.612,8.063,174.701C8.063,82.815,82.817,8.063,174.7,8.063
			c91.887,0,166.637,74.751,166.637,166.637C341.337,266.585,266.582,341.338,174.7,341.338z"/>
		<path d="M150.542,206.459h14.496c12.187,0,22.103-9.91,22.103-22.1c0-4.042-1.155-7.937-3.181-11.312L150.542,206.459z"/>
		<path d="M97.288,244.507c-2.541-0.2-4.951-0.388-7.058-0.577c1.137,1.322,2.323,2.656,3.586,4.052L97.288,244.507z"/>
		<path d="M64.686,214.25c-0.375-0.734-0.638-1.532-0.638-2.415c0-0.493,0.155-0.944,0.278-1.396
			c-0.165-2.356-0.278-4.802-0.278-7.422c0-55.907,61.218-115.036,119.103-115.036c20.115,0,38.836,5.925,54.657,16.003
			l43.171-43.158c-27.873-26.029-65.245-42.006-106.284-42.006c-85.959,0-155.887,69.936-155.887,155.888
			c0,41.055,15.974,78.42,41.998,106.289l25.397-25.413C74.302,242.533,66.798,232.171,64.686,214.25z"/>
		<path d="M124.59,217.21H76.001c1.102,5.753,2.973,10.562,5.64,15.129c7.079,0.735,15.819,1.486,25.673,2.136L124.59,217.21z"/>
		<path d="M110.479,131.435c-21.092,19.958-35.674,46.383-35.674,71.582c0,1.187,0.031,2.321,0.067,3.443h60.474l41.262-41.273
			c-0.091-0.032-0.183-0.053-0.27-0.097l-65.294-33.203C110.823,131.773,110.679,131.568,110.479,131.435z"/>
		<path d="M183.151,98.731c-22.023,0-44.956,9.956-64.034,25.2l62.099,31.581c0.758,0.386,1.343,0.958,1.815,1.596
			c0.299,0.134,0.624,0.199,0.903,0.398c0.068,0.042,0.131,0.108,0.198,0.155l45.864-45.855
			C216.276,103.558,200.285,98.731,183.151,98.731z"/>
		<path d="M274.544,190.125c0-29.335-13.953-55.427-35.507-72.159l-47.313,47.317c3.932,5.499,6.17,12.147,6.17,19.077
			c0,18.11-14.742,32.851-32.855,32.851h-25.247l-18.115,18.11c53.087,2.657,126.179,1.407,148.837-18.646
			C273.127,208.139,274.544,199.226,274.544,190.125z M257.199,192.233c-2.971,0-5.375-2.399-5.375-5.375
			c0-19.837-9.542-28.396-9.648-28.483c-2.272-1.899-2.571-5.289-0.667-7.566c1.906-2.268,5.298-2.575,7.575-0.672
			c0.546,0.462,13.491,11.589,13.491,36.722C262.575,189.829,260.171,192.233,257.199,192.233z"/>
		<path d="M288.581,68.418l-41.879,41.879c23.479,18.728,38.593,47.531,38.593,79.827c0,10.655-1.742,21.092-4.934,31.044
			c-0.091,0.283-0.153,0.545-0.283,0.812c-4.589,13.87-12.064,26.767-22.289,37.738c-1.019,1.083-2.441,1.701-3.927,1.701H95.579
			l-27.166,27.172c27.865,26.026,65.234,41.994,106.283,41.994c85.948,0,155.886-69.932,155.886-155.886
			C330.588,133.649,314.607,96.285,288.581,68.418z"/>
		<path d="M263.521,233.337c-24.63,10.834-64.694,13.836-101.361,13.836c-18.604,0-36.305-0.766-50.67-1.659l-5.16,5.155h145.148
			C256.213,245.337,260.181,239.5,263.521,233.337z"/>
	</g>
</g>
<g>
</g>
<g>
</g>
<g>
</g>
<g>
</g>
<g>
</g>
<g>
</g>
<g>
</g>
<g>
</g>
<g>
</g>
<g>
</g>
<g>
</g>
<g>
</g>
<g>
</g>
<g>
</g>
<g>
</g>
</svg>
