<?xml version="1.0" encoding="iso-8859-1"?>
<!-- Generator: Adobe Illustrator 16.0.0, SVG Export Plug-In . SVG Version: 6.00 Build 0)  -->
<!DOCTYPE svg PUBLIC "-//W3C//DTD SVG 1.1//EN" "http://www.w3.org/Graphics/SVG/1.1/DTD/svg11.dtd">
<svg version="1.1" id="Capa_1" xmlns="http://www.w3.org/2000/svg" xmlns:xlink="http://www.w3.org/1999/xlink" x="0px" y="0px"
	 width="612.062px" height="612.062px" viewBox="0 0 612.062 612.062" style="enable-background:new 0 0 612.062 612.062;"
	 xml:space="preserve">
<g>
	<path d="M16.861,457.13l96.1,39.301l-103-13.801c-7.9-1-10.7-5-9.8-9.8l3.9-13.8c0-2.9,1.9-3.8,3.8-5
		C9.961,454.031,12.861,454.031,16.861,457.13z M27.662,374.731c-1.9,0-3.8,1-5.9,2.899l-11.8,11.7c-5,5-2.9,10.7,5,16.7l101.9,78.5
		l-78.5-101.9C35.461,377.63,31.662,374.731,27.662,374.731z M612.062,118.731v153c0,14.7-1.9,26.4-9.8,42.1l-76.4,159.9
		c-8.8,18.6-33.3,34.3-54,34.3h-217.7c-21.6,0-45.2-15.7-54-34.3l-76.4-159.9c-7.9-15.7-9.8-27.4-9.8-42.1v-153
		c0-7.9,6.9-14.7,14.7-14.7h55c7.9,0,14.7,6.9,14.7,14.7v35.3h327.5v-35.2c0-7.9,6.9-14.7,14.7-14.7h56.9
		C605.161,104.131,612.062,110.931,612.062,118.731z M194.262,276.731c21.6,0,38.3-16.7,38.3-38.3c0-20.7-16.7-38.3-38.3-38.3
		c-21.6,0-38.1,17.8-38.1,38.3S172.762,276.731,194.262,276.731z M541.462,318.831h-358.9c0,0,51.9,110.9,51.9,109.7
		c10.7,21.6,19.5,27.4,42.1,27.4h170.6c22.601,0,31.4-5.9,42.101-27.4L541.462,318.831z M567.861,238.431
		c0-20.7-16.7-38.3-38.3-38.3c-20.7,0-38.3,17.6-38.3,38.3c0,20.7,16.7,38.3,38.3,38.3
		C550.262,276.731,567.861,259.131,567.861,238.431z M80.662,355.031c-1,0-1.9,0-2.9,1l-11.7,7.8c-5,2.9-3.8,7.9,1,12.8l62.8,82.301
		l-40.2-96.101C87.361,358.13,84.461,355.031,80.662,355.031z"/>
</g>
<g>
</g>
<g>
</g>
<g>
</g>
<g>
</g>
<g>
</g>
<g>
</g>
<g>
</g>
<g>
</g>
<g>
</g>
<g>
</g>
<g>
</g>
<g>
</g>
<g>
</g>
<g>
</g>
<g>
</g>
</svg>
