<?xml version="1.0" encoding="iso-8859-1"?>
<!-- Generator: Adobe Illustrator 18.1.1, SVG Export Plug-In . SVG Version: 6.00 Build 0)  -->
<svg version="1.1" id="Capa_1" xmlns="http://www.w3.org/2000/svg" xmlns:xlink="http://www.w3.org/1999/xlink" x="0px" y="0px"
	 viewBox="0 0 179.012 179.012" style="enable-background:new 0 0 179.012 179.012;" xml:space="preserve">
<g>
	<path style="fill:#010002;" d="M155.78,101.592c-3.031-22.447-15.406-38.809-30.652-38.809H53.89
		c-15.257,0-27.627,16.355-30.664,38.803c-11.003,5.567-16.707,17.107-16.707,30.479c0,10.293,3.371,19.488,9.923,25.729v21.218
		h26.403v-12.9h93.322v12.9h26.403v-21.218c6.546-6.241,9.923-15.436,9.923-25.729C172.487,118.699,166.783,107.153,155.78,101.592z
		 M53.884,70.707h71.232c10.036,0,18.82,11.898,22.089,27.997c-1.635-0.304-3.371-0.477-5.155-0.567
		c0-0.036,0.012-0.066,0.012-0.095c0-9.344-7.596-16.946-16.946-16.946s-16.946,7.602-16.946,16.946H39.134
		c-2.608,0-5.054,0.227-7.357,0.656C35.052,82.599,43.842,70.707,53.884,70.707z M136.782,98.048h-23.313
		c0-6.438,5.233-11.665,11.665-11.665C131.549,86.382,136.782,91.609,136.782,98.048z M35.184,143.133
		c-6.098,0-11.057-4.947-11.057-11.063c0-6.104,4.958-11.063,11.057-11.063c6.11,0,11.069,4.953,11.069,11.063
		C46.252,138.199,41.3,143.133,35.184,143.133z M121.62,141.17H57.374c-1.462,0-2.643-1.187-2.643-2.643
		c0-1.45,1.181-2.631,2.643-2.631h64.245c1.462,0,2.643,1.181,2.643,2.631C124.263,139.983,123.082,141.17,121.62,141.17z
		 M121.62,131.486H57.374c-1.462,0-2.643-1.187-2.643-2.643c0-1.456,1.181-2.631,2.643-2.631h64.245
		c1.462,0,2.643,1.181,2.643,2.631C124.263,130.299,123.082,131.486,121.62,131.486z M143.816,143.133
		c-6.104,0-11.063-4.947-11.063-11.063c0-6.104,4.958-11.063,11.063-11.063c6.098,0,11.063,4.953,11.063,11.063
		C154.873,138.199,149.915,143.133,143.816,143.133z M131.089,32.734c3.789,6.062,10.466,10.126,18.145,10.132
		c8.407,0,15.603-4.887,19.118-11.934l-14.267-0.006c-5.054,0.012-9.147-4.236-9.147-9.499c0.006-5.233,4.099-9.481,9.141-9.493
		h14.261C164.85,4.887,157.642,0.006,149.222,0c-7.667-0.006-14.344,4.069-18.139,10.144H40.858
		c-3.162-3.64-7.763-5.973-12.954-5.973c-9.541-0.006-17.274,7.721-17.268,17.268c0,9.523,7.727,17.25,17.256,17.262
		c5.191,0,9.792-2.357,12.966-5.967C40.858,32.734,131.089,32.734,131.089,32.734z M23.363,29.315l-4.547-7.87l4.553-7.864
		l9.076-0.012l4.547,7.876l-4.541,7.87H23.363z"/>
</g>
<g>
</g>
<g>
</g>
<g>
</g>
<g>
</g>
<g>
</g>
<g>
</g>
<g>
</g>
<g>
</g>
<g>
</g>
<g>
</g>
<g>
</g>
<g>
</g>
<g>
</g>
<g>
</g>
<g>
</g>
</svg>
