<?xml version="1.0" encoding="UTF-8"?>
<!-- Generator: Adobe Illustrator 15.0.2, SVG Export Plug-In . SVG Version: 6.00 Build 0)  -->
<!DOCTYPE svg PUBLIC "-//W3C//DTD SVG 1.1//EN" "http://www.w3.org/Graphics/SVG/1.1/DTD/svg11.dtd">
<svg xmlns="http://www.w3.org/2000/svg" xmlns:xlink="http://www.w3.org/1999/xlink" version="1.1" id="Layer_1" x="0px" y="0px" width="512.001px" height="339.058px" viewBox="0 0 512.001 339.058" enable-background="new 0 0 512.001 339.058" xml:space="preserve">
<path d="M17.084,308.665c-4.663,0.662-8.972-2.592-9.629-7.25l-7.119-50.659c-1.872-13.312,4.209-25.9,14.623-32.987l20.613-83.906  l8.442-1.183l16.889-2.374l84.436-11.867l16.888-2.375l8.441-1.187l42.947,74.979c11.958,3.934,21.274,14.355,23.142,27.668  l7.123,50.669c0.652,4.658-2.597,8.972-7.259,9.624l-8.442,1.188l2.375,16.884c1.31,9.334-5.188,17.952-14.514,19.267  c-9.33,1.305-17.953-5.184-19.263-14.519l-2.374-16.883l-135.1,18.985l2.374,16.893c1.31,9.316-5.188,17.944-14.514,19.258  c-9.326,1.314-17.949-5.192-19.263-14.518l-2.37-16.884L17.084,308.665z M41.182,210.572l145.231-20.413l-27.382-47.813  L54.327,157.059L41.182,210.572z M41.993,225.525c-9.326,1.306-17.636,12.344-16.327,21.669  c1.309,9.325,12.343,17.636,21.668,16.321c9.325-1.305,17.641-12.343,16.326-21.659C62.352,232.522,51.323,224.212,41.993,225.525z   M189.758,204.754c-9.325,1.314-17.636,12.344-16.326,21.669s12.343,17.645,21.668,16.331c9.325-1.314,17.641-12.344,16.326-21.669  C210.116,211.76,199.088,203.449,189.758,204.754z M275.376,276.529c-4.658-0.661-7.902-4.966-7.25-9.633l7.123-50.669  c1.867-13.304,11.184-23.734,23.146-27.663l42.938-74.979l8.446,1.188l16.884,2.374l84.436,11.863l16.893,2.374l8.437,1.188  l20.618,83.91c10.403,7.078,16.493,19.666,14.617,32.979l-7.114,50.659c-0.661,4.668-4.966,7.912-9.633,7.26l-8.446-1.188  l-2.365,16.884c-1.323,9.334-9.942,15.823-19.268,14.518c-9.325-1.305-15.823-9.933-14.518-19.267l2.374-16.875l-135.095-18.994  l-2.375,16.893c-1.313,9.325-9.933,15.822-19.258,14.509c-9.334-1.314-15.823-9.933-14.518-19.258l2.374-16.893L275.376,276.529z   M325.582,188.868l145.236,20.408l-13.141-53.51L352.97,141.054L325.582,188.868z M322.247,203.468  c-9.334-1.314-20.363,6.996-21.678,16.33c-1.305,9.316,7.006,20.354,16.331,21.66c9.325,1.313,20.354-6.997,21.669-16.331  C339.883,215.811,331.563,204.772,322.247,203.468z M470.003,224.229c-9.325-1.313-20.354,7.006-21.659,16.331  c-1.323,9.325,6.996,20.354,16.321,21.668c9.325,1.306,20.363-7.005,21.669-16.33C487.639,236.573,479.337,225.544,470.003,224.229z   M167.84,14.695L197.225,0l29.391,161.63L167.84,14.695z M237.635,0h29.386l-25.715,161.63L237.635,0z M314.779,14.695L344.16,29.39  L270.699,176.32L314.779,14.695z" fill="#000000"/>
</svg>
