<?xml version="1.0" encoding="iso-8859-1"?>
<!-- Generator: Adobe Illustrator 16.0.0, SVG Export Plug-In . SVG Version: 6.00 Build 0)  -->
<!DOCTYPE svg PUBLIC "-//W3C//DTD SVG 1.1//EN" "http://www.w3.org/Graphics/SVG/1.1/DTD/svg11.dtd">
<svg version="1.1" id="Capa_1" xmlns="http://www.w3.org/2000/svg" xmlns:xlink="http://www.w3.org/1999/xlink" x="0px" y="0px"
	 width="612px" height="612px" viewBox="0 0 612 612" style="enable-background:new 0 0 612 612;" xml:space="preserve">
<g>
	<path d="M260,207.39c0-0.7,0-1.5,0.7-2.2l6.1-9.9c1.5-2.199,3-3,4.6-3c1.5,0,3.8,1.5,6.8,3l68.899,52.2l-80.3-33.3
		C262.2,212.689,260,210.39,260,207.39z M294,146.789c-1.5,0-3,0.7-4.6,2.2l-9.9,9.9c-1.5,1.5-2.2,3-2.2,5.3c0,3,2.2,6.1,6.1,8.3
		l84.8,65.101L303,152.789C299.3,148.989,297.1,146.789,294,146.789z M612,296.689v127.2H474.3v16v14.399c0,5.3-3.8,9-9,9h-48.5
		c-5.3,0-9-3.8-9-9V439.89V333.089c0-11.399,1.5-20.399,7.5-32.499l59-123.5c6.8-14.4,25.7-26.5,41.7-26.5h95.4v39.3h-77.2
		c-17.4,0-24.3,4.6-32.5,21.2l-40.101,85.6H612L612,296.689z M500,357.189c0-16-12.9-29.601-29.6-29.601
		c-16.7,0-29.601,13.601-29.601,29.601s12.9,29.6,29.601,29.6C486.4,386.789,500,373.189,500,357.189z M352.3,331.489v66.7
		c0,16.7-11.399,22.8-25,22.8h-56.8c-1.5,28-25,50.7-53.8,50.7c-28.8,0-52.2-22.8-54.6-50.7H0v-255.3h123.5c15.1,0,30.3,9,39.3,25
		l53,82.5l103.7,23.5C346.2,301.289,351.5,317.89,352.3,331.489z M172.9,273.989l-34-56.8c-6.8-11.4-16.7-19.7-31.1-19.7H35v76.5
		H172.9z M246.4,415.589c0-16-12.9-28.8-28.8-28.8c-16.7,0-29.6,12.9-29.6,28.8c0,16,13.6,29.601,29.6,29.601
		S246.4,431.489,246.4,415.589z M358.3,140.689l-11.399,3c-2.2,0.7-3,1.5-3.801,3.8c-0.699,1.5,0,4.601,1.5,6.8l32.5,80.301
		l-11.3-85.601C365.1,142.189,362.2,139.189,358.3,140.689z"/>
</g>
<g>
</g>
<g>
</g>
<g>
</g>
<g>
</g>
<g>
</g>
<g>
</g>
<g>
</g>
<g>
</g>
<g>
</g>
<g>
</g>
<g>
</g>
<g>
</g>
<g>
</g>
<g>
</g>
<g>
</g>
</svg>
