<?xml version="1.0" encoding="iso-8859-1"?>
<!-- Generator: Adobe Illustrator 16.0.0, SVG Export Plug-In . SVG Version: 6.00 Build 0)  -->
<!DOCTYPE svg PUBLIC "-//W3C//DTD SVG 1.1//EN" "http://www.w3.org/Graphics/SVG/1.1/DTD/svg11.dtd">
<svg version="1.1" id="Capa_1" xmlns="http://www.w3.org/2000/svg" xmlns:xlink="http://www.w3.org/1999/xlink" x="0px" y="0px"
	 width="97.066px" height="97.066px" viewBox="0 0 97.066 97.066" style="enable-background:new 0 0 97.066 97.066;"
	 xml:space="preserve">
<g>
	<g>
		<path d="M72.854,45.154c27.989,0.363,23.688-13.276,23.688-13.276c-5.14,13.369-44.084,0.851-54.918-2.931
			c7.59-0.907,20.783-0.09,20.783-0.09c-17.202-4.766-30.473-2.327-35.147-1.138c-0.056,0.01-0.094,0.024-0.15,0.034
			c-1.097,0.281-1.696,0.488-1.696,0.488l0.048,0.014c-10.964,3.599-9.313,16.19-9.313,16.19l-4.307-1.798
			c8.252,15.792-7.18,43.432-7.18,43.432L0,87.871h48.097c-12.204,0-13.285-23.328-13.285-23.328
			c3.23-17.944,15.913-5.384,15.913-5.384C65.5,71.184,65.343,48.79,63.885,54.492C61.729,62.927,55.35,57.5,55.35,57.5
			c-1.978-1.896-3.992-3.183-5.918-4.113c4.724-1.021,2.046-6.689,2.54-3.562c0.525,3.354-5.768,2.275-5.768,2.275l0.08,0.059
			c-5.058-1.489-8.961-0.538-8.961-0.538c-3.584,0-4.661-5.744-4.661-5.744C34.086,31.517,44.857,44.794,72.854,45.154z"/>
		<path d="M51.965,9.745c-9.342-1.785-12.862,0.532-15.577,10.681C43.764,23.235,47.269,20.75,51.965,9.745z"/>
		<path d="M79.106,74.49c-0.859,7.851,2.423,10.616,14.25,12.399C92.736,77.399,89.612,74.573,79.106,74.49z"/>
		<path d="M91.604,53.587c-0.336,3.012,0.924,4.072,5.462,4.757C96.826,54.704,95.632,53.622,91.604,53.587z"/>
		<path d="M74.274,21.154c-0.229-3.641-1.438-4.724-5.462-4.755C68.487,19.409,69.736,20.47,74.274,21.154z"/>
		<path d="M84.178,19.322c-2.785-1.193-4.164-0.294-6.132,3.858C81.598,24.003,82.98,23.165,84.178,19.322z"/>
		<path d="M82.282,53.587c3.552-0.858,4.407-2.225,3.744-6.197C83.008,47.583,82.18,49.002,82.282,53.587z"/>
	</g>
</g>
<g>
</g>
<g>
</g>
<g>
</g>
<g>
</g>
<g>
</g>
<g>
</g>
<g>
</g>
<g>
</g>
<g>
</g>
<g>
</g>
<g>
</g>
<g>
</g>
<g>
</g>
<g>
</g>
<g>
</g>
</svg>
