<?xml version="1.0" encoding="utf-8"?>
<!-- Generator: Adobe Illustrator 16.0.3, SVG Export Plug-In . SVG Version: 6.00 Build 0)  -->
<!DOCTYPE svg PUBLIC "-//W3C//DTD SVG 1.1//EN" "http://www.w3.org/Graphics/SVG/1.1/DTD/svg11.dtd">
<svg version="1.1" id="stop" xmlns="http://www.w3.org/2000/svg" xmlns:xlink="http://www.w3.org/1999/xlink" x="0px" y="0px"
	 width="300px" height="250px" viewBox="0 0 300 250" enable-background="new 0 0 300 250" xml:space="preserve">
<g>
	<path d="M298.604,137.854l-4.58-17.87c-2.095-8.162-11.488-15.218-21.648-15.548l-16.132-0.527l-41.211-39.381
		c-1.612-1.529-4.829-2.102-7.224-1.229l-74.254,26.971c-1.715,0.624-3.368,2.745-3.752,4.635l-7.874,38.846l-39.519,17.651
		c-1.332,0.605-3.274,3.126-2.786,5.25l5.409,23.575c0.468,2.042,3.311,3.319,4.705,3.145l7.164-0.555
		c0.105,0.823,0.332,1.639,0.518,2.475c2.385,10.738,10.991,19.052,19.317,18.062c8.104-0.964,13.376-9.955,12.188-19.96
		l96.58-15.167c2.804,11.801,14.356,20.471,27.268,18.935c14.177-1.688,24.905-15.275,23.648-30.246l10.322-2.262
		C295.463,153.146,300.494,145.228,298.604,137.854z M114.46,193.538c-4.702,0.661-9.519-3.739-10.852-9.86
		c-1.343-6.166,1.317-11.92,6.04-12.816c4.818-0.918,9.879,3.561,11.202,9.974C122.163,187.193,119.257,192.866,114.46,193.538z
		 M168.033,122.512l-41.625,11.094c0,0,4.507-38.563,19.335-43.137c16.295-5.027,16.295-5.027,16.295-5.027L168.033,122.512z
		 M176.701,120.249l-6.429-37.569c0,0,0,0,16.574-6.031c17.06-6.208,37.428,31.452,37.428,31.452L176.701,120.249z M250.816,174.398
		c-7.784,1.093-14.788-4.438-15.832-12.4c-1.053-8.043,4.331-15.813,12.213-17.313c8.096-1.541,15.594,4.107,16.543,12.569
		C264.681,165.624,258.805,173.276,250.816,174.398z"/>
	<line fill="none" stroke="#000000" stroke-width="3" stroke-miterlimit="10" x1="236.395" y1="70.889" x2="258.492" y2="92.986"/>
	<line fill="none" stroke="#000000" stroke-width="3" stroke-miterlimit="10" x1="249.353" y1="70.457" x2="277.561" y2="98.665"/>
	<path fill="none" stroke="#000000" stroke-width="3" stroke-miterlimit="10" d="M194.274,59.865
		c8.476-15.203,39.348-30.699,77.938-37.679"/>
	<path fill="none" stroke="#000000" stroke-width="3" stroke-miterlimit="10" d="M223.332,54.001
		c4.089-4.67,15.48-8.71,29.165-9.862"/>
	<path stroke="#000000" stroke-miterlimit="10" d="M110.896,79.415c0,0-4.125-15.128-8.11-19.71
		c-3.985-4.583-7.703-3.578-10.428-1.473c-2.724,2.104-2.269,6.603,0.57,10.098C95.767,71.826,110.896,79.415,110.896,79.415z"/>
	<path stroke="#000000" stroke-miterlimit="10" d="M110.974,105.933c0,0-12.863-11.785-18.07-13.113
		c-5.208-1.327-8.519-0.826-10.062,2.694c-1.544,3.521,2.747,8.114,5.66,9.192c2.913,1.079,6.562-1.474,10.651-1.161
		C103.241,103.858,110.974,105.933,110.974,105.933z"/>
	<path stroke="#000000" stroke-miterlimit="10" d="M128.148,82.558c0,0-1.529-17.378,0.585-22.319
		c2.114-4.94,4.526-7.263,8.259-6.347c3.734,0.916,4.769,7.116,3.853,10.084s-5.162,4.312-7.401,7.748
		C131.205,75.159,128.148,82.558,128.148,82.558z"/>
	<path d="M42.18,112.787L2.907,186.99l76.633-6.564L42.18,112.787z M43.991,135.288l22.563,37.84l-43.327,1.94L43.991,135.288z"/>
</g>
</svg>
