<?xml version="1.0" encoding="iso-8859-1"?>
<!-- Generator: Adobe Illustrator 16.0.0, SVG Export Plug-In . SVG Version: 6.00 Build 0)  -->
<!DOCTYPE svg PUBLIC "-//W3C//DTD SVG 1.1//EN" "http://www.w3.org/Graphics/SVG/1.1/DTD/svg11.dtd">
<svg version="1.1" id="Capa_1" xmlns="http://www.w3.org/2000/svg" xmlns:xlink="http://www.w3.org/1999/xlink" x="0px" y="0px"
	 width="94.477px" height="94.477px" viewBox="0 0 94.477 94.477" style="enable-background:new 0 0 94.477 94.477;"
	 xml:space="preserve">
<g>
	<path d="M60.936,7.325C60.936,3.279,54.803,0,47.238,0c-7.564,0-13.697,3.279-13.697,7.325h-6.053v82.553h11.15v4.599h17.2v-4.599
		h11.15V7.325H60.936z M47.238,81.52c-5.41,0-9.795-4.385-9.795-9.795c0-5.408,4.385-9.794,9.795-9.794s9.795,4.386,9.795,9.794
		C57.033,77.135,52.648,81.52,47.238,81.52z M47.238,56.676c-5.41,0-9.795-4.387-9.795-9.796c0-5.41,4.385-9.795,9.795-9.795
		s9.795,4.385,9.795,9.795C57.033,52.289,52.648,56.676,47.238,56.676z M47.238,32.545c-5.41,0-9.795-4.385-9.795-9.794
		c0-5.41,4.385-9.795,9.795-9.795s9.795,4.385,9.795,9.795C57.033,28.16,52.648,32.545,47.238,32.545z"/>
</g>
<g>
</g>
<g>
</g>
<g>
</g>
<g>
</g>
<g>
</g>
<g>
</g>
<g>
</g>
<g>
</g>
<g>
</g>
<g>
</g>
<g>
</g>
<g>
</g>
<g>
</g>
<g>
</g>
<g>
</g>
</svg>
