<?xml version="1.0" encoding="iso-8859-1"?>
<!-- Generator: Adobe Illustrator 18.0.0, SVG Export Plug-In . SVG Version: 6.00 Build 0)  -->
<!DOCTYPE svg PUBLIC "-//W3C//DTD SVG 1.1//EN" "http://www.w3.org/Graphics/SVG/1.1/DTD/svg11.dtd">
<svg version="1.1" id="Capa_1" xmlns="http://www.w3.org/2000/svg" xmlns:xlink="http://www.w3.org/1999/xlink" x="0px" y="0px"
	 viewBox="0 0 329.562 329.562" style="enable-background:new 0 0 329.562 329.562;" xml:space="preserve">
<g>
	<path d="M256.62,234.397c-22.964,0-22.964-32.608-45.928-32.608c-22.962,0-22.962,32.608-45.924,32.608
		c-22.96,0-22.96-32.608-45.92-32.608c-22.96,0-22.96,32.608-45.92,32.608h-8.691v17.392h201.088v-17.392H256.62z"/>
	<path d="M164.781,43.997l139.5,241.568h-279L164.781,43.997 M164.781,18.717c-9.031,0-17.377,4.816-21.893,12.638L3.388,272.923
		c-4.518,7.821-4.518,17.46-0.002,25.282c4.516,7.822,12.862,12.641,21.895,12.641h279c9.032,0,17.379-4.818,21.895-12.641
		c4.516-7.822,4.516-17.461-0.002-25.282l-139.5-241.568C182.158,23.533,173.812,18.717,164.781,18.717L164.781,18.717z"/>
</g>
<g>
</g>
<g>
</g>
<g>
</g>
<g>
</g>
<g>
</g>
<g>
</g>
<g>
</g>
<g>
</g>
<g>
</g>
<g>
</g>
<g>
</g>
<g>
</g>
<g>
</g>
<g>
</g>
<g>
</g>
</svg>
