<?xml version="1.0" encoding="iso-8859-1"?>
<!-- Generator: Adobe Illustrator 16.0.0, SVG Export Plug-In . SVG Version: 6.00 Build 0)  -->
<!DOCTYPE svg PUBLIC "-//W3C//DTD SVG 1.1//EN" "http://www.w3.org/Graphics/SVG/1.1/DTD/svg11.dtd">
<svg version="1.1" id="Capa_1" xmlns="http://www.w3.org/2000/svg" xmlns:xlink="http://www.w3.org/1999/xlink" x="0px" y="0px"
	 width="744px" height="744px" viewBox="0 0 744 744" style="enable-background:new 0 0 744 744;" xml:space="preserve">
<g>
	<path d="M168.95,647.4c-14.3,14.3-23.5,26-23.5,43.1s10.4,28.8,23.5,43.1c2.6,2.601,6.6,6.601,9.2,10.4h-86.2
		c-13-14.3-26-31.3-26-53.5c0-24.7,17.1-43.1,30.1-57.4c14.3-14.3,24.7-26,24.7-43.1c-1.3-17-11.7-28.7-24.7-43
		c-9.2-10.4-18.3-20.9-24.7-33.9h82.3c3.8,6.601,9.2,13,15.6,19.601c13,15.6,31.3,32.6,31.3,57.399
		C200.25,614.8,181.95,632.9,168.95,647.4z M67.25,463.4v-22.2V278.1c0-18.3,1.3-31.3,10.4-49.7l90-187.9
		c10.5-22.2,37.8-40.5,62.7-40.5h257.2c23.5,0,52.2,18.3,62.7,40.5l91.3,187.9c9.2,18.3,11.7,32.6,11.7,49.7v163.1v22.2
		c0,7.899-5.1,14.3-13,14.3h-73.1c-7.9,0-14.3-6.601-14.3-14.3v-22.2v-23.5h-385.2v23.5v22.2c0,7.899-6.6,14.3-14.3,14.3h-71.8
		C73.85,477.7,67.25,471.1,67.25,463.4z M556.65,270.2c-24.7,0-45.601,20.9-45.601,45.6c0,24.7,20.9,45.6,45.601,45.6
		c26,0,45.6-20.9,45.6-45.6C602.25,291.1,581.351,270.2,556.65,270.2z M146.75,222h422.9l-61.4-130.5
		c-11.7-24.7-23.5-31.3-49.7-31.3h-199.6c-27.5,0-37.7,6.6-49.7,31.3L146.75,222z M114.15,315.8c0,24.7,19.6,45.6,45.6,45.6
		s45.6-20.9,45.6-45.6c0-24.7-20.9-45.6-45.6-45.6C135.05,270.2,115.45,291.1,114.15,315.8z M624.45,690.5
		c0-17.1,10.4-28.8,23.5-43.1c13-14.301,30.1-32.601,30.1-57.4s-17.1-41.8-30.1-57.4c-6.6-6.6-11.7-13-15.6-19.6H551.55
		c6.601,13,15.601,23.5,24.7,33.9c13,14.3,23.5,26,23.5,43.1s-10.399,28.8-23.5,43.1c-13,14.301-30.1,32.601-30.1,57.4
		c0,22.2,14.3,39.2,26,53.5h84.899c-2.6-3.8-6.6-7.9-9.199-10.4C634.851,719,624.45,707.3,624.45,690.5z"/>
</g>
<g>
</g>
<g>
</g>
<g>
</g>
<g>
</g>
<g>
</g>
<g>
</g>
<g>
</g>
<g>
</g>
<g>
</g>
<g>
</g>
<g>
</g>
<g>
</g>
<g>
</g>
<g>
</g>
<g>
</g>
</svg>
