<?xml version="1.0" encoding="iso-8859-1"?>
<!-- Generator: Adobe Illustrator 18.1.1, SVG Export Plug-In . SVG Version: 6.00 Build 0)  -->
<svg version="1.1" id="Capa_1" xmlns="http://www.w3.org/2000/svg" xmlns:xlink="http://www.w3.org/1999/xlink" x="0px" y="0px"
	 viewBox="0 0 46.668 46.668" style="enable-background:new 0 0 46.668 46.668;" xml:space="preserve">
<g>
	<g>
		<path d="M10.86,25.425l0.494,2.291l5.58-1.212l-3.523,0.77l0.81,3.759l1.458-0.316c0.263,0.337,0.647,0.903,0.621,1.332
			c-0.07,1.101-1.089,2.458-2.877,3.828c-2.479,1.896-3.797,3.836-3.913,5.761c-0.126,1.864,0.93,2.975,1.048,3.096l3.089,0.014
			c-0.016-0.017-1.536-2.292-1.475-2.995c0.102-1.085,1.122-2.42,2.871-3.763c2.471-1.896,3.798-3.838,3.918-5.763
			c0.08-1.237-0.355-2.133-0.694-2.637l-0.697-3.221l23.062-5.004l-0.499-2.288L10.86,25.425z"/>
		<polygon points="38.59,21.806 34.414,22.716 35.233,26.475 39.4,25.571 		"/>
		<polygon points="24.247,5.648 24.038,4.663 19.121,5.732 19.34,6.718 		"/>
		<path d="M10.889,24.53l28.851-6.256l-1.89-8.716l3.938-0.848l-0.521-2.39l-4.264,0.924l0.456,2.108l-1.206,0.263L32.847,0
			L9.591,5.044l0.886,10.163l-0.884,0.191l-0.456-2.112l-4.258,0.929l0.518,2.387l3.611-0.781L10.889,24.53z M30.74,2.32
			l2.931,8.113l-20.513,4.455l-0.689-8.606L30.74,2.32z"/>
		<path d="M36.045,26.965c0.006,0.009,1.575,2.312,1.505,3.375c-0.07,1.104-0.812,2.923-3.943,5.319
			c-3.146,2.417-4.817,4.862-4.976,7.265c-0.149,2.268,1.112,3.595,1.265,3.738l3.769,0.006c-0.025-0.028-2.466-2.532-2.369-3.636
			c0.092-1.095,0.847-2.895,3.937-5.256c3.148-2.418,4.822-4.861,4.978-7.27c0.15-2.264-1.116-3.589-1.259-3.733L36.045,26.965z"/>
	</g>
	<g>
	</g>
	<g>
	</g>
	<g>
	</g>
	<g>
	</g>
	<g>
	</g>
	<g>
	</g>
	<g>
	</g>
	<g>
	</g>
	<g>
	</g>
	<g>
	</g>
	<g>
	</g>
	<g>
	</g>
	<g>
	</g>
	<g>
	</g>
	<g>
	</g>
</g>
<g>
</g>
<g>
</g>
<g>
</g>
<g>
</g>
<g>
</g>
<g>
</g>
<g>
</g>
<g>
</g>
<g>
</g>
<g>
</g>
<g>
</g>
<g>
</g>
<g>
</g>
<g>
</g>
<g>
</g>
</svg>
