<?xml version="1.0" encoding="iso-8859-1"?>
<!-- Generator: Adobe Illustrator 16.0.0, SVG Export Plug-In . SVG Version: 6.00 Build 0)  -->
<!DOCTYPE svg PUBLIC "-//W3C//DTD SVG 1.1//EN" "http://www.w3.org/Graphics/SVG/1.1/DTD/svg11.dtd">
<svg version="1.1" id="Capa_1" xmlns="http://www.w3.org/2000/svg" xmlns:xlink="http://www.w3.org/1999/xlink" x="0px" y="0px"
	 width="612px" height="612px" viewBox="0 0 612 612" style="enable-background:new 0 0 612 612;" xml:space="preserve">
<g>
	<path d="M374.7,160.026l10.899,81.8l-31.1-76.7c-1.4-2.1-2.1-5.1-1.4-6.5c0.7-2.1,1.4-2.8,3.7-3.7l10.9-2.8
		C371.9,150.726,374.7,153.526,374.7,160.026z M612,167.926v243.7h-65.1c-1.4,26.7-23.9,48.4-51.4,48.4s-49.9-21.7-52.1-48.4H416
		c-20.2,0-23.2-9.5-23.2-21.699v-61.4c0-10.9,1.4-18.8,6.5-29.7l54.2-107.1c6.5-13,23.2-23.9,37.6-23.9L612,167.926z M523,407.326
		c0-15.2-12.3-27.5-27.5-27.5s-28.2,12.3-28.2,27.5s13,28.2,28.2,28.2S523,422.625,523,407.326z M579.4,198.326h-76.7
		c-11.601,0.7-17.4,5.8-24.601,18.8l-23.899,54.2h125.1v-73H579.4z M337.1,326.426v63.699c0,16-10.899,21.7-23.899,21.7H259
		c-2.1,26.7-24.6,48.4-52.1,48.4s-49.9-21.7-52.1-48.4H0v-243.9h119.4c14.4,0,29,8.6,37.6,23.9l49.9,78.8l99,22.5
		C331.3,297.426,336.4,313.426,337.1,326.426z M163.5,271.426l-32.5-54.2c-5.8-10.9-15.2-18.9-29-18.9H32.7v73h130.8V271.426z
		 M233.7,407.326c0-15.2-12.3-27.5-27.5-27.5c-15.2,0-28.2,12.3-28.2,27.5s13,28.2,28.2,28.2
		C221.4,435.526,233.7,422.625,233.7,407.326z M285.1,201.226c-1.4,0-2.8,0.7-4.4,2.8l-5.8,9.5c-0.7,0.7-0.7,1.4-0.7,2.1
		c0,2.8,2.1,5.1,6.5,6.5l76.7,31.8l-65.8-49.9C288.7,202.726,286.6,201.226,285.1,201.226z M306.8,158.626c-1.4,0-2.8,0.7-4.4,2.1
		l-9.5,9.5c-1.4,1.4-2.1,2.8-2.1,5.1c0,2.8,2.1,5.8,5.8,7.9l80.9,62.2l-62-80.9C311.8,160.026,308.9,158.626,306.8,158.626z"/>
</g>
<g>
</g>
<g>
</g>
<g>
</g>
<g>
</g>
<g>
</g>
<g>
</g>
<g>
</g>
<g>
</g>
<g>
</g>
<g>
</g>
<g>
</g>
<g>
</g>
<g>
</g>
<g>
</g>
<g>
</g>
</svg>
