<?xml version="1.0" encoding="iso-8859-1"?>
<!-- Generator: Adobe Illustrator 17.1.0, SVG Export Plug-In . SVG Version: 6.00 Build 0)  -->
<!DOCTYPE svg PUBLIC "-//W3C//DTD SVG 1.1//EN" "http://www.w3.org/Graphics/SVG/1.1/DTD/svg11.dtd">
<svg version="1.1" id="Capa_1" xmlns="http://www.w3.org/2000/svg" xmlns:xlink="http://www.w3.org/1999/xlink" x="0px" y="0px"
	 viewBox="0 0 244.292 244.292" style="enable-background:new 0 0 244.292 244.292;" xml:space="preserve">
<g>
	<path d="M243.425,126.214l-20.36-47.08c-1.619-3.746-5.309-6.242-9.396-6.36l-0.148-0.013l-38.046,0.007l-0.216-0.002
		c-4.22,0-8.027,2.499-9.699,6.368l-3.873,8.956c-4.003-4.555-10.219-7.752-15.917-7.752H49.792c-7.65,0-16.238,5.758-19.144,12.835
		l-10.242,24.949l-9.751-2.687c-0.873-0.241-1.748-0.363-2.6-0.363c-4.667,0-8.054,3.566-8.054,8.479v5.821
		c0,5.734,4.666,10.4,10.4,10.4h1.117l-1.656,4.033c-2.699,6.575-4.895,17.707-4.895,24.816v49.626c0,5.734,4.666,10.4,10.4,10.4
		H28.95c5.735,0,10.4-4.666,10.4-10.4v-12.394H156.21v12.394c0,5.734,4.665,10.4,10.4,10.4h13.582c4.554,0,8.424-2.946,9.829-7.029
		c0.973-1.699,1.538-3.662,1.538-5.757v-60.429h4.934v60.429c0,6.414,5.218,11.632,11.632,11.632
		c6.414,0,11.632-5.218,11.632-11.632v-91.158l4.278,9.894c1.673,3.872,5.48,6.373,9.699,6.373c1.444,0,2.854-0.292,4.188-0.87
		C243.268,137.79,245.736,131.56,243.425,126.214z M27.864,134.124l15.513-37.787c1.738-4.232,6.904-7.696,11.48-7.696h85.848
		c4.576,0,9.742,3.464,11.48,7.696l2.891,7.041l-9.875,22.836c-1.12,2.59-1.165,5.46-0.125,8.083
		c1.039,2.623,3.037,4.685,5.626,5.804c1.335,0.578,2.745,0.87,4.189,0.87c4.218,0,8.025-2.501,9.698-6.373l1.695-3.919l1.414,3.445
		c1.738,4.233-0.584,7.697-5.161,7.697H33.024C28.448,141.821,26.126,138.358,27.864,134.124z M62.493,181.918
		c0,2.288-1.872,4.16-4.16,4.16H28.864c-2.288,0-4.16-1.872-4.16-4.16v-14.142c0-2.288,1.872-4.16,4.16-4.16h29.469
		c2.288,0,4.16,1.872,4.16,4.16V181.918z M166.416,186.078h-29.468c-2.288,0-4.16-1.872-4.16-4.16v-14.142
		c0-2.288,1.872-4.16,4.16-4.16h29.468c0.678,0,1.311,0.18,1.878,0.472v21.519C167.727,185.898,167.094,186.078,166.416,186.078z"/>
	<path d="M192.987,68.889c14.676,0,26.616-11.943,26.616-26.623c0-14.679-11.94-26.621-26.616-26.621
		c-14.679,0-26.622,11.942-26.622,26.621C166.365,56.945,178.308,68.889,192.987,68.889z"/>
</g>
<g>
</g>
<g>
</g>
<g>
</g>
<g>
</g>
<g>
</g>
<g>
</g>
<g>
</g>
<g>
</g>
<g>
</g>
<g>
</g>
<g>
</g>
<g>
</g>
<g>
</g>
<g>
</g>
<g>
</g>
</svg>
