<?xml version="1.0" encoding="iso-8859-1"?>
<!-- Generator: Adobe Illustrator 18.1.1, SVG Export Plug-In . SVG Version: 6.00 Build 0)  -->
<svg version="1.1" id="Capa_1" xmlns="http://www.w3.org/2000/svg" xmlns:xlink="http://www.w3.org/1999/xlink" x="0px" y="0px"
	 viewBox="0 0 59.332 59.332" style="enable-background:new 0 0 59.332 59.332;" xml:space="preserve">
<g>
	<g>
		<polygon points="30.024,18.52 47.856,18.52 49.84,21.918 30.024,21.918 		"/>
		<path d="M0.546,40.317c0,3.292,2.666,5.958,5.957,5.958c3.292,0,5.959-2.666,5.959-5.958c0-3.291-2.667-5.958-5.959-5.958
			C3.212,34.359,0.546,37.026,0.546,40.317z M3.943,40.317c0-1.413,1.148-2.562,2.561-2.562c1.414,0,2.562,1.148,2.562,2.562
			c0,1.414-1.148,2.562-2.562,2.562C5.092,42.879,3.943,41.73,3.943,40.317z"/>
		<path d="M12.472,35.282c3.576,4.003,1.853,4.679,27.461,4.679c0,0-4.719-0.247-1.643-3.324c2.608,0,1.114,0,4.162,0
			c-0.808,1.017-1.308,2.284-1.308,3.681c0,3.292,2.667,5.958,5.957,5.958c3.292,0,5.959-2.666,5.959-5.958
			c0-1.396-0.498-2.665-1.304-3.681c1.284,0,2.369,0,3.141,0c6.794,0-4.53-13.587-4.53-13.587H29.986c0,0,12.455,13.587,0,13.587
			c-1.036,0-1.748,0-2.229,0c0,0-18.469-1.572-7.242-19.684l1.827-1.83h3.307v-1.132c0,0-5.007-2.104-5.431,0
			C19.797,16.094,9.104,28.897,9.104,28.897C5.38,28.022,2.485,30.314,0,34.359C4.524,32.963,8.896,31.279,12.472,35.282z
			 M44.542,40.317c0-1.413,1.147-2.562,2.561-2.562s2.563,1.148,2.563,2.562c0,1.414-1.149,2.562-2.563,2.562
			C45.69,42.879,44.542,41.73,44.542,40.317z"/>
		<rect x="57.634" y="32.766" width="1.698" height="3.188"/>
		<polygon points="16.683,16.245 16.683,13.057 19.177,13.788 18.38,16.245 		"/>
	</g>
	<g>
	</g>
	<g>
	</g>
	<g>
	</g>
	<g>
	</g>
	<g>
	</g>
	<g>
	</g>
	<g>
	</g>
	<g>
	</g>
	<g>
	</g>
	<g>
	</g>
	<g>
	</g>
	<g>
	</g>
	<g>
	</g>
	<g>
	</g>
	<g>
	</g>
</g>
<g>
</g>
<g>
</g>
<g>
</g>
<g>
</g>
<g>
</g>
<g>
</g>
<g>
</g>
<g>
</g>
<g>
</g>
<g>
</g>
<g>
</g>
<g>
</g>
<g>
</g>
<g>
</g>
<g>
</g>
</svg>
