<?xml version="1.0" encoding="utf-8"?>
<!-- Generator: Adobe Illustrator 16.0.3, SVG Export Plug-In . SVG Version: 6.00 Build 0)  -->
<!DOCTYPE svg PUBLIC "-//W3C//DTD SVG 1.1//EN" "http://www.w3.org/Graphics/SVG/1.1/DTD/svg11.dtd">
<svg version="1.1" id="tricycle" xmlns="http://www.w3.org/2000/svg" xmlns:xlink="http://www.w3.org/1999/xlink" x="0px" y="0px"
	 width="125px" height="65px" viewBox="0 0 125 65" enable-background="new 0 0 125 65" xml:space="preserve">
<g>
	<g>
		<g>
			<g>
				<path d="M83.801,25.185c-5.501,0-8.188,4.119-5.972,9.153l5.788,13.146c2.216,5.034,5.843,5.034,8.059,0l5.788-13.146
					c2.216-5.034-0.471-9.153-5.972-9.153H83.801z M91.735,40.968c-2.045,5.106-5.168,5.659-6.94,1.229
					c-1.771-4.43-3.53-8.767-3.907-9.638c-0.377-0.87-0.661-1.583-0.632-1.583c0.028,0,0.041-0.028,0.027-0.063
					s3.469-0.062,7.738-0.06c4.27,0.001,6.091,4.18,4.046,9.286L91.735,40.968z"/>
			</g>
			<path d="M78.68,28.695l9.465,21.364L97.621,28.7L78.68,28.695z M87.448,45.75l-4.057-13.603l8.116,0.002L87.448,45.75z"/>
		</g>
		<path d="M107.542,22.239L89.744,11.113c-0.383-0.24-0.829-0.304-1.252-0.221c-1.274-0.058-2.588,0.645-3.322,1.918l-8.096,14.021
			c-1.014,1.756-0.543,3.927,1.05,4.846l1.445,0.833c1.594,0.921,3.706,0.243,4.722-1.514l7.986-13.833l13.257,8.288
			c0.834,0.521,1.958,0.224,2.513-0.664C108.602,23.901,108.376,22.76,107.542,22.239z"/>
	</g>
	<circle cx="93.049" cy="6.69" r="4.167"/>
</g>
<g>
	<path d="M112.495,38.298c-1.3,0-2.553,0.202-3.728,0.576l-0.762-1.767V23.722c0-0.502-0.408-0.909-0.91-0.909h-1.232
		c-0.502,0-0.909,0.407-0.909,0.909v11.145H93.355c-0.008,0-0.018,0.001-0.027,0.001l-9.487-0.077c-1.857-0.016-4.097,1.131-5,2.56
		l-1.236,1.956c-1.496-0.647-3.146-1.008-4.88-1.008c-6.028,0-11.041,4.336-12.097,10.058h-6.141v-18.24H0.247v21.224h53.452h0.789
		h5.957c0.381,6.453,5.731,11.569,12.281,11.569c6.604,0,11.989-5.2,12.291-11.729l7.53,0.063c1.857,0.015,4.098-1.131,5.002-2.562
		l7.028-11.119c0.066-0.105,0.121-0.209,0.17-0.31l1.25,2.904c-3.484,2.171-5.806,6.037-5.806,10.447
		c0,6.797,5.509,12.306,12.305,12.306S124.8,57.399,124.8,50.603C124.8,43.808,119.291,38.298,112.495,38.298z M76.726,46.833
		l1.845-2.918c1.404,1.229,2.417,2.89,2.831,4.777l-1.036-0.009c-0.149-0.203-0.336-0.328-0.543-0.328h-2.991
		C76.396,48.026,76.325,47.467,76.726,46.833z M72.725,41.719c1.062,0,2.078,0.187,3.021,0.527l-3.863,6.109h-7.755
		C65.122,44.538,68.595,41.719,72.725,41.719z M72.725,59.486c-4.659,0-8.477-3.586-8.852-8.147h15.949
		c0.158,0,0.304-0.075,0.431-0.199l1.337,0.011C81.308,55.802,77.446,59.486,72.725,59.486z M99.661,39.197l-4.919,7.783
		c-0.634,1.001-2.201,1.803-3.502,1.792l-6.354-0.052c-0.478-3.112-2.122-5.839-4.474-7.723l1.233-1.949
		c0.632-1,2.2-1.802,3.5-1.792l13.307,0.108C99.753,37.377,100.295,38.196,99.661,39.197z M112.495,59.486
		c-4.907,0-8.885-3.978-8.885-8.884c0-2.997,1.486-5.646,3.762-7.255l3.163,7.344c0.223,0.519,0.777,0.78,1.24,0.581l1.132-0.487
		c0.461-0.198,0.652-0.782,0.429-1.302l-3.205-7.443c0.752-0.208,1.545-0.321,2.364-0.321c4.906,0,8.883,3.978,8.883,8.884
		S117.401,59.486,112.495,59.486z"/>
	<g>
		<circle cx="27.842" cy="51.072" r="12.026"/>
		<path fill="#FFFFFF" stroke="#FFFFFF" stroke-miterlimit="10" d="M36.259,51.072c0,4.646-3.769,8.415-8.417,8.415
			s-8.419-3.769-8.419-8.415c0-4.653,3.771-8.422,8.419-8.422S36.259,46.419,36.259,51.072z"/>
		<circle cx="27.842" cy="51.072" r="3.704"/>
	</g>
</g>
</svg>
