<?xml version="1.0" encoding="utf-8"?>
<!-- Generator: Adobe Illustrator 16.0.3, SVG Export Plug-In . SVG Version: 6.00 Build 0)  -->
<!DOCTYPE svg PUBLIC "-//W3C//DTD SVG 1.1//EN" "http://www.w3.org/Graphics/SVG/1.1/DTD/svg11.dtd">
<svg version="1.1" id="MLDV" xmlns="http://www.w3.org/2000/svg" xmlns:xlink="http://www.w3.org/1999/xlink" x="0px" y="0px"
	 width="160px" height="100px" viewBox="0 0 160 100" enable-background="new 0 0 160 100" xml:space="preserve">
<g>
	<path d="M62.375,46.435H47.667c-0.479,0-0.717,0.24-0.717,0.718v8.824c0,0.479,0.239,0.718,0.717,0.718h14.708
		c0.478,0,0.717-0.239,0.717-0.718v-8.824C63.092,46.675,62.852,46.435,62.375,46.435z"/>
	<path d="M104.991,36.678h-8.035c-0.479,0-0.718,0.239-0.718,0.717v7.893c0,0.479,0.238,0.717,0.718,0.717h8.035
		c0.478,0,0.718-0.238,0.718-0.717v-7.893C105.709,36.917,105.469,36.678,104.991,36.678z"/>
	<path d="M62.375,62.864H47.667c-0.479,0-0.717,0.24-0.717,0.718v9.613c0,0.479,0.239,0.718,0.717,0.718h14.708
		c0.478,0,0.717-0.238,0.717-0.718v-9.613C63.092,63.104,62.852,62.864,62.375,62.864z"/>
	<path d="M39.631,62.864h-13.99c-0.479,0-0.717,0.24-0.717,0.718v9.613c0,0.479,0.239,0.718,0.717,0.718h13.99
		c0.478,0,0.718-0.238,0.718-0.718v-9.613C40.349,63.104,40.108,62.864,39.631,62.864z"/>
	<path d="M39.631,46.435h-13.99c-0.479,0-0.717,0.24-0.717,0.718v8.824c0,0.479,0.239,0.718,0.717,0.718h13.99
		c0.478,0,0.718-0.239,0.718-0.718v-8.824C40.349,46.675,40.108,46.435,39.631,46.435z"/>
	<path d="M129.025,46.004h8.538c0.478,0,0.718-0.238,0.718-0.717v-7.893c0-0.478-0.24-0.717-0.718-0.717h-8.538
		c-0.479,0-0.717,0.239-0.717,0.717v7.893C128.309,45.766,128.547,46.004,129.025,46.004z"/>
	<path d="M121.852,45.287v-7.893c0-0.478-0.24-0.717-0.718-0.717h-8.322c-0.479,0-0.718,0.239-0.718,0.717v7.893
		c0,0.479,0.239,0.717,0.718,0.717h8.322C121.611,46.004,121.852,45.766,121.852,45.287z"/>
	<path d="M134.904,5.5H25.096C11.512,5.5,0.5,16.511,0.5,30.095v40.809C0.5,84.488,11.512,95.5,25.096,95.5h109.808
		c13.584,0,24.596-11.012,24.596-24.596h0.001V30.095C159.501,16.511,148.488,5.5,134.904,5.5z M69.908,79.796
		c0,0.957-0.323,1.77-0.969,2.439s-1.447,1.005-2.403,1.005h-0.574c-0.814,0-1.495-0.276-2.044-0.825
		c-0.551-0.551-0.825-1.232-0.825-2.045c0-0.191-0.097-0.287-0.287-0.287H25.21c-0.192,0-0.287,0.096-0.287,0.287
		c0,0.813-0.276,1.494-0.825,2.045c-0.55,0.549-1.232,0.825-2.045,0.825h-0.43c-0.909,0-1.675-0.323-2.296-0.969
		c-0.622-0.646-0.933-1.424-0.933-2.332V46.435c0-1.722,0.61-3.192,1.83-4.412c1.219-1.22,2.69-1.829,4.412-1.829h39.029
		c1.769,0,3.252,0.609,4.448,1.829c1.195,1.22,1.794,2.69,1.794,4.412V79.796z M75.289,28.893c-0.622,0.599-1.363,0.897-2.224,0.897
		H60.652c-0.479,0-0.717,0.239-0.717,0.717v3.659c0,0.958-0.335,1.771-1.004,2.439c-0.67,0.671-1.471,1.005-2.404,1.005
		c-0.933,0-1.734-0.334-2.403-1.005c-0.67-0.669-1.004-1.481-1.004-2.439v-3.659c0-0.478-0.24-0.717-0.717-0.717H35.254
		c-0.479,0-0.717,0.239-0.717,0.717v3.731c0,0.909-0.335,1.698-1.004,2.367c-0.67,0.671-1.471,1.005-2.403,1.005
		c-0.933,0-1.722-0.334-2.368-1.005c-0.646-0.669-0.969-1.458-0.969-2.367v-3.731c0-0.478-0.24-0.717-0.717-0.717H14.664
		c-0.861,0-1.603-0.299-2.224-0.897c-0.622-0.597-0.933-1.338-0.933-2.224c0-0.885,0.311-1.638,0.933-2.26
		c0.621-0.621,1.363-0.933,2.224-0.933h12.412c0.478,0,0.717-0.239,0.717-0.717v-3.587c0-0.956,0.323-1.758,0.969-2.403
		c0.646-0.646,1.435-0.969,2.368-0.969c0.933,0,1.733,0.323,2.403,0.969c0.669,0.646,1.004,1.447,1.004,2.403v3.587
		c0,0.479,0.239,0.717,0.717,0.717h17.147c0.478,0,0.717-0.239,0.717-0.717v-3.587c0-0.908,0.334-1.697,1.004-2.368
		c0.669-0.669,1.471-1.004,2.403-1.004c0.933,0,1.733,0.335,2.404,1.004c0.669,0.67,1.004,1.46,1.004,2.368v3.587
		c0,0.479,0.239,0.717,0.717,0.717h12.412c0.861,0,1.602,0.312,2.224,0.933c0.621,0.623,0.933,1.375,0.933,2.26
		C76.221,27.555,75.91,28.296,75.289,28.893z M126.515,63.51c2.773,2.488,6.038,4.796,9.793,6.924
		c3.755,2.129,7.616,3.887,11.587,5.273c0.813,0.287,1.315,0.837,1.507,1.65c0.047,0.238,0.072,0.453,0.072,0.646
		c0,0.573-0.192,1.076-0.574,1.507c-0.671,0.86-1.507,1.458-2.512,1.793c-0.43,0.144-0.885,0.216-1.362,0.216
		c-0.527,0-1.076-0.12-1.65-0.359c-8.85-3.73-16.239-8.633-22.17-14.707c-0.096-0.048-0.203-0.048-0.322,0
		c-0.12,0.048-0.18,0.119-0.18,0.215v13.129c0,0.957-0.335,1.77-1.004,2.439c-0.671,0.67-1.483,1.005-2.439,1.005
		c-0.958,0-1.771-0.335-2.439-1.005c-0.671-0.67-1.005-1.482-1.005-2.439V66.738c0-0.095-0.061-0.179-0.179-0.251
		c-0.12-0.071-0.228-0.06-0.323,0.036c-2.966,2.966-6.361,5.716-10.188,8.251c-3.827,2.535-7.749,4.639-11.767,6.313
		c-0.574,0.19-1.124,0.287-1.65,0.287c-0.479,0-0.933-0.072-1.363-0.216c-1.004-0.335-1.842-0.909-2.511-1.722
		c-0.384-0.479-0.573-0.98-0.573-1.507c0-0.239,0.023-0.479,0.071-0.717c0.239-0.813,0.741-1.363,1.507-1.65
		c8.466-3.014,15.568-7.031,21.308-12.054c0.096-0.095,0.119-0.202,0.072-0.322c-0.048-0.119-0.144-0.18-0.287-0.18H88.06
		c-0.814,0-1.52-0.287-2.116-0.861c-0.6-0.573-0.897-1.278-0.897-2.116c0-0.836,0.298-1.554,0.897-2.152
		c0.597-0.598,1.302-0.896,2.116-0.896h25.039c0.478,0,0.717-0.239,0.717-0.718V52.39c0-0.478-0.239-0.718-0.717-0.718H96.095
		c-1.722,0-3.192-0.609-4.412-1.829s-1.83-2.69-1.83-4.412v-8.18c0-1.722,0.61-3.192,1.83-4.412s2.69-1.829,4.412-1.829h8.896
		c0.478,0,0.718-0.239,0.718-0.718v-4.233c0-0.478-0.24-0.717-0.718-0.717h-16.43c-0.814,0-1.507-0.287-2.081-0.861
		c-0.574-0.574-0.861-1.279-0.861-2.116c0-0.836,0.287-1.542,0.861-2.117c0.574-0.574,1.267-0.861,2.081-0.861h57.826
		c0.813,0,1.507,0.287,2.081,0.861c0.574,0.574,0.861,1.28,0.861,2.117c0,0.837-0.287,1.542-0.861,2.116
		c-0.574,0.574-1.268,0.861-2.081,0.861h-17.362c-0.479,0-0.717,0.24-0.717,0.717v4.233c0,0.479,0.238,0.718,0.717,0.718h9.758
		c1.722,0,3.192,0.609,4.412,1.829s1.83,2.69,1.83,4.412v8.18c0,1.722-0.61,3.192-1.83,4.412s-2.69,1.829-4.412,1.829h-17.362
		c-0.479,0-0.718,0.24-0.718,0.718v3.874c0,0.479,0.239,0.718,0.718,0.718h25.541c0.813,0,1.518,0.299,2.116,0.896
		c0.598,0.599,0.897,1.316,0.897,2.152c0,0.838-0.3,1.543-0.897,2.116c-0.599,0.574-1.304,0.861-2.116,0.861h-20.232
		c-0.143,0-0.239,0.061-0.286,0.18C126.395,63.308,126.418,63.415,126.515,63.51z"/>
	<path d="M112.812,31.01h8.322c0.478,0,0.718-0.239,0.718-0.718v-4.233c0-0.478-0.24-0.717-0.718-0.717h-8.322
		c-0.479,0-0.718,0.24-0.718,0.717v4.233C112.094,30.771,112.333,31.01,112.812,31.01z"/>
</g>
</svg>
