<?xml version="1.0" encoding="utf-8"?>
<!-- Generator: Adobe Illustrator 16.0.3, SVG Export Plug-In . SVG Version: 6.00 Build 0)  -->
<!DOCTYPE svg PUBLIC "-//W3C//DTD SVG 1.1//EN" "http://www.w3.org/Graphics/SVG/1.1/DTD/svg11.dtd">
<svg version="1.1" id="KMDV" xmlns="http://www.w3.org/2000/svg" xmlns:xlink="http://www.w3.org/1999/xlink" x="0px" y="0px"
	 width="160px" height="100px" viewBox="0 0 160 100" enable-background="new 0 0 160 100" xml:space="preserve">
<g>
	<path d="M107.071,23.046H94.804c-0.479,0-0.718,0.24-0.718,0.717v3.731c0,0.479,0.238,0.718,0.718,0.718h12.268
		c0.478,0,0.718-0.239,0.718-0.718v-3.731C107.789,23.286,107.549,23.046,107.071,23.046z"/>
	<path d="M107.071,33.306H94.804c-0.479,0-0.718,0.239-0.718,0.717v4.305c0,0.479,0.238,0.718,0.718,0.718h12.268
		c0.478,0,0.718-0.238,0.718-0.718v-4.305C107.789,33.545,107.549,33.306,107.071,33.306z"/>
	<path d="M140.218,33.306h-12.771c-0.479,0-0.718,0.239-0.718,0.717v4.448c0,0.479,0.239,0.718,0.718,0.718h12.771
		c0.478,0,0.718-0.239,0.718-0.718v-4.448C140.936,33.545,140.695,33.306,140.218,33.306z"/>
	<path d="M134.904,5.5H25.096C11.512,5.5,0.5,16.511,0.5,30.095v40.811C0.5,84.488,11.512,95.5,25.096,95.5h109.809
		c13.584,0,24.596-11.012,24.596-24.595V30.095C159.5,16.511,148.488,5.5,134.904,5.5z M75.862,42.059
		c-0.622,0.86-1.435,1.435-2.439,1.722c-0.335,0.097-0.67,0.144-1.004,0.144c-0.67,0-1.291-0.167-1.865-0.502
		c-2.823-1.579-5.524-3.301-8.107-5.166c-0.096-0.096-0.179-0.119-0.251-0.072c-0.072,0.049-0.107,0.12-0.107,0.216
		c0,1.053-0.359,1.937-1.076,2.654c-0.718,0.718-1.603,1.076-2.655,1.076H47.882c-0.479,0-0.718,0.24-0.718,0.718v7.317
		c0,0.479,0.239,0.718,0.718,0.718h20.304c0.813,0,1.507,0.287,2.081,0.861c0.574,0.573,0.861,1.268,0.861,2.08
		c0,0.814-0.287,1.507-0.861,2.081c-0.574,0.574-1.268,0.86-2.081,0.86H47.882c-0.479,0-0.718,0.24-0.718,0.718v15.21
		c0,0.479,0.239,0.718,0.718,0.718h24.035c0.861,0,1.578,0.287,2.152,0.86c0.574,0.574,0.861,1.28,0.861,2.117
		s-0.287,1.542-0.861,2.116c-0.574,0.574-1.292,0.861-2.152,0.861H15.955c-0.814,0-1.507-0.287-2.081-0.861
		c-0.574-0.574-0.861-1.279-0.861-2.116s0.287-1.543,0.861-2.117c0.574-0.573,1.267-0.86,2.081-0.86h23.317
		c0.478,0,0.717-0.239,0.717-0.718v-15.21c0-0.478-0.24-0.718-0.717-0.718H19.471c-0.814,0-1.507-0.286-2.081-0.86
		c-0.574-0.574-0.861-1.267-0.861-2.081c0-0.813,0.287-1.507,0.861-2.08c0.574-0.574,1.267-0.861,2.081-0.861h19.802
		c0.478,0,0.717-0.238,0.717-0.718v-7.317c0-0.478-0.24-0.718-0.717-0.718h-10.26c-0.958,0-1.77-0.334-2.439-1.004
		c-0.67-0.67-1.004-1.482-1.004-2.439c0-0.047-0.036-0.096-0.107-0.144c-0.072-0.047-0.132-0.047-0.18,0
		c-2.487,1.77-5.214,3.516-8.179,5.237c-0.527,0.287-1.076,0.431-1.65,0.431c-0.335,0-0.646-0.048-0.933-0.144
		c-0.909-0.239-1.675-0.741-2.296-1.507c-0.43-0.525-0.646-1.123-0.646-1.794c0-0.144,0.023-0.311,0.072-0.502
		c0.144-0.861,0.574-1.507,1.292-1.938c5.022-2.726,9.804-6.098,14.349-10.115c4.4-3.827,7.939-7.605,10.618-11.336
		c1.387-1.912,3.204-2.87,5.453-2.87c2.199,0,4.065,0.909,5.596,2.726c3.396,4.258,7.413,8.228,12.053,11.91
		c4.543,3.588,9.135,6.554,13.775,8.896c0.861,0.431,1.387,1.102,1.579,2.009c0.047,0.24,0.072,0.479,0.072,0.718
		C76.437,40.887,76.245,41.484,75.862,42.059z M64.599,61.717c0,0.479-0.168,0.957-0.502,1.435c-1.962,3.062-3.731,5.668-5.309,7.82
		c-0.479,0.622-1.125,1.029-1.937,1.22c-0.287,0.097-0.574,0.144-0.861,0.144c-0.479,0-0.957-0.119-1.435-0.359
		c-0.67-0.286-1.076-0.789-1.22-1.506c-0.097-0.19-0.144-0.406-0.144-0.646c0-0.43,0.144-0.86,0.431-1.291
		c1.53-2.296,2.965-4.83,4.305-7.604c0.43-0.908,1.1-1.53,2.009-1.866c0.478-0.19,0.956-0.286,1.435-0.286
		c0.431,0,0.885,0.071,1.363,0.215c0.813,0.335,1.363,0.909,1.65,1.722C64.527,61.047,64.599,61.383,64.599,61.717z M23.201,61.286
		c0-0.287,0.024-0.55,0.072-0.789c0.239-0.765,0.718-1.292,1.435-1.579c0.478-0.143,0.956-0.215,1.435-0.215
		c0.334,0,0.693,0.048,1.076,0.144c0.861,0.24,1.53,0.718,2.009,1.435c1.722,2.536,3.061,4.903,4.018,7.104
		c0.144,0.43,0.215,0.86,0.215,1.291s-0.096,0.861-0.287,1.291c-0.335,0.814-0.957,1.436-1.865,1.866
		c-0.335,0.143-0.694,0.215-1.076,0.215c-0.431,0-0.837-0.096-1.22-0.287c-0.766-0.334-1.316-0.908-1.65-1.722
		c-0.861-2.343-2.129-4.831-3.803-7.462C23.32,62.146,23.201,61.717,23.201,61.286z M114.175,38.399c0,1.722-0.61,3.192-1.83,4.412
		s-2.69,1.829-4.412,1.829H94.804c-0.479,0-0.718,0.24-0.718,0.718v32.788c0,0.907-0.335,1.697-1.005,2.367
		c-0.67,0.669-1.459,1.005-2.367,1.005c-0.909,0-1.698-0.336-2.368-1.005c-0.67-0.67-1.004-1.46-1.004-2.367V23.548
		c0-1.722,0.609-3.192,1.829-4.412s2.69-1.83,4.413-1.83h14.349c1.722,0,3.192,0.61,4.412,1.83s1.83,2.69,1.83,4.412V38.399z
		 M147.895,72.766c0,2.152-0.275,3.791-0.825,4.914s-1.519,1.973-2.905,2.547c-1.865,0.718-5.357,1.123-10.475,1.22h-0.072
		c-1.004,0-1.913-0.312-2.726-0.933c-0.861-0.67-1.483-1.531-1.866-2.583c-0.096-0.335-0.144-0.646-0.144-0.933
		c0-0.478,0.144-0.933,0.431-1.363c0.431-0.717,1.076-1.076,1.938-1.076c2.056,0.049,4.639,0.072,7.748,0.072
		c1.292-0.047,1.938-0.67,1.938-1.865V45.431c0-0.478-0.24-0.718-0.718-0.718h-13.774c-1.723,0-3.193-0.61-4.413-1.829
		c-1.22-1.22-1.829-2.69-1.829-4.413V23.548c0-1.722,0.609-3.192,1.829-4.412s2.69-1.83,4.413-1.83h15.21
		c1.722,0,3.192,0.61,4.412,1.83s1.829,2.69,1.829,4.412V72.766z"/>
	<path d="M44.079,21.252c-0.096-0.144-0.24-0.215-0.43-0.215c-0.192,0-0.335,0.071-0.431,0.215
		c-3.349,4.688-8.083,9.495-14.206,14.421c-0.096,0.048-0.12,0.133-0.072,0.251c0.047,0.12,0.119,0.18,0.215,0.18h29.703
		c0.095,0,0.167-0.06,0.215-0.18c0.047-0.118,0.023-0.203-0.072-0.251C52.545,30.699,47.57,25.892,44.079,21.252z"/>
	<path d="M140.218,23.046h-12.771c-0.479,0-0.718,0.24-0.718,0.717v3.731c0,0.479,0.239,0.718,0.718,0.718h12.771
		c0.478,0,0.718-0.239,0.718-0.718v-3.731C140.936,23.286,140.695,23.046,140.218,23.046z"/>
</g>
</svg>
