<?xml version="1.0" encoding="utf-8"?>
<!-- Generator: Adobe Illustrator 16.0.3, SVG Export Plug-In . SVG Version: 6.00 Build 0)  -->
<!DOCTYPE svg PUBLIC "-//W3C//DTD SVG 1.1//EN" "http://www.w3.org/Graphics/SVG/1.1/DTD/svg11.dtd">
<svg version="1.1" id="SLDV" xmlns="http://www.w3.org/2000/svg" xmlns:xlink="http://www.w3.org/1999/xlink" x="0px" y="0px"
	 width="160px" height="100px" viewBox="0 0 160 100" enable-background="new 0 0 160 100" xml:space="preserve">
<path d="M134.904,5.5H25.096C11.512,5.5,0.5,16.511,0.5,30.095v40.809C0.5,84.488,11.512,95.5,25.096,95.5h109.808
	c13.584,0,24.596-11.012,24.596-24.596h0.001V30.095C159.501,16.511,148.488,5.5,134.904,5.5z M75.862,42.417
	c-0.67,0.67-1.459,1.005-2.368,1.005H48.169c-0.479,0-0.718,0.239-0.718,0.717v26.188c0,0.479,0.239,0.717,0.718,0.717h21.308
	c0.956,0,1.769,0.336,2.439,1.005c0.669,0.67,1.004,1.483,1.004,2.439c0,0.957-0.335,1.77-1.004,2.439
	c-0.67,0.669-1.483,1.004-2.439,1.004H18.753c-0.957,0-1.77-0.335-2.439-1.004c-0.67-0.67-1.004-1.482-1.004-2.439
	c0-0.956,0.334-1.77,1.004-2.439c0.669-0.669,1.482-1.005,2.439-1.005h20.734c0.478,0,0.718-0.238,0.718-0.717V44.139
	c0-0.478-0.24-0.717-0.718-0.717H14.592c-0.909,0-1.698-0.335-2.368-1.005c-0.67-0.669-1.004-1.458-1.004-2.367
	c0-0.908,0.334-1.697,1.004-2.368c0.669-0.669,1.458-1.004,2.368-1.004h24.896c0.478,0,0.718-0.239,0.718-0.718V17.88
	c0-0.956,0.358-1.793,1.076-2.511c0.717-0.718,1.566-1.076,2.547-1.076c0.98,0,1.83,0.358,2.547,1.076
	c0.718,0.717,1.076,1.555,1.076,2.511v18.08c0,0.479,0.239,0.718,0.718,0.718h25.326c0.908,0,1.697,0.335,2.368,1.004
	c0.669,0.671,1.004,1.46,1.004,2.368C76.867,40.959,76.532,41.748,75.862,42.417z M111.233,56.049
	c-0.861-0.047-1.532-0.431-2.01-1.148c-1.435-2.104-3.037-4.399-4.807-6.888c-0.097-0.095-0.191-0.118-0.287-0.071
	c-0.096,0.048-0.144,0.12-0.144,0.215v31.568c0,0.956-0.335,1.758-1.004,2.403c-0.671,0.646-1.46,0.969-2.368,0.969
	c-0.909,0-1.698-0.323-2.367-0.969c-0.67-0.646-1.005-1.447-1.005-2.403v-28.77c0-0.048-0.035-0.083-0.107-0.108
	c-0.071-0.023-0.107-0.011-0.107,0.036c-2.583,6.697-5.31,12.149-8.179,16.358c-0.431,0.622-1.005,0.933-1.722,0.933
	c-0.097,0-0.191,0-0.287,0c-0.861-0.096-1.507-0.526-1.938-1.292c-0.479-0.86-0.717-1.769-0.717-2.726c0-0.144,0-0.263,0-0.359
	c0.095-1.147,0.453-2.152,1.076-3.013c2.199-2.966,4.243-6.445,6.134-10.439c1.889-3.993,3.408-7.975,4.556-11.945
	c0.047-0.19,0.023-0.358-0.071-0.502c-0.097-0.144-0.24-0.216-0.431-0.216h-7.39c-0.861,0-1.614-0.311-2.261-0.933
	c-0.646-0.621-0.969-1.387-0.969-2.296c0-0.908,0.323-1.674,0.969-2.296c0.646-0.621,1.399-0.933,2.261-0.933h8.466
	c0.478,0,0.717-0.238,0.717-0.718V19.028c0-0.908,0.335-1.686,1.005-2.332c0.669-0.646,1.458-0.969,2.367-0.969
	c0.908,0,1.697,0.323,2.368,0.969c0.669,0.646,1.004,1.424,1.004,2.332v11.479c0,0.479,0.239,0.718,0.718,0.718h6.026
	c0.861,0,1.614,0.312,2.26,0.933c0.646,0.622,0.969,1.388,0.969,2.296c0,0.909-0.322,1.675-0.969,2.296
	c-0.646,0.622-1.398,0.933-2.26,0.933h-6.026c-0.479,0-0.718,0.24-0.718,0.718c0,0.479,0.167,0.909,0.503,1.291
	c1.769,1.771,4.663,4.976,8.681,9.614c0.718,0.86,1.076,1.865,1.076,3.013c0,1.005-0.312,1.914-0.933,2.727
	c-0.479,0.671-1.124,1.005-1.938,1.005C111.328,56.049,111.28,56.049,111.233,56.049z M150.334,65.662
	c-0.097,1.053-0.502,1.938-1.22,2.655c-0.622,0.67-1.388,1.004-2.296,1.004h-0.071c-0.958-0.047-1.675-0.454-2.152-1.22
	c-2.87-4.543-5.573-10.45-8.107-17.721c-0.048-0.047-0.107-0.06-0.18-0.036c-0.071,0.024-0.107,0.061-0.107,0.107v29.2
	c0,0.957-0.335,1.77-1.004,2.439c-0.671,0.67-1.472,1.005-2.404,1.005s-1.733-0.335-2.403-1.005s-1.004-1.482-1.004-2.439v-28.77
	c0-0.095-0.036-0.144-0.107-0.144c-0.072,0-0.133,0.024-0.18,0.072c-3.301,7.796-7.031,14.182-11.192,19.155
	c-0.479,0.574-1.076,0.861-1.794,0.861c-0.144,0-0.287,0-0.431,0c-0.86-0.144-1.555-0.598-2.08-1.363
	c-0.479-0.765-0.718-1.602-0.718-2.511c0-1.195,0.383-2.248,1.148-3.157c2.869-3.252,5.524-7.126,7.964-11.622
	c2.438-4.496,4.423-9.088,5.954-13.775c0.048-0.19,0.012-0.358-0.107-0.502c-0.12-0.144-0.251-0.216-0.395-0.216h-7.461
	c-0.909,0-1.675-0.311-2.296-0.933c-0.623-0.621-0.933-1.387-0.933-2.296c0-0.908,0.31-1.674,0.933-2.296
	c0.621-0.621,1.387-0.933,2.296-0.933h8.681c0.478,0,0.718-0.238,0.718-0.718V19.1c0-0.908,0.334-1.697,1.004-2.368
	c0.67-0.669,1.471-1.004,2.403-1.004s1.733,0.335,2.404,1.004c0.669,0.67,1.004,1.46,1.004,2.368v11.407
	c0,0.479,0.239,0.718,0.718,0.718h9.47c0.908,0,1.687,0.312,2.332,0.933c0.646,0.622,0.969,0.933,0.969,0.933s0,0.455,0,1.363
	c0,0.909-0.323,1.675-0.969,2.296c-0.646,0.622-1.424,0.933-2.332,0.933h-7.819c-0.192,0-0.348,0.072-0.467,0.216
	c-0.12,0.144-0.132,0.312-0.036,0.502c3.061,10.044,6.888,18.224,11.479,24.537c0.525,0.717,0.789,1.506,0.789,2.367
	C150.334,65.447,150.334,65.567,150.334,65.662z"/>
</svg>
