<?xml version="1.0" encoding="utf-8"?>
<!-- Generator: Adobe Illustrator 16.0.3, SVG Export Plug-In . SVG Version: 6.00 Build 0)  -->
<!DOCTYPE svg PUBLIC "-//W3C//DTD SVG 1.1//EN" "http://www.w3.org/Graphics/SVG/1.1/DTD/svg11.dtd">
<svg version="1.1" id="PHDV" xmlns="http://www.w3.org/2000/svg" xmlns:xlink="http://www.w3.org/1999/xlink" x="0px" y="0px"
	 width="160px" height="100px" viewBox="0 0 160 100" enable-background="new 0 0 160 100" xml:space="preserve">
<g>
	<path d="M116.9,55.044h-8.25c-0.479,0-0.718,0.24-0.718,0.718v10.977c0,0.479,0.239,0.718,0.718,0.718h8.25
		c0.478,0,0.718-0.238,0.718-0.718V55.762C117.618,55.284,117.378,55.044,116.9,55.044z"/>
	<path d="M142.155,41.699h-7.533c-0.479,0-0.718,0.24-0.718,0.718v5.381c0,2.009,0,3.563,0,4.663c0,0.192,0.06,0.359,0.18,0.503
		c0.119,0.144,0.274,0.215,0.466,0.215h7.605c0.478,0,0.718-0.238,0.718-0.718V42.417C142.873,41.939,142.633,41.699,142.155,41.699
		z"/>
	<path d="M47.308,47.296c0-0.478-0.24-0.718-0.717-0.718h-10.26c-0.479,0-0.717,0.24-0.717,0.718v5.094
		c0,0.479,0.239,0.718,0.717,0.718h10.26c0.478,0,0.717-0.239,0.717-0.718V47.296z"/>
	<path d="M142.155,24.552h-7.533c-0.479,0-0.718,0.24-0.718,0.718v9.685c0,0.479,0.239,0.718,0.718,0.718h7.533
		c0.478,0,0.718-0.238,0.718-0.718V25.27C142.873,24.792,142.633,24.552,142.155,24.552z"/>
	<path d="M134.904,5.5H25.096C11.512,5.5,0.5,16.511,0.5,30.095v40.809C0.5,84.488,11.512,95.5,25.096,95.5h109.808
		c13.584,0,24.596-11.012,24.596-24.596h0.001V30.095C159.501,16.511,148.488,5.5,134.904,5.5z M74.786,41.27
		c0,0.479-0.144,0.933-0.43,1.362c-3.492,5.119-7.845,9.543-13.058,13.273c-0.623,0.431-1.268,0.646-1.938,0.646
		c-0.191,0-0.383-0.023-0.574-0.071c-0.909-0.144-1.722-0.55-2.439-1.22c-0.574-0.574-0.825-1.256-0.753-2.045
		s0.442-1.399,1.112-1.83c4.639-3.108,8.441-6.768,11.407-10.977c0.574-0.813,1.315-1.363,2.224-1.65
		c0.431-0.19,0.885-0.287,1.363-0.287c0.431,0,0.861,0.072,1.292,0.216c0.813,0.287,1.363,0.837,1.65,1.649
		C74.738,40.623,74.786,40.935,74.786,41.27z M56.993,31.368c4.305-3.396,7.868-7.222,10.69-11.479
		c0.525-0.813,1.22-1.363,2.081-1.65c0.478-0.19,0.933-0.287,1.363-0.287c0.43,0,0.861,0.072,1.291,0.215
		c0.813,0.287,1.363,0.814,1.65,1.579c0.095,0.335,0.144,0.646,0.144,0.933c0,0.479-0.144,0.933-0.431,1.363
		c-3.349,5.262-7.39,9.877-12.125,13.846c-0.622,0.479-1.316,0.718-2.081,0.718c-0.096,0-0.215,0-0.359,0
		c-0.909-0.095-1.698-0.478-2.367-1.147c-0.574-0.526-0.861-1.195-0.861-2.009C55.989,32.588,56.323,31.896,56.993,31.368z
		 M11.435,40.479c-0.048-0.19-0.072-0.382-0.072-0.573c0-0.574,0.19-1.1,0.574-1.579c0.574-0.717,1.315-1.194,2.224-1.435
		c0.287-0.047,0.597-0.071,0.933-0.071c0.574,0,1.123,0.119,1.65,0.358c2.248,1.147,4.233,2.296,5.955,3.443
		c0.813,0.574,1.267,1.34,1.363,2.296c0.047,0.192,0.072,0.359,0.072,0.503c0,0.766-0.24,1.482-0.718,2.152
		c-0.527,0.717-1.244,1.124-2.152,1.22c-0.144,0-0.287,0-0.43,0c-0.766,0-1.46-0.239-2.081-0.718
		c-1.77-1.339-3.755-2.606-5.955-3.803C12.081,41.892,11.625,41.294,11.435,40.479z M25.712,62.219
		c-2.152,5.836-4.401,11.432-6.744,16.788c-0.383,0.908-1.004,1.507-1.865,1.794c-0.383,0.096-0.742,0.144-1.076,0.144
		c-0.527,0-1.053-0.144-1.579-0.431c-0.861-0.479-1.435-1.196-1.722-2.152c-0.096-0.384-0.144-0.766-0.144-1.147
		c0-0.574,0.119-1.124,0.359-1.65c2.486-5.213,4.878-10.881,7.174-17.004c0.287-0.765,0.836-1.291,1.65-1.578
		c0.287-0.096,0.574-0.144,0.861-0.144c0.478,0,0.933,0.144,1.363,0.431c0.861,0.526,1.435,1.244,1.722,2.152
		c0.144,0.479,0.215,0.933,0.215,1.363C25.928,61.263,25.856,61.741,25.712,62.219z M23.919,26.992c-0.192,0-0.383,0-0.574,0
		c-1.196,0-2.296-0.382-3.3-1.148c-1.388-1.004-2.846-1.984-4.376-2.941c-0.67-0.431-1.088-1.041-1.255-1.83
		c-0.168-0.789,0.011-1.494,0.538-2.117c0.574-0.717,1.292-1.171,2.152-1.363c0.287-0.047,0.574-0.072,0.861-0.072
		c0.574,0,1.148,0.144,1.722,0.43c3.347,1.866,5.978,3.659,7.892,5.381c0.096,0,0.144-0.023,0.144-0.071
		c0-0.382,0.144-0.718,0.431-1.005c0.287-0.287,0.621-0.43,1.004-0.43h8.538c0.382,0,0.574-0.19,0.574-0.574v-1.937
		c0-0.908,0.323-1.674,0.968-2.296c0.646-0.621,1.41-0.933,2.296-0.933c0.885,0,1.638,0.312,2.26,0.933
		c0.621,0.622,0.933,1.388,0.933,2.296v1.937c0,0.384,0.215,0.574,0.646,0.574h7.533c0.765,0,1.423,0.276,1.973,0.825
		c0.549,0.55,0.825,1.208,0.825,1.973c0,0.766-0.276,1.424-0.825,1.973c-0.55,0.55-1.208,0.825-1.973,0.825h-7.461
		c-0.479,0-0.717,0.24-0.717,0.717v3.659c0,0.479,0.239,0.718,0.717,0.718h5.812c0.764,0,1.41,0.275,1.937,0.824
		c0.526,0.551,0.789,1.196,0.789,1.938c0,0.742-0.263,1.376-0.789,1.901c-0.527,0.526-1.173,0.789-1.937,0.789H31.667
		c-0.766,0-1.412-0.263-1.938-0.789c-0.527-0.525-0.789-1.159-0.789-1.901c0-0.741,0.262-1.387,0.789-1.938
		c0.526-0.549,1.172-0.824,1.938-0.824h5.883c0.478,0,0.718-0.239,0.718-0.718V28.14c0-0.478-0.24-0.717-0.718-0.717h-7.318
		c-0.717,0-1.316-0.251-1.793-0.753c-0.479-0.502-0.718-1.087-0.718-1.758c0-0.047-0.024-0.083-0.072-0.107
		c-0.048-0.024-0.096-0.011-0.144,0.036l-0.143,0.215C26.501,26.203,25.354,26.848,23.919,26.992z M35.972,57.842
		c-1.722,0-3.193-0.609-4.413-1.829s-1.83-2.69-1.83-4.412v-3.516c0-1.722,0.61-3.192,1.83-4.412s2.69-1.83,4.413-1.83h11.192
		c1.722,0,3.193,0.61,4.413,1.83s1.83,2.69,1.83,4.412v3.516c0,1.722-0.61,3.192-1.83,4.412s-2.69,1.829-4.413,1.829H35.972z
		 M39.272,67.958c0,0.574-0.144,1.125-0.431,1.65c-0.479,0.766-1.148,1.268-2.009,1.507c-0.717,0.24-1.412,0.144-2.081-0.287
		c-0.67-0.431-1.076-1.052-1.22-1.865c-0.431-1.865-1.004-3.803-1.722-5.812c-0.24-0.718-0.191-1.41,0.144-2.081
		c0.334-0.669,0.861-1.123,1.579-1.362c0.287-0.096,0.598-0.144,0.933-0.144c0.478,0,0.933,0.096,1.363,0.287
		c0.765,0.335,1.292,0.885,1.578,1.649c0.718,1.865,1.315,3.779,1.794,5.74C39.248,67.48,39.272,67.72,39.272,67.958z
		 M30.878,80.586c-0.24,0.047-0.479,0.071-0.717,0.071c-0.622,0-1.196-0.168-1.722-0.502c-0.766-0.479-1.268-1.148-1.507-2.009
		c-0.048-0.24-0.072-0.479-0.072-0.718c0-0.574,0.167-1.1,0.502-1.578c0.43-0.718,1.076-1.148,1.937-1.292
		c1.482-0.238,7.557-1.363,18.223-3.372c0.047,0,0.072-0.023,0.072-0.071c0-0.047-0.024-0.096-0.072-0.144
		c-1.101-0.287-1.937-0.933-2.511-1.938c-0.383-0.621-0.574-1.291-0.574-2.009c0-0.382,0.047-0.765,0.144-1.147
		c0.382-1.387,0.717-2.727,1.004-4.018c0.239-0.908,0.741-1.603,1.507-2.081c0.525-0.382,1.1-0.574,1.722-0.574
		c0.239,0,0.502,0.049,0.789,0.144c0.861,0.192,1.507,0.671,1.937,1.436c0.287,0.479,0.431,0.98,0.431,1.506
		c0,0.336-0.072,0.671-0.215,1.005c-1.148,3.349-1.961,5.645-2.439,6.888c-0.048,0.191-0.024,0.348,0.072,0.466
		c0.096,0.12,0.215,0.156,0.359,0.108l4.161-0.79c0.718-0.144,1.387,0,2.009,0.431c0.669,0.527,1.005,1.244,1.005,2.152
		c0,0.671-0.215,1.269-0.646,1.794c-0.479,0.67-1.101,1.101-1.865,1.291c-3.013,0.622-7.199,1.496-12.556,2.619
		C36.498,79.377,32.839,80.155,30.878,80.586z M75.934,62.864c-1.865,3.971-4.257,7.533-7.174,10.69
		c-2.918,3.156-6.314,5.858-10.188,8.107c-0.574,0.286-1.148,0.43-1.722,0.43c-0.287,0-0.574-0.048-0.861-0.144
		c-0.909-0.191-1.675-0.646-2.296-1.362c-0.43-0.479-0.646-1.005-0.646-1.579c0-0.144,0.023-0.287,0.072-0.431
		c0.095-0.766,0.478-1.338,1.148-1.722c6.744-3.634,11.813-8.92,15.21-15.855c0.431-0.861,1.076-1.482,1.937-1.865
		c0.526-0.287,1.052-0.431,1.579-0.431c0.382,0,0.741,0.048,1.076,0.144c0.861,0.287,1.482,0.813,1.865,1.578
		c0.19,0.431,0.287,0.85,0.287,1.256C76.221,62.088,76.125,62.482,75.934,62.864z M85.046,40.552
		c-0.048-0.239-0.071-0.454-0.071-0.646c0-0.526,0.166-1.005,0.502-1.436c0.525-0.765,1.219-1.267,2.08-1.507
		c0.334-0.095,0.67-0.143,1.005-0.143c0.525,0,1.052,0.119,1.578,0.358c2.439,1.101,4.592,2.272,6.457,3.516
		c0.765,0.526,1.22,1.244,1.363,2.152c0,0.191,0,0.358,0,0.502c0,0.718-0.215,1.388-0.646,2.009
		c-0.527,0.718-1.244,1.125-2.152,1.22c-0.144,0.048-0.312,0.072-0.502,0.072c-0.671,0-1.316-0.216-1.938-0.646
		c-1.914-1.291-4.018-2.534-6.313-3.73C85.691,41.892,85.236,41.317,85.046,40.552z M99.108,62.219
		c-2.058,5.836-4.281,11.479-6.673,16.932c-0.383,0.908-1.004,1.507-1.865,1.794c-0.384,0.095-0.742,0.144-1.076,0.144
		c-0.527,0-1.053-0.144-1.578-0.431c-0.861-0.479-1.436-1.196-1.723-2.152c-0.096-0.384-0.143-0.766-0.143-1.147
		c0-0.574,0.118-1.124,0.358-1.65c2.583-5.5,4.974-11.192,7.175-17.075c0.286-0.813,0.836-1.339,1.649-1.579
		c0.287-0.095,0.574-0.144,0.861-0.144c0.478,0,0.933,0.144,1.363,0.431c0.813,0.527,1.363,1.244,1.65,2.152
		c0.19,0.479,0.286,0.933,0.286,1.363C99.395,61.334,99.299,61.788,99.108,62.219z M97.816,27.565c-0.097,0-0.215,0-0.358,0
		c-0.766,0-1.436-0.238-2.009-0.717c-1.818-1.338-3.874-2.654-6.17-3.946c-0.718-0.431-1.161-1.028-1.328-1.794
		c-0.168-0.764,0.012-1.458,0.538-2.081c0.526-0.717,1.243-1.171,2.152-1.363c0.287-0.096,0.574-0.144,0.861-0.144
		c0.574,0,1.123,0.144,1.65,0.43c2.296,1.196,4.352,2.439,6.17,3.731c0.765,0.527,1.195,1.268,1.291,2.224
		c0.048,0.144,0.072,0.287,0.072,0.431c0,0.766-0.24,1.459-0.718,2.081C99.442,27.135,98.725,27.519,97.816,27.565z M108.507,73.339
		c-0.384,0-0.574,0.169-0.574,0.503v1.937c0,0.814-0.287,1.507-0.861,2.081c-0.573,0.574-1.268,0.86-2.08,0.86
		c-0.814,0-1.507-0.286-2.081-0.86c-0.573-0.574-0.86-1.267-0.86-2.081V55.331c0-1.722,0.609-3.192,1.829-4.412
		s2.69-1.83,4.412-1.83h1.005c0.478,0,0.718-0.238,0.718-0.717V37.467c0-0.478-0.24-0.718-0.718-0.718h-6.529
		c-0.86,0-1.591-0.298-2.188-0.896c-0.599-0.598-0.897-1.327-0.897-2.188s0.299-1.59,0.897-2.188
		c0.597-0.598,1.327-0.896,2.188-0.896h6.529c0.478,0,0.718-0.239,0.718-0.718v-8.824c0-0.861,0.298-1.59,0.896-2.188
		c0.598-0.598,1.314-0.897,2.152-0.897c0.836,0,1.566,0.299,2.188,0.897c0.621,0.599,0.933,1.327,0.933,2.188v8.824
		c0,0.479,0.238,0.718,0.717,0.718h5.31c0.813,0,1.53,0.299,2.152,0.896c0.621,0.599,0.933,1.327,0.933,2.188
		s-0.312,1.591-0.933,2.188c-0.622,0.599-1.34,0.896-2.152,0.896h-5.31c-0.479,0-0.717,0.24-0.717,0.718v10.905
		c0,0.479,0.238,0.717,0.717,0.717h0.431c1.722,0,3.193,0.61,4.412,1.83c1.22,1.22,1.83,2.69,1.83,4.412v11.767
		c0,1.722-0.61,3.192-1.83,4.412c-1.219,1.22-2.69,1.829-4.412,1.829H108.507z M148.971,75.563c0,1.578-0.191,2.821-0.573,3.73
		c-0.384,0.908-1.076,1.603-2.081,2.081c-1.291,0.717-3.516,1.1-6.672,1.147c-0.861,0-1.627-0.264-2.296-0.789
		c-0.718-0.574-1.22-1.291-1.507-2.152c-0.24-0.67-0.18-1.291,0.179-1.865c0.359-0.574,0.897-0.836,1.614-0.789
		c1.244,0,2.559,0,3.946,0c0.478-0.047,0.813-0.167,1.005-0.359c0.19-0.19,0.287-0.549,0.287-1.076V59.923
		c0-0.478-0.24-0.718-0.718-0.718h-8.035c-0.479,0-0.742,0.24-0.79,0.718c-1.052,8.993-3.372,16.023-6.959,21.093
		c-0.479,0.67-1.147,1.052-2.009,1.148c-0.144,0-0.264,0-0.358,0c-0.718,0-1.388-0.216-2.009-0.646
		c-0.671-0.431-1.053-1.053-1.148-1.866c-0.048-0.143-0.071-0.312-0.071-0.502c0-0.574,0.167-1.124,0.502-1.65
		c1.481-2.056,2.69-4.328,3.623-6.815c0.933-2.486,1.614-5.105,2.045-7.856c0.431-2.749,0.705-5.237,0.825-7.461
		c0.118-2.225,0.179-4.746,0.179-7.569V24.696c0-1.722,0.61-3.192,1.83-4.412s2.69-1.83,4.412-1.83h8.538
		c1.722,0,3.192,0.61,4.412,1.83s1.829,2.69,1.829,4.412V75.563z"/>
</g>
</svg>
