<?xml version="1.0" encoding="utf-8"?>
<!-- Generator: Adobe Illustrator 16.0.3, SVG Export Plug-In . SVG Version: 6.00 Build 0)  -->
<!DOCTYPE svg PUBLIC "-//W3C//DTD SVG 1.1//EN" "http://www.w3.org/Graphics/SVG/1.1/DTD/svg11.dtd">
<svg version="1.1" id="LCDV" xmlns="http://www.w3.org/2000/svg" xmlns:xlink="http://www.w3.org/1999/xlink" x="0px" y="0px"
	 width="160px" height="100px" viewBox="0 0 160 100" enable-background="new 0 0 160 100" xml:space="preserve">
<g>
	<path d="M48.958,46.65c0-0.478-0.24-0.717-0.718-0.717h-8.25c-0.479,0-0.717,0.24-0.717,0.717v3.372
		c0,0.479,0.239,0.717,0.717,0.717h8.25c0.478,0,0.718-0.238,0.718-0.717V46.65z"/>
	<path d="M56.276,41.197h8.466c0.478,0,0.718-0.239,0.718-0.717v-3.3c0-0.478-0.24-0.718-0.718-0.718h-8.466
		c-0.479,0-0.717,0.24-0.717,0.718v3.3C55.559,40.958,55.797,41.197,56.276,41.197z"/>
	<path d="M56.276,50.739h8.466c0.478,0,0.718-0.238,0.718-0.717V46.65c0-0.478-0.24-0.717-0.718-0.717h-8.466
		c-0.479,0-0.717,0.24-0.717,0.717v3.372C55.559,50.501,55.797,50.739,56.276,50.739z"/>
	<path d="M39.99,41.197h8.25c0.478,0,0.718-0.239,0.718-0.717v-3.3c0-0.478-0.24-0.718-0.718-0.718h-8.25
		c-0.479,0-0.717,0.24-0.717,0.718v3.3C39.272,40.958,39.511,41.197,39.99,41.197z"/>
	<path d="M134.962,5.57H24.895C11.278,5.57,0.24,16.522,0.24,30.036V70.63c0,13.512,11.038,24.466,24.654,24.466h110.067
		c13.615,0,24.653-10.954,24.653-24.466h0.001V30.036C159.616,16.522,148.577,5.57,134.962,5.57z M89.996,19.315
		c0.573-0.717,1.314-1.171,2.224-1.363c0.239-0.047,0.478-0.072,0.718-0.072c0.621,0,1.22,0.168,1.794,0.502
		c2.821,1.578,5.355,3.11,7.604,4.592c0.765,0.479,1.22,1.196,1.363,2.152c0.047,0.191,0.071,0.358,0.071,0.502
		c0,0.718-0.239,1.388-0.717,2.009c-0.574,0.718-1.34,1.148-2.296,1.292c-0.144,0-0.287,0-0.431,0c-0.766,0-1.46-0.239-2.081-0.717
		c-2.057-1.482-4.591-3.132-7.604-4.951c-0.671-0.43-1.076-1.04-1.22-1.829C89.278,20.642,89.469,19.937,89.996,19.315z
		 M29.623,60.819c0.549-0.549,1.208-0.825,1.973-0.825H48.24c0.478,0,0.718-0.238,0.718-0.717v-2.87c0-0.478-0.24-0.718-0.718-0.718
		h-9.04c-1.722,0-3.193-0.609-4.413-1.829s-1.83-2.69-1.83-4.412V37.825c0-1.722,0.61-3.192,1.83-4.412s2.69-1.83,4.413-1.83h9.04
		c0.478,0,0.718-0.239,0.718-0.718V28.14c0-0.478-0.24-0.717-0.718-0.717H32.672c-0.814,0-1.496-0.275-2.045-0.825
		c-0.55-0.549-0.825-1.22-0.825-2.009c0-0.79,0.275-1.458,0.825-2.009c0.549-0.549,1.231-0.825,2.045-0.825h15.64
		c0.431,0,0.646-0.215,0.646-0.646V19.1c0-0.908,0.323-1.686,0.968-2.332c0.646-0.646,1.423-0.969,2.332-0.969
		c0.908,0,1.686,0.323,2.332,0.969c0.646,0.646,0.969,1.424,0.969,2.332v2.009c0,0.431,0.19,0.646,0.574,0.646h16.573
		c0.765,0,1.422,0.276,1.973,0.825c0.549,0.55,0.825,1.219,0.825,2.009c0,0.789-0.275,1.459-0.825,2.009
		c-0.551,0.55-1.208,0.825-1.973,0.825h-16.43c-0.479,0-0.717,0.24-0.717,0.717v2.726c0,0.479,0.239,0.718,0.717,0.718h9.47
		c1.722,0,3.193,0.61,4.413,1.83s1.83,2.69,1.83,4.412v11.623c0,1.722-0.61,3.192-1.83,4.412s-2.69,1.829-4.413,1.829h-9.47
		c-0.479,0-0.717,0.24-0.717,0.718v2.87c0,0.479,0.239,0.717,0.717,0.717h17.506c0.765,0,1.422,0.276,1.973,0.825
		c0.549,0.551,0.825,1.209,0.825,1.974c0,0.766-0.275,1.424-0.825,1.973c-0.551,0.551-1.208,0.825-1.973,0.825H56.276
		c-0.479,0-0.717,0.24-0.717,0.718v3.73c0,0.909-0.323,1.686-0.969,2.332c-0.646,0.646-1.424,0.968-2.332,0.968
		c-0.909,0-1.686-0.322-2.332-0.968c-0.646-0.646-0.968-1.423-0.968-2.332v-3.73c0-0.478-0.24-0.718-0.718-0.718H31.596
		c-0.766,0-1.424-0.274-1.973-0.825c-0.55-0.549-0.825-1.207-0.825-1.973C28.797,62.028,29.072,61.37,29.623,60.819z M13.875,19.53
		c0.717-0.526,1.53-0.789,2.439-0.789c0.047,0,0.095,0,0.144,0c0.956,0,1.793,0.312,2.511,0.933
		c2.822,2.392,5.166,4.688,7.031,6.887c0.478,0.623,0.717,1.316,0.717,2.081c0,0.192,0,0.359,0,0.502
		c-0.144,1.004-0.622,1.818-1.435,2.439c-0.574,0.43-1.196,0.646-1.865,0.646c-0.191,0-0.383-0.023-0.574-0.072
		c-0.909-0.144-1.65-0.597-2.224-1.363c-1.866-2.343-4.161-4.759-6.888-7.247c-0.622-0.526-0.933-1.171-0.933-1.937
		C12.798,20.75,13.157,20.057,13.875,19.53z M76.58,78.29c-0.335,1.004-0.909,1.841-1.722,2.511
		c-0.814,0.669-1.722,1.005-2.727,1.005c-6.123,0.19-11.791,0.286-17.003,0.286c-4.305,0-8.299-0.071-11.981-0.215
		c-4.497-0.144-8.322-0.85-11.479-2.116c-3.157-1.269-5.812-3.193-7.964-5.775c-0.335-0.335-0.67-0.335-1.004,0
		c-1.962,1.865-4.161,3.897-6.601,6.098c-0.527,0.478-1.148,0.718-1.865,0.718c-0.192,0-0.384-0.024-0.574-0.072
		c-0.958-0.191-1.65-0.693-2.081-1.506c-0.287-0.622-0.431-1.269-0.431-1.938c0-0.382,0.047-0.765,0.144-1.147
		c0.287-1.005,0.861-1.841,1.722-2.512c2.056-1.53,4.064-3.132,6.026-4.807c0.334-0.334,0.502-0.741,0.502-1.22V51.313
		c0-0.478-0.24-0.718-0.718-0.718h-4.95c-0.861,0-1.603-0.31-2.224-0.933c-0.622-0.621-0.933-1.363-0.933-2.224
		c0-0.861,0.311-1.602,0.933-2.224c0.621-0.621,1.363-0.933,2.224-0.933h5.955c1.722,0,3.193,0.61,4.413,1.83s1.83,2.69,1.83,4.413
		v16.573c0,0.479,0.144,0.909,0.43,1.291c3.014,4.401,8.585,6.769,16.717,7.103c3.587,0.192,7.39,0.287,11.408,0.287
		c6.073,0,12.65-0.19,19.729-0.573c0.813-0.048,1.435,0.263,1.866,0.933c0.334,0.43,0.502,0.885,0.502,1.362
		C76.723,77.739,76.675,78.003,76.58,78.29z M85.261,41.341c-0.048-0.239-0.072-0.454-0.072-0.646c0-0.574,0.191-1.1,0.574-1.579
		c0.526-0.717,1.22-1.195,2.081-1.435c0.334-0.047,0.669-0.072,1.004-0.072c0.526,0,1.028,0.12,1.507,0.359
		c3.014,1.388,5.668,2.751,7.964,4.089c0.765,0.479,1.243,1.196,1.435,2.152c0.047,0.24,0.072,0.479,0.072,0.718
		c0,0.622-0.192,1.22-0.574,1.793c-0.527,0.814-1.244,1.292-2.152,1.435c-0.24,0.048-0.479,0.072-0.718,0.072
		c-0.67,0-1.291-0.191-1.865-0.574c-2.2-1.387-4.831-2.893-7.892-4.52C85.906,42.704,85.451,42.106,85.261,41.341z M103.627,62.075
		c-3.062,5.836-6.241,11.527-9.542,17.075c-0.526,0.861-1.268,1.387-2.224,1.578c-0.24,0-0.455,0-0.646,0
		c-0.718,0-1.388-0.239-2.009-0.717c-0.814-0.622-1.292-1.46-1.436-2.512c0-0.19,0-0.382,0-0.573c0-0.813,0.216-1.554,0.646-2.225
		c3.539-5.309,6.936-11.049,10.188-17.219c0.382-0.718,1.004-1.171,1.865-1.363c0.144,0,0.311,0,0.502,0
		c0.621,0,1.172,0.216,1.65,0.646c0.765,0.671,1.22,1.507,1.363,2.512c0.047,0.287,0.071,0.55,0.071,0.789
		C104.058,60.784,103.914,61.454,103.627,62.075z M150.047,77.68c-0.671,0.646-1.483,0.969-2.439,0.969h-39.962
		c-0.909,0-1.698-0.323-2.368-0.969s-1.004-1.446-1.004-2.403c0-0.956,0.334-1.769,1.004-2.439c0.67-0.669,1.459-1.004,2.368-1.004
		h14.994c0.478,0,0.718-0.239,0.718-0.718V29.861c0-0.478-0.24-0.717-0.718-0.717h-11.264c-0.957,0-1.771-0.334-2.439-1.004
		c-0.67-0.669-1.004-1.471-1.004-2.403s0.334-1.733,1.004-2.404c0.669-0.669,1.482-1.004,2.439-1.004h32.501
		c0.956,0,1.769,0.335,2.438,1.004c0.67,0.67,1.005,1.471,1.005,2.404s-0.335,1.734-1.005,2.403c-0.67,0.67-1.482,1.004-2.438,1.004
		h-12.412c-0.479,0-0.718,0.24-0.718,0.717v41.254c0,0.479,0.239,0.718,0.718,0.718h16.143c0.956,0,1.769,0.335,2.439,1.004
		c0.669,0.671,1.004,1.483,1.004,2.439C151.051,76.233,150.716,77.034,150.047,77.68z"/>
</g>
</svg>
