<?xml version="1.0" encoding="utf-8"?>
<!-- Generator: Adobe Illustrator 16.0.3, SVG Export Plug-In . SVG Version: 6.00 Build 0)  -->
<!DOCTYPE svg PUBLIC "-//W3C//DTD SVG 1.1//EN" "http://www.w3.org/Graphics/SVG/1.1/DTD/svg11.dtd">
<svg version="1.1" id="TYDV" xmlns="http://www.w3.org/2000/svg" xmlns:xlink="http://www.w3.org/1999/xlink" x="0px" y="0px"
	 width="160px" height="100px" viewBox="0 0 160 100" enable-background="new 0 0 160 100" xml:space="preserve">
<g>
	<path d="M131.178,57.089c-0.048-0.119-0.119-0.18-0.215-0.18h-10.188c-0.049,0-0.072,0.013-0.072,0.036c0,0.024,0,0.061,0,0.107
		c1.148,1.245,2.63,2.512,4.448,3.803c0.383,0.287,0.765,0.287,1.148,0c1.673-1.147,3.275-2.319,4.807-3.516
		C131.202,57.293,131.226,57.209,131.178,57.089z"/>
	<path d="M128.38,52.533v-3.587c0-0.478-0.239-0.718-0.717-0.718H107c-0.479,0-0.718,0.24-0.718,0.718v3.587
		c0,0.479,0.239,0.718,0.718,0.718h20.663C128.141,53.251,128.38,53.012,128.38,52.533z"/>
	<path d="M140.648,24.983H93.87c-0.479,0-0.717,0.24-0.717,0.717v47.782c0,0.479,0.238,0.718,0.717,0.718h46.778
		c0.478,0,0.718-0.239,0.718-0.718V25.7C141.366,25.223,141.126,24.983,140.648,24.983z M96.92,38.184
		c0.405-0.382,0.872-0.573,1.398-0.573h14.995c0.478,0,0.718-0.239,0.718-0.718v-2.367c0-0.478-0.24-0.718-0.718-0.718h-11.12
		c-0.527,0-0.993-0.19-1.399-0.574c-0.407-0.382-0.609-0.849-0.609-1.398s0.202-1.028,0.609-1.436
		c0.406-0.405,0.872-0.609,1.399-0.609h11.479c0.239,0,0.359-0.119,0.359-0.359v-0.215c0-0.861,0.298-1.59,0.896-2.188
		c0.598-0.598,1.327-0.897,2.188-0.897c0.86,0,1.59,0.299,2.188,0.897c0.597,0.598,0.896,1.327,0.896,2.188v0.215
		c0,0.24,0.119,0.359,0.358,0.359h12.197c0.525,0,0.992,0.204,1.398,0.609c0.406,0.407,0.61,0.886,0.61,1.436
		s-0.204,1.017-0.61,1.398c-0.406,0.384-0.873,0.574-1.398,0.574h-11.838c-0.479,0-0.718,0.24-0.718,0.718v2.367
		c0,0.479,0.238,0.718,0.718,0.718H136.2c0.525,0,0.992,0.191,1.399,0.573c0.405,0.384,0.609,0.861,0.609,1.436
		s-0.204,1.053-0.609,1.435c-0.407,0.384-0.874,0.574-1.399,0.574H98.318c-0.526,0-0.993-0.19-1.398-0.574
		c-0.407-0.382-0.61-0.86-0.61-1.435S96.513,38.567,96.92,38.184z M137.851,69.608c-0.527,0.671-1.173,1.148-1.938,1.435
		c-0.383,0.097-0.766,0.144-1.147,0.144c-0.384,0-0.789-0.071-1.22-0.215c-5.31-2.056-9.926-4.902-13.847-8.538
		c-0.097-0.095-0.204-0.118-0.323-0.071c-0.12,0.048-0.18,0.144-0.18,0.287v6.601c0,0.86-0.299,1.578-0.896,2.152
		c-0.599,0.573-1.316,0.86-2.152,0.86c-0.837,0-1.543-0.287-2.116-0.86c-0.574-0.574-0.861-1.292-0.861-2.152v-5.597
		c0-0.144-0.071-0.251-0.215-0.322c-0.144-0.072-0.287-0.06-0.431,0.035c-3.443,2.152-7.175,4.09-11.192,5.812
		c-0.479,0.144-0.957,0.216-1.435,0.216c-0.336,0-0.671-0.023-1.005-0.072c-0.86-0.238-1.578-0.692-2.152-1.363
		c-0.431-0.525-0.563-1.111-0.395-1.758c0.167-0.646,0.562-1.087,1.184-1.327c6.027-2.104,11.049-4.615,15.066-7.533
		c0.096-0.047,0.119-0.131,0.072-0.251c-0.048-0.119-0.12-0.18-0.216-0.18h-5.667c-1.723,0-3.182-0.597-4.377-1.793
		c-1.196-1.195-1.794-2.655-1.794-4.377s0.598-3.192,1.794-4.412c1.195-1.22,2.654-1.829,4.377-1.829h21.38
		c1.722,0,3.192,0.609,4.412,1.829s1.829,2.69,1.829,4.412v4.448c0,0.287,0.119,0.502,0.359,0.646
		c0.813,0.527,1.22,1.269,1.22,2.225c0,0.86-0.336,1.531-1.005,2.009c-1.626,1.147-3.229,2.177-4.807,3.085
		c-0.144,0.097-0.216,0.228-0.216,0.395c0,0.168,0.072,0.275,0.216,0.323c2.247,1.196,4.543,2.177,6.888,2.941
		c0.621,0.191,1.016,0.586,1.184,1.184C138.412,68.593,138.281,69.131,137.851,69.608z"/>
	<path d="M134.904,5.5H25.096C11.512,5.5,0.5,16.511,0.5,30.095v40.809C0.5,84.488,11.512,95.5,25.096,95.5h109.808
		c13.584,0,24.596-11.012,24.596-24.596h0.001V30.095C159.501,16.511,148.488,5.5,134.904,5.5z M65.531,39.045
		c1.722-3.396,3.18-6.672,4.376-9.829c0.334-0.861,0.933-1.482,1.793-1.865c0.431-0.191,0.861-0.287,1.292-0.287
		c0.382,0,0.765,0.072,1.148,0.215c0.861,0.335,1.458,0.933,1.793,1.793c0.095,0.384,0.144,0.742,0.144,1.076
		c0,0.479-0.096,0.957-0.287,1.435c-2.2,4.258-3.971,7.534-5.309,9.829c-0.335,0.671-0.873,1.112-1.614,1.328
		c-0.742,0.215-1.471,0.155-2.188-0.18c-0.623-0.287-1.053-0.777-1.292-1.471C65.147,40.396,65.196,39.716,65.531,39.045z
		 M35.506,29.072c0.262-0.669,0.729-1.147,1.399-1.435c0.717-0.287,1.446-0.298,2.188-0.036c0.741,0.264,1.279,0.729,1.614,1.399
		c1.625,3.3,2.989,6.601,4.09,9.9c0.143,0.335,0.215,0.671,0.215,1.005c0,0.479-0.096,0.933-0.287,1.363
		c-0.383,0.766-0.958,1.315-1.722,1.649c-0.717,0.336-1.423,0.336-2.116,0c-0.694-0.334-1.16-0.884-1.399-1.649
		c-0.909-3.061-2.224-6.458-3.946-10.188C35.254,30.412,35.242,29.743,35.506,29.072z M30.734,53.537
		c-0.766-0.095-1.316-0.478-1.65-1.147c-0.814-1.578-1.77-3.348-2.87-5.31c-0.048-0.095-0.12-0.131-0.215-0.107
		c-0.097,0.024-0.144,0.084-0.144,0.18v32.859c0,0.908-0.312,1.674-0.933,2.296c-0.622,0.621-1.388,0.933-2.296,0.933
		c-0.909,0-1.675-0.312-2.296-0.933c-0.622-0.622-0.933-1.388-0.933-2.296V53.824c0-0.047-0.025-0.083-0.072-0.107
		c-0.048-0.023-0.097,0.013-0.144,0.107c-1.339,4.545-2.846,8.563-4.52,12.054c-0.335,0.67-0.897,0.993-1.686,0.969
		s-1.352-0.395-1.686-1.112c-0.527-1.052-0.789-2.104-0.789-3.157c0-1.147,0.311-2.319,0.933-3.516
		c3.3-6.265,5.812-13.727,7.533-22.384c0.047-0.191,0.011-0.359-0.107-0.503c-0.12-0.144-0.276-0.215-0.466-0.215h-4.735
		c-0.861,0-1.603-0.298-2.224-0.896c-0.622-0.598-0.933-1.339-0.933-2.225c0-0.885,0.311-1.638,0.933-2.26
		c0.621-0.621,1.363-0.933,2.224-0.933h5.022c0.478,0,0.717-0.239,0.717-0.718V19.1c0-0.908,0.311-1.673,0.933-2.296
		c0.621-0.621,1.387-0.933,2.296-0.933c0.908,0,1.674,0.312,2.296,0.933c0.621,0.623,0.933,1.388,0.933,2.296v9.901
		c0,0.43,0.239,0.646,0.717,0.646H29.3c0.861,0,1.602,0.312,2.224,0.933c0.621,0.622,0.933,1.375,0.933,2.26
		c0,0.886-0.312,1.627-0.933,2.225c-0.622,0.599-1.363,0.896-2.224,0.896h-2.727c-0.479,0-0.717,0.24-0.717,0.718v0.646
		c0,0.479,0.144,0.909,0.431,1.291c1.387,1.818,3.563,4.832,6.529,9.04c0.525,0.718,0.789,1.531,0.789,2.439
		c0,1.005-0.335,1.914-1.004,2.727C32.121,53.394,31.499,53.634,30.734,53.537z M51.899,46.22c0,2.822-0.084,5.393-0.251,7.712
		c-0.168,2.321-0.538,4.879-1.112,7.677c-0.574,2.799-1.339,5.31-2.296,7.534c-0.957,2.224-2.284,4.46-3.981,6.708
		c-1.699,2.247-3.72,4.208-6.063,5.883c-0.574,0.382-1.196,0.574-1.866,0.574c-0.191,0-0.407-0.024-0.646-0.072
		c-0.909-0.144-1.675-0.573-2.296-1.291c-0.431-0.527-0.646-1.101-0.646-1.722c0-0.144,0-0.287,0-0.431
		c0.144-0.814,0.549-1.435,1.22-1.865c6.026-3.778,9.709-9.925,11.048-18.438c0-0.144-0.048-0.239-0.143-0.287
		c-0.097-0.047-0.192-0.047-0.287,0c-1.245,1.101-3.349,2.941-6.313,5.524c-0.527,0.479-1.125,0.717-1.794,0.717
		c-0.191,0-0.383-0.023-0.574-0.071c-0.909-0.144-1.579-0.621-2.009-1.435c-0.335-0.574-0.502-1.172-0.502-1.794
		c0-0.334,0.047-0.692,0.144-1.076c0.287-0.956,0.861-1.722,1.722-2.296c2.009-1.339,5.261-3.635,9.757-6.888
		c0.431-0.287,0.646-0.669,0.646-1.147c0.047-0.813,0.072-1.984,0.072-3.516V19.028c0-0.861,0.298-1.589,0.896-2.188
		c0.598-0.598,1.315-0.897,2.152-0.897c0.836,0,1.566,0.299,2.188,0.897c0.621,0.599,0.933,1.327,0.933,2.188V46.22z M78.158,73.339
		c-0.43,3.301-1.148,5.62-2.152,6.96c-1.004,1.338-2.559,2.009-4.664,2.009h-6.529c-2.726,0-4.581-0.658-5.56-1.974
		c-0.981-1.315-1.471-3.885-1.471-7.712V19.1c0-0.908,0.311-1.673,0.933-2.296c0.621-0.621,1.375-0.933,2.26-0.933
		c0.885,0,1.65,0.312,2.296,0.933c0.646,0.623,0.969,1.388,0.969,2.296v30.42c0,0.192,0.047,0.24,0.144,0.144
		c0.525-0.478,1.123-0.705,1.793-0.682c0.669,0.025,1.243,0.276,1.722,0.754c3.491,3.253,6.36,6.17,8.609,8.753
		c0.478,0.573,0.717,1.244,0.717,2.009c0,0.957-0.335,1.77-1.004,2.439c-0.574,0.573-1.255,0.824-2.045,0.753
		c-0.789-0.071-1.447-0.418-1.973-1.04c-2.057-2.486-4.545-5.237-7.462-8.251c-0.096-0.096-0.204-0.107-0.323-0.036
		c-0.12,0.072-0.179,0.156-0.179,0.251v18.08c0,1.101,0.036,1.865,0.107,2.296s0.227,0.742,0.466,0.933
		c0.239,0.191,0.621,0.287,1.148,0.287h4.879c0.574,0,0.992-0.395,1.255-1.184c0.262-0.789,0.442-2.283,0.538-4.484
		c0.047-0.669,0.37-1.159,0.969-1.471c0.597-0.311,1.207-0.323,1.83-0.036c0.908,0.431,1.625,1.029,2.152,1.794
		c0.382,0.67,0.574,1.363,0.574,2.081C78.158,73.053,78.158,73.195,78.158,73.339z M148.038,79.868c0,0.956-0.322,1.758-0.969,2.403
		c-0.646,0.646-1.447,0.969-2.403,0.969h-0.717c-0.718,0-1.328-0.251-1.83-0.754c-0.502-0.502-0.753-1.111-0.753-1.829
		c0-0.191-0.097-0.287-0.287-0.287H93.44c-0.192,0-0.287,0.096-0.287,0.287c0,0.718-0.251,1.327-0.754,1.829
		c-0.502,0.503-1.111,0.754-1.829,0.754h-0.574c-0.909,0-1.675-0.312-2.296-0.933c-0.622-0.622-0.933-1.388-0.933-2.296V25.055
		c0-1.722,0.61-3.193,1.83-4.413c1.22-1.219,2.69-1.829,4.412-1.829h48.787c1.722,0,3.192,0.61,4.412,1.829
		c1.22,1.22,1.829,2.69,1.829,4.413V79.868z"/>
</g>
</svg>
