<?xml version="1.0" encoding="utf-8"?>
<!-- Generator: Adobe Illustrator 16.0.3, SVG Export Plug-In . SVG Version: 6.00 Build 0)  -->
<!DOCTYPE svg PUBLIC "-//W3C//DTD SVG 1.1//EN" "http://www.w3.org/Graphics/SVG/1.1/DTD/svg11.dtd">
<svg version="1.1" id="PCDV" xmlns="http://www.w3.org/2000/svg" xmlns:xlink="http://www.w3.org/1999/xlink" x="0px" y="0px"
	 width="160px" height="100px" viewBox="0 0 160 100" enable-background="new 0 0 160 100" xml:space="preserve">
<g>
	<path d="M35.542,39.547c0-0.047-0.024-0.071-0.072-0.071c-1.196-0.239-2.057-0.908-2.583-2.009
		c-0.335-0.621-0.502-1.243-0.502-1.865c0-0.478,0.072-0.957,0.215-1.436c0.574-1.674,1.051-3.203,1.435-4.592
		c0.047-0.19,0.024-0.358-0.071-0.502c-0.097-0.144-0.24-0.215-0.431-0.215H21.91c-0.192,0-0.335,0.071-0.431,0.215
		c-0.096,0.144-0.096,0.287,0,0.431c0.717,1.627,1.315,3.349,1.793,5.166c0.095,0.335,0.144,0.67,0.144,1.004
		c0,0.671-0.191,1.316-0.574,1.938c-0.622,0.957-1.483,1.578-2.583,1.865v0.144h15.21C35.517,39.619,35.542,39.596,35.542,39.547z"
		/>
	<path d="M134.904,5.5H25.096C11.512,5.5,0.5,16.511,0.5,30.095v40.809C0.5,84.488,11.512,95.5,25.096,95.5h109.808
		c13.584,0,24.596-11.012,24.596-24.596h0.001V30.095C159.501,16.511,148.488,5.5,134.904,5.5z M38.268,71.402
		c-0.766,0-1.435-0.287-2.009-0.861c-1.291-1.291-2.774-2.75-4.448-4.376c-0.096-0.096-0.204-0.119-0.323-0.072
		c-0.12,0.049-0.179,0.144-0.179,0.287v13.416c0,0.908-0.323,1.687-0.969,2.332c-0.646,0.646-1.423,0.969-2.332,0.969
		c-0.909,0-1.686-0.323-2.332-0.969c-0.646-0.646-0.969-1.424-0.969-2.332V66.595c0-0.095-0.061-0.154-0.179-0.179
		c-0.12-0.023-0.204-0.012-0.251,0.036c-1.244,1.865-2.547,3.611-3.91,5.237c-1.363,1.626-2.738,3.085-4.125,4.376
		c-0.574,0.527-1.22,0.789-1.937,0.789c-0.144,0-0.264,0-0.359,0c-0.909-0.095-1.675-0.502-2.296-1.22
		c-0.479-0.573-0.717-1.243-0.717-2.009c0-0.908,0.358-1.674,1.076-2.296c4.256-3.539,7.916-7.82,10.977-12.842
		c0.095-0.144,0.107-0.275,0.036-0.395s-0.204-0.18-0.395-0.18h-8.609c-0.814,0-1.507-0.287-2.081-0.861
		c-0.574-0.573-0.861-1.267-0.861-2.08c0-0.813,0.287-1.494,0.861-2.045c0.574-0.55,1.267-0.825,2.081-0.825h9.973
		c0.478,0,0.717-0.238,0.717-0.718v-5.237c0-0.478-0.24-0.717-0.717-0.717H13.803c-0.814,0-1.507-0.287-2.081-0.861
		c-0.574-0.574-0.861-1.267-0.861-2.081c0-0.813,0.287-1.494,0.861-2.044c0.574-0.55,1.267-0.825,2.081-0.825h3.946
		c0.191,0,0.347-0.072,0.466-0.216c0.119-0.144,0.18-0.311,0.18-0.502c-0.192-1.291-0.527-2.773-1.004-4.448
		c-0.144-0.431-0.215-0.86-0.215-1.291c0-0.718,0.19-1.41,0.574-2.081c0.574-1.1,1.435-1.793,2.583-2.08
		c0.047,0,0.072-0.023,0.072-0.072c0-0.047-0.025-0.071-0.072-0.071h-5.668c-0.766,0-1.424-0.275-1.973-0.825
		c-0.55-0.55-0.825-1.22-0.825-2.009c0-0.79,0.274-1.458,0.825-2.009c0.549-0.549,1.208-0.825,1.973-0.825h9.327
		c0.478,0,0.717-0.239,0.717-0.718V19.53c0-0.908,0.323-1.686,0.969-2.332c0.646-0.646,1.422-0.969,2.332-0.969
		c0.908,0,1.686,0.323,2.332,0.969c0.646,0.646,0.969,1.423,0.969,2.332v2.941c0,0.479,0.239,0.718,0.717,0.718h9.327
		c0.765,0,1.422,0.275,1.973,0.825c0.549,0.551,0.825,1.22,0.825,2.009c0,0.789-0.276,1.459-0.825,2.009
		c-0.55,0.55-1.208,0.825-1.973,0.825h-5.524c-0.048,0-0.072,0.024-0.072,0.071c0,0.049,0.023,0.072,0.072,0.072
		c1.195,0.287,2.081,0.98,2.654,2.08c0.334,0.574,0.502,1.173,0.502,1.794c0,0.526-0.12,1.053-0.359,1.578
		c-0.766,1.914-1.411,3.42-1.937,4.521c-0.096,0.144-0.096,0.286,0,0.43c0.095,0.144,0.239,0.216,0.431,0.216h4.95
		c0.813,0,1.494,0.275,2.045,0.825c0.549,0.55,0.825,1.231,0.825,2.044c0,0.814-0.275,1.507-0.825,2.081
		c-0.551,0.574-1.232,0.861-2.045,0.861H32.026c-0.479,0-0.717,0.239-0.717,0.717v5.237c0,0.479,0.239,0.718,0.717,0.718h9.399
		c0.764,0,1.435,0.275,2.009,0.825c0.574,0.551,0.861,1.232,0.861,2.045c0,0.813-0.287,1.507-0.861,2.08
		c-0.574,0.574-1.245,0.861-2.009,0.861h-9.471c-0.43,0-0.646,0.204-0.646,0.609c0,0.407,0.167,0.73,0.502,0.969
		c1.674,1.196,4.377,3.325,8.107,6.386c0.669,0.526,1.052,1.244,1.148,2.152c0.047,0.144,0.072,0.264,0.072,0.358
		c0,0.766-0.24,1.435-0.717,2.009c-0.527,0.671-1.196,1.005-2.009,1.005C38.363,71.402,38.315,71.402,38.268,71.402z M76.723,45.502
		c-0.622,0.622-1.363,0.933-2.224,0.933h-3.874c-0.479,0-0.717,0.24-0.717,0.718V79.51c0,0.907-0.312,1.686-0.933,2.331
		c-0.623,0.646-1.399,0.969-2.332,0.969s-1.722-0.323-2.368-0.969c-0.646-0.646-0.968-1.424-0.968-2.331V47.152
		c0-0.478-0.24-0.718-0.718-0.718h-8.035c-0.479,0-0.718,0.24-0.718,0.718c0,14.876-3.062,26.14-9.183,33.792
		c-0.527,0.621-1.196,0.933-2.009,0.933c-0.048,0-0.097,0-0.144,0c-0.861-0.048-1.627-0.384-2.296-1.005
		c-0.67-0.622-1.029-1.388-1.076-2.296c-0.048-0.096-0.072-0.215-0.072-0.358c0-0.718,0.239-1.387,0.717-2.009
		c1.625-2.104,2.978-4.388,4.054-6.852c1.076-2.463,1.841-5.033,2.296-7.713c0.454-2.678,0.765-5.104,0.933-7.282
		c0.167-2.176,0.251-4.627,0.251-7.354V25.844c0-1.051,0.431-1.913,1.292-2.583c0.574-0.431,1.195-0.646,1.865-0.646
		c0.287,0,0.598,0.048,0.933,0.144c0.334,0.096,0.646,0.12,0.933,0.072c6.457-1.53,11.694-3.108,15.712-4.735
		c0.718-0.287,1.482-0.43,2.296-0.43c0.287,0,0.598,0.024,0.933,0.072c1.1,0.143,2.056,0.574,2.87,1.291
		c0.526,0.479,0.789,1.053,0.789,1.722c0,0.144,0,0.287,0,0.43c-0.144,0.861-0.622,1.435-1.435,1.722
		c-5.166,1.962-11.479,3.684-18.94,5.166c-0.479,0.096-0.718,0.383-0.718,0.86v10.475c0,0.479,0.239,0.718,0.718,0.718h19.945
		c0.861,0,1.602,0.312,2.224,0.933c0.621,0.622,0.933,1.363,0.933,2.225C77.656,44.139,77.344,44.881,76.723,45.502z
		 M110.659,79.007c0,0.956-0.348,1.781-1.04,2.476c-0.694,0.692-1.532,1.04-2.512,1.04c-0.98,0-1.818-0.348-2.511-1.04
		c-0.694-0.694-1.04-1.52-1.04-2.476V67.313c0-0.144-0.061-0.262-0.18-0.358c-0.12-0.096-0.276-0.119-0.467-0.072
		c-6.218,2.727-10.618,4.641-13.201,5.74c-0.479,0.191-0.957,0.287-1.435,0.287c-0.479,0-0.957-0.096-1.435-0.287
		c-1.005-0.383-1.723-1.052-2.152-2.009c-0.191-0.478-0.287-0.944-0.287-1.399c0-0.454,0.096-0.92,0.287-1.399
		c0.43-0.907,1.123-1.53,2.08-1.865c4.544-1.578,9.925-3.539,16.143-5.883c0.431-0.19,0.646-0.525,0.646-1.005V41.27
		c0-0.478-0.24-0.718-0.718-0.718H88.92c-0.957,0-1.758-0.334-2.403-1.005c-0.646-0.669-0.968-1.471-0.968-2.403
		s0.322-1.733,0.968-2.403c0.646-0.669,1.446-1.005,2.403-1.005h13.919c0.478,0,0.718-0.238,0.718-0.717V20.606
		c0-0.956,0.346-1.781,1.04-2.475c0.692-0.693,1.53-1.041,2.511-1.041c0.979,0,1.817,0.348,2.512,1.041
		c0.692,0.694,1.04,1.519,1.04,2.475V79.007z M149.114,78.361c-1.388,2.199-3.755,3.301-7.103,3.301h-10.905
		c-3.684,0-6.206-0.802-7.569-2.404s-2.045-4.603-2.045-9.004V20.678c0-1.004,0.347-1.853,1.041-2.547
		c0.692-0.693,1.542-1.041,2.547-1.041c1.004,0,1.853,0.348,2.547,1.041c0.692,0.694,1.04,1.542,1.04,2.547v18.869
		c0,0.144,0.06,0.251,0.18,0.323c0.118,0.071,0.251,0.084,0.395,0.036c4.639-2.917,8.991-6.002,13.058-9.256
		c0.765-0.573,1.602-0.86,2.511-0.86c0.144,0,0.263,0,0.359,0c1.1,0.096,1.983,0.55,2.654,1.363c0.574,0.67,0.86,1.435,0.86,2.296
		c0,0.144-0.024,0.312-0.071,0.502c-0.144,1.053-0.646,1.865-1.507,2.439c-4.831,3.253-10.786,6.815-17.864,10.689
		c-0.384,0.24-0.574,0.599-0.574,1.076v22.241c0,1.962,0.203,3.218,0.61,3.767c0.405,0.551,1.351,0.825,2.833,0.825h9.327
		c1.387,0,2.332-0.765,2.834-2.296c0.502-1.53,0.872-4.566,1.112-9.111c0.047-0.813,0.431-1.399,1.147-1.758
		c0.718-0.358,1.436-0.37,2.152-0.036c1.005,0.527,1.794,1.22,2.368,2.081c0.525,0.766,0.789,1.603,0.789,2.511
		C151.841,71.498,150.932,75.491,149.114,78.361z"/>
</g>
</svg>
