<?xml version="1.0" encoding="utf-8"?>
<!-- Generator: Adobe Illustrator 16.0.3, SVG Export Plug-In . SVG Version: 6.00 Build 0)  -->
<!DOCTYPE svg PUBLIC "-//W3C//DTD SVG 1.1//EN" "http://www.w3.org/Graphics/SVG/1.1/DTD/svg11.dtd">
<svg version="1.1" id="CHDV" xmlns="http://www.w3.org/2000/svg" xmlns:xlink="http://www.w3.org/1999/xlink" x="0px" y="0px"
	 width="160px" height="100px" viewBox="0 0 160 100" enable-background="new 0 0 160 100" xml:space="preserve">
<g>
	<path d="M42.214,57.412v-2.799c0-0.478-0.24-0.717-0.717-0.717H21.479c-0.479,0-0.717,0.239-0.717,0.717v2.799
		c0,0.479,0.239,0.717,0.717,0.717h20.017C41.974,58.129,42.214,57.891,42.214,57.412z"/>
	<path d="M24.78,32.444h12.34c-0.287-0.096-0.479-0.263-0.574-0.502c-0.096-0.239-0.096-0.478,0-0.718
		c0.669-1.435,1.243-2.894,1.722-4.376c0.047-0.144,0.023-0.287-0.072-0.43c-0.097-0.144-0.215-0.215-0.359-0.215H25.21
		c-0.144,0-0.251,0.072-0.323,0.215s-0.084,0.263-0.036,0.358c0.526,1.053,0.979,2.201,1.363,3.444
		c0.143,0.526,0.072,1.004-0.215,1.435S25.306,32.349,24.78,32.444z"/>
	<path d="M21.479,49.879h20.017c0.478,0,0.717-0.239,0.717-0.718v-2.583c0-0.478-0.24-0.718-0.717-0.718H21.479
		c-0.479,0-0.717,0.24-0.717,0.718v2.583C20.762,49.64,21.001,49.879,21.479,49.879z"/>
	<path d="M134.904,5.5H25.096C11.512,5.5,0.5,16.511,0.5,30.095v40.809C0.5,84.488,11.512,95.5,25.096,95.5h109.808
		c13.584,0,24.596-11.012,24.596-24.596h0.001V30.095C159.501,16.511,148.488,5.5,134.904,5.5z M75.145,40.05
		c0.047,0.239,0.072,0.455,0.072,0.646c0,0.574-0.192,1.101-0.574,1.578c-4.448,5.166-9.519,9.71-15.21,13.632
		c-0.67,0.383-1.388,0.574-2.152,0.574c-0.191,0-0.383,0-0.574,0c-0.958-0.144-1.794-0.574-2.511-1.292
		c-0.527-0.525-0.789-1.147-0.789-1.865c0-0.956,0.382-1.674,1.148-2.152c5.404-3.396,9.973-7.222,13.703-11.479
		c0.669-0.765,1.482-1.267,2.439-1.507c0.431-0.143,0.836-0.215,1.22-0.215c0.574,0,1.123,0.12,1.65,0.358
		C74.379,38.614,74.905,39.188,75.145,40.05z M11.22,33.233c0.526-0.525,1.148-0.789,1.866-0.789h7.031
		c0.144,0,0.262-0.06,0.359-0.18c0.095-0.118,0.144-0.251,0.144-0.395c-0.24-1.004-0.551-2.056-0.933-3.156
		c-0.192-0.574-0.144-1.1,0.143-1.579c0.287-0.478,0.718-0.765,1.292-0.861v-0.072h-6.026c-0.718,0-1.328-0.251-1.83-0.753
		c-0.502-0.502-0.753-1.112-0.753-1.83c0-0.717,0.251-1.327,0.753-1.83c0.502-0.502,1.112-0.753,1.83-0.753h12.699
		c0.382,0,0.574-0.191,0.574-0.574v-1.435c0-0.861,0.323-1.614,0.968-2.26c0.646-0.646,1.41-0.969,2.296-0.969
		c0.885,0,1.65,0.323,2.296,0.969s0.969,1.399,0.969,2.26v1.435c0,0.383,0.19,0.574,0.574,0.574h12.842
		c0.718,0,1.328,0.251,1.83,0.753c0.502,0.502,0.753,1.112,0.753,1.83c0,0.718-0.251,1.327-0.753,1.83
		c-0.502,0.502-1.112,0.753-1.83,0.753h-4.735v0.072c0.43,0.096,0.729,0.323,0.896,0.682c0.167,0.358,0.131,0.706-0.107,1.04
		c-0.814,1.435-1.555,2.727-2.224,3.874c-0.048,0.144-0.036,0.276,0.036,0.395c0.071,0.12,0.179,0.18,0.323,0.18h8.896
		c-0.048-0.047-0.072-0.107-0.072-0.18c0-0.071,0.023-0.131,0.072-0.179c2.63-1.482,5.273-3.312,7.928-5.489
		c2.654-2.176,4.961-4.412,6.923-6.708c0.621-0.813,1.435-1.363,2.439-1.65c0.43-0.095,0.836-0.144,1.22-0.144
		c0.574,0,1.123,0.097,1.65,0.287c0.813,0.335,1.338,0.933,1.579,1.793c0.095,0.24,0.144,0.479,0.144,0.718
		c0,0.574-0.192,1.101-0.574,1.578c-3.444,4.209-7.533,8.084-12.269,11.623c-1.052,0.717-2.152,1.076-3.3,1.076
		c-0.24,0-0.479-0.023-0.717-0.072c-1.483-0.19-2.798-0.789-3.946-1.793l-0.072-0.072c-0.097-0.047-0.18-0.06-0.251-0.036
		c-0.072,0.025-0.107,0.108-0.107,0.252c0,1.195-0.431,2.224-1.292,3.085c-0.861,0.86-1.914,1.291-3.157,1.291H13.085
		c-0.718,0-1.34-0.263-1.866-0.789c-0.527-0.525-0.789-1.159-0.789-1.901C10.431,34.394,10.693,33.761,11.22,33.233z M35.613,72.479
		c-0.479,0-0.717,0.239-0.717,0.717v6.673c0,0.908-0.323,1.686-0.969,2.332c-0.646,0.646-1.411,0.968-2.296,0.968
		c-0.886,0-1.65-0.322-2.296-0.968c-0.646-0.646-0.968-1.424-0.968-2.332v-6.673c0-0.478-0.24-0.717-0.718-0.717H13.085
		c-0.718,0-1.352-0.263-1.901-0.789c-0.55-0.526-0.825-1.172-0.825-1.938c0-0.765,0.275-1.41,0.825-1.938
		c0.549-0.525,1.184-0.789,1.901-0.789h14.564c0.478,0,0.718-0.238,0.718-0.717V63.08c0-0.478-0.24-0.718-0.718-0.718h-6.887
		c-1.722,0-3.193-0.61-4.413-1.83c-1.22-1.219-1.83-2.69-1.83-4.412v-8.322c0-1.722,0.61-3.192,1.83-4.412s2.69-1.83,4.413-1.83
		h21.882c1.722,0,3.192,0.61,4.412,1.83s1.83,2.69,1.83,4.412v8.322c0,1.722-0.61,3.193-1.83,4.412c-1.22,1.22-2.69,1.83-4.412,1.83
		h-7.031c-0.479,0-0.717,0.24-0.717,0.718v3.229c0,0.479,0.239,0.717,0.717,0.717h13.918c0.765,0,1.423,0.264,1.973,0.789
		c0.549,0.527,0.825,1.173,0.825,1.938c0,0.766-0.276,1.411-0.825,1.938c-0.55,0.526-1.208,0.789-1.973,0.789H35.613z M76.508,63.08
		c-5.119,7.414-11.91,13.56-20.376,18.438c-0.622,0.334-1.268,0.502-1.937,0.502c-0.287,0-0.599-0.024-0.933-0.072
		c-1.004-0.239-1.865-0.766-2.583-1.578c-0.479-0.574-0.717-1.196-0.717-1.865c0-0.144,0.023-0.312,0.072-0.502
		c0.144-0.861,0.598-1.482,1.363-1.865c3.682-1.961,7.139-4.28,10.367-6.96c3.229-2.678,5.919-5.571,8.071-8.681
		c0.621-0.861,1.41-1.436,2.368-1.722c0.478-0.191,0.933-0.287,1.363-0.287c0.526,0,1.028,0.096,1.507,0.287
		c0.861,0.335,1.435,0.957,1.722,1.865c0.144,0.287,0.215,0.599,0.215,0.933C77.01,62.1,76.842,62.603,76.508,63.08z
		 M108.147,22.328c-1.817,3.875-3.851,7.605-6.098,11.192c-0.24,0.431-0.359,0.886-0.359,1.363v44.769
		c0,0.957-0.335,1.77-1.004,2.439c-0.671,0.67-1.471,1.005-2.403,1.005s-1.734-0.335-2.403-1.005
		c-0.671-0.67-1.005-1.482-1.005-2.439V44.498c0-0.096-0.061-0.167-0.18-0.216c-0.119-0.047-0.228-0.023-0.322,0.072
		c-1.627,2.009-3.325,3.945-5.094,5.811c-0.574,0.574-1.245,0.861-2.01,0.861c-0.191,0-0.383-0.023-0.574-0.071
		c-1.004-0.144-1.77-0.67-2.295-1.579c-0.431-0.813-0.646-1.649-0.646-2.511c0-0.239,0-0.478,0-0.718
		c0.191-1.194,0.693-2.199,1.508-3.013c6.552-6.361,11.956-14.038,16.214-23.031c0.431-0.908,1.1-1.554,2.009-1.937
		c0.525-0.239,1.052-0.358,1.578-0.358c0.383,0,0.789,0.071,1.22,0.215c0.908,0.287,1.554,0.861,1.938,1.722
		c0.19,0.43,0.287,0.837,0.287,1.22C108.507,21.444,108.387,21.898,108.147,22.328z M151.339,69.178
		c-0.527,4.879-1.543,8.274-3.05,10.188c-1.506,1.912-4.006,2.869-7.497,2.869h-13.919c-4.161,0-6.983-0.789-8.466-2.367
		s-2.224-4.592-2.224-9.04V20.965c0-0.957,0.322-1.769,0.969-2.439c0.646-0.669,1.445-1.004,2.403-1.004
		c0.956,0,1.769,0.335,2.439,1.004c0.669,0.67,1.004,1.483,1.004,2.439v22.169c0,0.144,0.072,0.263,0.216,0.358
		c0.143,0.097,0.286,0.097,0.43,0c6.409-3.635,12.029-7.413,16.86-11.336c0.718-0.574,1.53-0.86,2.439-0.86c0.096,0,0.215,0,0.358,0
		c1.052,0.096,1.913,0.55,2.583,1.362c0.574,0.671,0.861,1.436,0.861,2.296c0,0.144-0.024,0.313-0.072,0.503
		c-0.096,1.053-0.573,1.865-1.435,2.439c-5.262,3.635-12.46,7.845-21.596,12.627c-0.43,0.191-0.646,0.526-0.646,1.004v19.371
		c0,2.058,0.274,3.385,0.825,3.982c0.55,0.599,1.781,0.896,3.695,0.896h12.771c1.674,0,2.809-0.621,3.407-1.865
		c0.598-1.243,1.041-3.803,1.328-7.677c0.047-0.765,0.43-1.327,1.147-1.686c0.718-0.359,1.435-0.37,2.152-0.036
		c0.956,0.431,1.722,1.076,2.296,1.938c0.478,0.717,0.718,1.482,0.718,2.295C151.339,68.891,151.339,69.034,151.339,69.178z"/>
</g>
</svg>
