<?xml version="1.0" encoding="utf-8"?>
<!-- Generator: Adobe Illustrator 16.0.3, SVG Export Plug-In . SVG Version: 6.00 Build 0)  -->
<!DOCTYPE svg PUBLIC "-//W3C//DTD SVG 1.1//EN" "http://www.w3.org/Graphics/SVG/1.1/DTD/svg11.dtd">
<svg version="1.1" id="PTDV" xmlns="http://www.w3.org/2000/svg" xmlns:xlink="http://www.w3.org/1999/xlink" x="0px" y="0px"
	 width="160px" height="100px" viewBox="0 0 160 100" enable-background="new 0 0 160 100" xml:space="preserve">
<g>
	<path d="M112.955,39.26H99.252c-0.479,0-0.718,0.24-0.718,0.718v4.377c0,0.479,0.238,0.717,0.718,0.717h13.703
		c0.478,0,0.717-0.238,0.717-0.717v-4.377C113.672,39.5,113.433,39.26,112.955,39.26z"/>
	<path d="M65.459,30.866V25.7c0-0.478-0.24-0.717-0.718-0.717H25.067c-0.479,0-0.718,0.24-0.718,0.717v5.166
		c0,0.479,0.239,0.717,0.718,0.717h39.675C65.219,31.583,65.459,31.345,65.459,30.866z"/>
	<path d="M59.72,37.395H39.774c-0.144,0-0.24,0.061-0.287,0.18c-0.048,0.12-0.024,0.251,0.072,0.395
		c1.292,1.675,2.368,3.372,3.229,5.094c0.287,0.574,0.287,1.16,0,1.758c-0.287,0.599-0.766,1.017-1.435,1.256v0.071h17.362
		c0.047,0,0.072-0.011,0.072-0.035s-0.025-0.036-0.072-0.036c-0.67-0.239-1.137-0.693-1.399-1.363
		c-0.264-0.669-0.204-1.315,0.179-1.938c1.052-1.722,1.937-3.3,2.655-4.734c0.095-0.144,0.095-0.287,0-0.431
		C60.054,37.467,59.91,37.395,59.72,37.395z"/>
	<path d="M55.487,51.815H44.294c-0.479,0-0.717,0.24-0.717,0.718v6.385v1.148c0,0.479,0.239,0.718,0.717,0.718h11.192
		c0.478,0,0.717-0.239,0.717-0.718v-7.533C56.204,52.056,55.964,51.815,55.487,51.815z"/>
	<path d="M112.955,50.022H99.252c-0.479,0-0.718,0.239-0.718,0.717v4.521c0,0.479,0.238,0.717,0.718,0.717h13.703
		c0.478,0,0.717-0.238,0.717-0.717v-4.521C113.672,50.262,113.433,50.022,112.955,50.022z"/>
	<path d="M120.775,44.354c0,0.479,0.238,0.717,0.717,0.717h14.564c0.478,0,0.718-0.238,0.718-0.717v-4.377
		c0-0.478-0.24-0.718-0.718-0.718h-14.564c-0.479,0-0.717,0.24-0.717,0.718V44.354z"/>
	<path d="M136.057,50.022h-14.564c-0.479,0-0.717,0.239-0.717,0.717v4.521c0,0.479,0.238,0.717,0.717,0.717h14.564
		c0.478,0,0.718-0.238,0.718-0.717v-4.521C136.774,50.262,136.534,50.022,136.057,50.022z"/>
	<path d="M134.904,5.5H25.096C11.512,5.5,0.5,16.511,0.5,30.095v40.809C0.5,84.488,11.512,95.5,25.096,95.5h109.808
		c13.584,0,24.596-11.012,24.596-24.596h0.001V30.095C159.501,16.511,148.488,5.5,134.904,5.5z M75.791,65.734
		c-0.574,0.574-1.268,0.86-2.081,0.86H63.522c-0.479,0-0.718,0.24-0.718,0.718v12.627c0,0.908-0.323,1.687-0.968,2.332
		c-0.646,0.646-1.424,0.969-2.332,0.969c-0.909,0-1.686-0.323-2.332-0.969c-0.646-0.646-0.969-1.424-0.969-2.332V67.313
		c0-0.478-0.24-0.718-0.717-0.718H43.649c-0.479,0-0.766,0.24-0.861,0.718c-1.435,6.267-5.262,11.145-11.479,14.636
		c-0.574,0.287-1.148,0.431-1.722,0.431c-0.335,0-0.646-0.048-0.933-0.144c-0.909-0.239-1.698-0.742-2.367-1.507
		c-0.527-0.573-0.73-1.255-0.61-2.044c0.119-0.789,0.538-1.399,1.255-1.83c4.4-2.439,7.341-5.619,8.825-9.542
		c0.047-0.19,0.023-0.358-0.072-0.502c-0.096-0.144-0.24-0.216-0.431-0.216h-7.892c-0.814,0-1.507-0.286-2.081-0.86
		c-0.574-0.574-0.861-1.256-0.861-2.045s0.287-1.471,0.861-2.045c0.574-0.574,1.267-0.86,2.081-0.86h8.896
		c0.478,0,0.718-0.239,0.718-0.718c0.047-0.287,0.072-0.692,0.072-1.22v-6.313c0-0.478-0.24-0.718-0.718-0.718h-6.959
		c-0.814,0-1.496-0.274-2.045-0.825c-0.55-0.549-0.825-1.22-0.825-2.009s0.275-1.458,0.825-2.009
		c0.549-0.549,1.231-0.825,2.045-0.825h7.103c0.144,0,0.262-0.071,0.359-0.215c0.095-0.144,0.119-0.287,0.072-0.431
		c-0.431-0.956-0.933-1.938-1.507-2.941c-0.383-0.574-0.574-1.172-0.574-1.794c0-0.382,0.072-0.789,0.215-1.22
		c0.382-1.004,1.076-1.674,2.081-2.009c0.047,0,0.047-0.047,0-0.144H25.067c-0.479,0-0.718,0.24-0.718,0.718v2.439
		c0,17.459-2.32,30.707-6.959,39.747c-0.431,0.813-1.101,1.314-2.009,1.506c-0.287,0.048-0.551,0.072-0.79,0.072
		c-0.67,0-1.292-0.168-1.865-0.502c-0.814-0.479-1.34-1.173-1.579-2.081c-0.096-0.335-0.143-0.67-0.143-1.004
		c0-0.527,0.119-1.052,0.358-1.579c1.338-2.582,2.451-5.452,3.336-8.609c0.884-3.156,1.506-6.421,1.865-9.793
		s0.598-6.36,0.717-8.968c0.119-2.606,0.18-5.536,0.18-8.789v-15.21c0-1.722,0.61-3.193,1.829-4.413c1.22-1.22,2.69-1.83,4.413-1.83
		h42.401c1.722,0,3.193,0.61,4.413,1.83s1.829,2.69,1.829,4.413v5.812c0,1.722-0.609,3.192-1.829,4.412s-2.69,1.829-4.413,1.829
		h-2.009c-0.048,0.049-0.048,0.097,0,0.144c0.861,0.24,1.458,0.766,1.793,1.579c0.144,0.335,0.215,0.67,0.215,1.004
		c0,0.479-0.168,0.957-0.502,1.435c-1.053,1.627-2.009,2.967-2.87,4.019c-0.096,0.096-0.107,0.215-0.036,0.358
		s0.179,0.215,0.323,0.215h8.753c0.765,0,1.422,0.276,1.973,0.825c0.549,0.551,0.825,1.22,0.825,2.009s-0.275,1.46-0.825,2.009
		c-0.551,0.551-1.208,0.825-1.973,0.825h-8.25c-0.479,0-0.718,0.24-0.718,0.718v7.533c0,0.479,0.239,0.718,0.718,0.718H73.71
		c0.813,0,1.507,0.286,2.081,0.86c0.574,0.574,0.861,1.256,0.861,2.045S76.365,65.16,75.791,65.734z M121.492,34.022h16
		c1.722,0,3.192,0.61,4.412,1.83s1.829,2.69,1.829,4.412v14.708c0,1.722-0.609,3.192-1.829,4.412s-2.69,1.829-4.412,1.829h-10.619
		c-0.144,0-0.239,0.061-0.286,0.18c-0.049,0.12-0.025,0.228,0.071,0.323c2.773,2.631,6.015,5.118,9.722,7.461
		c3.706,2.345,7.521,4.305,11.443,5.884c0.813,0.335,1.314,0.933,1.507,1.793c0.047,0.24,0.071,0.455,0.071,0.646
		c0,0.621-0.215,1.172-0.646,1.65c-0.718,0.908-1.604,1.507-2.654,1.794c-0.431,0.144-0.838,0.215-1.22,0.215
		c-0.671,0-1.292-0.144-1.866-0.431c-3.97-1.913-7.845-4.244-11.622-6.995c-3.779-2.749-7.151-5.703-10.116-8.86
		c-0.097-0.095-0.204-0.118-0.323-0.071c-0.119,0.048-0.179,0.144-0.179,0.287v14.492c0,1.005-0.348,1.854-1.041,2.547
		s-1.531,1.04-2.511,1.04c-0.98,0-1.818-0.347-2.511-1.04c-0.694-0.693-1.041-1.542-1.041-2.547V65.376
		c0-0.144-0.061-0.239-0.179-0.287c-0.12-0.048-0.228-0.023-0.323,0.071c-6.026,6.41-13.154,11.6-21.38,15.568
		c-0.622,0.239-1.22,0.359-1.794,0.359c-0.431,0-0.837-0.049-1.22-0.144c-1.004-0.287-1.865-0.861-2.583-1.722
		c-0.43-0.527-0.645-1.076-0.645-1.65c0-0.239,0.023-0.454,0.07-0.646c0.239-0.861,0.742-1.459,1.508-1.794
		c8.273-3.491,15.185-7.964,20.734-13.416c0.095-0.096,0.118-0.203,0.071-0.323c-0.048-0.119-0.144-0.18-0.287-0.18h-9.542
		c-1.722,0-3.192-0.609-4.412-1.829s-1.83-2.69-1.83-4.412V40.265c0-1.722,0.61-3.192,1.83-4.412s2.69-1.83,4.412-1.83h14.852
		c0.478,0,0.717-0.238,0.717-0.717v-3.946c0-0.478-0.239-0.718-0.717-0.718H88.776c-0.909,0-1.662-0.311-2.26-0.933
		c-0.599-0.621-0.897-1.363-0.897-2.224c0-0.861,0.299-1.602,0.897-2.224c0.598-0.621,1.351-0.933,2.26-0.933h24.179
		c0.478,0,0.717-0.215,0.717-0.646v-2.296c0-1.004,0.347-1.853,1.041-2.547c0.692-0.693,1.53-1.041,2.511-1.041
		c0.979,0,1.817,0.348,2.511,1.041c0.693,0.694,1.041,1.542,1.041,2.547v2.296c0,0.431,0.238,0.646,0.717,0.646h24.824
		c0.908,0,1.661,0.312,2.26,0.933c0.598,0.622,0.897,1.363,0.897,2.224c0,0.861-0.3,1.604-0.897,2.224
		c-0.599,0.622-1.352,0.933-2.26,0.933h-24.824c-0.479,0-0.717,0.24-0.717,0.718v3.946
		C120.775,33.784,121.014,34.022,121.492,34.022z"/>
</g>
</svg>
