<?xml version="1.0" encoding="utf-8"?>
<!-- Generator: Adobe Illustrator 16.0.3, SVG Export Plug-In . SVG Version: 6.00 Build 0)  -->
<!DOCTYPE svg PUBLIC "-//W3C//DTD SVG 1.1//EN" "http://www.w3.org/Graphics/SVG/1.1/DTD/svg11.dtd">
<svg version="1.1" id="KLDV" xmlns="http://www.w3.org/2000/svg" xmlns:xlink="http://www.w3.org/1999/xlink" x="0px" y="0px"
	 width="160px" height="100px" viewBox="0 0 160 100" enable-background="new 0 0 160 100" xml:space="preserve">
<g>
	<path d="M55.846,36.964H32.313c-0.479,0-0.717,0.24-0.717,0.718v2.727c0,0.479,0.239,0.718,0.717,0.718h23.533
		c0.478,0,0.717-0.239,0.717-0.718v-2.727C56.563,37.204,56.323,36.964,55.846,36.964z"/>
	<path d="M55.846,27.853H32.313c-0.479,0-0.717,0.24-0.717,0.718v2.654c0,0.479,0.239,0.718,0.717,0.718h23.533
		c0.478,0,0.717-0.239,0.717-0.718V28.57C56.563,28.093,56.323,27.853,55.846,27.853z"/>
	<path d="M55.846,46.147H32.313c-0.479,0-0.717,0.24-0.717,0.718v2.941c0,0.479,0.239,0.718,0.717,0.718h23.533
		c0.478,0,0.717-0.239,0.717-0.718v-2.941C56.563,46.388,56.323,46.147,55.846,46.147z"/>
	<path d="M134.904,5.5H25.096C11.512,5.5,0.5,16.511,0.5,30.095v40.809C0.5,84.488,11.512,95.5,25.096,95.5h109.808
		c13.584,0,24.596-11.012,24.596-24.596h0.001V30.095C159.501,16.511,148.488,5.5,134.904,5.5z M76.544,55.367
		c-0.55,0.55-1.232,0.825-2.045,0.825h-11.12c-0.144,0-0.24,0.061-0.287,0.179c-0.048,0.12-0.025,0.228,0.072,0.323
		c3.396,3.396,7.341,6.123,11.838,8.179c0.765,0.335,1.231,0.897,1.399,1.687c0.167,0.789-0.012,1.495-0.538,2.116
		c-0.67,0.813-1.483,1.34-2.439,1.578c-0.335,0.097-0.67,0.144-1.004,0.144c-0.622,0-1.22-0.144-1.793-0.431
		c-5.979-3.347-10.954-7.748-14.923-13.201c-0.287-0.382-0.67-0.573-1.148-0.573H34.106c-0.479,0-0.861,0.191-1.148,0.573
		c-1.531,2.152-3.372,4.281-5.524,6.386c-0.097,0.048-0.12,0.132-0.072,0.251c0.047,0.12,0.119,0.18,0.215,0.18h12.197
		c0.382,0,0.574-0.167,0.574-0.502v-1.507c0-0.956,0.334-1.77,1.004-2.439c0.669-0.669,1.482-1.005,2.439-1.005
		c0.956,0,1.769,0.336,2.439,1.005c0.669,0.67,1.004,1.483,1.004,2.439v1.507c0,0.335,0.191,0.502,0.574,0.502h11.264
		c0.764,0,1.41,0.275,1.937,0.825c0.526,0.55,0.789,1.196,0.789,1.937c0,0.742-0.263,1.376-0.789,1.901
		c-0.527,0.527-1.173,0.789-1.937,0.789H47.954c-0.479,0-0.718,0.24-0.718,0.718v5.094c0,0.479,0.239,0.718,0.718,0.718h21.165
		c0.765,0,1.423,0.275,1.973,0.825c0.549,0.55,0.825,1.22,0.825,2.009s-0.276,1.458-0.825,2.009
		c-0.55,0.549-1.208,0.825-1.973,0.825H19.399c-0.766,0-1.424-0.276-1.973-0.825c-0.55-0.551-0.825-1.22-0.825-2.009
		s0.275-1.459,0.825-2.009c0.549-0.55,1.208-0.825,1.973-0.825h20.232c0.478,0,0.718-0.239,0.718-0.718v-5.094
		c0-0.478-0.24-0.718-0.718-0.718h-8.968c-1.196,0-2.224-0.418-3.085-1.255c-0.861-0.837-1.291-1.854-1.291-3.05
		c0-0.095-0.048-0.167-0.144-0.215c-0.097-0.047-0.168-0.047-0.215,0c-2.679,2.344-5.573,4.401-8.681,6.17
		c-0.574,0.335-1.173,0.502-1.794,0.502c-0.287,0-0.599-0.047-0.933-0.144c-0.909-0.238-1.698-0.74-2.368-1.506
		c-0.527-0.621-0.706-1.328-0.538-2.117c0.167-0.789,0.61-1.374,1.328-1.758c4.592-2.247,8.656-5.237,12.197-8.968
		c0.095-0.096,0.119-0.203,0.072-0.323c-0.048-0.118-0.144-0.179-0.287-0.179H13.372c-0.813,0-1.495-0.275-2.044-0.825
		c-0.551-0.55-0.825-1.22-0.825-2.009s0.274-1.459,0.825-2.009c0.549-0.55,1.231-0.825,2.044-0.825h10.69
		c0.478,0,0.717-0.239,0.717-0.718V28.57c0-0.478-0.24-0.718-0.717-0.718h-7.175c-0.766,0-1.424-0.274-1.973-0.825
		c-0.55-0.549-0.825-1.208-0.825-1.973c0-0.765,0.274-1.423,0.825-1.973c0.549-0.549,1.208-0.825,1.973-0.825h7.247
		c0.43,0,0.646-0.215,0.646-0.646v-2.296c0-0.956,0.334-1.769,1.004-2.439c0.669-0.669,1.471-1.004,2.403-1.004
		s1.733,0.335,2.404,1.004c0.669,0.67,1.004,1.483,1.004,2.439v2.296c0,0.431,0.215,0.646,0.646,0.646h23.676
		c0.431,0,0.646-0.215,0.646-0.646v-2.152c0-1.004,0.346-1.841,1.04-2.511c0.693-0.669,1.518-1.004,2.476-1.004
		c0.956,0,1.769,0.335,2.439,1.004c0.669,0.67,1.005,1.507,1.005,2.511v2.152c0,0.431,0.215,0.646,0.646,0.646h7.103
		c0.765,0,1.423,0.276,1.973,0.825c0.549,0.55,0.825,1.208,0.825,1.973c0,0.766-0.276,1.424-0.825,1.973
		c-0.55,0.55-1.208,0.825-1.973,0.825H64.24c-0.479,0-0.717,0.24-0.717,0.718v21.236c0,0.479,0.239,0.718,0.717,0.718h10.259
		c0.813,0,1.495,0.275,2.045,0.825c0.549,0.55,0.825,1.22,0.825,2.009S77.093,54.817,76.544,55.367z M104.489,64.802
		c-1.148,0.766-2.488,1.244-4.019,1.435c-0.479,0.097-1.052,0.144-1.722,0.144c-0.048,0-0.096,0-0.144,0
		c-0.766,0-1.459-0.287-2.08-0.861c-0.671-0.573-1.125-1.314-1.363-2.224c-0.144-0.669-0.024-1.291,0.358-1.865
		s0.908-0.861,1.578-0.861c0.239,0,0.479-0.023,0.718-0.071c0.861,0,1.603-0.216,2.225-0.646c0.907-0.621,1.363-2.152,1.363-4.592
		c0-2.966-0.767-5.858-2.296-8.682c-1.436-2.63-2.152-5.141-2.152-7.533c0-1.195,0.167-2.343,0.502-3.443
		c0.908-2.822,1.889-6.099,2.941-9.83c0.047-0.19,0.011-0.358-0.107-0.502c-0.12-0.144-0.251-0.215-0.395-0.215H93.44
		c-0.479,0-0.718,0.24-0.718,0.717v54.455c0,0.813-0.3,1.519-0.896,2.117c-0.599,0.597-1.304,0.896-2.117,0.896
		s-1.519-0.3-2.116-0.896c-0.599-0.599-0.897-1.305-0.897-2.117v-55.1c0-1.722,0.61-3.193,1.83-4.413s2.69-1.829,4.412-1.829h9.829
		c0.048,0,0.119,0,0.216,0c0.621-0.144,1.194-0.072,1.722,0.215l1.435,0.861c0.621,0.383,1.076,0.921,1.363,1.614
		c0.287,0.694,0.311,1.399,0.072,2.116c-2.439,7.175-4.401,12.652-5.884,16.43c-0.191,0.431-0.144,0.838,0.144,1.22
		c3.778,4.545,5.668,9.447,5.668,14.708C107.502,60.497,106.498,63.415,104.489,64.802z M149.939,81.088
		c-0.551,0.525-1.208,0.789-1.973,0.789h-37.953c-0.814,0-1.483-0.264-2.009-0.789c-0.527-0.527-0.79-1.184-0.79-1.974
		c0-0.789,0.263-1.446,0.79-1.973c0.525-0.525,1.194-0.789,2.009-0.789h15.64c0.478,0,0.718-0.239,0.718-0.718v-4.448
		c0-0.478-0.24-0.717-0.718-0.717h-9.255c-0.766,0-1.398-0.263-1.901-0.789c-0.502-0.526-0.753-1.148-0.753-1.866
		c0-0.717,0.251-1.338,0.753-1.865c0.503-0.525,1.136-0.789,1.901-0.789h9.255c0.478,0,0.718-0.238,0.718-0.718v-4.161
		c0-0.478-0.24-0.717-0.718-0.717h-8.106c-0.479,0-0.838,0.215-1.076,0.646c-0.814,1.34-1.65,2.56-2.512,3.659
		c-0.479,0.622-1.147,0.957-2.009,1.004c-0.097,0-0.168,0-0.215,0c-0.766,0-1.436-0.215-2.009-0.646
		c-0.622-0.478-0.981-1.1-1.076-1.865c-0.097-0.765,0.118-1.459,0.646-2.081c2.296-2.869,4.137-6.193,5.524-9.973
		c0.047-0.095,0.036-0.179-0.036-0.251c-0.071-0.071-0.155-0.107-0.251-0.107c-0.384,0.144-0.766,0.264-1.147,0.358
		c-0.384,0.097-0.742,0.144-1.076,0.144c-0.479,0-0.981-0.095-1.507-0.287c-0.861-0.382-1.531-0.979-2.009-1.793
		c-0.384-0.67-0.455-1.351-0.216-2.045c0.239-0.692,0.718-1.136,1.436-1.327c5.165-1.436,9.9-3.444,14.205-6.026
		c0.383-0.287,0.406-0.598,0.072-0.933c-2.058-1.866-3.852-3.803-5.381-5.812c-0.287-0.383-0.599-0.406-0.934-0.072
		c-1.435,1.483-2.918,2.847-4.448,4.09c-0.573,0.479-1.195,0.717-1.865,0.717c-0.144,0-0.263-0.023-0.358-0.071
		c-0.861-0.096-1.604-0.454-2.224-1.076c-0.574-0.574-0.851-1.243-0.825-2.009c0.023-0.765,0.346-1.387,0.968-1.865
		c4.592-3.635,8.395-8.059,11.408-13.273c0.478-0.861,1.171-1.507,2.08-1.938c0.621-0.287,1.267-0.43,1.938-0.43
		c0.238,0,0.502,0.024,0.789,0.072c0.813,0.096,1.399,0.515,1.758,1.255c0.358,0.742,0.347,1.471-0.036,2.188
		c-0.191,0.335-0.406,0.717-0.646,1.148c-0.097,0.096-0.107,0.204-0.036,0.323c0.072,0.12,0.155,0.179,0.251,0.179h13.704
		c0.095,0,0.167-0.023,0.215-0.072c0.669-0.095,1.315,0,1.938,0.287l1.147,0.502c0.574,0.287,0.969,0.717,1.184,1.291
		c0.216,0.574,0.203,1.148-0.035,1.722c-2.201,4.735-5.357,9.04-9.471,12.914c-0.144,0.097-0.204,0.228-0.18,0.395
		c0.023,0.168,0.108,0.3,0.251,0.395c3.826,2.152,8.131,3.851,12.915,5.094c0.717,0.192,1.194,0.646,1.435,1.363
		c0.238,0.718,0.119,1.388-0.358,2.009c-0.574,0.814-1.34,1.411-2.296,1.794c-0.527,0.24-1.053,0.358-1.579,0.358
		c-0.43,0-0.837-0.071-1.22-0.215c-5.118-1.53-9.757-3.683-13.918-6.457c-0.384-0.239-0.766-0.239-1.148,0
		c-3.062,2.057-6.648,3.946-10.762,5.668c-0.048,0-0.071,0.024-0.071,0.071c0,0.049,0.023,0.097,0.071,0.144
		c0.765,0.144,1.339,0.563,1.722,1.256s0.431,1.398,0.144,2.116c-0.191,0.479-0.383,0.981-0.573,1.507
		c-0.049,0.097-0.049,0.191,0,0.287c0.047,0.096,0.144,0.144,0.286,0.144h5.597c0.431,0,0.646-0.216,0.646-0.646v-2.367
		c0-0.861,0.311-1.614,0.933-2.26c0.621-0.646,1.387-0.969,2.296-0.969c0.908,0,1.674,0.323,2.296,0.969
		c0.621,0.646,0.933,1.398,0.933,2.26v2.367c0,0.431,0.216,0.646,0.646,0.646h11.192c0.765,0,1.423,0.275,1.974,0.825
		c0.549,0.55,0.824,1.208,0.824,1.973c0,0.766-0.275,1.411-0.824,1.938c-0.551,0.526-1.209,0.789-1.974,0.789h-11.12
		c-0.479,0-0.718,0.239-0.718,0.717v4.161c0,0.479,0.239,0.718,0.718,0.718h10.116c0.717,0,1.327,0.264,1.829,0.789
		c0.502,0.527,0.754,1.148,0.754,1.865c0,0.718-0.252,1.34-0.754,1.866s-1.112,0.789-1.829,0.789h-10.116
		c-0.479,0-0.718,0.239-0.718,0.717v4.448c0,0.479,0.239,0.718,0.718,0.718h14.421c0.765,0,1.422,0.264,1.973,0.789
		c0.55,0.526,0.825,1.184,0.825,1.973C150.765,79.904,150.489,80.561,149.939,81.088z"/>
	<path d="M129.098,34.597c0.382,0.287,0.765,0.287,1.147,0c2.486-2.104,4.639-4.495,6.457-7.174
		c0.096-0.144,0.108-0.287,0.036-0.431c-0.071-0.144-0.204-0.215-0.395-0.215h-13.488c-0.144,0-0.264,0.084-0.358,0.251
		c-0.097,0.168-0.097,0.323,0,0.466C124.266,30.077,126.467,32.444,129.098,34.597z"/>
</g>
</svg>
