<?xml version="1.0" encoding="utf-8"?>
<!-- Generator: Adobe Illustrator 16.0.3, SVG Export Plug-In . SVG Version: 6.00 Build 0)  -->
<!DOCTYPE svg PUBLIC "-//W3C//DTD SVG 1.1//EN" "http://www.w3.org/Graphics/SVG/1.1/DTD/svg11.dtd">
<svg version="1.1" id="CYDV" xmlns="http://www.w3.org/2000/svg" xmlns:xlink="http://www.w3.org/1999/xlink" x="0px" y="0px"
	 width="160px" height="100px" viewBox="0 0 160 100" enable-background="new 0 0 160 100" xml:space="preserve">
<g>
	<path d="M52.617,51.672H35.254c-0.096,0-0.168,0.049-0.215,0.144c-0.048,0.097-0.025,0.168,0.071,0.216
		c0.431,0.573,0.836,1.195,1.22,1.865c0.287,0.526,0.287,1.053,0,1.578c-0.287,0.527-0.717,0.838-1.291,0.933v0.072h17.506
		c-0.384-0.096-0.67-0.335-0.861-0.718c-0.191-0.383-0.191-0.765,0-1.148c0.526-0.956,0.933-1.793,1.22-2.511
		c0.047-0.095,0.036-0.19-0.036-0.287C52.796,51.721,52.712,51.672,52.617,51.672z"/>
	<path d="M65.531,69.465H53.908c-0.479,0-0.717,0.24-0.717,0.718v5.309c0,0.479,0.239,0.718,0.717,0.718h11.623
		c0.478,0,0.717-0.238,0.717-0.718v-5.309C66.249,69.705,66.009,69.465,65.531,69.465z"/>
	<path d="M61.944,46.291v-3.3c0-0.478-0.24-0.718-0.717-0.718H26.573c-0.479,0-0.717,0.24-0.717,0.718v3.3
		c0,0.479,0.239,0.718,0.717,0.718h34.653C61.704,47.009,61.944,46.77,61.944,46.291z"/>
	<path d="M134.904,5.5H25.096C11.512,5.5,0.5,16.511,0.5,30.095v40.809C0.5,84.488,11.512,95.5,25.096,95.5h109.808
		c13.584,0,24.596-11.012,24.596-24.596h0.001V30.095C159.501,16.511,148.488,5.5,134.904,5.5z M85.764,41.484
		c0.525-0.525,1.172-0.789,1.937-0.789h25.398c0.478,0,0.717-0.239,0.717-0.718v-2.296c0-0.478-0.239-0.718-0.717-0.718H94.588
		c-0.67,0-1.244-0.238-1.722-0.717c-0.479-0.478-0.718-1.064-0.718-1.758s0.239-1.279,0.718-1.758
		c0.478-0.478,1.052-0.718,1.722-0.718h18.511c0.478,0,0.717-0.238,0.717-0.717v-2.296c0-0.478-0.239-0.718-0.717-0.718H90.785
		c-0.717,0-1.327-0.251-1.829-0.753c-0.502-0.502-0.753-1.112-0.753-1.83c0-0.717,0.251-1.327,0.753-1.83
		c0.502-0.502,1.112-0.753,1.829-0.753h10.905c0.144,0,0.252-0.06,0.323-0.18c0.071-0.119,0.083-0.251,0.036-0.395
		c-0.384-0.717-0.838-1.458-1.363-2.224c-0.431-0.669-0.538-1.363-0.323-2.081c0.216-0.717,0.682-1.195,1.399-1.435
		c0.525-0.19,1.052-0.287,1.578-0.287c0.383,0,0.789,0.048,1.22,0.144c0.908,0.24,1.65,0.742,2.225,1.506
		c1.1,1.531,1.983,3.038,2.654,4.52c0.144,0.192,0.095,0.335-0.144,0.431h15.568c0.478,0,0.837-0.191,1.076-0.574
		c0.621-1.148,1.243-2.296,1.865-3.444c0.526-1.004,1.292-1.745,2.296-2.224c0.67-0.334,1.363-0.502,2.081-0.502
		c0.334,0,0.669,0.024,1.004,0.072c0.861,0.191,1.459,0.717,1.794,1.578c0.144,0.335,0.216,0.646,0.216,0.933
		c0,0.479-0.169,0.958-0.503,1.435c-0.573,0.861-1.101,1.579-1.578,2.152c-0.097,0.144-0.107,0.276-0.036,0.395
		c0.072,0.12,0.18,0.18,0.323,0.18h10.762c0.718,0,1.327,0.251,1.829,0.753c0.503,0.502,0.754,1.112,0.754,1.83
		c0,0.718-0.251,1.328-0.754,1.83c-0.502,0.502-1.111,0.753-1.829,0.753h-22.672c-0.479,0-0.717,0.24-0.717,0.718v2.296
		c0,0.479,0.238,0.717,0.717,0.717h18.869c0.67,0,1.243,0.24,1.722,0.718c0.478,0.479,0.718,1.064,0.718,1.758
		s-0.24,1.28-0.718,1.758c-0.479,0.479-1.052,0.717-1.722,0.717h-18.869c-0.479,0-0.717,0.24-0.717,0.718v2.296
		c0,0.479,0.238,0.718,0.717,0.718h25.686c0.764,0,1.41,0.264,1.937,0.789c0.526,0.526,0.789,1.16,0.789,1.901
		c0,0.742-0.263,1.375-0.789,1.901s-1.173,0.789-1.937,0.789H87.7c-0.765,0-1.411-0.263-1.937-0.789
		c-0.527-0.526-0.789-1.159-0.789-1.901C84.975,42.645,85.236,42.011,85.764,41.484z M72.634,79.796
		c0,0.908-0.312,1.674-0.933,2.296c-0.622,0.621-1.363,0.933-2.224,0.933H67.97c-0.479,0-0.885-0.168-1.219-0.502
		c-0.335-0.335-0.502-0.742-0.502-1.22c0-0.144-0.048-0.215-0.144-0.215H53.406c-0.144,0-0.215,0.071-0.215,0.215
		c0,0.526-0.179,0.969-0.538,1.327c-0.359,0.359-0.802,0.538-1.327,0.538h-1.148c-0.861,0-1.591-0.299-2.188-0.896
		c-0.599-0.599-0.896-1.327-0.896-2.188v-9.184c0-1.722,0.609-3.192,1.829-4.412s2.69-1.829,4.413-1.829h13.058
		c1.722,0,3.192,0.609,4.412,1.829s1.83,2.69,1.83,4.412V79.796z M74.822,60.892c-0.502,0.502-1.089,0.753-1.758,0.753H30.806
		c-0.43,0-0.694,0.24-0.789,0.718c-0.048,0.766-0.168,1.722-0.359,2.87c-0.048,0.191-0.012,0.358,0.108,0.502
		c0.119,0.144,0.274,0.215,0.466,0.215h6.959c1.673,0,3.085,0.622,4.233,1.865c0.956,1.053,1.435,2.249,1.435,3.588
		c0,0.287,0,0.55,0,0.789c-0.622,4.975-1.506,8.035-2.654,9.184c-1.053,1.004-2.488,1.578-4.305,1.722
		c-0.766,0.047-1.794,0.071-3.085,0.071c-0.623,0-1.268,0-1.938,0c-0.717,0-1.352-0.251-1.901-0.753
		c-0.551-0.502-0.922-1.137-1.112-1.901c-0.144-0.574-0.048-1.089,0.287-1.542c0.334-0.456,0.789-0.682,1.363-0.682
		c1.051,0.047,2.199,0.071,3.443,0.071c1.1,0,1.794-0.191,2.081-0.574c0.717-0.717,1.291-2.75,1.722-6.098
		c0-0.191-0.061-0.359-0.179-0.503c-0.12-0.144-0.276-0.215-0.466-0.215h-7.175c-0.479,0-0.814,0.215-1.004,0.646
		c-1.004,2.487-2.452,4.604-4.34,6.35c-1.89,1.745-4.413,3.216-7.569,4.412c-0.717,0.287-1.447,0.274-2.188-0.035
		c-0.742-0.313-1.352-0.802-1.829-1.472c-0.287-0.335-0.431-0.717-0.431-1.147c0-0.191,0.023-0.384,0.072-0.574
		c0.19-0.622,0.574-1.053,1.148-1.291c4.065-1.482,6.935-3.563,8.609-6.242c0.095-0.144,0.095-0.287,0-0.431
		c-0.096-0.144-0.215-0.215-0.359-0.215h-5.453c-0.717,0-1.316-0.251-1.793-0.753c-0.479-0.503-0.717-1.088-0.717-1.758
		s0.239-1.256,0.717-1.758c0.478-0.503,1.076-0.754,1.793-0.754h7.175c0.526,0,0.813-0.238,0.861-0.717
		c0.144-0.718,0.287-1.674,0.431-2.87c0-0.19-0.061-0.358-0.18-0.502c-0.12-0.144-0.276-0.216-0.466-0.216h-8.753
		c-0.67,0-1.255-0.251-1.758-0.753c-0.502-0.502-0.753-1.112-0.753-1.83c0-0.717,0.251-1.327,0.753-1.829
		c0.502-0.502,1.087-0.753,1.758-0.753h15.138c0.144,0,0.251-0.048,0.323-0.144c0.071-0.096,0.083-0.216,0.036-0.359
		c-0.24-0.478-0.527-1.004-0.861-1.578c-0.287-0.525-0.312-1.087-0.072-1.686c0.239-0.598,0.646-0.944,1.22-1.041h-4.592
		c-1.722,0-3.193-0.609-4.413-1.829c-1.219-1.22-1.829-2.69-1.829-4.412v-1.507c0-1.722,0.61-3.192,1.829-4.412
		c1.22-1.22,2.691-1.83,4.413-1.83h36.519c1.722,0,3.192,0.61,4.412,1.83s1.83,2.69,1.83,4.412v1.507c0,1.722-0.61,3.192-1.83,4.412
		s-2.69,1.829-4.412,1.829h-3.516c0.43,0.097,0.729,0.336,0.896,0.718c0.167,0.384,0.131,0.766-0.107,1.147
		c-0.574,0.909-1.172,1.747-1.793,2.512c-0.048,0.096-0.048,0.191,0,0.287c0.047,0.096,0.119,0.144,0.215,0.144h14.995
		c0.669,0,1.255,0.251,1.758,0.753c0.502,0.502,0.753,1.112,0.753,1.829C75.575,59.779,75.324,60.39,74.822,60.892z M75.289,24.732
		c-0.479,0.502-1.076,0.753-1.794,0.753H47.81c-0.479,0-0.717,0.24-0.717,0.718v2.368c0,0.479,0.239,0.718,0.717,0.718h20.734
		c0.669,0,1.243,0.239,1.722,0.717c0.478,0.479,0.718,1.065,0.718,1.758c0,0.694-0.24,1.28-0.718,1.758
		c-0.479,0.479-1.052,0.718-1.722,0.718h-48.93c-0.718,0-1.316-0.239-1.794-0.718c-0.479-0.478-0.717-1.063-0.717-1.758
		c0-0.692,0.239-1.279,0.717-1.758c0.478-0.478,1.076-0.717,1.794-0.717h19.945c0.478,0,0.718-0.239,0.718-0.718v-2.368
		c0-0.478-0.24-0.718-0.718-0.718H14.664c-0.717,0-1.316-0.251-1.793-0.753c-0.479-0.502-0.718-1.1-0.718-1.794
		c0-0.693,0.239-1.292,0.718-1.793c0.478-0.502,1.076-0.753,1.793-0.753h25.111c0.334,0,0.502-0.144,0.502-0.43v-0.79
		c0-0.908,0.334-1.697,1.004-2.368c0.669-0.669,1.471-1.004,2.403-1.004s1.733,0.335,2.403,1.004c0.669,0.67,1.005,1.46,1.005,2.368
		v0.79c0,0.287,0.167,0.43,0.502,0.43h25.9c0.718,0,1.315,0.251,1.794,0.753c0.478,0.502,0.717,1.101,0.717,1.793
		C76.006,23.632,75.766,24.229,75.289,24.732z M150.765,76.209c-0.574,2.678-1.435,4.508-2.583,5.488
		c-1.147,0.98-2.895,1.471-5.237,1.471c-4.688,0-8.873-1.961-12.556-5.883c-0.335-0.334-0.717-0.405-1.147-0.215
		c-3.636,1.865-7.605,3.539-11.91,5.021c-0.383,0.144-0.789,0.216-1.22,0.216c-0.479,0-0.957-0.097-1.435-0.287
		c-0.861-0.335-1.555-0.909-2.081-1.722c-0.383-0.671-0.442-1.363-0.179-2.081c0.262-0.718,0.753-1.171,1.471-1.363
		c4.399-1.194,8.394-2.654,11.981-4.376c0.431-0.239,0.525-0.55,0.287-0.933c-1.388-2.439-2.583-5.237-3.588-8.395
		c-0.144-0.478-0.455-0.718-0.933-0.718h-14.421c-0.479,0-0.717,0.24-0.717,0.718v2.511c0,0.192,0.071,0.359,0.215,0.503
		s0.334,0.215,0.574,0.215c1.387-0.096,4.376-0.311,8.968-0.646c0.67-0.047,1.231,0.144,1.687,0.574
		c0.454,0.43,0.682,0.957,0.682,1.578c0,0.718-0.228,1.316-0.682,1.794c-0.455,0.479-1.017,0.766-1.687,0.86
		c-3.587,0.287-6.601,0.527-9.04,0.718c-0.479,0.048-0.717,0.312-0.717,0.789v4.807c0,1.674-0.228,2.917-0.682,3.731
		c-0.455,0.813-1.28,1.41-2.476,1.793c-1.531,0.526-4.376,0.813-8.537,0.861h-0.072c-0.813,0-1.555-0.264-2.224-0.789
		c-0.671-0.479-1.148-1.125-1.436-1.938c-0.239-0.622-0.179-1.196,0.18-1.722c0.358-0.527,0.872-0.789,1.542-0.789
		c1.482,0.047,2.702,0.071,3.659,0.071c0.861,0,1.53-0.024,2.009-0.071c0.574,0,0.957-0.084,1.148-0.251
		c0.19-0.169,0.287-0.514,0.287-1.041v-4.089c0-0.19-0.072-0.347-0.216-0.467c-0.144-0.119-0.312-0.18-0.502-0.18l-11.336,0.934
		c-0.717,0.048-1.363-0.167-1.938-0.646c-0.67-0.525-1.004-1.243-1.004-2.152c0-0.573,0.19-1.1,0.574-1.578
		c0.478-0.525,1.076-0.813,1.793-0.861c4.353-0.238,8.323-0.502,11.91-0.789c0.478,0,0.718-0.238,0.718-0.717v-3.014
		c0-0.478-0.24-0.718-0.718-0.718H87.557c-0.717,0-1.34-0.251-1.865-0.753c-0.527-0.502-0.789-1.112-0.789-1.829
		c0-0.718,0.262-1.339,0.789-1.866c0.525-0.525,1.148-0.789,1.865-0.789H99.18c0.478,0,0.718-0.238,0.718-0.717v-2.655
		c0-0.19-0.072-0.346-0.216-0.466c-0.144-0.119-0.312-0.18-0.502-0.18c-3.157,0.335-6.313,0.574-9.471,0.718
		c-0.67,0.048-1.268-0.132-1.793-0.538c-0.527-0.406-0.886-0.921-1.076-1.543c-0.191-0.525-0.145-1.016,0.143-1.471
		c0.287-0.454,0.693-0.705,1.221-0.753c9.039-0.574,16.548-1.436,22.527-2.583c0.431-0.096,0.861-0.144,1.292-0.144
		c1.387,0,2.582,0.526,3.587,1.578c0.431,0.431,0.562,0.945,0.395,1.543c-0.168,0.599-0.563,0.969-1.184,1.112
		c-1.865,0.383-4.401,0.789-7.605,1.219c-0.479,0.097-0.717,0.384-0.717,0.861v3.301c0,0.479,0.238,0.717,0.717,0.717h13.058
		c0.191,0,0.347-0.071,0.467-0.215c0.119-0.144,0.154-0.287,0.107-0.431c-0.622-3.157-0.933-5.333-0.933-6.528
		c0-0.718,0.263-1.363,0.789-1.938c0.621-0.669,1.387-1.005,2.296-1.005c0.908,0,1.697,0.323,2.368,0.969
		c0.669,0.646,1.051,1.424,1.147,2.332c0.19,2.152,0.502,4.209,0.933,6.17c0.096,0.431,0.383,0.646,0.861,0.646h13.272
		c0.144,0,0.227-0.047,0.251-0.144c0.023-0.095-0.012-0.19-0.107-0.287c-2.152-1.673-5.07-3.396-8.753-5.165
		c-0.574-0.287-0.933-0.754-1.076-1.399s0.023-1.207,0.502-1.686c0.574-0.621,1.268-1.028,2.081-1.22
		c0.287-0.047,0.574-0.072,0.861-0.072c0.525,0,1.027,0.097,1.506,0.287c1.865,0.814,3.611,1.675,5.237,2.583
		c1.195,0.67,1.866,1.698,2.01,3.085c0,0.191,0,0.384,0,0.574c0,1.147-0.407,2.152-1.22,3.013c-0.049,0.097-0.049,0.192,0,0.287
		c0.047,0.097,0.095,0.144,0.143,0.144h4.521c0.718,0,1.339,0.264,1.865,0.789c0.525,0.527,0.789,1.148,0.789,1.866
		c0,0.717-0.264,1.327-0.789,1.829c-0.526,0.502-1.147,0.753-1.865,0.753h-17.649c-0.191,0-0.335,0.072-0.431,0.216
		c-0.097,0.144-0.12,0.312-0.071,0.502c0.669,1.865,1.481,3.612,2.439,5.237c0.238,0.384,0.549,0.455,0.933,0.216
		c1.625-1.101,3.061-2.271,4.305-3.516c1.051-1.052,2.176-1.579,3.372-1.579c0.525,0,1.051,0.097,1.578,0.287
		c0.669,0.24,1.112,0.718,1.327,1.436c0.215,0.717,0.06,1.362-0.466,1.937c-1.818,1.962-4.066,3.874-6.744,5.74
		c-0.384,0.286-0.407,0.599-0.072,0.933c2.343,2.057,4.688,3.085,7.031,3.085c0.096,0,0.167,0,0.215,0
		c0.765,0,1.328-0.251,1.687-0.754c0.358-0.502,0.633-1.374,0.825-2.618c0.095-0.621,0.441-1.064,1.04-1.327
		c0.598-0.263,1.159-0.252,1.686,0.035c0.813,0.384,1.436,0.933,1.866,1.65c0.286,0.527,0.43,1.076,0.43,1.65
		C150.836,75.755,150.812,75.971,150.765,76.209z"/>
</g>
</svg>
