<?xml version="1.0" encoding="utf-8"?>
<!-- Generator: Adobe Illustrator 16.0.3, SVG Export Plug-In . SVG Version: 6.00 Build 0)  -->
<!DOCTYPE svg PUBLIC "-//W3C//DTD SVG 1.1//EN" "http://www.w3.org/Graphics/SVG/1.1/DTD/svg11.dtd">
<svg version="1.1" id="TTDV" xmlns="http://www.w3.org/2000/svg" xmlns:xlink="http://www.w3.org/1999/xlink" x="0px" y="0px"
	 width="160px" height="100px" viewBox="0 0 160 100" enable-background="new 0 0 160 100" xml:space="preserve">
<g>
	<path d="M112.955,50.022H99.252c-0.479,0-0.718,0.239-0.718,0.717v4.521c0,0.479,0.238,0.717,0.718,0.717h13.703
		c0.478,0,0.717-0.238,0.717-0.717v-4.521C113.672,50.262,113.433,50.022,112.955,50.022z"/>
	<path d="M27.578,41.484h32.716c0.478,0,0.718-0.239,0.718-0.718v-2.08c0-0.478-0.24-0.718-0.718-0.718H27.578
		c-0.479,0-0.717,0.24-0.717,0.718v2.08C26.86,41.245,27.099,41.484,27.578,41.484z"/>
	<path d="M136.057,50.022h-14.564c-0.479,0-0.717,0.239-0.717,0.717v4.521c0,0.479,0.238,0.717,0.717,0.717h14.564
		c0.478,0,0.718-0.238,0.718-0.717v-4.521C136.774,50.262,136.534,50.022,136.057,50.022z"/>
	<path d="M112.955,39.26H99.252c-0.479,0-0.718,0.24-0.718,0.718v4.377c0,0.479,0.238,0.717,0.718,0.717h13.703
		c0.478,0,0.717-0.238,0.717-0.717v-4.377C113.672,39.5,113.433,39.26,112.955,39.26z"/>
	<path d="M120.775,44.354c0,0.479,0.238,0.717,0.717,0.717h14.564c0.478,0,0.718-0.238,0.718-0.717v-4.377
		c0-0.478-0.24-0.718-0.718-0.718h-14.564c-0.479,0-0.717,0.24-0.717,0.718V44.354z"/>
	<path d="M134.904,5.5H25.096C11.512,5.5,0.5,16.511,0.5,30.095v40.809C0.5,84.488,11.512,95.5,25.096,95.5h109.808
		c13.584,0,24.596-11.012,24.596-24.596h0.001V30.095C159.501,16.511,148.488,5.5,134.904,5.5z M75.181,80.908
		c-0.455,0.454-1.017,0.682-1.686,0.682H14.52c-0.67,0-1.232-0.228-1.686-0.682c-0.455-0.455-0.682-1.017-0.682-1.686
		c0-0.671,0.227-1.232,0.682-1.687c0.454-0.454,1.016-0.682,1.686-0.682h25.039c0.478,0,0.718-0.238,0.718-0.717v-1.794
		c0-0.478-0.24-0.718-0.718-0.718H21.408c-0.622,0-1.137-0.215-1.542-0.646c-0.407-0.431-0.61-0.933-0.61-1.507
		s0.203-1.076,0.61-1.507c0.406-0.43,0.92-0.646,1.542-0.646h18.151c0.478,0,0.718-0.238,0.718-0.717v-1.579
		c0-0.478-0.24-0.692-0.718-0.646c-0.766,0-7.342,0.048-19.73,0.144c-0.622,0-1.16-0.203-1.614-0.609
		c-0.455-0.406-0.706-0.921-0.753-1.543c0-0.574,0.19-1.076,0.574-1.507c0.382-0.431,0.885-0.646,1.507-0.646l7.892,0.071
		c0.478,0,0.861-0.19,1.147-0.573c0.191-0.239,0.49-0.61,0.897-1.112c0.406-0.502,0.705-0.872,0.897-1.112
		c0.095-0.144,0.119-0.274,0.072-0.395c-0.048-0.119-0.144-0.18-0.287-0.18h-7.749c-0.527,0-0.993-0.19-1.399-0.573
		c-0.407-0.383-0.61-0.849-0.61-1.399c0-0.549,0.203-1.016,0.61-1.398c0.406-0.383,0.872-0.574,1.399-0.574h42.617
		c0.526,0,0.992,0.191,1.399,0.574c0.406,0.383,0.61,0.85,0.61,1.398c0,0.551-0.204,1.017-0.61,1.399
		c-0.407,0.383-0.873,0.573-1.399,0.573h-4.52c-0.096,0-0.144,0.036-0.144,0.108c0,0.071,0.024,0.132,0.072,0.179
		c3.109,1.531,5.979,3.134,8.609,4.808c0.574,0.383,0.885,0.921,0.933,1.614c0.047,0.693-0.192,1.255-0.718,1.686
		c-0.574,0.527-1.255,0.802-2.044,0.825c-0.79,0.024-1.519-0.18-2.188-0.609c-0.574-0.431-1.172-0.861-1.793-1.292
		c-0.335-0.19-0.694-0.287-1.076-0.287c-3.205,0.097-7.964,0.192-14.277,0.287c-0.479,0-0.718,0.24-0.718,0.718v1.65
		c0,0.479,0.239,0.717,0.718,0.717h19.371c0.574,0,1.064,0.216,1.471,0.646c0.406,0.431,0.61,0.933,0.61,1.507
		s-0.204,1.076-0.61,1.507c-0.407,0.431-0.896,0.646-1.471,0.646H47.882c-0.479,0-0.718,0.24-0.718,0.718v1.794
		c0,0.479,0.239,0.717,0.718,0.717h25.613c0.669,0,1.231,0.228,1.686,0.682c0.454,0.454,0.682,1.016,0.682,1.687
		C75.862,79.892,75.635,80.453,75.181,80.908z M69.549,47.798c1.482,0,2.737,0.527,3.767,1.578c1.028,1.053,1.542,2.296,1.542,3.731
		v2.08c0,0.861-0.312,1.614-0.933,2.26c-0.622,0.646-1.388,0.969-2.296,0.969c-0.909,0-1.675-0.322-2.296-0.969
		c-0.622-0.646-0.933-1.398-0.933-2.26v-2.224c0-0.431-0.215-0.646-0.646-0.646H19.901c-0.43,0-0.646,0.216-0.646,0.646v2.367
		c0,0.861-0.299,1.591-0.897,2.188c-0.599,0.599-1.327,0.896-2.188,0.896s-1.591-0.298-2.188-0.896
		c-0.599-0.598-0.896-1.327-0.896-2.188v-2.224c0-1.436,0.513-2.679,1.542-3.731c1.028-1.051,2.283-1.578,3.767-1.578H69.549z
		 M20.475,39.763c0-1.482,0.526-2.75,1.578-3.803c1.052-1.052,2.343-1.578,3.875-1.578h36.303c1.53,0,2.821,0.526,3.874,1.578
		c1.052,1.053,1.579,2.32,1.579,3.803s-0.527,2.751-1.579,3.802c-1.053,1.053-2.344,1.579-3.874,1.579H25.928
		c-1.531,0-2.823-0.526-3.875-1.579C21.001,42.514,20.475,41.245,20.475,39.763z M75.36,23.656
		c-0.431,0.455-0.958,0.682-1.579,0.682h-25.9c-0.479,0-0.718,0.24-0.718,0.717v1.722c0,0.479,0.239,0.718,0.718,0.718h20.447
		c0.621,0,1.136,0.204,1.542,0.609c0.406,0.407,0.61,0.897,0.61,1.471c0,0.574-0.204,1.065-0.61,1.471
		c-0.407,0.407-0.921,0.61-1.542,0.61H19.614c-0.623,0-1.137-0.203-1.542-0.61c-0.407-0.405-0.61-0.896-0.61-1.471
		c0-0.573,0.203-1.063,0.61-1.471c0.406-0.405,0.92-0.609,1.542-0.609h19.945c0.478,0,0.718-0.239,0.718-0.718v-1.722
		c0-0.478-0.24-0.717-0.718-0.717H14.233c-0.623,0-1.148-0.227-1.579-0.682c-0.431-0.454-0.646-0.992-0.646-1.614
		c0-0.621,0.215-1.148,0.646-1.579s0.956-0.646,1.579-0.646h25.613c0.287,0,0.431-0.144,0.431-0.431v-0.215
		c0-0.956,0.334-1.769,1.004-2.439c0.669-0.669,1.482-1.004,2.439-1.004c0.956,0,1.769,0.335,2.439,1.004
		c0.669,0.67,1.004,1.483,1.004,2.439v0.215c0,0.287,0.144,0.431,0.431,0.431h26.187c0.621,0,1.148,0.215,1.579,0.646
		c0.43,0.431,0.646,0.958,0.646,1.579C76.006,22.664,75.791,23.202,75.36,23.656z M121.492,34.022h16c1.722,0,3.192,0.61,4.412,1.83
		s1.829,2.69,1.829,4.412v14.708c0,1.722-0.609,3.192-1.829,4.412s-2.69,1.829-4.412,1.829h-10.619c-0.144,0-0.239,0.061-0.286,0.18
		c-0.049,0.12-0.025,0.228,0.071,0.323c2.773,2.631,6.015,5.118,9.722,7.461c3.706,2.345,7.521,4.305,11.443,5.884
		c0.813,0.335,1.314,0.933,1.507,1.793c0.047,0.24,0.071,0.455,0.071,0.646c0,0.621-0.215,1.172-0.646,1.65
		c-0.718,0.908-1.604,1.507-2.654,1.794c-0.431,0.144-0.838,0.215-1.22,0.215c-0.671,0-1.292-0.144-1.866-0.431
		c-3.97-1.913-7.845-4.244-11.622-6.995c-3.779-2.749-7.151-5.703-10.116-8.86c-0.097-0.095-0.204-0.118-0.323-0.071
		c-0.119,0.048-0.179,0.144-0.179,0.287v14.492c0,1.005-0.348,1.854-1.041,2.547s-1.531,1.04-2.511,1.04
		c-0.98,0-1.818-0.347-2.511-1.04c-0.694-0.693-1.041-1.542-1.041-2.547V65.376c0-0.144-0.061-0.239-0.179-0.287
		c-0.12-0.048-0.228-0.023-0.323,0.071c-6.026,6.41-13.154,11.6-21.38,15.568c-0.622,0.239-1.22,0.359-1.794,0.359
		c-0.431,0-0.837-0.049-1.22-0.144c-1.004-0.287-1.865-0.861-2.583-1.722c-0.43-0.527-0.645-1.076-0.645-1.65
		c0-0.239,0.023-0.454,0.07-0.646c0.239-0.861,0.742-1.459,1.508-1.794c8.273-3.491,15.185-7.964,20.734-13.416
		c0.095-0.096,0.118-0.203,0.071-0.323c-0.048-0.119-0.144-0.18-0.287-0.18h-9.542c-1.722,0-3.192-0.609-4.412-1.829
		s-1.83-2.69-1.83-4.412V40.265c0-1.722,0.61-3.192,1.83-4.412s2.69-1.83,4.412-1.83h14.852c0.478,0,0.717-0.238,0.717-0.717v-3.946
		c0-0.478-0.239-0.718-0.717-0.718H88.776c-0.909,0-1.662-0.311-2.26-0.933c-0.599-0.621-0.897-1.363-0.897-2.224
		c0-0.861,0.299-1.602,0.897-2.224c0.598-0.621,1.351-0.933,2.26-0.933h24.179c0.478,0,0.717-0.215,0.717-0.646v-2.296
		c0-1.004,0.347-1.853,1.041-2.547c0.692-0.693,1.53-1.041,2.511-1.041c0.979,0,1.817,0.348,2.511,1.041
		c0.693,0.694,1.041,1.542,1.041,2.547v2.296c0,0.431,0.238,0.646,0.717,0.646h24.824c0.908,0,1.661,0.312,2.26,0.933
		c0.598,0.622,0.897,1.363,0.897,2.224c0,0.861-0.3,1.604-0.897,2.224c-0.599,0.622-1.352,0.933-2.26,0.933h-24.824
		c-0.479,0-0.717,0.24-0.717,0.718v3.946C120.775,33.784,121.014,34.022,121.492,34.022z"/>
	<path d="M55.738,62.183c0.023-0.071,0.011-0.131-0.036-0.179c-1.148-0.574-2.272-1.101-3.372-1.579
		c-0.287-0.144-0.455-0.37-0.502-0.682c-0.048-0.311,0.047-0.562,0.287-0.753c0-0.047-0.025-0.072-0.072-0.072H39.272
		c-0.479,0-0.861,0.169-1.148,0.503c-0.814,0.909-1.579,1.698-2.296,2.367c-0.097,0.097-0.108,0.204-0.036,0.323
		c0.072,0.12,0.155,0.179,0.251,0.179H55.63C55.677,62.29,55.713,62.255,55.738,62.183z"/>
</g>
</svg>
