<?xml version="1.0" encoding="utf-8"?>
<!-- Generator: Adobe Illustrator 16.0.3, SVG Export Plug-In . SVG Version: 6.00 Build 0)  -->
<!DOCTYPE svg PUBLIC "-//W3C//DTD SVG 1.1//EN" "http://www.w3.org/Graphics/SVG/1.1/DTD/svg11.dtd">
<svg version="1.1" id="TPDV" xmlns="http://www.w3.org/2000/svg" xmlns:xlink="http://www.w3.org/1999/xlink" x="0px" y="0px"
	 width="160px" height="100px" viewBox="0 0 160 100" enable-background="new 0 0 160 100" xml:space="preserve">
<g>
	<path d="M55.738,62.183c0.023-0.071,0.011-0.131-0.036-0.179c-1.148-0.574-2.272-1.1-3.372-1.579
		c-0.287-0.144-0.455-0.369-0.502-0.682c-0.048-0.311,0.047-0.562,0.287-0.753c0-0.047-0.024-0.071-0.071-0.071H39.272
		c-0.479,0-0.861,0.168-1.148,0.502c-0.813,0.909-1.578,1.698-2.295,2.367c-0.097,0.097-0.108,0.204-0.036,0.323
		c0.072,0.12,0.155,0.179,0.251,0.179H55.63C55.677,62.29,55.713,62.255,55.738,62.183z"/>
	<path d="M27.578,41.484h32.716c0.478,0,0.717-0.239,0.717-0.717v-2.081c0-0.478-0.24-0.718-0.717-0.718H27.578
		c-0.479,0-0.717,0.24-0.717,0.718v2.081C26.86,41.246,27.099,41.484,27.578,41.484z"/>
	<path d="M135.021,5.57H24.835C11.251,5.57,0.24,16.582,0.24,30.165v40.336c0,13.583,11.012,24.595,24.595,24.595h110.186
		c13.584,0,24.596-11.012,24.596-24.595V30.165C159.616,16.582,148.604,5.57,135.021,5.57z M75.181,80.908
		c-0.455,0.454-1.017,0.682-1.686,0.682H14.52c-0.67,0-1.232-0.228-1.686-0.682c-0.455-0.455-0.682-1.017-0.682-1.686
		c0-0.671,0.227-1.232,0.682-1.687c0.454-0.454,1.016-0.682,1.686-0.682h25.039c0.478,0,0.717-0.238,0.717-0.717v-1.794
		c0-0.478-0.24-0.718-0.717-0.718H21.408c-0.622,0-1.137-0.215-1.542-0.646c-0.407-0.431-0.61-0.933-0.61-1.507
		c0-0.573,0.203-1.076,0.61-1.507c0.406-0.43,0.92-0.646,1.542-0.646h18.151c0.478,0,0.717-0.238,0.717-0.717v-1.579
		c0-0.478-0.24-0.692-0.717-0.646c-0.766,0-7.343,0.048-19.73,0.144c-0.622,0-1.16-0.203-1.614-0.609
		c-0.455-0.406-0.706-0.921-0.753-1.543c0-0.574,0.19-1.076,0.574-1.507c0.382-0.431,0.884-0.646,1.507-0.646l7.892,0.071
		c0.478,0,0.861-0.19,1.148-0.573c0.191-0.239,0.49-0.61,0.897-1.112c0.406-0.502,0.705-0.872,0.897-1.112
		c0.095-0.144,0.119-0.274,0.072-0.395c-0.048-0.118-0.144-0.179-0.287-0.179h-7.749c-0.527,0-0.993-0.191-1.399-0.574
		c-0.407-0.383-0.61-0.849-0.61-1.399c0-0.549,0.203-1.016,0.61-1.398c0.406-0.383,0.872-0.574,1.399-0.574h42.617
		c0.525,0,0.992,0.191,1.399,0.574c0.406,0.383,0.61,0.85,0.61,1.398c0,0.551-0.204,1.017-0.61,1.399
		c-0.407,0.383-0.874,0.574-1.399,0.574h-4.52c-0.097,0-0.144,0.035-0.144,0.107c0,0.071,0.023,0.132,0.072,0.179
		c3.108,1.531,5.978,3.134,8.609,4.808c0.574,0.383,0.884,0.921,0.933,1.614c0.047,0.693-0.192,1.255-0.717,1.686
		c-0.574,0.527-1.256,0.802-2.045,0.825c-0.789,0.024-1.519-0.18-2.188-0.609c-0.574-0.431-1.173-0.861-1.794-1.292
		c-0.335-0.19-0.694-0.287-1.076-0.287c-3.205,0.097-7.963,0.192-14.277,0.287c-0.479,0-0.717,0.24-0.717,0.718v1.65
		c0,0.479,0.239,0.717,0.717,0.717h19.371c0.574,0,1.064,0.216,1.471,0.646c0.406,0.431,0.61,0.934,0.61,1.507
		c0,0.574-0.204,1.076-0.61,1.507c-0.407,0.431-0.897,0.646-1.471,0.646H47.881c-0.479,0-0.717,0.24-0.717,0.718v1.794
		c0,0.479,0.239,0.717,0.717,0.717h25.613c0.669,0,1.231,0.228,1.686,0.682c0.454,0.454,0.682,1.016,0.682,1.687
		C75.862,79.892,75.634,80.453,75.181,80.908z M69.548,47.798c1.482,0,2.738,0.527,3.767,1.579c1.028,1.053,1.542,2.295,1.542,3.731
		v2.08c0,0.861-0.312,1.614-0.933,2.26c-0.622,0.646-1.388,0.969-2.296,0.969c-0.909,0-1.675-0.322-2.295-0.969
		c-0.623-0.646-0.933-1.398-0.933-2.26v-2.224c0-0.431-0.215-0.646-0.646-0.646H19.901c-0.43,0-0.646,0.215-0.646,0.646v2.367
		c0,0.861-0.299,1.591-0.897,2.188c-0.599,0.599-1.327,0.896-2.188,0.896s-1.591-0.298-2.188-0.896
		c-0.599-0.598-0.896-1.327-0.896-2.188v-2.224c0-1.436,0.513-2.678,1.542-3.731c1.028-1.052,2.283-1.579,3.767-1.579H69.548z
		 M20.475,39.763c0-1.482,0.525-2.75,1.578-3.803c1.052-1.051,2.343-1.578,3.875-1.578H62.23c1.53,0,2.822,0.527,3.875,1.578
		c1.051,1.053,1.578,2.321,1.578,3.803c0,1.483-0.527,2.751-1.578,3.802c-1.053,1.053-2.344,1.579-3.875,1.579H25.928
		c-1.531,0-2.823-0.526-3.875-1.579C21,42.514,20.475,41.246,20.475,39.763z M75.36,23.656c-0.431,0.455-0.958,0.682-1.579,0.682
		h-25.9c-0.479,0-0.717,0.24-0.717,0.717v1.722c0,0.479,0.239,0.717,0.717,0.717h20.447c0.621,0,1.136,0.204,1.543,0.61
		c0.406,0.407,0.609,0.897,0.609,1.471c0,0.574-0.204,1.065-0.609,1.471c-0.407,0.407-0.922,0.61-1.543,0.61H19.614
		c-0.623,0-1.137-0.203-1.543-0.61c-0.407-0.406-0.609-0.896-0.609-1.471c0-0.574,0.203-1.064,0.609-1.471
		c0.406-0.406,0.92-0.61,1.543-0.61h19.945c0.478,0,0.717-0.239,0.717-0.717v-1.722c0-0.478-0.24-0.717-0.717-0.717H14.233
		c-0.622,0-1.147-0.227-1.578-0.682c-0.431-0.454-0.646-0.992-0.646-1.614c0-0.621,0.215-1.148,0.646-1.578
		c0.431-0.431,0.956-0.646,1.578-0.646h25.613c0.287,0,0.43-0.144,0.43-0.43v-0.215c0-0.956,0.334-1.769,1.004-2.439
		c0.669-0.669,1.482-1.004,2.439-1.004c0.957,0,1.769,0.335,2.439,1.004c0.669,0.67,1.004,1.483,1.004,2.439v0.215
		c0,0.287,0.144,0.43,0.431,0.43h26.187c0.621,0,1.148,0.215,1.579,0.646c0.431,0.43,0.646,0.957,0.646,1.578
		C76.005,22.664,75.791,23.202,75.36,23.656z M110.658,79.007c0,0.956-0.348,1.781-1.04,2.476c-0.694,0.692-1.531,1.04-2.511,1.04
		c-0.981,0-1.818-0.348-2.512-1.04c-0.693-0.694-1.04-1.52-1.04-2.476V67.313c0-0.144-0.061-0.262-0.18-0.358
		c-0.12-0.096-0.275-0.119-0.466-0.072c-6.219,2.727-10.618,4.641-13.201,5.74c-0.479,0.191-0.958,0.287-1.436,0.287
		c-0.479,0-0.957-0.096-1.435-0.287c-1.004-0.383-1.722-1.052-2.152-2.009c-0.191-0.478-0.287-0.944-0.287-1.399
		c0-0.454,0.096-0.92,0.287-1.399c0.431-0.907,1.123-1.529,2.081-1.865c4.543-1.578,9.924-3.539,16.143-5.883
		c0.431-0.19,0.646-0.525,0.646-1.005V41.269c0-0.478-0.24-0.717-0.718-0.717H88.92c-0.958,0-1.758-0.334-2.403-1.004
		c-0.646-0.669-0.969-1.471-0.969-2.403s0.322-1.733,0.969-2.404c0.646-0.669,1.445-1.004,2.403-1.004h13.918
		c0.478,0,0.718-0.239,0.718-0.717V20.607c0-0.957,0.347-1.782,1.04-2.476c0.693-0.692,1.53-1.04,2.512-1.04
		c0.979,0,1.816,0.348,2.511,1.04c0.692,0.694,1.04,1.519,1.04,2.476V79.007z M149.113,78.361c-1.388,2.199-3.755,3.301-7.103,3.301
		h-10.905c-3.684,0-6.206-0.802-7.569-2.404c-1.362-1.603-2.044-4.603-2.044-9.004V20.678c0-1.004,0.346-1.853,1.04-2.547
		c0.692-0.692,1.542-1.04,2.547-1.04s1.853,0.348,2.547,1.04c0.692,0.694,1.04,1.542,1.04,2.547v18.869
		c0,0.144,0.06,0.251,0.18,0.323c0.119,0.072,0.251,0.084,0.395,0.036c4.639-2.917,8.992-6.002,13.058-9.255
		c0.765-0.574,1.602-0.861,2.511-0.861c0.144,0,0.263,0,0.359,0c1.1,0.096,1.983,0.55,2.654,1.363
		c0.574,0.67,0.861,1.435,0.861,2.296c0,0.144-0.025,0.312-0.072,0.502c-0.144,1.053-0.646,1.865-1.507,2.439
		c-4.831,3.253-10.786,6.816-17.864,10.69c-0.384,0.24-0.574,0.599-0.574,1.076v22.241c0,1.962,0.203,3.218,0.61,3.767
		c0.405,0.551,1.351,0.825,2.834,0.825h9.326c1.387,0,2.332-0.765,2.834-2.296c0.503-1.53,0.872-4.566,1.112-9.111
		c0.047-0.813,0.431-1.399,1.148-1.758c0.717-0.358,1.435-0.37,2.152-0.036c1.004,0.527,1.793,1.22,2.367,2.081
		c0.525,0.766,0.789,1.603,0.789,2.511C151.84,71.499,150.931,75.491,149.113,78.361z"/>
</g>
</svg>
