<?xml version="1.0" encoding="utf-8"?>
<!-- Generator: Adobe Illustrator 16.0.3, SVG Export Plug-In . SVG Version: 6.00 Build 0)  -->
<!DOCTYPE svg PUBLIC "-//W3C//DTD SVG 1.1//EN" "http://www.w3.org/Graphics/SVG/1.1/DTD/svg11.dtd">
<svg version="1.1" id="ULDV" xmlns="http://www.w3.org/2000/svg" xmlns:xlink="http://www.w3.org/1999/xlink" x="0px" y="0px"
	 width="160px" height="100px" viewBox="0 0 160 100" enable-background="new 0 0 160 100" xml:space="preserve">
<g>
	<path d="M54.698,72.837c-0.718-0.478-1.076-1.147-1.076-2.009c0-1.052,0.478-1.794,1.435-2.224c0.047-0.048,0.06-0.096,0.036-0.144
		c-0.025-0.048-0.061-0.072-0.108-0.072H37.694c-0.479,0-0.861,0.191-1.148,0.574c-1.292,1.962-2.751,3.922-4.376,5.883
		c-0.048,0.097-0.048,0.204,0,0.323c0.047,0.12,0.144,0.179,0.287,0.179c11.91-0.19,19.969-0.358,24.178-0.502
		c0.144,0,0.227-0.047,0.251-0.144c0.023-0.095-0.012-0.19-0.107-0.287C56.156,73.89,55.462,73.364,54.698,72.837z"/>
	<path d="M135.02,5.57H24.834C11.251,5.57,0.24,16.582,0.24,30.165v40.336c0,13.583,11.012,24.595,24.594,24.595h110.183
		c13.584,0,24.597-11.012,24.597-24.595l0.002-40.336C159.616,16.582,148.602,5.57,135.02,5.57z M12.655,34.382
		c0-1.723,0.61-3.193,1.83-4.413c1.22-1.219,2.69-1.829,4.412-1.829h20.734c0.478,0,0.718-0.238,0.718-0.717v-2.798
		c0-0.478-0.24-0.717-0.718-0.717H19.686c-0.766,0-1.412-0.262-1.938-0.789c-0.527-0.526-0.789-1.159-0.789-1.901
		c0-0.741,0.262-1.375,0.789-1.901c0.526-0.526,1.172-0.789,1.938-0.789h48.356c0.765,0,1.411,0.263,1.938,0.789
		c0.525,0.527,0.789,1.16,0.789,1.901c0,0.742-0.264,1.375-0.789,1.901c-0.527,0.527-1.173,0.789-1.938,0.789H47.738
		c-0.479,0-0.717,0.24-0.717,0.717v2.798c0,0.479,0.239,0.717,0.717,0.717h21.308c1.722,0,3.193,0.61,4.413,1.829
		c1.22,1.22,1.83,2.69,1.83,4.413v6.601c0,0.86-0.312,1.603-0.933,2.224c-0.623,0.622-1.363,0.933-2.224,0.933
		c-0.861,0-1.603-0.311-2.224-0.933c-0.623-0.621-0.933-1.363-0.933-2.224v-6.96c0-0.478-0.24-0.717-0.718-0.717H47.738
		c-0.479,0-0.717,0.239-0.717,0.717V47.87c0,0.908-0.323,1.686-0.969,2.331s-1.435,0.969-2.368,0.969s-1.722-0.323-2.368-0.969
		c-0.646-0.646-0.968-1.423-0.968-2.331V34.022c0-0.478-0.24-0.717-0.718-0.717h-20.16c-0.479,0-0.718,0.239-0.718,0.717v7.104
		c0,0.813-0.299,1.519-0.896,2.116c-0.599,0.599-1.316,0.896-2.152,0.896c-0.837,0-1.555-0.298-2.152-0.896
		c-0.599-0.598-0.897-1.303-0.897-2.116V34.382z M22.843,45.358h11.981c0.574,0,1.087,0.216,1.542,0.646
		c0.454,0.431,0.682,0.958,0.682,1.579c0,0.622-0.228,1.147-0.682,1.578c-0.455,0.431-0.969,0.646-1.542,0.646H22.843
		c-0.622,0-1.161-0.215-1.614-0.646c-0.455-0.431-0.682-0.956-0.682-1.578c0-0.621,0.227-1.148,0.682-1.579
		C21.682,45.574,22.221,45.358,22.843,45.358z M22.125,39.296c0-0.646,0.215-1.184,0.646-1.614c0.43-0.431,0.979-0.646,1.65-0.646
		h10.332c0.621,0,1.159,0.215,1.614,0.646c0.454,0.431,0.682,0.969,0.682,1.614s-0.228,1.184-0.682,1.614
		c-0.455,0.431-0.993,0.646-1.614,0.646H24.421c-0.67,0-1.22-0.215-1.65-0.646C22.34,40.479,22.125,39.941,22.125,39.296z
		 M22.197,53.753h43.549c0.669,0,1.256,0.251,1.758,0.753c0.502,0.503,0.753,1.101,0.753,1.794s-0.251,1.291-0.753,1.794
		c-0.502,0.502-1.088,0.753-1.758,0.753H22.197c-0.67,0-1.255-0.251-1.758-0.753c-0.502-0.503-0.753-1.101-0.753-1.794
		s0.251-1.291,0.753-1.794C20.941,54.004,21.526,53.753,22.197,53.753z M51.039,46.004c0.431-0.43,0.956-0.646,1.578-0.646h12.484
		c0.621,0,1.159,0.216,1.614,0.646c0.454,0.431,0.682,0.958,0.682,1.579c0,0.622-0.228,1.147-0.682,1.578
		c-0.455,0.431-0.993,0.646-1.614,0.646H52.617c-0.622,0-1.147-0.215-1.578-0.646s-0.646-0.956-0.646-1.578
		C50.393,46.962,50.608,46.435,51.039,46.004z M50.393,39.296c0-0.646,0.226-1.184,0.681-1.614c0.454-0.431,0.992-0.646,1.614-0.646
		h10.547c0.621,0,1.159,0.215,1.614,0.646c0.454,0.431,0.682,0.969,0.682,1.614s-0.228,1.184-0.682,1.614
		c-0.455,0.431-0.993,0.646-1.614,0.646H52.688c-0.622,0-1.16-0.215-1.614-0.646C50.619,40.479,50.393,39.941,50.393,39.296z
		 M75.934,67.636c-0.527,0.502-1.148,0.753-1.865,0.753H58.931c-0.144,0-0.228,0.048-0.251,0.144
		c-0.024,0.097,0.011,0.191,0.108,0.287c4.831,3.156,8.943,6.267,12.34,9.327c0.478,0.478,0.717,1.051,0.717,1.722
		c0,0.144,0,0.287,0,0.431c-0.144,0.86-0.599,1.481-1.363,1.865c-0.67,0.287-1.363,0.431-2.081,0.431
		c-0.287,0-0.574-0.025-0.861-0.072c-1.053-0.191-1.962-0.646-2.727-1.363c-0.191-0.191-0.43-0.431-0.717-0.717
		c-0.287-0.24-0.599-0.359-0.933-0.359c-9.949,0.431-24.681,0.933-44.195,1.507c-0.048,0-0.096,0-0.144,0
		c-0.766,0-1.459-0.264-2.081-0.789c-0.67-0.574-1.029-1.291-1.076-2.152c-0.048-0.527,0.036-1.017,0.251-1.471
		c0.215-0.454,0.549-0.825,1.004-1.112c0.454-0.287,0.944-0.431,1.471-0.431l5.237-0.071c0.478-0.047,0.836-0.263,1.076-0.646
		c1.292-1.865,2.511-3.826,3.659-5.884c0.095-0.144,0.095-0.287,0-0.43c-0.097-0.144-0.215-0.216-0.359-0.216H13.875
		c-0.717,0-1.34-0.251-1.865-0.753c-0.527-0.503-0.79-1.112-0.79-1.83c0-0.717,0.263-1.338,0.79-1.865
		c0.525-0.525,1.148-0.789,1.865-0.789h60.194c0.717,0,1.338,0.264,1.865,0.789c0.526,0.527,0.789,1.148,0.789,1.865
		C76.723,66.523,76.46,67.133,75.934,67.636z M111.233,56.049c-0.861-0.047-1.532-0.431-2.01-1.148
		c-1.435-2.104-3.037-4.399-4.807-6.888c-0.097-0.095-0.191-0.118-0.287-0.071c-0.096,0.048-0.144,0.12-0.144,0.215v31.568
		c0,0.956-0.335,1.758-1.004,2.403c-0.671,0.646-1.46,0.969-2.368,0.969c-0.909,0-1.698-0.323-2.367-0.969
		c-0.67-0.646-1.005-1.447-1.005-2.403v-28.77c0-0.048-0.035-0.083-0.107-0.108c-0.071-0.023-0.107-0.011-0.107,0.036
		c-2.583,6.697-5.31,12.149-8.179,16.358c-0.431,0.622-1.005,0.933-1.722,0.933c-0.097,0-0.191,0-0.287,0
		c-0.861-0.096-1.507-0.526-1.938-1.292c-0.479-0.86-0.717-1.769-0.717-2.726c0-0.144,0-0.263,0-0.359
		c0.095-1.147,0.453-2.152,1.076-3.013c2.199-2.966,4.243-6.445,6.134-10.439c1.889-3.993,3.408-7.975,4.556-11.945
		c0.047-0.19,0.023-0.358-0.071-0.502c-0.097-0.144-0.24-0.216-0.431-0.216h-7.39c-0.861,0-1.614-0.311-2.261-0.933
		c-0.646-0.621-0.969-1.387-0.969-2.296c0-0.908,0.323-1.674,0.969-2.296c0.646-0.621,1.399-0.933,2.261-0.933h8.466
		c0.478,0,0.717-0.238,0.717-0.718V19.028c0-0.908,0.335-1.686,1.005-2.332c0.669-0.646,1.458-0.969,2.367-0.969
		c0.908,0,1.697,0.323,2.368,0.969c0.669,0.646,1.004,1.424,1.004,2.332v11.479c0,0.479,0.239,0.718,0.718,0.718h6.026
		c0.861,0,1.614,0.312,2.26,0.933c0.646,0.622,0.969,1.388,0.969,2.296c0,0.909-0.322,1.675-0.969,2.296
		c-0.646,0.622-1.398,0.933-2.26,0.933h-6.026c-0.479,0-0.718,0.24-0.718,0.718c0,0.479,0.167,0.909,0.503,1.291
		c1.769,1.771,4.663,4.976,8.681,9.614c0.718,0.86,1.076,1.865,1.076,3.013c0,1.005-0.312,1.914-0.933,2.727
		c-0.479,0.671-1.124,1.005-1.938,1.005C111.328,56.049,111.28,56.049,111.233,56.049z M150.334,65.662
		c-0.097,1.053-0.502,1.938-1.22,2.655c-0.622,0.67-1.388,1.004-2.296,1.004h-0.071c-0.958-0.047-1.675-0.454-2.152-1.22
		c-2.87-4.543-5.573-10.45-8.107-17.721c-0.048-0.047-0.107-0.06-0.18-0.036c-0.071,0.024-0.107,0.061-0.107,0.107v29.2
		c0,0.957-0.335,1.77-1.004,2.439c-0.671,0.67-1.472,1.005-2.404,1.005s-1.733-0.335-2.403-1.005s-1.004-1.482-1.004-2.439v-28.77
		c0-0.095-0.036-0.144-0.107-0.144c-0.072,0-0.133,0.024-0.18,0.072c-3.301,7.796-7.031,14.182-11.192,19.155
		c-0.479,0.574-1.076,0.861-1.794,0.861c-0.144,0-0.287,0-0.431,0c-0.86-0.144-1.555-0.598-2.08-1.363
		c-0.479-0.765-0.718-1.602-0.718-2.511c0-1.195,0.383-2.248,1.148-3.157c2.869-3.252,5.524-7.126,7.964-11.622
		c2.438-4.496,4.423-9.088,5.954-13.775c0.048-0.19,0.012-0.358-0.107-0.502c-0.12-0.144-0.251-0.216-0.395-0.216h-7.461
		c-0.909,0-1.675-0.311-2.296-0.933c-0.623-0.621-0.933-1.387-0.933-2.296c0-0.908,0.31-1.674,0.933-2.296
		c0.621-0.621,1.387-0.933,2.296-0.933h8.681c0.478,0,0.718-0.238,0.718-0.718V19.1c0-0.908,0.334-1.697,1.004-2.368
		c0.67-0.669,1.471-1.004,2.403-1.004s1.733,0.335,2.404,1.004c0.669,0.67,1.004,1.46,1.004,2.368v11.407
		c0,0.479,0.239,0.718,0.718,0.718h9.47c0.908,0,1.687,0.312,2.332,0.933c0.646,0.622,0.969,0.933,0.969,0.933s0,0.455,0,1.363
		c0,0.909-0.323,1.675-0.969,2.296c-0.646,0.622-1.424,0.933-2.332,0.933h-7.819c-0.192,0-0.348,0.072-0.467,0.216
		c-0.12,0.144-0.132,0.312-0.036,0.502c3.061,10.044,6.888,18.224,11.479,24.537c0.525,0.717,0.789,1.506,0.789,2.367
		C150.334,65.447,150.334,65.567,150.334,65.662z"/>
</g>
</svg>
