<?xml version="1.0" encoding="utf-8"?>
<!-- Generator: Adobe Illustrator 16.0.3, SVG Export Plug-In . SVG Version: 6.00 Build 0)  -->
<!DOCTYPE svg PUBLIC "-//W3C//DTD SVG 1.1//EN" "http://www.w3.org/Graphics/SVG/1.1/DTD/svg11.dtd">
<svg version="1.1" id="elseIsland" xmlns="http://www.w3.org/2000/svg" xmlns:xlink="http://www.w3.org/1999/xlink" x="0px" y="0px"
	 width="160px" height="100px" viewBox="0 0 160 100" enable-background="new 0 0 160 100" xml:space="preserve">
<g>
	<path d="M61.872,49.95h-5.883c-0.479,0-0.717,0.24-0.717,0.718v7.317c0,0.479,0.239,0.718,0.717,0.718h5.883
		c0.478,0,0.717-0.238,0.717-0.718v-7.317C62.589,50.19,62.35,49.95,61.872,49.95z"/>
	<path d="M61.872,35.602h-5.883c-0.479,0-0.717,0.239-0.717,0.717v7.104c0,0.479,0.239,0.717,0.717,0.717h5.883
		c0.478,0,0.717-0.238,0.717-0.717v-7.104C62.589,35.841,62.35,35.602,61.872,35.602z"/>
	<path d="M61.872,64.515h-5.883c-0.479,0-0.717,0.24-0.717,0.718v7.461c0,0.479,0.239,0.718,0.717,0.718h5.883
		c0.478,0,0.717-0.239,0.717-0.718v-7.461C62.589,64.755,62.35,64.515,61.872,64.515z"/>
	<path d="M134.904,5.5H25.096C11.512,5.5,0.5,16.511,0.5,30.095v40.809C0.5,84.488,11.512,95.5,25.096,95.5h109.808
		c13.584,0,24.596-11.012,24.596-24.596h0.001V30.095C159.501,16.511,148.488,5.5,134.904,5.5z M10.359,24.624
		c0-0.764,0.275-1.41,0.825-1.937c0.549-0.526,1.184-0.789,1.901-0.789h11.049c0.43,0,0.646-0.215,0.646-0.646V19.1
		c0-0.908,0.323-1.686,0.969-2.332c0.646-0.646,1.422-0.969,2.332-0.969c0.908,0,1.686,0.323,2.332,0.969
		c0.646,0.646,0.969,1.424,0.969,2.332v2.152c0,0.431,0.215,0.646,0.646,0.646h11.192c0.765,0,1.422,0.263,1.973,0.789
		c0.549,0.527,0.825,1.173,0.825,1.937c0,0.766-0.276,1.424-0.825,1.973c-0.551,0.55-1.208,0.825-1.973,0.825H13.085
		c-0.718,0-1.352-0.275-1.901-0.825C10.634,26.048,10.359,25.39,10.359,24.624z M24.852,36.893
		c-1.053-0.669-2.034-1.267-2.941-1.794c-0.431-0.287-0.694-0.682-0.79-1.184c-0.096-0.502,0.023-0.969,0.359-1.398
		c0.431-0.431,0.933-0.706,1.507-0.825c0.574-0.119,1.123-0.036,1.65,0.251c0.908,0.526,1.841,1.076,2.798,1.65
		c0.334,0.239,0.621,0.191,0.861-0.144c0.525-0.813,1.028-1.65,1.506-2.512c0.287-0.621,0.741-1.076,1.363-1.363
		c0.621-0.286,1.243-0.358,1.865-0.215c0.621,0.191,1.064,0.563,1.328,1.112c0.262,0.55,0.251,1.088-0.036,1.614
		c-0.67,1.244-1.435,2.487-2.296,3.73c-0.24,0.384-0.191,0.694,0.144,0.933c1.1,0.766,2.009,1.435,2.727,2.009
		c0.478,0.384,0.741,0.897,0.789,1.543c0.047,0.646-0.12,1.208-0.502,1.686c-0.383,0.479-0.885,0.742-1.506,0.789
		c-0.622,0.049-1.148-0.118-1.579-0.502c-0.814-0.718-1.675-1.41-2.583-2.08c-0.335-0.239-0.646-0.216-0.933,0.071
		c-1.147,1.34-2.344,2.56-3.587,3.659c-0.527,0.431-1.125,0.635-1.794,0.609c-0.67-0.023-1.291-0.251-1.865-0.682
		c-0.431-0.334-0.658-0.789-0.682-1.363c-0.024-0.573,0.203-1.027,0.682-1.362c1.148-1.005,2.343-2.152,3.587-3.444
		C25.21,37.395,25.186,37.133,24.852,36.893z M76.903,78.685c-0.599,0.598-1.328,0.896-2.188,0.896H55.63
		c-0.24,0-0.359,0.119-0.359,0.358v0.287c0,0.861-0.299,1.59-0.897,2.188c-0.599,0.598-1.327,0.896-2.188,0.896
		s-1.591-0.299-2.188-0.896c-0.599-0.599-0.896-1.327-0.896-2.188V43.995c0-0.095-0.036-0.144-0.108-0.144s-0.132,0.025-0.179,0.072
		c-0.527,0.909-1.34,1.435-2.439,1.578c-0.191,0-0.358,0-0.502,0c-0.909,0-1.722-0.311-2.439-0.933
		c-0.097-0.096-0.215-0.167-0.359-0.215c-0.048-0.096-0.12-0.119-0.215-0.072c-0.096,0.049-0.143,0.12-0.143,0.216v0.143
		c0,1.532-0.551,2.847-1.65,3.946c-1.101,1.101-2.416,1.65-3.946,1.65h-5.596c-0.479,0-0.766,0.24-0.861,0.718l-0.574,2.941
		c0,0.191,0.06,0.358,0.179,0.502c0.119,0.144,0.251,0.215,0.395,0.215h7.605c1.722,0,3.192,0.599,4.412,1.794
		c1.22,1.196,1.83,2.68,1.83,4.448v16.286c0,1.387-0.168,2.476-0.502,3.265c-0.335,0.789-0.981,1.398-1.937,1.829
		c-1.244,0.574-3.42,0.885-6.529,0.933c-0.766,0-1.459-0.251-2.081-0.753c-0.622-0.502-1.076-1.137-1.363-1.901
		c-0.191-0.574-0.12-1.124,0.215-1.65c0.334-0.526,0.836-0.789,1.507-0.789c0.525,0,1.004,0,1.435,0
		c1.195,0,2.009-0.024,2.439-0.071c0.382,0,0.646-0.061,0.789-0.18c0.144-0.12,0.215-0.371,0.215-0.753V60.425
		c0-0.478-0.24-0.717-0.717-0.717h-8.394c-0.479,0-0.766,0.239-0.861,0.717c-0.43,2.105-0.933,4.377-1.506,6.816
		c-0.048,0.191-0.013,0.358,0.107,0.502c0.119,0.144,0.251,0.191,0.395,0.144l3.946-0.216c0.334,0,0.454-0.167,0.358-0.502
		c-0.335-0.813-0.622-1.53-0.861-2.152c-0.24-0.478-0.251-0.943-0.036-1.398c0.215-0.454,0.585-0.754,1.112-0.897
		c0.526-0.19,1.052-0.167,1.579,0.072c0.525,0.239,0.884,0.622,1.076,1.147c1.243,2.727,2.199,5.31,2.87,7.749
		c0.19,0.573,0.131,1.124-0.179,1.649c-0.312,0.527-0.753,0.886-1.328,1.076c-0.527,0.192-1.029,0.144-1.506-0.144
		c-0.479-0.286-0.789-0.717-0.933-1.291c-0.048-0.287-0.12-0.549-0.215-0.789c-0.048-0.239-0.192-0.334-0.431-0.287
		c-5.979,0.479-9.806,0.789-11.479,0.933c-0.67,0.048-1.256-0.131-1.758-0.538c-0.502-0.405-0.802-0.943-0.897-1.614
		c-0.048-0.669,0.131-1.243,0.538-1.722c0.406-0.478,0.944-0.718,1.614-0.718l0.574-0.071c0.239,0,0.382-0.119,0.43-0.359
		c0.382-1.673,0.861-4.136,1.435-7.39c0-0.19-0.061-0.358-0.179-0.502c-0.12-0.144-0.276-0.215-0.466-0.215h-4.807
		c-0.479,0-0.717,0.239-0.717,0.717v20.089c0,0.765-0.264,1.423-0.79,1.973c-0.527,0.55-1.184,0.825-1.973,0.825
		c-0.79,0-1.447-0.275-1.973-0.825c-0.527-0.55-0.789-1.208-0.789-1.973V60.855c0-1.769,0.597-3.252,1.793-4.448
		c1.195-1.195,2.678-1.794,4.448-1.794h5.668c0.478,0,0.741-0.238,0.789-0.717c0.095-0.718,0.215-1.697,0.359-2.941
		c0-0.191-0.061-0.359-0.18-0.503c-0.12-0.144-0.275-0.215-0.466-0.215h-4.376c-1.722,0-3.192-0.61-4.412-1.829
		c-1.22-1.22-1.83-2.691-1.83-4.413V32.373c0-0.67,0.239-1.256,0.717-1.758c0.478-0.503,1.064-0.754,1.758-0.754
		c0.693,0,1.279,0.251,1.758,0.754c0.478,0.502,0.718,1.088,0.718,1.758v12.411c0,0.479,0.239,0.718,0.717,0.718h17.506
		c0.478,0,0.717-0.238,0.717-0.718v-12.34c0-0.718,0.251-1.327,0.753-1.829c0.502-0.503,1.1-0.754,1.793-0.754
		c0.693,0,1.292,0.251,1.794,0.754c0.502,0.502,0.753,1.111,0.753,1.829v8.538c0,0.144,0.047,0.228,0.143,0.251
		c0.096,0.024,0.167-0.012,0.215-0.107c3.97-5.835,7.222-13.249,9.757-22.241c0.239-0.861,0.741-1.53,1.507-2.009
		c0.526-0.287,1.076-0.43,1.65-0.43c0.239,0,0.502,0.024,0.79,0.072c0.813,0.191,1.458,0.67,1.937,1.435
		c0.239,0.479,0.359,0.981,0.359,1.507c0,0.287-0.048,0.574-0.144,0.861c-0.909,2.966-1.89,5.812-2.942,8.538
		c-0.048,0.144-0.024,0.287,0.072,0.431c0.095,0.143,0.239,0.215,0.431,0.215h5.237c0.478,0,0.813-0.215,1.004-0.646
		c1.052-2.774,2.033-5.812,2.942-9.112c0.239-0.908,0.741-1.602,1.506-2.081c0.574-0.334,1.148-0.502,1.722-0.502
		c0.239,0,0.502,0.025,0.789,0.072c0.861,0.192,1.482,0.67,1.865,1.435c0.287,0.479,0.431,0.957,0.431,1.435
		c0,0.335-0.072,0.67-0.215,1.004c-1.196,3.349-2.152,5.932-2.87,7.749c-0.097,0.144-0.097,0.287,0,0.431
		c0.095,0.143,0.239,0.215,0.43,0.215h4.592c0.861,0,1.59,0.299,2.188,0.896c0.598,0.599,0.897,1.316,0.897,2.152
		c0,0.838-0.299,1.555-0.897,2.152c-0.598,0.599-1.327,0.897-2.188,0.897h-4.807c-0.479,0-0.717,0.239-0.717,0.717v7.104
		c0,0.479,0.239,0.717,0.717,0.717h4.233c0.813,0,1.506,0.287,2.081,0.861c0.574,0.574,0.861,1.256,0.861,2.045
		s-0.287,1.471-0.861,2.044c-0.574,0.574-1.268,0.861-2.081,0.861h-4.233c-0.479,0-0.717,0.24-0.717,0.718v7.317
		c0,0.479,0.239,0.718,0.717,0.718h4.233c0.813,0,1.506,0.287,2.081,0.861c0.574,0.573,0.861,1.255,0.861,2.044
		c0,0.79-0.287,1.472-0.861,2.045c-0.574,0.574-1.268,0.861-2.081,0.861h-4.233c-0.479,0-0.717,0.24-0.717,0.718v7.461
		c0,0.479,0.239,0.718,0.717,0.718h5.596c0.861,0,1.59,0.299,2.188,0.896c0.597,0.599,0.896,1.327,0.896,2.188
		S77.5,78.086,76.903,78.685z M149.509,53.573c-0.502,0.502-1.111,0.754-1.829,0.754h-46.204c-0.479,0-0.718,0.239-0.718,0.717
		v3.157c0,0.479,0.239,0.717,0.718,0.717h39.962c1.674,0,3.085,0.623,4.233,1.866c1.004,1.053,1.507,2.296,1.507,3.73
		c0,0.191-0.025,0.407-0.072,0.646c-0.431,4.735-0.933,8.322-1.507,10.762c-0.573,2.439-1.268,4.137-2.08,5.094
		c-1.196,1.148-2.774,1.841-4.735,2.081c-0.909,0.095-2.105,0.144-3.587,0.144c-0.671,0-1.389,0-2.152,0
		c-0.861-0.049-1.604-0.371-2.225-0.969c-0.622-0.599-1.076-1.352-1.363-2.26c-0.191-0.622-0.084-1.209,0.323-1.758
		c0.405-0.551,0.92-0.802,1.542-0.754c1.243,0.048,2.63,0.072,4.161,0.072c1.052,0,1.866-0.239,2.439-0.718
		c1.052-1.147,1.913-5.165,2.583-12.053c0-0.19-0.061-0.359-0.18-0.502c-0.119-0.144-0.275-0.216-0.466-0.216h-28.124
		c-0.479,0-0.718,0.24-0.718,0.718v7.892c0,0.479,0.239,0.718,0.718,0.718h9.184c0.478,0,0.717-0.239,0.717-0.718v-3.587
		c0-0.861,0.311-1.603,0.933-2.225c0.621-0.621,1.363-0.933,2.225-0.933c0.86,0,1.59,0.312,2.188,0.933
		c0.597,0.622,0.896,1.363,0.896,2.225v3.3c0,1.723-0.61,3.193-1.829,4.413c-1.22,1.219-2.691,1.829-4.413,1.829H94.301
		c-0.239,0-0.358,0.119-0.358,0.358c0,0.861-0.3,1.603-0.896,2.225c-0.599,0.621-1.328,0.933-2.188,0.933h-0.072
		c-0.86,0-1.603-0.312-2.224-0.933c-0.622-0.622-0.933-1.363-0.933-2.225V69.25c0-0.861,0.311-1.603,0.933-2.225
		c0.621-0.621,1.374-0.933,2.26-0.933c0.885,0,1.626,0.312,2.225,0.933c0.597,0.622,0.896,1.363,0.896,2.225v3.443
		c0,0.479,0.238,0.718,0.718,0.718h9.326c0.478,0,0.718-0.239,0.718-0.718v-7.892c0-0.478-0.24-0.718-0.718-0.718h-3.802
		c-1.723,0-3.193-0.609-4.413-1.829s-1.829-2.69-1.829-4.413V27.709c0-1.722,0.609-3.192,1.829-4.412s2.69-1.83,4.413-1.83h9.9
		c0.431,0,0.718-0.215,0.861-0.646c0.144-0.478,0.287-0.957,0.43-1.435c0.383-1.1,1.052-1.984,2.01-2.655
		c0.813-0.574,1.697-0.861,2.654-0.861c0.144,0,0.311,0,0.502,0c0.956,0.097,1.674,0.574,2.152,1.435
		c0.239,0.479,0.358,0.933,0.358,1.363c0,0.43-0.096,0.861-0.286,1.292c-0.192,0.287-0.384,0.599-0.574,0.933
		c-0.049,0.144-0.036,0.275,0.036,0.395c0.071,0.12,0.154,0.179,0.251,0.179h14.564c1.722,0,3.192,0.61,4.412,1.83
		s1.829,2.69,1.829,4.412v10.978c0,1.722-0.609,3.192-1.829,4.412s-2.69,1.829-4.412,1.829h-31.568c-0.479,0-0.718,0.24-0.718,0.718
		v2.87c0,0.479,0.239,0.717,0.718,0.717h46.204c0.718,0,1.327,0.252,1.829,0.754c0.503,0.502,0.754,1.101,0.754,1.793
		C150.263,52.474,150.012,53.071,149.509,53.573z"/>
	<path d="M101.476,40.121h30.276c0.478,0,0.718-0.238,0.718-0.718v-3.3c0-0.478-0.24-0.718-0.718-0.718h-30.276
		c-0.479,0-0.718,0.24-0.718,0.718v3.3C100.758,39.883,100.997,40.121,101.476,40.121z"/>
	<path d="M101.476,31.01h30.276c0.478,0,0.718-0.239,0.718-0.718v-3.229c0-0.478-0.24-0.717-0.718-0.717h-30.276
		c-0.479,0-0.718,0.24-0.718,0.717v3.229C100.758,30.771,100.997,31.01,101.476,31.01z"/>
</g>
</svg>
